<?xml version="1.0" encoding="utf-8"?>
<!-- Generator: Adobe Illustrator 22.0.0, SVG Export Plug-In . SVG Version: 6.00 Build 0)  -->
<svg version="1.1" id="Layer_1" xmlns="http://www.w3.org/2000/svg" xmlns:xlink="http://www.w3.org/1999/xlink" x="0px" y="0px"
	 viewBox="0 0 110 91.3" style="enable-background:new 0 0 110 91.3;" xml:space="preserve">
<style type="text/css">
	.st0{fill:#43A742;}
	.st1{fill:#E6672B;}
	.st2{fill:#5AB8C7;}
	.st3{fill:#F1B435;}
	.st4{fill:#383838;}
	.st5{fill:#3080BC;}
	.st6{fill:#824290;}
	.st7{opacity:0.32;}
</style>
<g>
	<g>
		<path class="st0" d="M-723.6,88.4c-6.4,0-12.9-1.6-18.9-4.8c-9-4.7-16.2-12-22-18.5c-1-1.1-0.9-2.9,0.2-3.9c1.1-1,2.9-0.9,3.9,0.2
			c5.5,6.1,12.2,12.9,20.5,17.2c8.3,4.3,17.6,5.3,25.5,2.7c1.5-0.5,3,0.3,3.5,1.8c0.5,1.5-0.3,3-1.8,3.5
			C-716.2,87.8-719.9,88.4-723.6,88.4z"/>
	</g>
	<g>
		<path class="st0" d="M-727.3,78c-0.3,0-0.5,0-0.8-0.1c-18.1-5.5-29.9-15.9-35.1-30.8c-0.5-1.5,0.3-3,1.7-3.5
			c1.5-0.5,3,0.3,3.5,1.7c4.6,13.3,14.9,22.2,31.4,27.3c1.5,0.4,2.3,2,1.8,3.5C-725,77.2-726.1,78-727.3,78z"/>
	</g>
	<g>
		<path class="st0" d="M-723.1,67.7c-0.2,0-0.4,0-0.6-0.1c-15.6-3.1-29.2-15.6-34.1-31.1c-0.5-1.5,0.4-3,1.8-3.5
			c1.5-0.5,3,0.4,3.5,1.8c4.2,13.6,16.2,24.5,29.8,27.3c1.5,0.3,2.5,1.8,2.2,3.3C-720.7,66.8-721.8,67.7-723.1,67.7z"/>
	</g>
	<g>
		<path class="st0" d="M-699.5,77.1c-2.4,0-4.5-0.9-5.9-2.5c-1.3-1.5-1.9-3.6-1.8-6.4c0.2-4.9,1.9-9.4,3.5-13.2c0.4-1,1-2.1,1.7-3.2
			c1.8-3.1,4.4-7.8,2.7-9.5c-0.3-0.3-0.8-0.7-1.2-0.7c-0.2,0-1.4,0.2-3.3,3c-0.7,1-1.3,2.1-1.9,3.3c-1.9,3.5-4.2,7.9-9.1,9.2
			c-8.4,2.1-16.8-4.3-20.1-7.2c-3.9-3.4-7.3-7.8-10.8-13.9c-0.8-1.3-0.3-3,1-3.8c1.3-0.8,3-0.3,3.8,1c3.2,5.5,6.3,9.5,9.7,12.5
			c2,1.8,9.1,7.5,15,6c2.6-0.7,4-3.4,5.6-6.4c0.7-1.3,1.4-2.7,2.3-3.9c2.4-3.4,4.8-5.2,7.4-5.4c1.4-0.1,3.5,0.2,5.6,2.4
			c4.6,4.7,0.7,11.6-1.9,16.2c-0.6,1-1.1,2-1.5,2.7c-1.4,3.3-2.9,7.2-3.1,11.1c0,1.3,0.1,2.2,0.5,2.6c0.6,0.7,2.2,0.7,3.8,0.1
			c2.7-1,5.1-3.1,7-5c9.5-9.2,16.1-21.1,19.1-34.2c0.3-1.5,1.8-2.4,3.3-2.1c1.5,0.3,2.4,1.8,2.1,3.3c-3.2,14.2-10.4,27-20.7,37
			c-2.4,2.3-5.3,4.8-8.9,6.2C-696.8,76.8-698.2,77.1-699.5,77.1z"/>
	</g>
</g>
<g>
	<g>
		<g>
			<path class="st1" d="M-218.9,11.7c-0.5,0-1.1-0.2-1.6-0.5c-1.3-0.9-1.6-2.6-0.7-3.9c5.5-8.1,14.8-13.9,25.4-15.8
				c10-1.8,20.1-0.4,28.7,1.1c1.5,0.3,2.5,1.7,2.2,3.2c-0.3,1.5-1.7,2.5-3.2,2.2c-8.1-1.5-17.6-2.8-26.7-1.1
				c-9.2,1.7-17.1,6.6-21.8,13.5C-217.1,11.3-218,11.7-218.9,11.7z"/>
		</g>
		<g>
			<path class="st1" d="M-158.5,12.9c-0.5,0-1-0.1-1.5-0.5c-11.8-7.7-25.4-8.5-41.6-2.3c-1.4,0.5-3-0.2-3.6-1.6
				c-0.5-1.4,0.2-3,1.6-3.6c17.7-6.7,33.4-5.8,46.6,2.9c1.3,0.8,1.6,2.6,0.8,3.8C-156.7,12.4-157.6,12.9-158.5,12.9z"/>
		</g>
		<g>
			<path class="st1" d="M-156.5,24.5c-0.6,0-1.1-0.2-1.6-0.5c-11.6-8.1-27.8-9.5-40.3-3.3c-1.4,0.7-3,0.1-3.7-1.3
				c-0.7-1.4-0.1-3,1.3-3.7c14.2-7,32.7-5.5,46,3.7c1.3,0.9,1.6,2.6,0.7,3.9C-154.7,24.1-155.6,24.5-156.5,24.5z"/>
		</g>
		<g>
			<path class="st1" d="M-222.9,80c-1,0-2-0.6-2.5-1.6c-6.2-13.2-8.3-27.7-6.3-41.9c0.5-3.2,1.2-7,3.3-10.4c2.2-3.6,5.7-5.5,9-4.8
				c2,0.4,3.7,1.7,5.3,3.9c2.9,4,4.3,8.6,5.3,12.6c0.3,1,0.4,2.3,0.6,3.6c0.5,3.5,1.3,8.9,3.7,9.2c0.5,0.1,1.1,0.1,1.4-0.2
				c0.2-0.1,0.9-1,0.8-4.4c-0.1-1.2-0.3-2.4-0.5-3.8c-0.7-3.9-1.5-8.8,1.6-12.8c5.3-6.8,16-6.9,20.3-6.6c5.2,0.3,10.6,1.7,17,4.3
				c1.4,0.6,2.1,2.2,1.5,3.6c-0.6,1.4-2.2,2.1-3.6,1.5c-5.9-2.4-10.7-3.6-15.3-3.9c-2.7-0.2-11.8-0.4-15.5,4.5
				c-1.6,2.1-1.1,5.2-0.5,8.5c0.2,1.5,0.5,3,0.6,4.4c0.2,4.2-0.6,7-2.5,8.8c-1,1-2.9,2-5.9,1.6c-6.5-0.9-7.7-8.7-8.4-13.9
				c-0.2-1.2-0.3-2.3-0.5-3.1c-0.9-3.5-2.1-7.5-4.4-10.7c-0.8-1-1.4-1.6-2-1.8c-0.9-0.2-2.2,0.8-3.1,2.2c-1.5,2.5-2.1,5.6-2.5,8.2
				c-1.9,13.1,0.1,26.5,5.8,38.8c0.6,1.4,0,3-1.3,3.7C-222.1,79.9-222.5,80-222.9,80z"/>
		</g>
	</g>
	<g>
		<g>
			<path class="st1" d="M-188.1,100.7c-6.5,0-12.9-0.9-18.5-2c-1.5-0.3-2.5-1.7-2.2-3.2c0.3-1.5,1.7-2.5,3.2-2.2
				c8.1,1.5,17.6,2.8,26.7,1.1c9.2-1.7,17.1-6.6,21.8-13.5c0.9-1.3,2.6-1.6,3.9-0.7c1.3,0.9,1.6,2.6,0.7,3.9
				c-5.5,8.1-14.8,13.9-25.4,15.8C-181.3,100.4-184.7,100.7-188.1,100.7z"/>
		</g>
		<g>
			<path class="st1" d="M-192.1,90.9c-8.9,0-17.1-2.4-24.5-7.3c-1.3-0.8-1.6-2.6-0.8-3.8c0.8-1.3,2.6-1.6,3.8-0.8
				c11.8,7.7,25.4,8.5,41.6,2.3c1.4-0.5,3,0.2,3.6,1.6c0.5,1.4-0.2,3-1.6,3.6C-177.8,89.4-185.2,90.9-192.1,90.9z"/>
		</g>
		<g>
			<path class="st1" d="M-192.3,80c-9.3,0-18.8-2.8-26.5-8.1c-1.3-0.9-1.6-2.6-0.7-3.9s2.6-1.6,3.9-0.7c11.6,8.1,27.8,9.5,40.3,3.3
				c1.4-0.7,3-0.1,3.7,1.3c0.7,1.4,0.1,3-1.3,3.7C-178.8,78.6-185.5,80-192.3,80z"/>
		</g>
		<g>
			<path class="st1" d="M-152.8,70.1c-0.5,0-0.9,0-1.4-0.1c-2-0.4-3.7-1.7-5.3-3.9c-2.9-4-4.3-8.6-5.3-12.6c-0.3-1-0.4-2.3-0.6-3.6
				c-0.5-3.5-1.3-8.9-3.7-9.2c-0.5-0.1-1.1-0.1-1.4,0.2c-0.2,0.1-0.9,1-0.8,4.4c0.1,1.2,0.3,2.4,0.5,3.8c0.7,3.9,1.5,8.8-1.6,12.8
				c-5.3,6.8-16,6.9-20.3,6.6c-5.2-0.3-10.6-1.7-17-4.3c-1.4-0.6-2.1-2.2-1.5-3.6c0.6-1.4,2.2-2.1,3.6-1.5
				c5.9,2.4,10.7,3.6,15.3,3.9c2.7,0.2,11.8,0.4,15.5-4.5c1.6-2.1,1.1-5.2,0.5-8.5c-0.2-1.5-0.5-3-0.6-4.4c-0.2-4.2,0.6-7,2.5-8.8
				c1-1,2.9-2,5.9-1.6c6.5,0.9,7.7,8.7,8.4,13.9c0.2,1.2,0.3,2.3,0.5,3.1c0.9,3.5,2.1,7.5,4.4,10.7c0.8,1,1.4,1.6,2,1.8
				c0.9,0.2,2.2-0.8,3.1-2.2c1.5-2.5,2.1-5.6,2.5-8.2c1.9-13.1-0.1-26.5-5.8-38.8c-0.6-1.4,0-3,1.3-3.7c1.4-0.6,3,0,3.7,1.3
				c6.2,13.2,8.3,27.7,6.3,41.9c-0.5,3.2-1.2,7-3.3,10.4C-147.1,68.3-149.9,70.1-152.8,70.1z"/>
		</g>
	</g>
</g>
<g>
	<g>
		<g>
			<path class="st2" d="M-426.4,23.4c-0.5,0-1.1-0.2-1.6-0.5c-1.3-0.9-1.6-2.6-0.7-3.9c5.5-8.1,14.8-13.9,25.4-15.8
				c10-1.8,20.1-0.4,28.7,1.1c1.5,0.3,2.5,1.7,2.2,3.2s-1.7,2.5-3.2,2.2c-8.1-1.5-17.6-2.8-26.7-1.1c-9.2,1.7-17.1,6.6-21.8,13.5
				C-424.6,23-425.5,23.4-426.4,23.4z"/>
		</g>
		<g>
			<path class="st2" d="M-366,24.6c-0.5,0-1-0.1-1.5-0.5c-11.8-7.7-25.4-8.5-41.6-2.3c-1.4,0.5-3-0.2-3.6-1.6
				c-0.5-1.4,0.2-3,1.6-3.6c17.7-6.7,33.4-5.8,46.6,2.9c1.3,0.8,1.6,2.6,0.8,3.8C-364.2,24.1-365.1,24.6-366,24.6z"/>
		</g>
		<g>
			<path class="st2" d="M-364,36.2c-0.6,0-1.1-0.2-1.6-0.5c-11.6-8.1-27.8-9.5-40.3-3.3c-1.4,0.7-3,0.1-3.7-1.3
				c-0.7-1.4-0.1-3,1.3-3.7c14.2-7,32.7-5.5,46,3.7c1.3,0.9,1.6,2.6,0.7,3.9C-362.3,35.8-363.1,36.2-364,36.2z"/>
		</g>
		<g>
			<path class="st2" d="M-430.4,91.7c-1,0-2-0.6-2.5-1.6c-6.2-13.2-8.3-27.7-6.3-41.9c0.5-3.2,1.2-7,3.3-10.4c2.2-3.6,5.7-5.5,9-4.8
				c2,0.4,3.7,1.7,5.3,3.9c2.9,4,4.3,8.6,5.3,12.6c0.3,1,0.4,2.3,0.6,3.6c0.5,3.5,1.3,8.9,3.7,9.2c0.5,0.1,1.1,0.1,1.4-0.2
				c0.2-0.1,0.9-1,0.8-4.4c-0.1-1.2-0.3-2.4-0.5-3.8c-0.7-3.9-1.5-8.8,1.6-12.8c5.3-6.8,16-6.9,20.3-6.6c5.2,0.3,10.6,1.7,17,4.3
				c1.4,0.6,2.1,2.2,1.5,3.6c-0.6,1.4-2.2,2.1-3.6,1.5c-5.9-2.4-10.7-3.6-15.3-3.9c-2.7-0.2-11.8-0.4-15.5,4.5
				c-1.6,2.1-1.1,5.2-0.5,8.5c0.2,1.5,0.5,3,0.6,4.4c0.2,4.2-0.6,7-2.5,8.8c-1,1-2.9,2-5.9,1.6c-6.5-0.9-7.7-8.7-8.4-13.9
				c-0.2-1.2-0.3-2.3-0.5-3.1c-0.9-3.5-2.1-7.5-4.4-10.7c-0.8-1-1.4-1.6-2-1.8c-0.9-0.2-2.2,0.8-3.1,2.2c-1.5,2.5-2.1,5.6-2.5,8.2
				c-1.9,13.1,0.1,26.5,5.8,38.8c0.6,1.4,0,3-1.3,3.7C-429.6,91.6-430,91.7-430.4,91.7z"/>
		</g>
	</g>
	<g>
		<g>
			<path class="st2" d="M-467.1,23.4c-0.9,0-1.8-0.4-2.3-1.2c-4.7-6.9-12.7-11.8-21.8-13.5c-9.1-1.6-18.6-0.4-26.7,1.1
				c-1.5,0.3-3-0.7-3.2-2.2c-0.3-1.5,0.7-3,2.2-3.2c8.6-1.6,18.7-2.9,28.7-1.1c10.6,1.9,19.9,7.7,25.4,15.8c0.9,1.3,0.5,3-0.7,3.9
				C-466,23.2-466.5,23.4-467.1,23.4z"/>
		</g>
		<g>
			<path class="st2" d="M-527.4,24.6c-0.9,0-1.8-0.4-2.3-1.3c-0.8-1.3-0.5-3,0.8-3.8c13.2-8.6,28.9-9.6,46.6-2.9
				c1.4,0.5,2.2,2.2,1.6,3.6c-0.5,1.4-2.2,2.2-3.6,1.6c-16.2-6.1-29.8-5.4-41.6,2.3C-526.4,24.4-526.9,24.6-527.4,24.6z"/>
		</g>
		<g>
			<path class="st2" d="M-529.4,36.2c-0.9,0-1.7-0.4-2.3-1.2c-0.9-1.3-0.6-3,0.7-3.9c13.3-9.3,31.7-10.8,46-3.7
				c1.4,0.7,1.9,2.3,1.3,3.7c-0.7,1.4-2.3,1.9-3.7,1.3c-12.5-6.2-28.7-4.8-40.3,3.3C-528.3,36-528.9,36.2-529.4,36.2z"/>
		</g>
		<g>
			<path class="st2" d="M-463,91.7c-0.4,0-0.8-0.1-1.2-0.3c-1.4-0.6-2-2.3-1.3-3.7c5.7-12.2,7.7-25.6,5.8-38.8
				c-0.4-2.7-1-5.8-2.5-8.2c-0.9-1.5-2.2-2.4-3.1-2.2c-0.6,0.1-1.2,0.7-2,1.8c-2.3,3.2-3.5,7.2-4.4,10.7c-0.2,0.7-0.4,1.9-0.5,3.1
				c-0.8,5.2-1.9,13-8.4,13.9c-3,0.4-4.8-0.6-5.9-1.6c-1.9-1.8-2.8-4.6-2.5-8.8c0.1-1.5,0.3-3,0.6-4.4c0.6-3.3,1.1-6.4-0.5-8.5
				c-3.8-4.9-12.9-4.7-15.5-4.5c-4.6,0.3-9.4,1.5-15.3,3.9c-1.4,0.6-3-0.1-3.6-1.5c-0.6-1.4,0.1-3,1.5-3.6c6.4-2.6,11.9-4,17-4.3
				c4.3-0.3,15-0.2,20.3,6.6c3.1,4,2.3,8.9,1.6,12.8c-0.2,1.4-0.4,2.6-0.5,3.8c-0.2,3.4,0.6,4.3,0.8,4.4c0.3,0.3,0.9,0.2,1.4,0.2
				c2.4-0.3,3.2-5.7,3.7-9.2c0.2-1.3,0.4-2.6,0.6-3.6c1-4,2.4-8.6,5.3-12.6c1.6-2.2,3.3-3.5,5.3-3.9c3.2-0.7,6.8,1.2,9,4.8
				c2.1,3.3,2.8,7.1,3.3,10.4c2,14.2-0.1,28.7-6.3,41.9C-461,91.1-462,91.7-463,91.7z"/>
		</g>
	</g>
</g>
<g>
	<g>
		<g>
			<path class="st3" d="M105.3,67.8c-0.2,0-0.3,0-0.5,0c-1.5-0.3-2.5-1.7-2.2-3.2c1.5-8.1,2.8-17.6,1.1-26.7
				c-1.7-9.2-6.6-17.1-13.5-21.8c-1.3-0.9-1.6-2.6-0.7-3.9c0.9-1.3,2.6-1.6,3.9-0.7c8.1,5.5,13.9,14.8,15.8,25.4
				c1.8,10,0.4,20.1-1.1,28.7C107.7,66.8,106.6,67.8,105.3,67.8z"/>
		</g>
		<g>
			<path class="st3" d="M90.5,76.8c-0.5,0-1-0.1-1.5-0.5c-1.3-0.8-1.6-2.6-0.8-3.8c7.7-11.8,8.5-25.4,2.3-41.6
				c-0.5-1.4,0.2-3,1.6-3.6c1.4-0.5,3,0.2,3.6,1.6c6.7,17.7,5.8,33.4-2.9,46.6C92.3,76.3,91.5,76.8,90.5,76.8z"/>
		</g>
		<g>
			<path class="st3" d="M78.9,78.8c-0.6,0-1.1-0.2-1.6-0.5c-1.3-0.9-1.6-2.6-0.7-3.9c8.1-11.6,9.5-27.8,3.3-40.3
				c-0.7-1.4-0.1-3,1.3-3.7c1.4-0.7,3-0.1,3.7,1.3c7,14.2,5.5,32.7-3.7,46C80.6,78.4,79.8,78.8,78.9,78.8z"/>
		</g>
		<g>
			<path class="st3" d="M70.9,70.2c-0.3,0-0.7-0.1-1-0.2c-1.4-0.6-2.1-2.2-1.5-3.6c2.4-5.9,3.6-10.7,3.9-15.3
				c0.2-2.7,0.4-11.8-4.5-15.5c-2.1-1.6-5.2-1.1-8.5-0.5c-1.5,0.2-3,0.5-4.4,0.6c-4.2,0.2-7-0.6-8.8-2.5c-1-1-2-2.9-1.6-5.9
				c0.9-6.5,8.7-7.7,13.9-8.4c1.2-0.2,2.3-0.3,3.1-0.5c3.5-0.9,7.5-2.1,10.7-4.4c1-0.8,1.6-1.4,1.8-2C74,11,73,9.7,71.6,8.8
				c-2.5-1.5-5.6-2.1-8.2-2.5c-13.1-1.9-26.5,0.1-38.8,5.8c-1.4,0.7-3,0-3.7-1.3c-0.6-1.4,0-3,1.3-3.7c13.2-6.2,27.7-8.4,41.9-6.3
				c3.2,0.5,7,1.2,10.4,3.3c3.6,2.2,5.5,5.7,4.8,9c-0.4,2-1.7,3.7-3.9,5.3c-4,2.9-8.6,4.3-12.6,5.3c-1,0.3-2.3,0.4-3.6,0.6
				c-3.5,0.5-8.9,1.3-9.2,3.7c-0.1,0.5-0.1,1.1,0.2,1.4c0.1,0.2,1,0.9,4.4,0.7c1.2-0.1,2.4-0.3,3.8-0.5c3.9-0.7,8.8-1.5,12.8,1.6
				c6.8,5.3,6.9,16,6.6,20.3c-0.3,5.2-1.7,10.6-4.3,17C73,69.5,72,70.2,70.9,70.2z"/>
		</g>
	</g>
	<g>
		<g>
			<path class="st3" d="M18.2,80.5c-0.5,0-1.1-0.2-1.6-0.5C8.5,74.5,2.8,65.2,0.9,54.6c-1.8-10-0.4-20.1,1.1-28.7
				c0.3-1.5,1.7-2.5,3.2-2.2c1.5,0.3,2.5,1.7,2.2,3.2C6,35,4.7,44.5,6.3,53.6c1.7,9.2,6.6,17.1,13.5,21.8c1.3,0.9,1.6,2.6,0.7,3.9
				C20,80.1,19.1,80.5,18.2,80.5z"/>
		</g>
		<g>
			<path class="st3" d="M16.8,64.2c-1.1,0-2.2-0.7-2.6-1.8C7.5,44.7,8.5,29,17.1,15.8c0.8-1.3,2.6-1.6,3.8-0.8
				c1.3,0.8,1.6,2.6,0.8,3.8c-7.7,11.8-8.5,25.4-2.3,41.6c0.5,1.4-0.2,3-1.6,3.6C17.5,64.2,17.1,64.2,16.8,64.2z"/>
		</g>
		<g>
			<path class="st3" d="M27.5,61.2c-1,0-2-0.6-2.5-1.5c-7-14.2-5.5-32.7,3.7-46c0.9-1.3,2.6-1.6,3.9-0.7c1.3,0.9,1.6,2.6,0.7,3.9
				c-8.1,11.6-9.5,27.8-3.3,40.3c0.7,1.4,0.1,3-1.3,3.7C28.4,61.2,28,61.2,27.5,61.2z"/>
		</g>
		<g>
			<path class="st3" d="M56.2,91.3c-3.5,0-6.9-0.2-10.4-0.7c-3.2-0.5-7-1.2-10.4-3.3c-3.6-2.2-5.5-5.7-4.8-9c0.4-2,1.7-3.7,3.9-5.3
				c4-2.9,8.6-4.3,12.6-5.3c1-0.3,2.3-0.4,3.6-0.6c3.5-0.5,8.9-1.3,9.2-3.7c0.1-0.5,0.1-1.1-0.2-1.4c-0.1-0.2-1-0.9-4.4-0.7
				c-1.2,0.1-2.4,0.3-3.8,0.5c-3.9,0.7-8.8,1.5-12.8-1.6c-6.8-5.3-6.9-16-6.6-20.3c0.3-5.2,1.7-10.6,4.3-17c0.6-1.4,2.2-2.1,3.6-1.5
				c1.4,0.6,2.1,2.2,1.5,3.6c-2.4,5.9-3.6,10.7-3.9,15.3c-0.2,2.7-0.4,11.8,4.5,15.5c2.1,1.6,5.2,1.1,8.5,0.5c1.5-0.2,3-0.5,4.4-0.6
				c4.2-0.2,7,0.6,8.8,2.5c1,1,2,2.9,1.6,5.9c-0.9,6.5-8.7,7.7-13.9,8.4c-1.2,0.2-2.3,0.3-3.1,0.5c-3.5,0.9-7.5,2.1-10.7,4.4
				c-1,0.8-1.6,1.4-1.8,2c-0.2,0.9,0.8,2.2,2.2,3.1c2.5,1.5,5.6,2.1,8.2,2.5C59.7,87,73.2,85,85.4,79.3c1.4-0.6,3,0,3.7,1.3
				c0.6,1.4,0,3-1.3,3.7C77.7,89,67,91.3,56.2,91.3z"/>
		</g>
	</g>
</g>
<g>
	<g>
		<path class="st4" d="M-738.9,182v5.9c-1.7,0.7-3.7,1.1-5.7,1.1c-3.2,0-5.1-1.2-5.1-3.7c0-2.4,2.1-3.6,4.9-3.6
			c0.9,0,1.7,0.1,2.4,0.3v-0.5c0-1-0.7-1.7-2.3-1.7c-1.3,0-2.5,0.5-3.1,1c-0.8-0.4-1.4-1.2-1.5-2.3c0.6-0.6,2.4-1.6,4.9-1.6
			C-741.1,177-738.9,178.4-738.9,182z M-744.1,186.6c0.6,0,1.1-0.1,1.7-0.3v-2.1c-0.6-0.2-1.2-0.3-2-0.3c-1.1,0-1.8,0.4-1.8,1.2
			S-745.5,186.6-744.1,186.6z"/>
		<path class="st4" d="M-725.4,182.9c0,3.8-2.8,6.1-6.2,6.1c-0.8,0-1.4-0.1-1.9-0.2v4.2c-0.6,0.1-1.2,0.1-1.8,0.1
			c-0.6,0-1.2,0-1.8-0.1v-14.3c1.2-1,3.1-1.7,5.4-1.7C-728.1,177-725.4,178.9-725.4,182.9z M-729,183c0-1.8-1.2-2.9-3-2.9
			c-0.5,0-1.1,0.1-1.6,0.3v5.2c0.5,0.2,1,0.3,1.6,0.3C-730.2,186-729,184.9-729,183z"/>
		<path class="st4" d="M-724.5,183c0-3.7,2.6-6.1,6.2-6.1s6.2,2.4,6.2,6.1c0,3.6-2.6,6-6.2,6S-724.5,186.7-724.5,183z M-715.7,183
			c0-1.9-1-3.1-2.6-3.1c-1.7,0-2.7,1.2-2.7,3.1c0,1.8,1,3.1,2.7,3.1C-716.7,186.1-715.7,184.8-715.7,183z"/>
		<path class="st4" d="M-699.7,177.6c-1,7.2-3.7,12.6-8.9,16.2c-1.1-0.4-1.8-1.4-2.1-2.5c1.3-1,2.4-2,3.1-3
			c-2.3-3.6-3.4-6.7-4.3-10.8c0.5-0.1,1.6-0.3,2.6-0.3c0.4,0,0.9,0,1.3,0.1c0.4,2.6,1.2,5.4,2.2,7.7c0.1,0.3,0.2,0.5,0.2,0.6
			c0-0.2,0.1-0.5,0.2-0.6c1-2.3,1.5-5.1,1.9-7.7c0.5,0,1-0.1,1.4-0.1C-701.2,177.3-700.4,177.4-699.7,177.6z"/>
		<path class="st4" d="M-699.4,183c0-3.7,2.6-6.1,6.2-6.1s6.2,2.4,6.2,6.1c0,3.6-2.6,6-6.2,6S-699.4,186.7-699.4,183z M-690.5,183
			c0-1.9-1-3.1-2.6-3.1c-1.7,0-2.7,1.2-2.7,3.1c0,1.8,1,3.1,2.7,3.1C-691.5,186.1-690.5,184.8-690.5,183z"/>
	</g>
</g>
<g>
	<g>
		<path class="st4" d="M-197.1,181.4v7.2c-0.6,0.1-1.2,0.1-1.8,0.1c-0.6,0-1.2,0-1.8-0.1v-6.3c0-1.4-0.6-2.2-2.1-2.2
			c-0.7,0-1.4,0.2-1.9,0.5v8c-0.6,0.1-1.2,0.1-1.8,0.1c-0.6,0-1.2,0-1.8-0.1V173c0.6-0.1,1.2-0.1,1.8-0.1c0.6,0,1.2,0,1.8,0.1v4.4
			c0.7-0.3,1.5-0.5,2.4-0.5C-198.9,176.9-197.1,178.9-197.1,181.4z"/>
		<path class="st4" d="M-184.2,177.4v10.3c-0.9,0.5-2.9,1.3-5.6,1.3c-3.9,0-5.4-1.8-5.4-4.6v-7c0.6-0.1,1.2-0.1,1.8-0.1
			c0.6,0,1.2,0,1.8,0.1v6.2c0,1.6,0.5,2.3,2.2,2.3c0.7,0,1.3-0.1,1.8-0.4v-8.2c0.6-0.1,1.2-0.1,1.8-0.1
			C-185.4,177.3-184.8,177.3-184.2,177.4z"/>
		<path class="st4" d="M-171.6,183.9h-7.5c0.2,1.6,1.1,2.3,2.8,2.3c1.4,0,2.5-0.6,3.3-1.1c0.7,0.6,1.2,1.5,1.3,2.4
			c-1,0.8-2.6,1.6-5,1.6c-3.5,0-6-2.2-6-6c0-3.6,2.5-6.1,5.9-6.1c3.2,0,5.4,2,5.4,5.2C-171.5,182.8-171.5,183.3-171.6,183.9z
			 M-174.9,181.9c0-1.1-0.5-2.1-2-2.2c-1.4,0-2.1,0.9-2.3,2.2H-174.9z"/>
		<path class="st4" d="M-170,188.7V173c0.5-0.1,1.1-0.1,1.7-0.1s1.2,0,1.8,0.1v15.6c-0.5,0.1-1.2,0.1-1.8,0.1
			C-168.7,188.8-169.3,188.8-170,188.7z"/>
		<path class="st4" d="M-164.3,188.7V173c0.5-0.1,1.1-0.1,1.7-0.1s1.2,0,1.8,0.1v15.6c-0.5,0.1-1.2,0.1-1.8,0.1
			C-163,188.8-163.6,188.8-164.3,188.7z"/>
		<path class="st4" d="M-148.4,182v5.9c-1.7,0.7-3.7,1.1-5.7,1.1c-3.2,0-5.1-1.2-5.1-3.7c0-2.4,2.1-3.6,4.9-3.6
			c0.9,0,1.7,0.1,2.4,0.3v-0.5c0-1-0.7-1.7-2.3-1.7c-1.3,0-2.5,0.5-3.1,1c-0.8-0.4-1.4-1.2-1.5-2.3c0.6-0.6,2.4-1.6,4.9-1.6
			C-150.7,177-148.4,178.4-148.4,182z M-153.7,186.6c0.6,0,1.1-0.1,1.7-0.3v-2.1c-0.6-0.2-1.2-0.3-2-0.3c-1.1,0-1.8,0.4-1.8,1.2
			S-155,186.6-153.7,186.6z"/>
	</g>
</g>
<g>
	<g>
		<path class="st4" d="M49.9,181.5v7.1c-0.6,0.1-1.2,0.1-1.8,0.1s-1.2,0-1.8-0.1v-6.4c0-1.4-0.7-2.1-2-2.1c-0.9,0-1.5,0.3-1.9,0.6
			c0,0.2,0,0.5,0,0.7v7.1c-0.6,0.1-1.2,0.1-1.8,0.1c-0.6,0-1.2,0-1.8-0.1v-6.4c0-1.4-0.7-2.1-2-2.1c-0.8,0-1.4,0.2-1.8,0.5v8
			c-0.6,0.1-1.2,0.1-1.8,0.1c-0.6,0-1.2,0-1.8-0.1v-9.8c0.8-0.7,2.9-1.9,5.7-1.9c1.6,0,2.8,0.4,3.7,1.1c0.9-0.6,2.2-1.1,3.7-1.1
			C48.2,176.9,49.9,178.9,49.9,181.5z"/>
		<path class="st4" d="M62.8,177.4v10.3c-0.9,0.5-2.9,1.3-5.6,1.3c-3.9,0-5.4-1.8-5.4-4.6v-7c0.6-0.1,1.2-0.1,1.8-0.1
			c0.6,0,1.2,0,1.8,0.1v6.2c0,1.6,0.5,2.3,2.2,2.3c0.7,0,1.3-0.1,1.8-0.4v-8.2c0.6-0.1,1.2-0.1,1.8-0.1
			C61.6,177.3,62.2,177.3,62.8,177.4z"/>
		<path class="st4" d="M75.9,181.8v6.9c-0.6,0.1-1.2,0.1-1.8,0.1c-0.6,0-1.2,0-1.8-0.1v-6.3c0-1.6-0.9-2.2-2.1-2.2
			c-0.8,0-1.5,0.2-1.9,0.5v8c-0.6,0.1-1.2,0.1-1.8,0.1c-0.6,0-1.2,0-1.8-0.1v-9.8c0.9-0.8,2.9-1.9,5.7-1.9
			C74.2,176.9,75.9,179,75.9,181.8z"/>
		<path class="st4" d="M89,173v15c-1.2,0.6-3.2,1.1-5.1,1.1c-4.1,0-6.6-2.1-6.6-6c0-3.7,2.8-6.1,6.3-6.1c0.7,0,1.3,0.1,1.8,0.2V173
			c0.6-0.1,1.2-0.1,1.8-0.1C87.8,172.8,88.4,172.9,89,173z M85.5,185.8v-5.4c-0.5-0.3-1.1-0.3-1.6-0.3c-1.7,0-3,1.1-3,3
			c0,1.8,1.2,3,2.9,3C84.4,186,84.9,186,85.5,185.8z"/>
		<path class="st4" d="M90.5,183c0-3.7,2.6-6.1,6.2-6.1c3.6,0,6.2,2.4,6.2,6.1c0,3.6-2.6,6-6.2,6C93.1,189,90.5,186.7,90.5,183z
			 M99.3,183c0-1.9-1-3.1-2.6-3.1s-2.7,1.2-2.7,3.1c0,1.8,1,3.1,2.7,3.1S99.3,184.8,99.3,183z"/>
	</g>
</g>
<g>
	<g>
		<path class="st4" d="M-504.7,183c0-3.7,2.6-6.1,6.1-6.1c1.7,0,3.3,0.7,3.9,1.3c-0.2,1-1,2-1.8,2.5c-0.5-0.4-1.1-0.8-2-0.8
			c-1.7,0-2.7,1.3-2.7,3.1c0,1.7,0.8,3.1,2.7,3.1c1.1,0,1.7-0.4,2.2-0.8c0.9,0.4,1.5,1.3,1.8,2.3c-0.8,0.7-2.2,1.5-4,1.5
			C-502.3,189.1-504.7,186.8-504.7,183z"/>
		<path class="st4" d="M-485.7,177.3c0,1.2-0.4,2.3-1,3.1c-0.4-0.1-0.9-0.2-1.4-0.2c-0.7,0-1.4,0.1-1.7,0.3v8.1
			c-0.6,0.1-1.2,0.1-1.8,0.1c-0.6,0-1.2,0-1.8-0.1v-10c0.8-0.7,2.6-1.7,5-1.7C-487.2,177-486.3,177.1-485.7,177.3z"/>
		<path class="st4" d="M-474.6,183.9h-7.5c0.2,1.6,1.1,2.3,2.8,2.3c1.4,0,2.5-0.6,3.3-1.1c0.7,0.6,1.2,1.5,1.3,2.4
			c-1,0.8-2.6,1.6-5,1.6c-3.5,0-6-2.2-6-6c0-3.6,2.5-6.1,5.9-6.1c3.2,0,5.4,2,5.4,5.2C-474.5,182.8-474.5,183.3-474.6,183.9z
			 M-477.8,181.9c0-1.1-0.5-2.1-2-2.2c-1.4,0-2.1,0.9-2.3,2.2H-477.8z"/>
		<path class="st4" d="M-473.5,183c0-3.7,2.6-6.1,6.1-6.1c1.7,0,3.3,0.7,3.9,1.3c-0.2,1-1,2-1.8,2.5c-0.5-0.4-1.1-0.8-2-0.8
			c-1.7,0-2.7,1.3-2.7,3.1c0,1.7,0.8,3.1,2.7,3.1c1.1,0,1.7-0.4,2.2-0.8c0.9,0.4,1.5,1.3,1.8,2.3c-0.8,0.7-2.2,1.5-4,1.5
			C-471.1,189.1-473.5,186.8-473.5,183z"/>
		<path class="st4" d="M-462.4,173.7c0-1.2,1-2.1,2.1-2.1c1.2,0,2.1,1,2.1,2.1c0,1.2-1,2.1-2.1,2.1
			C-461.5,175.9-462.4,174.9-462.4,173.7z M-462.1,188.7v-11.3c0.6-0.1,1.2-0.1,1.8-0.1c0.6,0,1.2,0,1.8,0.1v11.3
			c-0.6,0.1-1.2,0.1-1.8,0.1C-460.9,188.8-461.5,188.8-462.1,188.7z"/>
		<path class="st4" d="M-438.1,181.5v7.1c-0.6,0.1-1.2,0.1-1.8,0.1s-1.2,0-1.8-0.1v-6.4c0-1.4-0.7-2.1-2-2.1c-0.9,0-1.5,0.3-1.9,0.6
			c0,0.2,0,0.5,0,0.7v7.1c-0.6,0.1-1.2,0.1-1.8,0.1s-1.2,0-1.8-0.1v-6.4c0-1.4-0.7-2.1-2-2.1c-0.8,0-1.4,0.2-1.8,0.5v8
			c-0.6,0.1-1.2,0.1-1.8,0.1c-0.6,0-1.2,0-1.8-0.1v-9.8c0.8-0.7,2.9-1.9,5.7-1.9c1.6,0,2.8,0.4,3.7,1.1c0.9-0.6,2.2-1.1,3.7-1.1
			C-439.8,176.9-438.1,178.9-438.1,181.5z"/>
		<path class="st4" d="M-436.5,173.7c0-1.2,1-2.1,2.1-2.1c1.2,0,2.1,1,2.1,2.1c0,1.2-1,2.1-2.1,2.1S-436.5,174.9-436.5,173.7z
			 M-436.1,188.7v-11.3c0.6-0.1,1.2-0.1,1.8-0.1c0.6,0,1.2,0,1.8,0.1v11.3c-0.6,0.1-1.2,0.1-1.8,0.1
			C-434.9,188.8-435.5,188.8-436.1,188.7z"/>
		<path class="st4" d="M-419.9,183.9h-7.5c0.2,1.6,1.1,2.3,2.8,2.3c1.4,0,2.5-0.6,3.3-1.1c0.7,0.6,1.2,1.5,1.3,2.4
			c-1,0.8-2.6,1.6-5,1.6c-3.5,0-6-2.2-6-6c0-3.6,2.5-6.1,5.9-6.1c3.2,0,5.4,2,5.4,5.2C-419.8,182.8-419.8,183.3-419.9,183.9z
			 M-423.2,181.9c0-1.1-0.5-2.1-2-2.2c-1.4,0-2.1,0.9-2.3,2.2H-423.2z"/>
		<path class="st4" d="M-407.1,181.8v6.9c-0.6,0.1-1.2,0.1-1.8,0.1c-0.6,0-1.2,0-1.8-0.1v-6.3c0-1.6-0.9-2.2-2.1-2.2
			c-0.8,0-1.5,0.2-1.9,0.5v8c-0.6,0.1-1.2,0.1-1.8,0.1c-0.6,0-1.2,0-1.8-0.1v-9.8c0.9-0.8,2.9-1.9,5.7-1.9
			C-408.8,176.9-407.1,179-407.1,181.8z"/>
		<path class="st4" d="M-395.9,187.7c-0.8,0.6-2,1.3-3.7,1.3c-2.6,0-4.6-1.1-4.6-3.9v-4.7h-1.9c-0.1-0.5-0.1-1-0.1-1.5
			c0-0.5,0-1,0.1-1.4h1.9v-3c0.6-0.1,1.2-0.1,1.8-0.1c0.6,0,1.2,0,1.7,0.1v3h4c0.1,0.5,0.2,0.9,0.2,1.4c0,0.5-0.1,1-0.2,1.5h-4v3.8
			c0,1.3,0.6,1.7,1.6,1.7c0.7,0,1.2-0.3,1.6-0.7C-396.7,185.7-396.1,186.8-395.9,187.7z"/>
		<path class="st4" d="M-395.6,183c0-3.7,2.6-6.1,6.2-6.1s6.2,2.4,6.2,6.1c0,3.6-2.6,6-6.2,6S-395.6,186.7-395.6,183z M-386.8,183
			c0-1.9-1-3.1-2.6-3.1c-1.7,0-2.7,1.2-2.7,3.1c0,1.8,1,3.1,2.7,3.1C-387.8,186.1-386.8,184.8-386.8,183z"/>
	</g>
</g>
<g>
	<g>
		<path class="st5" d="M-539.2,348c-0.3,0-0.6,0-0.9-0.2c-1.4-0.5-2.1-2-1.6-3.3c3.1-8.7,10.2-16.1,19.4-20.3
			c8.7-4,18.2-5.1,26.3-5.7c1.4-0.1,2.7,1,2.8,2.4c0.1,1.4-1,2.7-2.4,2.8c-7.7,0.6-16.6,1.6-24.5,5.2c-7.9,3.6-14,10-16.7,17.3
			C-537.1,347.4-538.1,348-539.2,348z"/>
	</g>
	<g>
		<path class="st5" d="M-524.7,342.9c-0.8,0-1.6-0.4-2.1-1.1c-0.8-1.2-0.6-2.8,0.6-3.6c14.5-10.2,29-13,43-8.3
			c1.4,0.5,2.1,1.9,1.6,3.3c-0.5,1.4-1.9,2.1-3.3,1.6c-12.5-4.2-25-1.8-38.3,7.6C-523.7,342.8-524.2,342.9-524.7,342.9z"/>
	</g>
	<g>
		<path class="st5" d="M-519.5,352c-0.7,0-1.5-0.3-2-0.9c-0.9-1.1-0.8-2.7,0.3-3.7c11.3-9.7,28.4-12.7,42.6-7.4c1.3,0.5,2,2,1.5,3.4
			c-0.5,1.3-2,2-3.4,1.5c-12.5-4.7-27.5-2.1-37.4,6.4C-518.3,351.8-518.9,352-519.5,352z"/>
	</g>
	<g>
		<path class="st5" d="M-526.9,411c-0.8,0-1.5-0.3-2-1c-8.7-10.6-14.1-23.2-15.5-36.6c-0.3-3.1-0.5-6.6,0.6-10.2
			c1.2-3.8,3.9-6.3,7-6.4c1.9-0.1,3.8,0.7,5.7,2.3c3.5,2.9,5.9,6.8,7.7,10.2c0.5,0.9,0.9,2,1.4,3.1c1.3,3.1,3.2,7.8,5.5,7.5
			c0.4,0,1-0.2,1.2-0.5c0.1-0.2,0.6-1.2-0.4-4.2c-0.3-1-0.8-2.2-1.3-3.3c-1.5-3.4-3.4-7.7-1.5-12c3.2-7.4,12.9-10,16.9-10.8
			c4.8-0.9,10-0.9,16.5-0.1c1.4,0.2,2.4,1.5,2.2,2.9c-0.2,1.4-1.5,2.4-2.9,2.2c-5.9-0.8-10.6-0.8-14.8,0c-2.5,0.5-10.8,2.4-13.1,7.7
			c-1,2.3,0.2,5,1.5,7.8c0.6,1.3,1.1,2.6,1.6,3.9c1.2,3.7,1.1,6.5-0.3,8.6c-0.7,1.1-2.2,2.5-5,2.8c-6.1,0.7-9-6.1-10.9-10.7
			c-0.4-1-0.8-2-1.2-2.7c-1.6-3-3.6-6.3-6.5-8.7c-0.9-0.8-1.7-1.2-2.2-1.1c-0.8,0-1.8,1.2-2.3,2.8c-0.8,2.6-0.6,5.5-0.4,8.1
			c1.4,12.4,6.3,24.1,14.4,33.8c0.9,1.1,0.8,2.8-0.4,3.7C-525.8,410.8-526.3,411-526.9,411z"/>
	</g>
</g>
<g>
	<g>
		<path class="st6" d="M-713.6,415.5c-3.5,0-6.9-0.5-10.2-1.6c-1.4-0.4-2.1-1.9-1.7-3.3c0.4-1.4,1.9-2.1,3.3-1.7
			c7.5,2.4,16.2,1.5,23.9-2.5c7.7-4,14-10.4,19.2-16.2c1-1.1,2.6-1.2,3.7-0.2c1.1,1,1.2,2.6,0.2,3.7c-5.5,6.1-12.2,12.9-20.6,17.3
			C-701.5,413.9-707.6,415.5-713.6,415.5z"/>
	</g>
	<g>
		<path class="st6" d="M-710.1,405.7c-1.1,0-2.2-0.7-2.5-1.8c-0.4-1.4,0.4-2.8,1.7-3.3c15.5-4.7,25.2-13.1,29.5-25.6
			c0.5-1.4,2-2.1,3.3-1.6c1.4,0.5,2.1,2,1.6,3.3c-4.8,14-15.9,23.7-32.9,28.9C-709.6,405.7-709.9,405.7-710.1,405.7z"/>
	</g>
	<g>
		<path class="st6" d="M-714.1,396c-1.2,0-2.3-0.9-2.6-2.1c-0.3-1.4,0.6-2.8,2-3.1c12.8-2.6,24-12.9,28-25.6
			c0.4-1.4,1.9-2.1,3.3-1.7c1.4,0.4,2.1,1.9,1.7,3.3c-4.5,14.5-17.3,26.2-31.9,29.1C-713.7,396-713.9,396-714.1,396z"/>
	</g>
	<g>
		<path class="st6" d="M-736.6,404.7c-5.4,0-9.9-4.5-12.9-7.5c-1-1-1-2.7,0-3.7c1-1,2.7-1,3.7,0l0,0c4,4,7.4,7,11,5.6
			c1.8-4.6-0.5-9.1-3.2-14.3c-1.5-3-3.1-6-3.9-9.2c0-0.2-0.1-0.4-0.1-0.6v-3.3c0-0.4,0.1-0.8,0.3-1.2c0.9-1.8,2-2.9,3.8-3.8
			c0.2-0.1,0.3-0.2,0.5-0.2c3.8-1,7.4,1.5,9.3,4.3c0,0,0,0.1,0.1,0.1c0.6,1.1,1.2,2.1,1.7,3.2c1.1,2.1,2.1,4.1,3.4,5.1
			c4.7,2.6,14.1,4,25.6-15.6c0.7-1.2,2.3-1.7,3.6-0.9c1.2,0.7,1.7,2.3,0.9,3.6c-10.1,17.3-22.1,23.6-32.8,17.4
			c-0.1-0.1-0.2-0.1-0.3-0.2c-2.3-1.7-3.7-4.4-5-7c-0.5-1-1-1.9-1.5-2.8c-0.8-1.2-2.3-2.3-3.4-2.2c-0.4,0.2-0.6,0.4-0.9,0.8v2.3
			c0.6,2.5,1.9,5,3.3,7.7c3,5.9,6.5,12.6,2.9,19.8c-0.2,0.5-0.6,0.9-1.1,1.1C-733.3,404.3-735,404.7-736.6,404.7z"/>
	</g>
</g>
<g>
	<g>
		<path class="st0" d="M86.7,386.8c-0.8,0-1.5-0.3-2-1c-0.9-1.1-0.7-2.8,0.4-3.7c5.9-4.7,9.1-11,11.1-21.6c2.7-15-5.2-33.9-11.5-42
			c-0.9-1.1-0.7-2.8,0.5-3.7c1.1-0.9,2.8-0.7,3.7,0.5c7.1,9.1,15.6,29.4,12.5,46.1c-2.2,11.8-6,19.2-13,24.7
			C87.9,386.6,87.3,386.8,86.7,386.8z"/>
	</g>
	<g>
		<path class="st0" d="M86.9,371.5c-0.2,0-0.5,0-0.7-0.1c-1.4-0.4-2.2-1.9-1.8-3.2c4.6-15.6,2.9-28.2-5.1-38.7
			c-0.9-1.1-0.7-2.8,0.5-3.7c1.1-0.9,2.8-0.7,3.7,0.5c9,11.7,11,26.3,6,43.3C89.1,370.7,88.1,371.5,86.9,371.5z"/>
	</g>
	<g>
		<path class="st0" d="M76.7,369.4c-0.3,0-0.7-0.1-1-0.2c-1.3-0.5-2-2.1-1.4-3.4c4.9-12.1,2.5-27.1-5.9-37.5
			c-0.9-1.1-0.7-2.8,0.4-3.7c1.1-0.9,2.8-0.7,3.7,0.4c9.6,11.7,12.3,28.9,6.7,42.7C78.7,368.8,77.7,369.4,76.7,369.4z"/>
	</g>
	<g>
		<path class="st0" d="M59.8,398.5c-1.2,0-2.3-0.8-2.6-2.1c-0.3-1.4,0.6-2.8,2-3.1l0,0c5.6-1.1,9.9-2.3,10.7-6.1
			c-2.8-4-7.9-4.6-13.7-5.2c-3.3-0.4-6.8-0.7-9.8-1.9c-0.2-0.1-0.4-0.2-0.5-0.3l-2.7-1.8c-0.3-0.2-0.6-0.5-0.8-0.9
			c-1-1.8-1.3-3.2-1.1-5.2c0-0.2,0.1-0.4,0.1-0.6c1.3-3.7,5.3-5.4,8.8-5.4c0,0,0.1,0,0.1,0c1.2,0.1,2.4,0.2,3.6,0.3
			c2.3,0.3,4.5,0.5,6.1,0c4.8-2.5,11.1-9.6,1.1-30c-0.6-1.3-0.1-2.9,1.2-3.5c1.3-0.6,2.9-0.1,3.5,1.2c8.8,18,7.5,31.5-3.6,37
			c-0.1,0-0.2,0.1-0.3,0.1c-2.7,1-5.7,0.6-8.6,0.3c-1.1-0.1-2.2-0.2-3.2-0.3c-1.5,0-3.2,0.6-3.7,1.7c0,0.5,0,0.8,0.2,1.2l1.9,1.3
			c2.4,0.8,5.3,1.1,8.3,1.5c6.6,0.7,14.1,1.5,18.1,8.5c0.3,0.5,0.4,1,0.3,1.5c-0.7,8.6-9.6,10.5-15,11.6
			C60.2,398.5,60,398.5,59.8,398.5z"/>
	</g>
</g>
<g>
	<path class="st4" d="M-756.8,495.4c-0.1,1-0.7,2-1.4,2.5c-0.4-0.2-0.8-0.4-1.5-0.4c-0.9,0-1.5,0.4-1.5,1.6v0.4h2.5
		c0.1,0.5,0.2,1,0.2,1.5c0,0.5-0.1,1-0.2,1.5h-2.5v8.2c-0.6,0.1-1.1,0.1-1.7,0.1c-0.6,0-1.2,0-1.8-0.1v-8.2h-1.5
		c-0.1-0.4-0.1-0.9-0.1-1.4s0-1,0.1-1.5h1.5c0.1-3.2,2.1-4.8,4.8-4.8C-758.4,494.6-757.4,495-756.8,495.4z"/>
	<path class="st4" d="M-746.5,499.3v10.3c-0.9,0.5-2.9,1.3-5.6,1.3c-3.9,0-5.4-1.8-5.4-4.6v-7c0.6-0.1,1.2-0.1,1.8-0.1
		c0.6,0,1.2,0,1.8,0.1v6.2c0,1.6,0.5,2.3,2.2,2.3c0.7,0,1.3-0.1,1.8-0.4v-8.2c0.6-0.1,1.2-0.1,1.8-0.1
		C-747.7,499.2-747.1,499.2-746.5,499.3z"/>
	<path class="st4" d="M-735.1,509.6c-0.8,0.6-2,1.3-3.7,1.3c-2.6,0-4.6-1.1-4.6-3.9v-4.7h-1.9c-0.1-0.5-0.1-1-0.1-1.5
		c0-0.5,0-1,0.1-1.4h1.9v-3c0.6-0.1,1.2-0.1,1.8-0.1c0.6,0,1.2,0,1.7,0.1v3h4c0.1,0.5,0.2,0.9,0.2,1.4c0,0.5-0.1,1-0.2,1.5h-4v3.8
		c0,1.3,0.6,1.7,1.6,1.7c0.7,0,1.2-0.3,1.6-0.7C-735.9,507.6-735.3,508.7-735.1,509.6z"/>
	<path class="st4" d="M-723.3,499.3v10.3c-0.9,0.5-2.9,1.3-5.6,1.3c-3.9,0-5.4-1.8-5.4-4.6v-7c0.6-0.1,1.2-0.1,1.8-0.1
		c0.6,0,1.2,0,1.8,0.1v6.2c0,1.6,0.5,2.3,2.2,2.3c0.7,0,1.3-0.1,1.8-0.4v-8.2c0.6-0.1,1.2-0.1,1.8-0.1
		C-724.5,499.2-723.9,499.2-723.3,499.3z"/>
	<path class="st4" d="M-713.7,499.2c0,1.2-0.4,2.3-1,3.1c-0.4-0.1-0.9-0.2-1.4-0.2c-0.7,0-1.4,0.1-1.7,0.3v8.1
		c-0.6,0.1-1.2,0.1-1.8,0.1c-0.6,0-1.2,0-1.8-0.1v-10c0.8-0.7,2.6-1.7,5-1.7C-715.2,498.8-714.3,498.9-713.7,499.2z"/>
	<path class="st4" d="M-713.8,504.9c0-3.7,2.6-6.1,6.2-6.1s6.2,2.4,6.2,6.1c0,3.6-2.6,6-6.2,6S-713.8,508.6-713.8,504.9z
		 M-704.9,504.9c0-1.9-1-3.1-2.6-3.1c-1.7,0-2.7,1.2-2.7,3.1c0,1.8,1,3.1,2.7,3.1C-705.9,507.9-704.9,506.7-704.9,504.9z"/>
	<path class="st4" d="M-755,534.4h-7.5c0.2,1.6,1.1,2.3,2.8,2.3c1.4,0,2.5-0.6,3.3-1.1c0.7,0.6,1.2,1.5,1.3,2.4
		c-1,0.8-2.6,1.6-5,1.6c-3.5,0-6-2.2-6-6c0-3.6,2.5-6.1,5.9-6.1c3.2,0,5.4,2,5.4,5.2C-754.9,533.3-754.9,533.8-755,534.4z
		 M-758.3,532.4c0-1.1-0.5-2.1-2-2.2c-1.4,0-2.1,0.9-2.3,2.2H-758.3z"/>
	<path class="st4" d="M-754,538.2c0.2-1.1,0.7-2,1.4-2.4c0.8,0.5,2,1.1,3.7,1.1c1.1,0,1.5-0.4,1.5-0.9c0-0.6-0.6-0.9-2.5-1.2
		c-1.9-0.4-3.8-1.1-3.8-3.6c0-2.3,2.1-3.7,5-3.7c2.4,0,3.8,0.5,4.6,1.1c-0.1,1.1-0.6,2-1.2,2.5c-0.8-0.4-2-0.8-3.3-0.8
		c-1.1,0-1.6,0.2-1.6,0.8c0,0.6,0.5,0.8,2.3,1.1c2.2,0.4,4.1,1.1,4.1,3.6c0,2.4-1.8,3.8-5.1,3.8C-751.6,539.6-753.3,538.8-754,538.2
		z"/>
	<path class="st4" d="M-730.7,533.5c0,3.8-2.8,6.1-6.2,6.1c-0.8,0-1.4-0.1-1.9-0.2v4.2c-0.6,0.1-1.2,0.1-1.8,0.1
		c-0.6,0-1.2,0-1.8-0.1v-14.3c1.2-1,3.1-1.7,5.4-1.7C-733.4,527.5-730.7,529.5-730.7,533.5z M-734.3,533.6c0-1.8-1.2-2.9-3-2.9
		c-0.5,0-1.1,0.1-1.6,0.3v5.2c0.5,0.2,1,0.3,1.6,0.3C-735.5,536.5-734.3,535.4-734.3,533.6z"/>
	<path class="st4" d="M-718.6,534.4h-7.5c0.2,1.6,1.1,2.3,2.8,2.3c1.4,0,2.5-0.6,3.3-1.1c0.7,0.6,1.2,1.5,1.3,2.4
		c-1,0.8-2.6,1.6-5,1.6c-3.5,0-6-2.2-6-6c0-3.6,2.5-6.1,5.9-6.1c3.2,0,5.4,2,5.4,5.2C-718.5,533.3-718.5,533.8-718.6,534.4z
		 M-721.9,532.4c0-1.1-0.5-2.1-2-2.2c-1.4,0-2.1,0.9-2.3,2.2H-721.9z"/>
	<path class="st4" d="M-709.4,527.8c0,1.2-0.4,2.3-1,3.1c-0.4-0.1-0.9-0.2-1.4-0.2c-0.7,0-1.4,0.1-1.7,0.3v8.1
		c-0.6,0.1-1.2,0.1-1.8,0.1c-0.6,0-1.2,0-1.8-0.1v-10c0.8-0.7,2.6-1.7,5-1.7C-710.9,527.5-710,527.6-709.4,527.8z"/>
	<path class="st4" d="M-698.5,532.5v5.9c-1.7,0.7-3.7,1.1-5.7,1.1c-3.2,0-5.1-1.2-5.1-3.7c0-2.4,2.1-3.6,4.9-3.6
		c0.9,0,1.7,0.1,2.4,0.3v-0.5c0-1-0.7-1.7-2.3-1.7c-1.3,0-2.5,0.5-3.1,1c-0.8-0.4-1.4-1.2-1.5-2.3c0.6-0.6,2.4-1.6,4.9-1.6
		C-700.8,527.5-698.5,529-698.5,532.5z M-703.8,537.1c0.6,0,1.1-0.1,1.7-0.3v-2.1c-0.6-0.2-1.2-0.3-2-0.3c-1.1,0-1.8,0.4-1.8,1.2
		S-705.2,537.1-703.8,537.1z"/>
	<path class="st4" d="M-685.6,532.3v6.9c-0.6,0.1-1.2,0.1-1.8,0.1c-0.6,0-1.2,0-1.8-0.1v-6.3c0-1.6-0.9-2.2-2.1-2.2
		c-0.8,0-1.5,0.2-1.9,0.5v8c-0.6,0.1-1.2,0.1-1.8,0.1c-0.6,0-1.2,0-1.8-0.1v-9.8c0.9-0.8,2.9-1.9,5.7-1.9
		C-687.3,527.5-685.6,529.5-685.6,532.3z"/>
	<path class="st4" d="M-674.1,537.7c0,0.6-0.1,1.1-0.2,1.5h-9.8c-0.1-0.3-0.1-0.6-0.1-0.8c0-0.9,0.4-1.5,0.7-1.9l4.3-4.9l0.6-0.7
		h-5.4c-0.1-0.3-0.2-0.9-0.2-1.5c0-0.6,0.1-1.1,0.2-1.4h9.5c0.1,0.2,0.1,0.5,0.1,0.8c0,0.9-0.3,1.6-0.7,2.1l-4,4.8l-0.6,0.6h5.3
		C-674.2,536.6-674.1,537.1-674.1,537.7z"/>
	<path class="st4" d="M-662.5,532.5v5.9c-1.7,0.7-3.7,1.1-5.7,1.1c-3.2,0-5.1-1.2-5.1-3.7c0-2.4,2.1-3.6,4.9-3.6
		c0.9,0,1.7,0.1,2.4,0.3v-0.5c0-1-0.7-1.7-2.3-1.7c-1.3,0-2.5,0.5-3.1,1c-0.8-0.4-1.4-1.2-1.5-2.3c0.6-0.6,2.4-1.6,4.9-1.6
		C-664.8,527.5-662.5,529-662.5,532.5z M-667.8,537.1c0.6,0,1.1-0.1,1.7-0.3v-2.1c-0.6-0.2-1.2-0.3-2-0.3c-1.1,0-1.8,0.4-1.8,1.2
		S-669.1,537.1-667.8,537.1z"/>
</g>
<g>
	<path class="st4" d="M-491.2,503.4v9.4c0,3.7-2.6,5.5-5.9,5.5c-2.7,0-4.6-1-5.6-2.1c0.1-0.9,0.8-1.9,1.9-2.2c0.8,1,1.9,1.6,3.5,1.6
		c1.8,0,2.6-0.8,2.6-2.1V513c-0.5,0.2-1.2,0.3-1.9,0.3c-3.3,0-6.1-1.9-6.1-5.5c0-3.8,2.9-6,6.4-6
		C-494.3,501.7-492.4,502.4-491.2,503.4z M-494.8,510.1V505c-0.5-0.2-1-0.3-1.6-0.3c-1.6,0-2.8,1.1-2.8,2.8c0,1.7,1.2,2.8,2.8,2.8
		C-495.8,510.4-495.3,510.3-494.8,510.1z"/>
	<path class="st4" d="M-481.6,502.1c0,1.2-0.4,2.3-1,3.1c-0.4-0.1-0.9-0.2-1.4-0.2c-0.7,0-1.4,0.1-1.7,0.3v8.1
		c-0.6,0.1-1.2,0.1-1.8,0.1c-0.6,0-1.2,0-1.8-0.1v-10c0.8-0.7,2.6-1.7,5-1.7C-483.2,501.7-482.3,501.9-481.6,502.1z"/>
	<path class="st4" d="M-470.8,506.8v5.9c-1.7,0.7-3.7,1.1-5.7,1.1c-3.2,0-5.1-1.2-5.1-3.7c0-2.4,2.1-3.6,4.9-3.6
		c0.9,0,1.7,0.1,2.4,0.3v-0.5c0-1-0.7-1.7-2.3-1.7c-1.3,0-2.5,0.5-3.1,1c-0.8-0.4-1.4-1.2-1.5-2.3c0.6-0.6,2.4-1.6,4.9-1.6
		C-473.1,501.8-470.8,503.2-470.8,506.8z M-476.1,511.3c0.6,0,1.1-0.1,1.7-0.3V509c-0.6-0.2-1.2-0.3-2-0.3c-1.1,0-1.8,0.4-1.8,1.2
		S-477.4,511.3-476.1,511.3z"/>
	<path class="st4" d="M-459.8,512.5c-0.8,0.6-2,1.3-3.7,1.3c-2.6,0-4.6-1.1-4.6-3.9v-4.7h-1.9c-0.1-0.5-0.1-1-0.1-1.5
		c0-0.5,0-1,0.1-1.4h1.9v-3c0.6-0.1,1.2-0.1,1.8-0.1c0.6,0,1.2,0,1.7,0.1v3h4c0.1,0.5,0.2,0.9,0.2,1.4c0,0.5-0.1,1-0.2,1.5h-4v3.8
		c0,1.3,0.6,1.7,1.6,1.7c0.7,0,1.2-0.3,1.6-0.7C-460.6,510.5-460,511.6-459.8,512.5z"/>
	<path class="st4" d="M-459.3,498.5c0-1.2,1-2.1,2.1-2.1c1.2,0,2.1,1,2.1,2.1c0,1.2-1,2.1-2.1,2.1
		C-458.3,500.6-459.3,499.7-459.3,498.5z M-458.9,513.4v-11.3c0.6-0.1,1.2-0.1,1.8-0.1c0.6,0,1.2,0,1.8,0.1v11.3
		c-0.6,0.1-1.2,0.1-1.8,0.1C-457.7,513.6-458.3,513.5-458.9,513.4z"/>
	<path class="st4" d="M-444,512.5c-0.8,0.6-2,1.3-3.7,1.3c-2.6,0-4.6-1.1-4.6-3.9v-4.7h-1.9c-0.1-0.5-0.1-1-0.1-1.5
		c0-0.5,0-1,0.1-1.4h1.9v-3c0.6-0.1,1.2-0.1,1.8-0.1c0.6,0,1.2,0,1.7,0.1v3h4c0.1,0.5,0.2,0.9,0.2,1.4c0,0.5-0.1,1-0.2,1.5h-4v3.8
		c0,1.3,0.6,1.7,1.6,1.7c0.7,0,1.2-0.3,1.6-0.7C-444.8,510.5-444.1,511.6-444,512.5z"/>
	<path class="st4" d="M-432.1,502.2v10.3c-0.9,0.5-2.9,1.3-5.6,1.3c-3.9,0-5.4-1.8-5.4-4.6v-7c0.6-0.1,1.2-0.1,1.8-0.1
		c0.6,0,1.2,0,1.8,0.1v6.2c0,1.6,0.5,2.3,2.2,2.3c0.7,0,1.3-0.1,1.8-0.4v-8.2c0.6-0.1,1.2-0.1,1.8-0.1
		C-433.3,502.1-432.7,502.1-432.1,502.2z"/>
	<path class="st4" d="M-419,497.8v15c-1.2,0.6-3.2,1.1-5.1,1.1c-4.1,0-6.6-2.1-6.6-6c0-3.7,2.8-6.1,6.3-6.1c0.7,0,1.3,0.1,1.8,0.2
		v-4.3c0.6-0.1,1.2-0.1,1.8-0.1C-420.2,497.6-419.6,497.7-419,497.8z M-422.5,510.6v-5.4c-0.5-0.3-1.1-0.3-1.6-0.3c-1.7,0-3,1.1-3,3
		c0,1.8,1.2,3,2.9,3C-423.6,510.8-423.1,510.7-422.5,510.6z"/>
</g>
<g>
	<path class="st4" d="M36,513.4v-15.6c0.5-0.1,1.1-0.1,1.7-0.1c0.6,0,1.2,0,1.8,0.1v15.6c-0.5,0.1-1.2,0.1-1.8,0.1
		S36.6,513.5,36,513.4z"/>
	<path class="st4" d="M41.3,498.5c0-1.2,1-2.1,2.1-2.1c1.2,0,2.1,1,2.1,2.1c0,1.2-1,2.1-2.1,2.1C42.3,500.6,41.3,499.7,41.3,498.5z
		 M41.7,513.4v-11.3c0.6-0.1,1.2-0.1,1.8-0.1c0.6,0,1.2,0,1.8,0.1v11.3c-0.6,0.1-1.2,0.1-1.8,0.1C42.9,513.6,42.3,513.5,41.7,513.4z
		"/>
	<path class="st4" d="M58.4,497.8v15c-1.2,0.6-3.2,1.1-5.1,1.1c-4.1,0-6.6-2.1-6.6-6c0-3.7,2.8-6.1,6.3-6.1c0.7,0,1.3,0.1,1.8,0.2
		v-4.3c0.6-0.1,1.2-0.1,1.8-0.1C57.3,497.6,57.8,497.7,58.4,497.8z M54.9,510.6v-5.4c-0.5-0.3-1.1-0.3-1.6-0.3c-1.7,0-3,1.1-3,3
		c0,1.8,1.2,3,2.9,3C53.8,510.8,54.3,510.7,54.9,510.6z"/>
	<path class="st4" d="M71.1,508.7h-7.5c0.2,1.6,1.1,2.3,2.8,2.3c1.4,0,2.5-0.6,3.3-1.1c0.7,0.6,1.2,1.5,1.3,2.4
		c-1,0.8-2.6,1.6-5,1.6c-3.5,0-6-2.2-6-6c0-3.6,2.5-6.1,5.9-6.1c3.2,0,5.4,2,5.4,5.2C71.2,507.6,71.2,508.1,71.1,508.7z M67.8,506.7
		c0-1.1-0.5-2.1-2-2.2c-1.4,0-2.1,0.9-2.3,2.2H67.8z"/>
	<path class="st4" d="M80.3,502.1c0,1.2-0.4,2.3-1,3.1c-0.4-0.1-0.9-0.2-1.4-0.2c-0.7,0-1.4,0.1-1.7,0.3v8.1
		c-0.6,0.1-1.2,0.1-1.8,0.1c-0.6,0-1.2,0-1.8-0.1v-10c0.8-0.7,2.6-1.7,5-1.7C78.8,501.7,79.7,501.9,80.3,502.1z"/>
	<path class="st4" d="M91.2,506.8v5.9c-1.7,0.7-3.7,1.1-5.7,1.1c-3.2,0-5.1-1.2-5.1-3.7c0-2.4,2.1-3.6,4.9-3.6
		c0.9,0,1.7,0.1,2.4,0.3v-0.5c0-1-0.7-1.7-2.3-1.7c-1.3,0-2.5,0.5-3.1,1c-0.8-0.4-1.4-1.2-1.5-2.3c0.6-0.6,2.4-1.6,4.9-1.6
		C88.9,501.8,91.2,503.2,91.2,506.8z M85.9,511.3c0.6,0,1.1-0.1,1.7-0.3V509c-0.6-0.2-1.2-0.3-2-0.3c-1.1,0-1.8,0.4-1.8,1.2
		S84.6,511.3,85.9,511.3z"/>
	<path class="st4" d="M102.6,512c0,0.6-0.1,1.1-0.2,1.5h-9.8c-0.1-0.3-0.1-0.6-0.1-0.8c0-0.9,0.4-1.5,0.7-1.9l4.3-4.9l0.6-0.7h-5.4
		c-0.1-0.3-0.2-0.9-0.2-1.5c0-0.6,0.1-1.1,0.2-1.4h9.5c0.1,0.2,0.1,0.5,0.1,0.8c0,0.9-0.3,1.6-0.7,2.1l-4,4.8l-0.6,0.6h5.3
		C102.4,510.9,102.6,511.4,102.6,512z"/>
	<path class="st4" d="M114.7,503.4v9.4c0,3.7-2.6,5.5-5.9,5.5c-2.7,0-4.6-1-5.6-2.1c0.1-0.9,0.8-1.9,1.9-2.2c0.8,1,1.9,1.6,3.5,1.6
		c1.8,0,2.6-0.8,2.6-2.1V513c-0.5,0.2-1.2,0.3-1.9,0.3c-3.3,0-6.1-1.9-6.1-5.5c0-3.8,2.9-6,6.4-6
		C111.6,501.7,113.5,502.4,114.7,503.4z M111.1,510.1V505c-0.5-0.2-1-0.3-1.6-0.3c-1.6,0-2.8,1.1-2.8,2.8c0,1.7,1.2,2.8,2.8,2.8
		C110.2,510.4,110.7,510.3,111.1,510.1z"/>
	<path class="st4" d="M116.1,507.8c0-3.7,2.6-6.1,6.2-6.1c3.6,0,6.2,2.4,6.2,6.1c0,3.6-2.6,6-6.2,6
		C118.7,513.8,116.1,511.5,116.1,507.8z M125,507.8c0-1.9-1-3.1-2.6-3.1s-2.7,1.2-2.7,3.1c0,1.8,1,3.1,2.7,3.1S125,509.6,125,507.8z
		"/>
</g>
<g>
	<g>
		<path class="st1" d="M-173.4,341.7c-0.5,0-1-0.1-1.5-0.5c-1.2-0.8-1.5-2.4-0.7-3.6c5.2-7.6,13.9-13,23.9-14.8
			c9.4-1.7,18.9-0.4,26.9,1c1.4,0.3,2.4,1.6,2.1,3c-0.3,1.4-1.6,2.4-3,2.1c-7.6-1.4-16.5-2.6-25.1-1c-8.6,1.5-16.1,6.2-20.5,12.6
			C-171.7,341.3-172.5,341.7-173.4,341.7z"/>
	</g>
	<g>
		<path class="st1" d="M-116.8,342.8c-0.5,0-1-0.1-1.4-0.4c-11.1-7.2-23.8-7.9-39-2.2c-1.3,0.5-2.9-0.2-3.4-1.5
			c-0.5-1.3,0.2-2.9,1.5-3.4c16.6-6.3,31.3-5.4,43.7,2.7c1.2,0.8,1.5,2.4,0.8,3.6C-115.1,342.4-115.9,342.8-116.8,342.8z"/>
	</g>
	<g>
		<path class="st1" d="M-114.9,353.7c-0.5,0-1-0.2-1.5-0.5c-10.9-7.6-26.1-8.9-37.8-3.1c-1.3,0.6-2.9,0.1-3.5-1.2
			c-0.6-1.3-0.1-2.9,1.2-3.5c13.3-6.6,30.7-5.2,43.1,3.5c1.2,0.8,1.5,2.5,0.6,3.6C-113.2,353.4-114,353.7-114.9,353.7z"/>
	</g>
	<g>
		<path class="st1" d="M-177.2,405.8c-1,0-1.9-0.6-2.4-1.5c-5.8-12.4-7.8-26-5.9-39.3c0.4-3,1.1-6.6,3.1-9.7
			c2.1-3.4,5.4-5.1,8.4-4.5c1.8,0.4,3.5,1.6,5,3.7c2.7,3.7,4,8.1,4.9,11.8c0.2,1,0.4,2.1,0.6,3.4c0.5,3.3,1.2,8.3,3.5,8.6
			c0.4,0.1,1,0.1,1.3-0.2c0.1-0.1,0.9-1,0.7-4.2c-0.1-1.1-0.3-2.3-0.5-3.6c-0.6-3.7-1.4-8.3,1.5-12c5-6.4,15-6.5,19-6.2
			c4.9,0.3,9.9,1.6,16,4.1c1.3,0.5,2,2.1,1.4,3.4c-0.5,1.3-2.1,2-3.4,1.4c-5.5-2.2-10.1-3.4-14.4-3.7c-2.5-0.2-11-0.3-14.6,4.2
			c-1.5,2-1,4.9-0.5,8c0.2,1.4,0.5,2.8,0.5,4.2c0.2,3.9-0.6,6.6-2.4,8.3c-1,0.9-2.7,1.9-5.5,1.5c-6.1-0.9-7.2-8.2-7.9-13.1
			c-0.2-1.1-0.3-2.2-0.5-2.9c-0.8-3.3-1.9-7-4.1-10c-0.7-1-1.3-1.5-1.8-1.6c-0.8-0.2-2,0.7-2.9,2.1c-1.4,2.3-2,5.2-2.4,7.7
			c-1.8,12.3,0.1,24.9,5.5,36.3c0.6,1.3,0,2.9-1.3,3.5C-176.4,405.7-176.8,405.8-177.2,405.8z"/>
	</g>
</g>
<g>
	<g>
		<path class="st1" d="M-211.5,341.7c-0.8,0-1.7-0.4-2.2-1.1c-4.4-6.5-11.9-11.1-20.5-12.6c-8.6-1.5-17.5-0.3-25.1,1
			c-1.4,0.3-2.8-0.7-3-2.1c-0.3-1.4,0.7-2.8,2.1-3c8-1.5,17.5-2.7,26.9-1c10,1.8,18.7,7.2,23.9,14.8c0.8,1.2,0.5,2.8-0.7,3.6
			C-210.5,341.6-211,341.7-211.5,341.7z"/>
	</g>
	<g>
		<path class="st1" d="M-268.1,342.8c-0.9,0-1.7-0.4-2.2-1.2c-0.8-1.2-0.4-2.8,0.8-3.6c12.4-8.1,27.1-9,43.7-2.7
			c1.3,0.5,2,2,1.5,3.4c-0.5,1.3-2,2-3.4,1.5c-15.2-5.8-27.9-5.1-39,2.2C-267.1,342.7-267.6,342.8-268.1,342.8z"/>
	</g>
	<g>
		<path class="st1" d="M-270,353.7c-0.8,0-1.6-0.4-2.1-1.1c-0.8-1.2-0.5-2.8,0.6-3.6c12.4-8.7,29.7-10.1,43.1-3.5
			c1.3,0.6,1.8,2.2,1.2,3.5c-0.6,1.3-2.2,1.8-3.5,1.2c-11.7-5.8-26.9-4.5-37.8,3.1C-269,353.6-269.5,353.7-270,353.7z"/>
	</g>
	<g>
		<path class="st1" d="M-207.7,405.8c-0.4,0-0.7-0.1-1.1-0.2c-1.3-0.6-1.9-2.2-1.3-3.5c5.4-11.5,7.2-24,5.5-36.3
			c-0.4-2.5-0.9-5.4-2.4-7.7c-0.8-1.4-2.1-2.3-2.9-2.1c-0.5,0.1-1.1,0.7-1.8,1.6c-2.2,3-3.3,6.8-4.1,10c-0.2,0.7-0.3,1.8-0.5,2.9
			c-0.7,4.9-1.8,12.2-7.9,13.1c-2.8,0.4-4.5-0.6-5.5-1.5c-1.8-1.7-2.6-4.4-2.4-8.3c0.1-1.4,0.3-2.8,0.5-4.2c0.5-3.1,1-6-0.5-8
			c-3.5-4.5-12.1-4.4-14.6-4.2c-4.3,0.3-8.8,1.4-14.4,3.7c-1.3,0.5-2.9-0.1-3.4-1.4c-0.5-1.3,0.1-2.9,1.4-3.4c6-2.5,11.1-3.7,16-4.1
			c4.1-0.3,14.1-0.2,19,6.2c2.9,3.8,2.1,8.4,1.5,12c-0.2,1.3-0.4,2.5-0.5,3.6c-0.2,3.2,0.6,4,0.7,4.2c0.3,0.2,0.8,0.2,1.3,0.2
			c2.2-0.3,3-5.3,3.5-8.6c0.2-1.2,0.4-2.4,0.6-3.4c0.9-3.7,2.3-8.1,4.9-11.8c1.5-2.1,3.1-3.3,5-3.7c3-0.7,6.4,1.1,8.4,4.5
			c1.9,3.1,2.6,6.7,3.1,9.7c1.9,13.3-0.1,26.9-5.9,39.3C-205.8,405.2-206.7,405.8-207.7,405.8z"/>
	</g>
</g>
<g>
	<path class="st4" d="M-227.7,507.7c0,3.8-2.8,6.1-6.2,6.1c-0.8,0-1.4-0.1-1.9-0.2v4.2c-0.6,0.1-1.2,0.1-1.8,0.1
		c-0.6,0-1.2,0-1.8-0.1v-14.3c1.2-1,3.1-1.7,5.4-1.7C-230.4,501.8-227.7,503.7-227.7,507.7z M-231.3,507.8c0-1.8-1.2-2.9-3-2.9
		c-0.5,0-1.1,0.1-1.6,0.3v5.2c0.5,0.2,1,0.3,1.6,0.3C-232.4,510.8-231.3,509.7-231.3,507.8z"/>
	<path class="st4" d="M-218.6,502.1c0,1.2-0.4,2.3-1,3.1c-0.4-0.1-0.9-0.2-1.4-0.2c-0.7,0-1.4,0.1-1.7,0.3v8.1
		c-0.6,0.1-1.2,0.1-1.8,0.1c-0.6,0-1.2,0-1.8-0.1v-10c0.8-0.7,2.6-1.7,5-1.7C-220.1,501.7-219.2,501.9-218.6,502.1z"/>
	<path class="st4" d="M-218.7,507.8c0-3.7,2.6-6.1,6.2-6.1s6.2,2.4,6.2,6.1c0,3.6-2.6,6-6.2,6S-218.7,511.5-218.7,507.8z
		 M-209.9,507.8c0-1.9-1-3.1-2.6-3.1c-1.7,0-2.7,1.2-2.7,3.1c0,1.8,1,3.1,2.7,3.1C-210.8,510.9-209.9,509.6-209.9,507.8z"/>
	<path class="st4" d="M-193.8,503.4v9.4c0,3.7-2.6,5.5-5.9,5.5c-2.7,0-4.6-1-5.6-2.1c0.1-0.9,0.8-1.9,1.9-2.2c0.8,1,1.9,1.6,3.5,1.6
		c1.8,0,2.6-0.8,2.6-2.1V513c-0.5,0.2-1.2,0.3-1.9,0.3c-3.3,0-6.1-1.9-6.1-5.5c0-3.8,2.9-6,6.4-6
		C-196.9,501.7-195,502.4-193.8,503.4z M-197.4,510.1V505c-0.5-0.2-1-0.3-1.6-0.3c-1.6,0-2.8,1.1-2.8,2.8c0,1.7,1.2,2.8,2.8,2.8
		C-198.3,510.4-197.9,510.3-197.4,510.1z"/>
	<path class="st4" d="M-184.2,502.1c0,1.2-0.4,2.3-1,3.1c-0.4-0.1-0.9-0.2-1.4-0.2c-0.7,0-1.4,0.1-1.7,0.3v8.1
		c-0.6,0.1-1.2,0.1-1.8,0.1c-0.6,0-1.2,0-1.8-0.1v-10c0.8-0.7,2.6-1.7,5-1.7C-185.8,501.7-184.9,501.9-184.2,502.1z"/>
	<path class="st4" d="M-173.1,508.7h-7.5c0.2,1.6,1.1,2.3,2.8,2.3c1.4,0,2.5-0.6,3.3-1.1c0.7,0.6,1.2,1.5,1.3,2.4
		c-1,0.8-2.6,1.6-5,1.6c-3.5,0-6-2.2-6-6c0-3.6,2.5-6.1,5.9-6.1c3.2,0,5.4,2,5.4,5.2C-173,507.6-173.1,508.1-173.1,508.7z
		 M-176.4,506.7c0-1.1-0.5-2.1-2-2.2c-1.4,0-2.1,0.9-2.3,2.2H-176.4z"/>
	<path class="st4" d="M-172.2,512.4c0.2-1.1,0.7-2,1.4-2.4c0.8,0.5,2,1.1,3.7,1.1c1.1,0,1.5-0.4,1.5-0.9c0-0.6-0.6-0.9-2.5-1.2
		c-1.9-0.4-3.8-1.1-3.8-3.6c0-2.3,2.1-3.7,5-3.7c2.4,0,3.8,0.5,4.6,1.1c-0.1,1.1-0.6,2-1.2,2.5c-0.8-0.4-2-0.8-3.3-0.8
		c-1.1,0-1.6,0.2-1.6,0.8c0,0.6,0.5,0.8,2.3,1.1c2.2,0.4,4.1,1.1,4.1,3.6c0,2.4-1.8,3.8-5.1,3.8C-169.7,513.9-171.4,513-172.2,512.4
		z"/>
	<path class="st4" d="M-161.1,507.8c0-3.7,2.6-6.1,6.2-6.1s6.2,2.4,6.2,6.1c0,3.6-2.6,6-6.2,6S-161.1,511.5-161.1,507.8z
		 M-152.2,507.8c0-1.9-1-3.1-2.6-3.1c-1.7,0-2.7,1.2-2.7,3.1c0,1.8,1,3.1,2.7,3.1C-153.2,510.9-152.2,509.6-152.2,507.8z"/>
</g>
<g>
	<g>
		<path class="st5" d="M-422,454.4c-0.7,0-1.4-0.3-1.9-0.8c-1-1-0.9-2.7,0.1-3.7c5.6-5.3,11.9-11.7,15.7-19.6c3.9-7.8,4.6-16.6,2-24
			c-0.5-1.4,0.2-2.8,1.6-3.3c1.4-0.5,2.8,0.2,3.3,1.6c3.1,8.7,2.3,18.9-2.2,28c-4.2,8.6-10.9,15.4-16.8,21.1
			C-420.7,454.2-421.3,454.4-422,454.4z"/>
	</g>
	<g>
		<path class="st5" d="M-438.1,453c-1.1,0-2.1-0.6-2.4-1.7c-0.5-1.3,0.2-2.9,1.5-3.4c12.4-4.6,20.5-14.5,24.9-30.1
			c0.4-1.4,1.8-2.2,3.2-1.8c1.4,0.4,2.2,1.8,1.8,3.2c-4.8,17.1-14.2,28.4-28.1,33.6C-437.5,453-437.8,453-438.1,453z"/>
	</g>
	<g>
		<path class="st5" d="M-448,448.1c-1.1,0-2.1-0.7-2.5-1.8c-0.5-1.4,0.3-2.8,1.6-3.3c12.6-4.3,22.6-15.8,24.9-28.6
			c0.3-1.4,1.6-2.4,3-2.1c1.4,0.3,2.4,1.6,2.1,3c-2.6,14.7-14,27.8-28.4,32.6C-447.4,448-447.7,448.1-448,448.1z"/>
	</g>
	<g>
		<path class="st5" d="M-449.3,437.1c-0.9,0-1.7-0.4-2.2-1.2c-0.8-1.2-0.4-2.8,0.9-3.6c5.1-3.1,8.7-6.1,11.5-9.4
			c1.6-1.9,6.8-8.7,5.2-14.2c-0.7-2.4-3.3-3.7-6.1-5.1c-1.2-0.6-2.5-1.3-3.7-2c-3.3-2.2-5-4.4-5.2-6.8c-0.1-1.3,0.1-3.3,2.1-5.3
			c4.3-4.4,10.9-0.9,15.2,1.4c1,0.5,1.9,1,2.6,1.3c3.1,1.3,6.8,2.6,10.5,2.6c1.2,0,2-0.2,2.4-0.5c0.6-0.5,0.6-2.1,0-3.6
			c-1-2.5-3-4.7-4.8-6.5c-8.9-8.7-20.1-14.7-32.5-17.1c-1.4-0.3-2.3-1.7-2-3.1c0.3-1.4,1.7-2.3,3.1-2c13.4,2.7,25.6,9.1,35.1,18.5
			c2.2,2.2,4.6,4.8,6,8.2c1.5,3.7,0.9,7.4-1.4,9.4c-1.4,1.2-3.3,1.9-5.9,1.8c-4.6,0-8.9-1.5-12.4-3c-0.9-0.4-2-0.9-3.1-1.5
			c-3-1.6-7.4-4-9-2.3c-0.3,0.3-0.7,0.8-0.6,1.1c0,0.2,0.3,1.3,2.9,3c0.9,0.6,2,1.1,3.2,1.7c3.3,1.7,7.5,3.8,8.8,8.4
			c2.2,7.8-3.7,15.9-6.3,19c-3.1,3.7-7.2,7.1-12.7,10.5C-448.3,437-448.8,437.1-449.3,437.1z"/>
	</g>
</g>
<g class="st7">
	<path class="st0" d="M91.6,400.1c-0.7,0-1.4-0.3-1.9-0.8c-1-1-1-2.7,0.1-3.7c13-12.4,19.1-27,18.1-43.6c-0.8-13.9-6.3-26-9.6-33.3
		c-1.3-2.8-2.2-4.8-2.6-6.3c-0.4-1.4,0.5-2.8,1.9-3.2c1.4-0.4,2.8,0.5,3.2,1.9c0.3,1,1.2,3.1,2.3,5.4c3.5,7.6,9.2,20.3,10.1,35.2
		c1.1,18.2-5.6,34.2-19.7,47.7C92.9,399.9,92.2,400.1,91.6,400.1z"/>
</g>
<g class="st7">
	<path class="st0" d="M99.8,408.7c-0.7,0-1.4-0.3-1.9-0.8c-1-1-1-2.7,0.1-3.7c19.1-18.2,20.8-41.8,18.8-58.3
		c-2.2-19.1-9.8-35.8-14.4-42.4c-0.8-1.2-0.5-2.8,0.7-3.6c1.2-0.8,2.8-0.5,3.6,0.7c4.9,7,12.9,24.8,15.3,44.8
		c3,25.5-4.1,47.2-20.4,62.7C101.1,408.5,100.4,408.7,99.8,408.7z"/>
</g>
<g>
	<g>
		<path class="st0" d="M-8.9,767.1c-0.2,0-0.5,0-0.7-0.1c-1.3-0.4-2-1.7-1.6-3c2.1-6.8,4.2-14.8,3.8-22.8c-0.5-8-3.8-15.4-9.3-20.2
			c-1-0.9-1.1-2.4-0.2-3.4c0.9-1,2.4-1.1,3.4-0.2c6.4,5.6,10.4,14.2,10.9,23.5c0.5,8.8-1.7,17.3-4,24.5
			C-7,766.4-7.9,767.1-8.9,767.1z"/>
	</g>
	<g>
		<path class="st0" d="M-22.5,773.3c-0.5,0-1.1-0.2-1.5-0.6c-1-0.9-1.1-2.4-0.3-3.4c7.9-9.3,9.9-20.9,6.4-35.4
			c-0.3-1.3,0.5-2.6,1.8-2.9c1.3-0.3,2.6,0.5,2.9,1.8c3.9,15.9,1.4,29.2-7.4,39.7C-21.1,773-21.8,773.3-22.5,773.3z"/>
	</g>
	<g>
		<path class="st0" d="M-32.7,773.8c-0.6,0-1.1-0.2-1.6-0.6c-1-0.9-1.1-2.4-0.2-3.4c8.2-9.1,11.1-22.9,7.1-34.2
			c-0.4-1.3,0.2-2.6,1.5-3.1c1.3-0.4,2.6,0.2,3.1,1.5c4.5,13,1.3,28.6-8,39C-31.4,773.5-32.1,773.8-32.7,773.8z"/>
	</g>
	<g>
		<path class="st0" d="M-38.7,765.6c-0.4,0-0.8-0.1-1.2-0.3c-1.2-0.6-1.6-2.1-0.9-3.3c2.7-4.8,4.3-8.8,5-12.7
			c0.4-2.3,1.5-10.1-2.2-13.8c-1.6-1.6-4.3-1.5-7.2-1.4c-1.3,0.1-2.6,0.1-3.9,0c-3.6-0.3-6-1.3-7.3-3.1c-0.7-1-1.4-2.7-0.7-5.2
			c1.5-5.5,8.3-5.7,12.8-5.8c1,0,2,0,2.7-0.1c3.1-0.4,6.6-1,9.6-2.6c1-0.5,1.6-1,1.7-1.5c0.2-0.7-0.4-1.9-1.6-2.9
			c-2-1.6-4.5-2.4-6.8-3c-11.1-3-22.8-2.7-33.9,0.9c-1.3,0.4-2.6-0.3-3-1.5c-0.4-1.3,0.3-2.6,1.5-3c12-3.9,24.7-4.2,36.6-1
			c2.7,0.7,5.9,1.8,8.5,3.9c2.9,2.3,4.1,5.5,3.1,8.2c-0.6,1.6-1.9,3-3.9,4.1c-3.7,2-7.8,2.8-11.4,3.2c-0.9,0.1-2,0.1-3.2,0.2
			c-3.1,0.1-7.8,0.2-8.3,2.2c-0.1,0.4-0.2,0.9,0,1.2c0.1,0.1,0.8,0.9,3.7,1.1c1,0.1,2.1,0,3.3,0c3.4-0.2,7.7-0.4,10.9,2.7
			c5.3,5.3,4.2,14.4,3.6,18.1c-0.8,4.4-2.6,8.9-5.5,14.2C-37,765.1-37.8,765.6-38.7,765.6z"/>
	</g>
</g>
<g>
	<g>
		<path class="st2" d="M-718.5,822.5c-1.2,0-2.2-0.8-2.4-2c-0.2-1.3,0.7-2.5,2-2.8c7-1.2,15.1-2.9,22.1-6.9c7-4,12-10.4,13.8-17.4
			c0.3-1.3,1.6-2.1,2.9-1.7c1.3,0.3,2.1,1.6,1.7,2.9c-2.1,8.2-8,15.7-16.1,20.3c-7.6,4.4-16.2,6.3-23.7,7.5
			C-718.3,822.5-718.4,822.5-718.5,822.5z"/>
	</g>
	<g>
		<path class="st2" d="M-721.7,814.2c-3,0-6-0.4-9-1.1c-1.3-0.3-2.1-1.6-1.8-2.9c0.3-1.3,1.6-2.1,2.9-1.8
			c11.9,2.8,23.1-0.6,34.5-10.3c1-0.9,2.5-0.7,3.4,0.3c0.9,1,0.7,2.5-0.3,3.4C-701.6,810.1-711.6,814.2-721.7,814.2z"/>
	</g>
	<g>
		<path class="st2" d="M-725.9,805.5c-3.4,0-6.7-0.4-10-1.3c-1.3-0.3-2-1.7-1.7-2.9c0.3-1.3,1.7-2,2.9-1.7
			c11.9,3.2,25.4-0.5,33.8-9.1c0.9-1,2.4-1,3.4-0.1c1,0.9,1,2.4,0.1,3.4C-704.6,801.3-715.3,805.5-725.9,805.5z"/>
	</g>
	<g>
		<path class="st2" d="M-727.8,795.4c-0.9,0-1.9,0-2.9-0.1c-1.3-0.1-2.4-1.2-2.3-2.5c0.1-1.3,1.2-2.4,2.5-2.3
			c5.5,0.2,9.8-0.2,13.6-1.3c2.2-0.7,9.7-3.2,11.3-8.2c0.7-2.2-0.6-4.6-2.1-7.1c-0.6-1.1-1.3-2.3-1.8-3.4c-1.4-3.3-1.6-5.9-0.5-7.9
			c0.6-1.1,1.8-2.5,4.3-3c5.6-1.2,8.8,4.9,10.9,8.8c0.5,0.9,1,1.8,1.3,2.3c1.7,2.6,3.9,5.5,6.7,7.4c0.9,0.6,1.6,0.9,2.1,0.8
			c0.7-0.1,1.5-1.3,1.8-2.7c0.5-2.5,0.1-5.1-0.4-7.4c-2.3-11.2-7.9-21.5-16.1-29.8c-0.9-0.9-0.9-2.5,0-3.4c0.9-0.9,2.5-0.9,3.4,0
			c8.9,8.9,14.9,20.1,17.4,32.2c0.6,2.8,1.1,6.1,0.4,9.4c-0.7,3.6-3.1,6.1-5.9,6.5c-1.7,0.2-3.5-0.3-5.5-1.6c-3.5-2.4-6-5.7-8-8.7
			c-0.5-0.8-1-1.7-1.6-2.7c-1.5-2.7-3.6-6.8-5.7-6.4c-0.4,0.1-0.9,0.2-1.1,0.5c-0.1,0.2-0.5,1.1,0.7,3.8c0.4,0.9,0.9,1.9,1.5,2.9
			c1.7,3,3.8,6.7,2.4,10.9c-2.3,7.1-11,10.3-14.6,11.3C-719.1,794.9-723.1,795.4-727.8,795.4z"/>
	</g>
</g>
<g>
	<g>
		<path class="st2" d="M-620.2,766.4c-0.2,1.1-1.3,2-2.5,1.9c-1.3-0.1-2.4-1.2-2.3-2.5c0.3-7.1,0.3-15.4-2.2-23
			c-2.5-7.7-7.7-13.9-14.1-17.1c-1.2-0.6-1.7-2-1.1-3.2c0.6-1.2,2-1.7,3.2-1.1c7.6,3.8,13.7,11,16.6,19.9c2.7,8.4,2.8,17.2,2.5,24.7
			C-620.1,766.1-620.1,766.3-620.2,766.4z"/>
	</g>
	<g>
		<path class="st2" d="M-629,767.8c-0.6,2.9-1.6,5.8-2.9,8.6c-0.6,1.2-2,1.7-3.2,1.1c-1.2-0.6-1.7-2-1.1-3.2c5.2-11,4.2-22.7-3-35.9
			c-0.6-1.2-0.2-2.6,1-3.3s2.6-0.2,3.3,1C-628.9,747.3-626.9,757.9-629,767.8z"/>
	</g>
	<g>
		<path class="st2" d="M-638.3,770.1c-0.7,3.3-1.8,6.5-3.3,9.5c-0.6,1.2-2.1,1.7-3.2,1c-1.2-0.6-1.7-2.1-1-3.2
			c5.6-10.9,4.8-25-2-34.9c-0.7-1.1-0.5-2.6,0.6-3.3c1.1-0.7,2.6-0.5,3.3,0.6C-638.1,748.4-636.1,759.7-638.3,770.1z"/>
	</g>
	<g>
		<path class="st2" d="M-648.7,769.8c-0.2,0.9-0.4,1.9-0.7,2.8c-0.3,1.3-1.6,2.1-2.9,1.7c-1.3-0.3-2.1-1.6-1.7-2.9
			c1.3-5.3,1.8-9.6,1.5-13.6c-0.2-2.3-1.1-10.1-5.7-12.8c-2-1.1-4.6-0.3-7.3,0.6c-1.2,0.4-2.5,0.8-3.7,1c-3.5,0.7-6.1,0.3-7.9-1.1
			c-0.9-0.8-2.1-2.2-2.1-4.9c0-5.7,6.6-7.6,10.9-8.9c1-0.3,1.9-0.6,2.6-0.8c2.9-1.2,6.2-2.7,8.6-5c0.8-0.8,1.2-1.4,1.3-1.9
			c0.1-0.8-0.9-1.8-2.3-2.4c-2.3-1-5-1.2-7.4-1.2c-11.5-0.1-22.7,3.3-32.5,9.6c-1.1,0.7-2.6,0.4-3.3-0.7c-0.7-1.1-0.4-2.6,0.7-3.3
			c10.6-6.9,22.7-10.4,35.1-10.4c2.8,0,6.1,0.2,9.3,1.6c3.3,1.5,5.4,4.3,5.1,7.1c-0.1,1.7-1,3.4-2.7,5c-3.1,2.9-6.8,4.7-10.1,6
			c-0.8,0.3-1.9,0.6-3,1c-3,0.9-7.4,2.2-7.5,4.3c0,0.4,0.1,0.9,0.3,1.1c0.1,0.1,1,0.7,3.9,0.1c1-0.2,2.1-0.5,3.2-0.9
			c3.3-1,7.4-2.3,11.2-0.1c6.5,3.7,7.8,12.8,8.1,16.6C-647.4,761.3-647.7,765.2-648.7,769.8z"/>
	</g>
</g>
<g>
	<g>
		<path class="st2" d="M-722.5,677.9c-0.4,0-0.8-0.1-1.1-0.3c-1.2-0.6-1.6-2.1-1-3.3c4.1-7.5,11.5-13.3,20.5-15.8
			c8.5-2.4,17.3-2.2,24.8-1.6c1.3,0.1,2.3,1.3,2.2,2.6c-0.1,1.3-1.2,2.3-2.6,2.2c-7.1-0.6-15.4-0.8-23.1,1.4
			c-7.7,2.2-14.2,7.1-17.6,13.5C-720.8,677.4-721.7,677.9-722.5,677.9z"/>
	</g>
	<g>
		<path class="st2" d="M-708.6,675.2c-0.9,0-1.7-0.5-2.2-1.3c-0.6-1.2-0.1-2.6,1.1-3.2c14.6-7.3,28.2-7.9,40.3-1.6
			c1.2,0.6,1.6,2.1,1,3.2c-0.6,1.2-2.1,1.6-3.2,1c-10.8-5.6-22.6-5.1-35.9,1.7C-707.9,675.1-708.3,675.2-708.6,675.2z"/>
	</g>
	<g>
		<path class="st2" d="M-705.1,684.2c-0.8,0-1.6-0.4-2-1.1c-0.7-1.1-0.4-2.6,0.8-3.3c11.6-7.3,27.6-7.6,39.9-0.8
			c1.2,0.6,1.6,2.1,0.9,3.3c-0.6,1.2-2.1,1.6-3.3,0.9c-10.7-6-24.8-5.7-35,0.7C-704.3,684.1-704.7,684.2-705.1,684.2z"/>
	</g>
	<g>
		<path class="st2" d="M-720,737c-0.8,0-1.6-0.4-2.1-1.2c-6.5-10.8-9.6-23.1-9.1-35.5c0.1-2.8,0.4-6.1,1.9-9.2
			c1.6-3.3,4.5-5.2,7.3-4.9c1.7,0.2,3.3,1.1,4.9,2.9c2.8,3.2,4.4,7,5.6,10.4c0.3,0.9,0.6,1.9,0.9,3c0.8,3,1.9,7.5,4,7.6
			c0.4,0,0.9,0,1.2-0.3c0.1-0.1,0.7-1,0.3-3.9c-0.2-1-0.5-2.1-0.8-3.2c-0.9-3.3-2.1-7.5,0.3-11.2c4-6.3,13.1-7.3,16.9-7.5
			c4.5-0.2,9.3,0.5,15,2.2c1.3,0.4,2,1.7,1.6,3c-0.4,1.3-1.7,2-3,1.6c-5.3-1.5-9.6-2.2-13.5-2c-2.3,0.1-10.2,0.7-13,5.2
			c-1.2,1.9-0.5,4.6,0.3,7.4c0.3,1.2,0.7,2.5,0.9,3.8c0.6,3.6,0.1,6.1-1.4,7.8c-0.8,0.9-2.3,2-4.9,1.9c-5.7-0.2-7.4-6.8-8.5-11.2
			c-0.3-1-0.5-2-0.7-2.6c-1.1-2.9-2.4-6.2-4.7-8.8c-0.7-0.8-1.4-1.3-1.8-1.3c-0.8-0.1-1.8,0.9-2.4,2.2c-1.1,2.3-1.3,5-1.4,7.3
			c-0.5,11.5,2.4,22.8,8.4,32.8c0.7,1.1,0.3,2.6-0.8,3.3C-719.2,736.9-719.6,737-720,737z"/>
	</g>
</g>
<g>
	<g>
		<path class="st2" d="M-771.7,752.8c-0.5,0-0.9-0.1-1.4-0.4c-7-4.8-12-12.8-13.7-22c-1.6-8.7-0.4-17.4,1-24.8
			c0.2-1.3,1.5-2.2,2.8-1.9c1.3,0.2,2.2,1.5,1.9,2.8c-1.3,7-2.4,15.2-1,23.1c1.4,7.9,5.7,14.8,11.6,18.9c1.1,0.7,1.4,2.2,0.6,3.3
			C-770.1,752.5-770.9,752.8-771.7,752.8z"/>
	</g>
	<g>
		<path class="st2" d="M-772.9,738.8c-1,0-1.9-0.6-2.2-1.5c-5.8-15.3-5-28.9,2.5-40.3c0.7-1.1,2.2-1.4,3.3-0.7
			c1.1,0.7,1.4,2.2,0.7,3.3c-6.7,10.2-7.3,21.9-2,35.9c0.5,1.2-0.2,2.6-1.4,3.1C-772.3,738.7-772.6,738.8-772.9,738.8z"/>
	</g>
	<g>
		<path class="st2" d="M-763.6,736.2c-0.9,0-1.7-0.5-2.2-1.3c-6.1-12.3-4.8-28.3,3.2-39.7c0.8-1.1,2.3-1.4,3.3-0.6
			c1.1,0.8,1.4,2.3,0.6,3.3c-7,10.1-8.2,24.1-2.9,34.8c0.6,1.2,0.1,2.6-1.1,3.2C-762.9,736.1-763.3,736.2-763.6,736.2z"/>
	</g>
	<g>
		<path class="st2" d="M-738.8,762.2c-3,0-6-0.2-9-0.6c-2.8-0.4-6.1-1.1-9-2.8c-3.1-1.9-4.7-5-4.1-7.8c0.4-1.7,1.5-3.2,3.4-4.6
			c3.4-2.5,7.4-3.7,10.9-4.6c0.9-0.2,2-0.4,3.1-0.5c3.1-0.4,7.7-1.1,8-3.2c0.1-0.4,0.1-0.9-0.2-1.2c-0.1-0.1-0.9-0.8-3.8-0.6
			c-1,0.1-2.1,0.2-3.3,0.4c-3.4,0.6-7.6,1.3-11.1-1.4c-5.9-4.6-6-13.8-5.7-17.5c0.3-4.5,1.5-9.2,3.7-14.7c0.5-1.2,1.9-1.8,3.1-1.3
			c1.2,0.5,1.8,1.9,1.3,3.1c-2.1,5.1-3.1,9.3-3.4,13.2c-0.1,2.3-0.3,10.2,3.9,13.4c1.8,1.4,4.5,0.9,7.4,0.5c1.3-0.2,2.6-0.4,3.8-0.5
			c3.6-0.2,6.1,0.5,7.6,2.2c0.8,0.9,1.7,2.5,1.4,5.1c-0.8,5.6-7.6,6.6-12,7.3c-1,0.2-2,0.3-2.6,0.5c-3,0.8-6.5,1.8-9.2,3.8
			c-0.9,0.7-1.4,1.2-1.5,1.7c-0.2,0.7,0.7,1.9,1.9,2.7c2.1,1.3,4.8,1.8,7.1,2.2c11.4,1.6,22.9-0.1,33.5-5c1.2-0.6,2.6,0,3.2,1.2
			s0,2.6-1.2,3.2C-720.2,760.2-729.5,762.2-738.8,762.2z"/>
	</g>
</g>
<g>
	<g>
		<path class="st1" d="M-122.2,738.4c-0.5,0-0.9-0.1-1.4-0.4c-7-4.8-12-12.8-13.7-22c-1.6-8.7-0.4-17.4,1-24.8
			c0.2-1.3,1.5-2.2,2.8-1.9c1.3,0.2,2.2,1.5,1.9,2.8c-1.3,7-2.4,15.2-1,23.1c1.4,7.9,5.7,14.8,11.6,18.9c1.1,0.7,1.4,2.2,0.6,3.3
			C-120.7,738-121.4,738.4-122.2,738.4z"/>
	</g>
	<g>
		<path class="st1" d="M-123.4,724.3c-1,0-1.9-0.6-2.2-1.5c-5.8-15.3-5-28.9,2.5-40.3c0.7-1.1,2.2-1.4,3.3-0.7
			c1.1,0.7,1.4,2.2,0.7,3.3c-6.7,10.2-7.3,21.9-2,35.9c0.5,1.2-0.2,2.6-1.4,3.1C-122.8,724.3-123.1,724.3-123.4,724.3z"/>
	</g>
	<g>
		<path class="st1" d="M-114.1,721.8c-0.9,0-1.7-0.5-2.2-1.3c-6.1-12.3-4.8-28.3,3.2-39.7c0.8-1.1,2.3-1.4,3.3-0.6
			c1.1,0.8,1.4,2.3,0.6,3.3c-7,10.1-8.2,24.1-2.9,34.8c0.6,1.2,0.1,2.6-1.1,3.2C-113.4,721.7-113.8,721.8-114.1,721.8z"/>
	</g>
	<g>
		<path class="st1" d="M-89.3,747.8c-3,0-6-0.2-9-0.6c-2.8-0.4-6.1-1.1-9-2.8c-3.1-1.9-4.7-5-4.1-7.8c0.4-1.7,1.5-3.2,3.4-4.6
			c3.4-2.5,7.4-3.7,10.9-4.6c0.9-0.2,2-0.4,3.1-0.5c3.1-0.4,7.7-1.1,8-3.2c0.1-0.4,0.1-0.9-0.2-1.2c-0.1-0.1-0.9-0.8-3.8-0.6
			c-1,0.1-2.1,0.2-3.3,0.4c-3.4,0.6-7.6,1.3-11.1-1.4c-5.9-4.6-6-13.8-5.7-17.5c0.3-4.5,1.5-9.2,3.7-14.7c0.5-1.2,1.9-1.8,3.1-1.3
			c1.2,0.5,1.8,1.9,1.3,3.1c-2.1,5.1-3.1,9.3-3.4,13.2c-0.1,2.3-0.3,10.2,3.9,13.4c1.8,1.4,4.5,0.9,7.4,0.5c1.3-0.2,2.6-0.4,3.8-0.5
			c3.6-0.2,6.1,0.5,7.6,2.2c0.8,0.9,1.7,2.5,1.4,5.1c-0.8,5.6-7.6,6.6-12,7.3c-1,0.2-2,0.3-2.6,0.5c-3,0.8-6.5,1.8-9.2,3.8
			c-0.9,0.7-1.4,1.2-1.5,1.7c-0.2,0.7,0.7,1.9,1.9,2.7c2.1,1.3,4.8,1.8,7.1,2.2c11.4,1.6,22.9-0.1,33.5-5c1.2-0.6,2.6,0,3.2,1.2
			s0,2.6-1.2,3.2C-70.7,745.7-80,747.8-89.3,747.8z"/>
	</g>
</g>
<g>
	<g>
		<path class="st3" d="M140,805.9c-0.2,0-0.5,0-0.7-0.1c-1.3-0.4-2-1.7-1.6-3c2.1-6.8,4.2-14.8,3.8-22.8c-0.5-8-3.8-15.4-9.3-20.2
			c-1-0.9-1.1-2.4-0.2-3.4c0.9-1,2.4-1.1,3.4-0.2c6.4,5.6,10.4,14.2,10.9,23.5c0.5,8.8-1.7,17.3-4,24.5
			C142,805.3,141.1,805.9,140,805.9z"/>
	</g>
	<g>
		<path class="st3" d="M126.5,812.1c-0.5,0-1.1-0.2-1.5-0.6c-1-0.9-1.1-2.4-0.3-3.4c7.9-9.3,9.9-20.9,6.4-35.4
			c-0.3-1.3,0.5-2.6,1.8-2.9c1.3-0.3,2.6,0.5,2.9,1.8c3.9,15.9,1.4,29.2-7.4,39.7C127.8,811.8,127.1,812.1,126.5,812.1z"/>
	</g>
	<g>
		<path class="st3" d="M116.2,812.6c-0.6,0-1.1-0.2-1.6-0.6c-1-0.9-1.1-2.4-0.2-3.4c8.2-9.1,11.1-22.9,7.1-34.2
			c-0.4-1.3,0.2-2.6,1.5-3.1c1.3-0.4,2.6,0.2,3.1,1.5c4.5,13,1.3,28.6-8,39C117.6,812.4,116.9,812.6,116.2,812.6z"/>
	</g>
	<g>
		<path class="st3" d="M110.3,804.4c-0.4,0-0.8-0.1-1.2-0.3c-1.2-0.6-1.6-2.1-0.9-3.3c2.7-4.8,4.3-8.8,5-12.7
			c0.4-2.3,1.5-10.1-2.2-13.8c-1.6-1.6-4.3-1.5-7.2-1.4c-1.3,0.1-2.6,0.1-3.9,0c-3.6-0.3-6-1.3-7.3-3.1c-0.7-1-1.4-2.7-0.7-5.2
			c1.5-5.5,8.3-5.7,12.8-5.8c1,0,2,0,2.7-0.1c3.1-0.4,6.6-1,9.6-2.6c1-0.5,1.6-1,1.7-1.5c0.2-0.7-0.4-1.9-1.6-2.9
			c-2-1.6-4.5-2.4-6.8-3c-11.1-3-22.8-2.7-33.9,0.9c-1.3,0.4-2.6-0.3-3-1.5c-0.4-1.3,0.3-2.6,1.5-3c12-3.9,24.7-4.2,36.6-1
			c2.7,0.7,5.9,1.8,8.5,3.9c2.9,2.3,4.1,5.5,3.1,8.2c-0.6,1.6-1.9,3-3.9,4.1c-3.7,2-7.8,2.8-11.4,3.2c-0.9,0.1-2,0.1-3.2,0.2
			c-3.1,0.1-7.8,0.2-8.3,2.2c-0.1,0.4-0.2,0.9,0,1.2c0.1,0.1,0.8,0.9,3.7,1.1c1,0.1,2.1,0,3.3,0c3.4-0.2,7.7-0.4,10.9,2.7
			c5.3,5.3,4.2,14.4,3.6,18.1c-0.8,4.4-2.6,8.9-5.5,14.2C111.9,804,111.1,804.4,110.3,804.4z"/>
	</g>
</g>
<g>
	<g>
		<path class="st2" d="M26.8,777.3c-0.5,0-0.9-0.1-1.4-0.4c-7-4.8-12-12.8-13.7-22c-1.6-8.7-0.4-17.4,1-24.8
			c0.2-1.3,1.5-2.2,2.8-1.9c1.3,0.2,2.2,1.5,1.9,2.8c-1.3,7-2.4,15.2-1,23.1c1.4,7.9,5.7,14.8,11.6,18.9c1.1,0.7,1.4,2.2,0.6,3.3
			C28.3,776.9,27.5,777.3,26.8,777.3z"/>
	</g>
	<g>
		<path class="st2" d="M25.5,763.2c-1,0-1.9-0.6-2.2-1.5c-5.8-15.3-5-28.9,2.5-40.3c0.7-1.1,2.2-1.4,3.3-0.7
			c1.1,0.7,1.4,2.2,0.7,3.3c-6.7,10.2-7.3,21.9-2,35.9c0.5,1.2-0.2,2.6-1.4,3.1C26.1,763.1,25.8,763.2,25.5,763.2z"/>
	</g>
	<g>
		<path class="st2" d="M34.8,760.6c-0.9,0-1.7-0.5-2.2-1.3c-6.1-12.3-4.8-28.3,3.2-39.7c0.8-1.1,2.3-1.4,3.3-0.6
			c1.1,0.8,1.4,2.3,0.6,3.3c-7,10.1-8.2,24.1-2.9,34.8c0.6,1.2,0.1,2.6-1.1,3.2C35.5,760.5,35.2,760.6,34.8,760.6z"/>
	</g>
	<g>
		<path class="st2" d="M59.6,786.6c-3,0-6-0.2-9-0.6c-2.8-0.4-6.1-1.1-9-2.8c-3.1-1.9-4.7-5-4.1-7.8c0.4-1.7,1.5-3.2,3.4-4.6
			c3.4-2.5,7.4-3.7,10.9-4.6c0.9-0.2,2-0.4,3.1-0.5c3.1-0.4,7.7-1.1,8-3.2c0.1-0.4,0.1-0.9-0.2-1.2c-0.1-0.1-0.9-0.8-3.8-0.6
			c-1,0.1-2.1,0.2-3.3,0.4c-3.4,0.6-7.6,1.3-11.1-1.4c-5.9-4.6-6-13.8-5.7-17.5c0.3-4.5,1.5-9.2,3.7-14.7c0.5-1.2,1.9-1.8,3.1-1.3
			c1.2,0.5,1.8,1.9,1.3,3.1c-2.1,5.1-3.1,9.3-3.4,13.2c-0.1,2.3-0.3,10.2,3.9,13.4c1.8,1.4,4.5,0.9,7.4,0.5c1.3-0.2,2.6-0.4,3.8-0.5
			c3.6-0.2,6.1,0.5,7.6,2.2c0.8,0.9,1.7,2.5,1.4,5.1c-0.8,5.6-7.6,6.6-12,7.3c-1,0.2-2,0.3-2.6,0.5c-3,0.8-6.5,1.8-9.2,3.8
			c-0.9,0.7-1.4,1.2-1.5,1.7c-0.2,0.7,0.7,1.9,1.9,2.7c2.1,1.3,4.8,1.8,7.1,2.2c11.4,1.6,22.9-0.1,33.5-5c1.2-0.6,2.6,0,3.2,1.2
			c0.6,1.2,0,2.6-1.2,3.2C78.2,784.6,68.9,786.6,59.6,786.6z"/>
	</g>
</g>
<g>
	<path class="st4" d="M-733.2,884.4h-6.5c0.2,1.4,1,2,2.4,2c1.2,0,2.1-0.5,2.9-1c0.6,0.5,1,1.3,1.1,2.1c-0.9,0.7-2.2,1.4-4.3,1.4
		c-3,0-5.2-1.9-5.2-5.2c0-3.1,2.2-5.3,5.1-5.3c2.8,0,4.6,1.8,4.6,4.5C-733.1,883.5-733.1,883.9-733.2,884.4z M-736,882.7
		c0-1-0.5-1.8-1.7-1.9c-1.2,0-1.9,0.8-2,1.9H-736z"/>
	<path class="st4" d="M-722.3,878.9c-0.9,3.8-1.9,6.7-3.7,9.6c-0.5,0.1-1,0.1-1.5,0.1c-0.5,0-1,0-1.5-0.1c-2-3-2.9-5.9-3.7-9.6
		c0.4-0.1,1.4-0.2,2.2-0.2c0.4,0,0.8,0,1.1,0.1c0.6,2.8,1.3,5.5,1.8,6.7c0,0.1,0.1,0.3,0.1,0.5c0-0.2,0.1-0.3,0.1-0.5
		c0.6-1.4,1.3-3.9,1.8-6.7c0.4,0,0.8-0.1,1.2-0.1C-723.6,878.7-722.9,878.8-722.3,878.9z"/>
	<path class="st4" d="M-722.2,883.7c0-3.2,2.3-5.2,5.4-5.2c3.1,0,5.4,2,5.4,5.2c0,3.1-2.3,5.2-5.4,5.2S-722.2,886.9-722.2,883.7z
		 M-714.5,883.7c0-1.6-0.8-2.7-2.3-2.7s-2.3,1.1-2.3,2.7c0,1.6,0.8,2.7,2.3,2.7S-714.5,885.3-714.5,883.7z"/>
	<path class="st4" d="M-710.2,888.6V875c0.5-0.1,1-0.1,1.5-0.1s1.1,0,1.6,0.1v13.5c-0.5,0.1-1,0.1-1.5,0.1
		C-709.1,888.7-709.6,888.6-710.2,888.6z"/>
	<path class="st4" d="M-695.8,878.9v8.9c-0.8,0.4-2.5,1.1-4.9,1.1c-3.4,0-4.7-1.6-4.7-4v-6.1c0.5-0.1,1-0.1,1.5-0.1
		c0.5,0,1,0,1.5,0.1v5.4c0,1.3,0.4,2,1.9,2c0.6,0,1.1-0.1,1.5-0.3v-7.1c0.5-0.1,1-0.1,1.5-0.1C-696.8,878.7-696.3,878.8-695.8,878.9
		z"/>
	<path class="st4" d="M-694.5,883.7c0-3.2,2.3-5.3,5.3-5.3c1.5,0,2.8,0.6,3.4,1.1c-0.2,0.8-0.8,1.7-1.6,2.2c-0.4-0.4-1-0.7-1.7-0.7
		c-1.5,0-2.3,1.1-2.3,2.6c0,1.5,0.7,2.7,2.3,2.7c1,0,1.5-0.3,1.9-0.7c0.8,0.4,1.3,1.1,1.6,2c-0.7,0.6-1.9,1.3-3.5,1.3
		C-692.5,888.9-694.5,887-694.5,883.7z"/>
	<path class="st4" d="M-685,875.6c0-1,0.8-1.8,1.9-1.8c1,0,1.9,0.8,1.9,1.8c0,1-0.8,1.9-1.9,1.9C-684.1,877.5-685,876.6-685,875.6z
		 M-684.7,888.6v-9.8c0.5-0.1,1-0.1,1.5-0.1c0.5,0,1,0,1.5,0.1v9.8c-0.5,0.1-1,0.1-1.5,0.1C-683.6,888.7-684.1,888.6-684.7,888.6z"
		/>
	<path class="st4" d="M-680.3,883.7c0-3.2,2.3-5.2,5.4-5.2c3.1,0,5.4,2,5.4,5.2c0,3.1-2.3,5.2-5.4,5.2S-680.3,886.9-680.3,883.7z
		 M-677.5,876.6l3.6-3.3c0.9,0.5,1.4,1.3,1.7,2.4l-4.4,2.2C-677.1,877.6-677.3,877.2-677.5,876.6z M-672.7,883.7
		c0-1.6-0.8-2.7-2.3-2.7s-2.3,1.1-2.3,2.7c0,1.6,0.8,2.7,2.3,2.7S-672.7,885.3-672.7,883.7z"/>
	<path class="st4" d="M-658.6,882.6v6c-0.5,0.1-1,0.1-1.5,0.1s-1,0-1.5-0.1v-5.5c0-1.4-0.8-1.9-1.9-1.9c-0.7,0-1.3,0.2-1.7,0.4v6.9
		c-0.5,0.1-1,0.1-1.5,0.1s-1,0-1.5-0.1V880c0.8-0.7,2.5-1.6,5-1.6C-660.1,878.4-658.6,880.2-658.6,882.6z"/>
</g>
<g>
	<path class="st4" d="M-1.3,888.4c-0.6,0.1-1.3,0.2-2,0.2c-0.4,0-0.8,0-1.1-0.1l-1-2.6h-4.9l-1,2.6c-0.5,0.1-1,0.1-1.4,0.1
		c-0.6,0-1.2-0.1-1.6-0.2l5-13.1c0.5-0.1,1.1-0.1,1.6-0.1c0.5,0,1,0,1.5,0.1L-1.3,888.4z M-6.4,883.4l-1.1-3.1l-0.4-1.3l-0.4,1.3
		l-1.1,3.1H-6.4z"/>
	<path class="st4" d="M11.5,881.8c0,4.4-3,7-7.5,7c-1.9,0-3.1-0.1-4.3-0.3v-13.2c1.1-0.2,2.4-0.3,4.3-0.3
		C8.8,875,11.5,877.7,11.5,881.8z M8.1,881.8c0-2.4-1.4-3.9-4.1-3.9c-0.4,0-0.8,0-1.3,0v7.9c0.5,0,0.9,0,1.4,0
		C6.7,885.9,8.1,884.3,8.1,881.8z"/>
	<path class="st4" d="M24.6,875.3v13.2c-1,0.2-2,0.2-3,0.2l-5.1-7.5l-0.4-0.8l0.1,1v7.3c-0.5,0.1-1.1,0.1-1.5,0.1
		c-0.5,0-0.9,0-1.5-0.1v-13.1c0.7-0.2,1.9-0.3,3-0.2l5.1,7.7l0.5,0.8l-0.1-1.1v-7.4c0.6-0.1,1-0.1,1.5-0.1
		C23.6,875.2,24.1,875.2,24.6,875.3z"/>
</g>
<g>
	<path class="st4" d="M-409.2,883.7c0-3.2,2.3-5.3,5.3-5.3c1.5,0,2.8,0.6,3.4,1.1c-0.2,0.8-0.8,1.7-1.6,2.2c-0.4-0.4-1-0.7-1.7-0.7
		c-1.5,0-2.3,1.1-2.3,2.6c0,1.5,0.7,2.7,2.3,2.7c1,0,1.5-0.3,1.9-0.7c0.8,0.4,1.3,1.1,1.6,2c-0.7,0.6-1.9,1.3-3.5,1.3
		C-407.1,888.9-409.2,887-409.2,883.7z"/>
	<path class="st4" d="M-400.1,883.7c0-3.2,2.3-5.2,5.4-5.2c3.1,0,5.4,2,5.4,5.2c0,3.1-2.3,5.2-5.4,5.2S-400.1,886.9-400.1,883.7z
		 M-392.5,883.7c0-1.6-0.8-2.7-2.3-2.7s-2.3,1.1-2.3,2.7c0,1.6,0.8,2.7,2.3,2.7S-392.5,885.3-392.5,883.7z"/>
	<path class="st4" d="M-372.2,882.4v6.2c-0.5,0.1-1,0.1-1.5,0.1s-1,0-1.5-0.1v-5.5c0-1.2-0.6-1.9-1.7-1.9c-0.8,0-1.3,0.3-1.7,0.6
		c0,0.2,0,0.4,0,0.6v6.2c-0.5,0.1-1,0.1-1.5,0.1s-1,0-1.5-0.1v-5.5c0-1.2-0.6-1.9-1.8-1.9c-0.7,0-1.2,0.2-1.6,0.4v6.9
		c-0.5,0.1-1,0.1-1.5,0.1s-1,0-1.5-0.1V880c0.7-0.6,2.5-1.6,5-1.6c1.4,0,2.5,0.4,3.2,0.9c0.8-0.5,1.9-0.9,3.2-0.9
		C-373.7,878.4-372.2,880.1-372.2,882.4z"/>
	<path class="st4" d="M-361,878.9v8.9c-0.8,0.4-2.5,1.1-4.9,1.1c-3.4,0-4.7-1.6-4.7-4v-6.1c0.5-0.1,1-0.1,1.5-0.1c0.5,0,1,0,1.5,0.1
		v5.4c0,1.3,0.4,2,1.9,2c0.6,0,1.1-0.1,1.5-0.3v-7.1c0.5-0.1,1-0.1,1.5-0.1C-362.1,878.7-361.6,878.8-361,878.9z"/>
	<path class="st4" d="M-349.7,882.6v6c-0.5,0.1-1,0.1-1.5,0.1s-1,0-1.5-0.1v-5.5c0-1.4-0.8-1.9-1.9-1.9c-0.7,0-1.3,0.2-1.7,0.4v6.9
		c-0.5,0.1-1,0.1-1.5,0.1s-1,0-1.5-0.1V880c0.8-0.7,2.5-1.6,5-1.6C-351.1,878.4-349.7,880.2-349.7,882.6z"/>
	<path class="st4" d="M-348.3,875.6c0-1,0.8-1.8,1.9-1.8c1,0,1.9,0.8,1.9,1.8c0,1-0.8,1.9-1.9,1.9
		C-347.4,877.5-348.3,876.6-348.3,875.6z M-348,888.6v-9.8c0.5-0.1,1-0.1,1.5-0.1c0.5,0,1,0,1.5,0.1v9.8c-0.5,0.1-1,0.1-1.5,0.1
		C-346.9,888.7-347.4,888.6-348,888.6z"/>
	<path class="st4" d="M-333.5,875v13c-1,0.5-2.7,1-4.4,1c-3.6,0-5.7-1.9-5.7-5.2c0-3.2,2.4-5.2,5.5-5.2c0.6,0,1.1,0.1,1.6,0.2V875
		c0.5-0.1,1-0.1,1.5-0.1C-334.5,874.9-334,874.9-333.5,875z M-336.5,886.1v-4.7c-0.5-0.2-0.9-0.3-1.4-0.3c-1.5,0-2.6,1-2.6,2.6
		c0,1.6,1,2.6,2.5,2.6C-337.5,886.3-337,886.2-336.5,886.1z"/>
	<path class="st4" d="M-322.9,882.8v5.1c-1.5,0.6-3.2,1-5,1c-2.8,0-4.4-1.1-4.4-3.2c0-2.1,1.8-3.1,4.3-3.1c0.8,0,1.5,0.1,2.1,0.3
		v-0.4c0-0.8-0.6-1.4-2-1.4c-1.2,0-2.1,0.5-2.7,0.8c-0.7-0.4-1.2-1.1-1.3-2c0.6-0.5,2.1-1.4,4.3-1.4
		C-324.9,878.5-322.9,879.7-322.9,882.8z M-327.4,886.7c0.5,0,1-0.1,1.5-0.2v-1.8c-0.5-0.1-1.1-0.2-1.7-0.2c-1,0-1.6,0.3-1.6,1.1
		C-329.2,886.3-328.6,886.7-327.4,886.7z"/>
	<path class="st4" d="M-311.7,875v13c-1,0.5-2.7,1-4.4,1c-3.6,0-5.7-1.9-5.7-5.2c0-3.2,2.4-5.2,5.5-5.2c0.6,0,1.1,0.1,1.6,0.2V875
		c0.5-0.1,1-0.1,1.5-0.1C-312.7,874.9-312.2,874.9-311.7,875z M-314.8,886.1v-4.7c-0.5-0.2-0.9-0.3-1.4-0.3c-1.5,0-2.6,1-2.6,2.6
		c0,1.6,1,2.6,2.5,2.6C-315.7,886.3-315.3,886.2-314.8,886.1z"/>
	<path class="st4" d="M-421.9,904.2c-0.1-0.3-0.2-0.8-0.2-1.3c0-1.5,0.9-3.1,1.9-3.9c0.4,0,1,0.3,1.1,0.7c-0.5,0.8-0.6,1.8-0.6,2.6
		c0,0.7,0.1,1.3,0.4,1.8c-0.4,0.2-1,0.3-1.5,0.3C-421.3,904.4-421.7,904.3-421.9,904.2z M-418.4,904.2c-0.1-0.3-0.2-0.8-0.2-1.3
		c0-1.5,1-3.1,1.9-3.9c0.4,0,1,0.3,1.1,0.7c-0.5,0.8-0.6,1.8-0.6,2.6c0,0.7,0.1,1.3,0.4,1.8c-0.4,0.2-1,0.3-1.5,0.3
		C-417.7,904.4-418.1,904.3-418.4,904.2z"/>
	<path class="st4" d="M-415.3,908.5c0-3.2,2.3-5.3,5.3-5.3c1.5,0,2.8,0.6,3.4,1.1c-0.2,0.8-0.8,1.7-1.6,2.2c-0.4-0.4-1-0.7-1.7-0.7
		c-1.5,0-2.3,1.1-2.3,2.6c0,1.5,0.7,2.7,2.3,2.7c1,0,1.5-0.3,1.9-0.7c0.8,0.4,1.3,1.1,1.6,2c-0.7,0.6-1.9,1.3-3.5,1.3
		C-413.2,913.7-415.3,911.8-415.3,908.5z"/>
	<path class="st4" d="M-395.8,907.1v6.2c-0.5,0.1-1,0.1-1.5,0.1c-0.5,0-1,0-1.5-0.1v-5.5c0-1.2-0.6-1.9-1.8-1.9
		c-0.6,0-1.2,0.2-1.7,0.5v6.9c-0.5,0.1-1,0.1-1.5,0.1c-0.5,0-1,0-1.6-0.1v-13.5c0.5-0.1,1-0.1,1.5-0.1c0.5,0,1,0,1.6,0.1v3.8
		c0.6-0.2,1.3-0.4,2.1-0.4C-397.3,903.2-395.8,904.9-395.8,907.1z"/>
	<path class="st4" d="M-394.6,908.5c0-3.2,2.3-5.2,5.4-5.2c3.1,0,5.4,2,5.4,5.2c0,3.1-2.3,5.2-5.4,5.2S-394.6,911.7-394.6,908.5z
		 M-387,908.5c0-1.6-0.8-2.7-2.3-2.7s-2.3,1.1-2.3,2.7c0,1.6,0.8,2.7,2.3,2.7S-387,910-387,908.5z"/>
	<path class="st4" d="M-383.1,908.5c0-3.2,2.3-5.3,5.3-5.3c1.5,0,2.8,0.6,3.4,1.1c-0.2,0.8-0.8,1.7-1.6,2.2c-0.4-0.4-1-0.7-1.7-0.7
		c-1.5,0-2.3,1.1-2.3,2.6c0,1.5,0.7,2.7,2.3,2.7c1,0,1.5-0.3,1.9-0.7c0.8,0.4,1.3,1.1,1.6,2c-0.7,0.6-1.9,1.3-3.5,1.3
		C-381,913.7-383.1,911.8-383.1,908.5z"/>
	<path class="st4" d="M-364.4,907.6v5.1c-1.5,0.6-3.2,1-5,1c-2.8,0-4.4-1.1-4.4-3.2c0-2.1,1.8-3.1,4.3-3.1c0.8,0,1.5,0.1,2.1,0.3
		v-0.4c0-0.8-0.6-1.4-2-1.4c-1.2,0-2.1,0.5-2.7,0.8c-0.7-0.4-1.2-1.1-1.3-2c0.6-0.5,2.1-1.4,4.3-1.4
		C-366.4,903.3-364.4,904.5-364.4,907.6z M-368.9,911.5c0.5,0,1-0.1,1.5-0.2v-1.8c-0.5-0.1-1.1-0.2-1.7-0.2c-1,0-1.6,0.3-1.6,1.1
		C-370.7,911.1-370.1,911.5-368.9,911.5z"/>
	<path class="st4" d="M-349.9,909.2h-6.5c0.2,1.4,1,2,2.4,2c1.2,0,2.1-0.5,2.9-1c0.6,0.5,1,1.3,1.1,2.1c-0.9,0.7-2.2,1.4-4.3,1.4
		c-3,0-5.2-1.9-5.2-5.2c0-3.1,2.2-5.3,5.1-5.3c2.8,0,4.6,1.8,4.6,4.5C-349.8,908.3-349.8,908.7-349.9,909.2z M-352.7,907.5
		c0-1-0.5-1.8-1.7-1.9c-1.2,0-1.9,0.8-2,1.9H-352.7z"/>
	<path class="st4" d="M-349,912.5c0.2-1,0.6-1.7,1.2-2.1c0.7,0.5,1.7,1,3.2,1c1,0,1.3-0.4,1.3-0.8c0-0.5-0.5-0.8-2.1-1.1
		c-1.6-0.3-3.3-0.9-3.3-3.1c0-2,1.9-3.2,4.3-3.2c2,0,3.3,0.5,4,0.9c-0.1,1-0.5,1.7-1.1,2.1c-0.7-0.4-1.8-0.7-2.9-0.7
		c-1,0-1.4,0.2-1.4,0.7c0,0.5,0.4,0.7,2,1c1.9,0.3,3.6,1,3.6,3.1c0,2-1.6,3.3-4.4,3.3C-346.9,913.7-348.4,913-349,912.5z"/>
	<path class="st4" d="M-339.4,908.5c0-3.2,2.3-5.2,5.4-5.2c3.1,0,5.4,2,5.4,5.2c0,3.1-2.3,5.2-5.4,5.2S-339.4,911.7-339.4,908.5z
		 M-331.8,908.5c0-1.6-0.8-2.7-2.3-2.7s-2.3,1.1-2.3,2.7c0,1.6,0.8,2.7,2.3,2.7S-331.8,910-331.8,908.5z"/>
	<path class="st4" d="M-328,912.5c0.2-1,0.6-1.7,1.2-2.1c0.7,0.5,1.7,1,3.2,1c1,0,1.3-0.4,1.3-0.8c0-0.5-0.5-0.8-2.1-1.1
		c-1.6-0.3-3.3-0.9-3.3-3.1c0-2,1.9-3.2,4.3-3.2c2,0,3.3,0.5,4,0.9c-0.1,1-0.5,1.7-1.1,2.1c-0.7-0.4-1.8-0.7-2.9-0.7
		c-1,0-1.4,0.2-1.4,0.7c0,0.5,0.4,0.7,2,1c1.9,0.3,3.6,1,3.6,3.1c0,2-1.6,3.3-4.4,3.3C-325.9,913.7-327.4,913-328,912.5z"/>
	<path class="st4" d="M-314.4,912.4c0.2-1,0.7-1.9,1.4-2.4c0.4,0.3,1.5,1,2.9,1c1.6,0,2.3-0.8,2.3-2c0-1.1-0.7-1.8-2.2-1.8
		c-1.3,0-2.4,0.4-3.2,0.4c-0.5,0-0.7-0.1-0.8-0.1V900h8.5c0.1,0.5,0.1,1,0.1,1.4c0,0.4,0,0.9-0.1,1.3h-5.7v2.1
		c0.3-0.1,0.9-0.2,1.6-0.2c3.4,0,5,1.6,5,4.3c0,3-2,4.8-5.6,4.8C-312.4,913.7-313.9,912.9-314.4,912.4z"/>
	<path class="st4" d="M-303.6,903.8c0.5-0.8,0.6-1.8,0.6-2.6c0-0.7-0.1-1.3-0.4-1.8c0.4-0.2,0.9-0.3,1.5-0.3c0.4,0,0.7,0,1,0.1
		c0.1,0.4,0.2,0.8,0.2,1.3c0,1.5-1,3.1-1.9,3.9C-302.9,904.4-303.5,904.1-303.6,903.8z M-300.1,903.8c0.5-0.8,0.6-1.8,0.6-2.6
		c0-0.7-0.1-1.3-0.4-1.8c0.4-0.2,0.9-0.3,1.5-0.3c0.3,0,0.7,0,1,0.1c0.1,0.4,0.2,0.8,0.2,1.3c0,1.5-1,3.1-1.9,3.9
		C-299.3,904.4-299.9,904.1-300.1,903.8z"/>
</g>
<g>
	<g>
		<path class="st3" d="M-329,737.2c-0.5,0-0.9-0.1-1.4-0.4c-1.1-0.7-1.4-2.2-0.6-3.3c4.8-7,12.8-12,22-13.7c8.7-1.6,17.4-0.4,24.8,1
			c1.3,0.2,2.2,1.5,1.9,2.8c-0.2,1.3-1.5,2.2-2.8,1.9c-7-1.3-15.2-2.4-23.1-1c-7.9,1.4-14.8,5.7-18.9,11.7
			C-327.4,736.9-328.2,737.2-329,737.2z"/>
	</g>
	<g>
		<path class="st3" d="M-276.8,738.3c-0.5,0-0.9-0.1-1.3-0.4c-10.2-6.7-21.9-7.3-35.9-2c-1.2,0.5-2.6-0.2-3.1-1.4
			c-0.5-1.2,0.2-2.6,1.4-3.1c15.3-5.8,28.9-5,40.3,2.5c1.1,0.7,1.4,2.2,0.7,3.3C-275.2,737.9-276,738.3-276.8,738.3z"/>
	</g>
	<g>
		<path class="st3" d="M-275,748.3c-0.5,0-1-0.1-1.4-0.4c-10.1-7-24.1-8.2-34.8-2.9c-1.2,0.6-2.6,0.1-3.2-1.1
			c-0.6-1.2-0.1-2.6,1.1-3.2c12.3-6.1,28.3-4.8,39.7,3.2c1.1,0.8,1.4,2.3,0.6,3.3C-273.5,748-274.3,748.3-275,748.3z"/>
	</g>
	<g>
		<path class="st3" d="M-332.5,796.3c-0.9,0-1.8-0.5-2.2-1.4c-5.3-11.4-7.2-24-5.5-36.2c0.4-2.8,1.1-6.1,2.8-9
			c1.9-3.1,5-4.7,7.8-4.1c1.7,0.4,3.2,1.5,4.6,3.4c2.5,3.4,3.7,7.4,4.6,10.9c0.2,0.9,0.4,2,0.5,3.1c0.4,3.1,1.1,7.7,3.2,8
			c0.4,0.1,0.9,0.1,1.2-0.2c0.1-0.1,0.8-0.9,0.6-3.8c-0.1-1-0.2-2.1-0.4-3.3c-0.6-3.4-1.3-7.6,1.4-11.1c4.6-5.9,13.8-6,17.5-5.7
			c4.5,0.3,9.2,1.5,14.7,3.7c1.2,0.5,1.8,1.9,1.3,3.1c-0.5,1.2-1.9,1.8-3.1,1.3c-5.1-2.1-9.3-3.1-13.2-3.4
			c-2.3-0.2-10.2-0.3-13.4,3.9c-1.4,1.8-0.9,4.5-0.5,7.4c0.2,1.3,0.4,2.6,0.5,3.8c0.2,3.6-0.5,6.1-2.2,7.6c-0.9,0.8-2.5,1.7-5.1,1.4
			c-5.6-0.8-6.6-7.6-7.3-12c-0.2-1-0.3-2-0.5-2.6c-0.8-3-1.8-6.5-3.8-9.2c-0.7-0.9-1.2-1.4-1.7-1.5c-0.7-0.2-1.9,0.7-2.7,1.9
			c-1.3,2.1-1.8,4.8-2.2,7.1c-1.6,11.4,0.1,22.9,5,33.5c0.6,1.2,0,2.6-1.2,3.2C-331.8,796.2-332.1,796.3-332.5,796.3z"/>
	</g>
</g>
<g>
	<g>
		<path class="st3" d="M-395.2,737.2c-0.8,0-1.5-0.4-2-1.1c-4.1-6-11-10.2-18.9-11.7c-7.9-1.4-16.1-0.3-23.1,1
			c-1.3,0.2-2.6-0.6-2.8-1.9c-0.2-1.3,0.6-2.6,1.9-2.8c7.4-1.4,16.2-2.5,24.8-1c9.2,1.7,17.2,6.6,22,13.7c0.7,1.1,0.5,2.6-0.6,3.3
			C-394.2,737.1-394.7,737.2-395.2,737.2z"/>
	</g>
	<g>
		<path class="st3" d="M-447.4,738.3c-0.8,0-1.6-0.4-2-1.1c-0.7-1.1-0.4-2.6,0.7-3.3c11.4-7.5,25-8.3,40.3-2.5
			c1.2,0.5,1.9,1.9,1.4,3.1s-1.9,1.9-3.1,1.4c-14-5.3-25.7-4.7-35.9,2C-446.5,738.1-446.9,738.3-447.4,738.3z"/>
	</g>
	<g>
		<path class="st3" d="M-449.1,748.3c-0.8,0-1.5-0.4-2-1c-0.8-1.1-0.5-2.6,0.6-3.3c11.5-8,27.4-9.3,39.7-3.2c1.2,0.6,1.7,2,1.1,3.2
			c-0.6,1.2-2,1.7-3.2,1.1c-10.8-5.3-24.8-4.2-34.8,2.9C-448.2,748.2-448.6,748.3-449.1,748.3z"/>
	</g>
	<g>
		<path class="st3" d="M-391.7,796.3c-0.3,0-0.7-0.1-1-0.2c-1.2-0.6-1.7-2-1.2-3.2c4.9-10.6,6.7-22.2,5-33.5c-0.3-2.3-0.9-5-2.2-7.1
			c-0.8-1.3-1.9-2.1-2.7-1.9c-0.5,0.1-1,0.6-1.7,1.5c-2,2.8-3,6.2-3.8,9.2c-0.2,0.6-0.3,1.6-0.5,2.6c-0.7,4.5-1.6,11.2-7.3,12
			c-2.6,0.4-4.2-0.5-5.1-1.4c-1.7-1.5-2.4-4-2.2-7.6c0.1-1.3,0.3-2.6,0.5-3.8c0.5-2.9,0.9-5.6-0.5-7.4c-3.3-4.2-11.1-4-13.4-3.9
			c-3.9,0.3-8.2,1.3-13.2,3.4c-1.2,0.5-2.6-0.1-3.1-1.3c-0.5-1.2,0.1-2.6,1.3-3.1c5.6-2.3,10.3-3.5,14.7-3.7
			c3.8-0.2,13-0.2,17.5,5.7c2.7,3.5,2,7.7,1.4,11.1c-0.2,1.2-0.4,2.3-0.4,3.3c-0.2,2.9,0.5,3.7,0.6,3.8c0.2,0.2,0.8,0.2,1.2,0.2
			c2.1-0.3,2.7-4.9,3.2-8c0.2-1.2,0.3-2.2,0.5-3.1c0.9-3.5,2.1-7.4,4.6-10.9c1.4-1.9,2.9-3,4.6-3.4c2.8-0.6,5.9,1,7.8,4.1
			c1.8,2.9,2.4,6.2,2.8,9c1.8,12.3-0.1,24.8-5.5,36.2C-389.9,795.8-390.8,796.3-391.7,796.3z"/>
	</g>
</g>
<g>
	<path class="st3" d="M-432.7,683.4c-0.4,0.3-0.8,0.5-1.3,0.5c-12.3,0.8-23.9,8.6-29,19.5c-0.6,1.2-2,1.7-3.2,1.2
		c-1.2-0.6-1.7-2-1.2-3.2c5.8-12.4,19.1-21.4,33.1-22.2c1.3-0.1,2.5,0.9,2.5,2.2C-431.8,682.2-432.1,682.9-432.7,683.4z"/>
</g>
<g>
	<path class="st3" d="M-251.4,715.3c-0.4-0.2-0.8-0.6-1-1.1c-5.2-11.1-16.7-19.1-28.7-19.9c-1.3-0.1-2.3-1.2-2.2-2.6
		s1.2-2.3,2.6-2.2c13.7,0.9,26.9,10,32.8,22.7c0.6,1.2,0,2.6-1.2,3.2C-249.9,715.7-250.7,715.7-251.4,715.3z"/>
</g>
<g>
	<path class="st3" d="M-248.5,704.1c-0.3-0.2-0.6-0.5-0.8-0.8c-4-8.6-12.9-14.8-22.2-15.4c-1-0.1-1.8-0.9-1.7-2c0.1-1,0.9-1.8,2-1.7
		c10.6,0.7,20.8,7.7,25.3,17.5c0.4,0.9,0,2-0.9,2.5C-247.3,704.5-248,704.4-248.5,704.1z"/>
</g>
<g>
	<path class="st3" d="M-444.7,678.5c-0.3,0.2-0.6,0.4-1,0.5c-9.4,1.1-18.1,7.7-21.5,16.3c-0.4,1-1.5,1.4-2.4,1c-1-0.4-1.4-1.5-1-2.4
		c4-9.8,13.8-17.3,24.5-18.6c1-0.1,1.9,0.6,2.1,1.6C-444,677.5-444.3,678.1-444.7,678.5z"/>
</g>
</svg>
