<?xml version="1.0" encoding="UTF-8"?>
<svg width="180px" height="169px" viewBox="0 0 180 169" version="1.1" xmlns="http://www.w3.org/2000/svg" xmlns:xlink="http://www.w3.org/1999/xlink">
    <!-- Generator: Sketch 55.2 (78181) - https://sketchapp.com -->
    <title>Group 7</title>
    <desc>Created with Sketch.</desc>
    <g id="Page-1" stroke="none" stroke-width="1" fill="none" fill-rule="evenodd">
        <g id="Que-es" transform="translate(-624.000000, -929.000000)">
            <g id="Group-7" transform="translate(624.000000, 929.000000)">
                <path d="M90.1200799,169 C40.4803534,169 0.240159886,128.876534 0.240159886,79.3825513 C0.240159886,61.1513158 -2.54150478,40.4497713 10.8289282,23.3486842 C24.1993612,6.24759714 45.7175005,0 59.1100199,0 C108.749746,0 180,29.8885688 180,79.3825513 C180,128.876534 139.759806,169 90.1200799,169 Z" id="Fill-11-Copy-5" fill="#C43659"></path>
                <path d="M103.0625,44 C94.5195312,44 86.7851562,45.5669643 81.1777344,48.0741071 C81.0195312,48.14375 72.125,51.7303571 72.125,57.9285714 L72.125,60.8361607 C57.3769531,61.4455357 44,66.8776786 44,74.6428571 L44,108.071429 C44,115.766964 57.8515625,122 74.9375,122 C92.0234375,122 105.875,115.766964 105.875,108.071429 L105.875,105.216071 C121.642578,104.571875 134,98.6174107 134,91.3571429 L134,57.9285714 C134,51.4866071 123.083984,44 103.0625,44 Z M100.25,108.071429 C100.25,110.491518 91.3730469,116.428571 74.9375,116.428571 C58.5019531,116.428571 49.625,110.491518 49.625,108.071429 L49.625,99.3486607 C55.2148438,102.935268 64.4609375,105.285714 74.9375,105.285714 C85.4140625,105.285714 94.6601562,102.935268 100.25,99.3486607 L100.25,108.071429 Z M100.25,91.3571429 C100.25,93.7772321 91.3730469,99.7142857 74.9375,99.7142857 C58.5019531,99.7142857 49.625,93.7772321 49.625,91.3571429 L49.625,82.634375 C55.2148438,86.2209821 64.4609375,88.5714286 74.9375,88.5714286 C85.4140625,88.5714286 94.6601562,86.2209821 100.25,82.634375 L100.25,91.3571429 Z M74.9375,83 C60.6992188,83 49.1503906,79.2566964 49.1503906,74.6428571 C49.1503906,70.0290179 60.6992188,66.2857143 74.9375,66.2857143 C89.1757812,66.2857143 100.724609,70.0290179 100.724609,74.6428571 C100.724609,79.2566964 89.1757812,83 74.9375,83 Z M128.375,91.3571429 C128.375,93.6379464 120.464844,98.9482143 105.875,99.5924107 L105.875,88.4321429 C115.15625,88.0491071 123.294922,85.8901786 128.375,82.634375 L128.375,91.3571429 Z M128.375,74.6428571 C128.375,76.9236607 120.447266,82.1991071 105.875,82.8607143 L105.875,74.6428571 C105.875,73.6678571 105.576172,72.7276786 105.154297,71.8049107 C114.751953,71.5089286 123.154297,69.2803571 128.375,65.9200893 L128.375,74.6428571 Z M103.0625,66.2857143 C101.779297,66.2857143 100.601562,66.1986607 99.3886719,66.1290179 C92.9023438,62.3508929 84.4472656,61.2191964 79.0683594,60.9058036 C77.9609375,59.9830357 77.2929688,58.990625 77.2929688,57.9285714 C77.2929688,53.3147321 88.8417969,49.5714286 103.080078,49.5714286 C117.318359,49.5714286 128.867188,53.3147321 128.867188,57.9285714 C128.867188,62.5424107 117.300781,66.2857143 103.0625,66.2857143 Z" id="Shape" fill="#FFFFFF" fill-rule="nonzero"></path>
            </g>
        </g>
    </g>
</svg>