<?xml version="1.0" encoding="UTF-8"?>
<svg width="180px" height="169px" viewBox="0 0 180 169" version="1.1" xmlns="http://www.w3.org/2000/svg" xmlns:xlink="http://www.w3.org/1999/xlink">
    <!-- Generator: Sketch 55.2 (78181) - https://sketchapp.com -->
    <title>Group 11</title>
    <desc>Created with Sketch.</desc>
    <g id="Page-1" stroke="none" stroke-width="1" fill="none" fill-rule="evenodd">
        <g id="Que-es" transform="translate(-626.000000, -1303.000000)">
            <g id="Group-11" transform="translate(626.000000, 1303.000000)">
                <path d="M90.1200799,169 C40.4803534,169 0.240159886,128.876534 0.240159886,79.3825513 C0.240159886,61.1513158 -2.54150478,40.4497713 10.8289282,23.3486842 C24.1993612,6.24759714 45.7175005,0 59.1100199,0 C108.749746,0 180,29.8885688 180,79.3825513 C180,128.876534 139.759806,169 90.1200799,169 Z" id="Fill-11-Copy-8" fill="#A134E1"></path>
                <path d="M135.65,66.0612366 L94.24375,52.6738237 C91.4609375,51.7753921 88.540625,51.7753921 85.7578125,52.6738237 L44.3515625,66.0612366 C41.709375,66.9159185 40,69.2471533 40,72.0002604 C40,74.7533675 41.709375,77.0846023 44.35,77.9392842 L48.9921875,79.4392745 C48.4765625,80.4048932 48.0953125,81.4439489 47.846875,82.5330043 C46.1765625,83.3423741 45,85.0189257 45,87.0001628 C45,88.9892123 46.1828125,90.6751388 47.8640625,91.4798211 L45.04375,108.957832 C44.7921875,110.51876 45.6546875,112 46.815625,112 L53.1828125,112 C54.34375,112 55.2078125,110.51876 54.9546875,108.957832 L52.1359375,91.4798211 C53.8171875,90.6751388 55,88.9892123 55,87.0001628 C55,85.3439235 54.1421875,83.9470576 52.9015625,83.0361261 C53.134375,82.3080058 53.4953125,81.6517601 53.928125,81.0345766 L62.2828125,83.7361215 L60,102.000065 C60,107.523467 73.43125,112 90,112 C106.56875,112 120,107.523467 120,102.000065 L117.717187,83.7361215 L135.65,77.9377218 C138.290625,77.0846023 140,74.7533675 140,72.0002604 C140,69.2471533 138.290625,66.9159185 135.65,66.0612366 Z M114.91875,101.665692 C113.2375,103.435993 104.69375,107.000033 90,107.000033 C75.30625,107.000033 66.7625,103.435993 65.08125,101.665692 L67.1265625,85.3017363 L85.7578125,91.3251346 C86.1640625,91.4563837 89.7765625,92.7673127 94.24375,91.3251346 L112.875,85.3017363 L114.91875,101.665692 Z M134.10625,73.1846277 L92.7,86.5720405 C90.9328125,87.1439118 89.0671875,87.1439118 87.3,86.5720405 L59.8515625,77.6970983 L90.459375,71.9565107 C91.8171875,71.7033873 92.7109375,70.3971459 92.45625,69.0393422 C92.203125,67.679976 90.86875,66.7909193 89.540625,67.0440427 L57.7,73.0127538 C55.7625,73.3752515 54.0265625,74.2080585 52.53125,75.3299262 L45.8921875,73.1830652 C44.665625,72.7846303 44.7265625,71.1924532 45.8921875,70.8158931 L87.2984375,57.4284803 C89.6578125,56.6659852 91.6484375,57.08942 92.6984375,57.4284803 L134.104687,70.8158931 C135.259375,71.1893282 135.340625,72.7846303 134.10625,73.1846277 L134.10625,73.1846277 Z" id="Shape" fill="#FFFFFF" fill-rule="nonzero"></path>
            </g>
        </g>
    </g>
</svg>