<?xml version="1.0" encoding="UTF-8"?>
<svg width="180px" height="169px" viewBox="0 0 180 169" version="1.1" xmlns="http://www.w3.org/2000/svg" xmlns:xlink="http://www.w3.org/1999/xlink">
    <!-- Generator: Sketch 55.2 (78181) - https://sketchapp.com -->
    <title>Group 10</title>
    <desc>Created with Sketch.</desc>
    <g id="Page-1" stroke="none" stroke-width="1" fill="none" fill-rule="evenodd">
        <g id="Que-es" transform="translate(-240.000000, -1303.000000)">
            <g id="Group-10" transform="translate(240.000000, 1303.000000)">
                <path d="M90.1200799,169 C40.4803534,169 0.240159886,128.876534 0.240159886,79.3825513 C0.240159886,61.1513158 -2.54150478,40.4497713 10.8289282,23.3486842 C24.1993612,6.24759714 45.7175005,0 59.1100199,0 C108.749746,0 180,29.8885688 180,79.3825513 C180,128.876534 139.759806,169 90.1200799,169 Z" id="Fill-11-Copy-9" fill="#DE6B2C"></path>
                <path d="M117.265625,73.0498437 L100.2975,73.0498437 L95.0326563,62.9982812 C96.0529687,62.980625 96.8748437,62.149375 96.8748437,61.1248437 L96.8748437,54.875 C96.8748437,53.8395313 96.0353125,53 94.9998437,53 L89.795625,53 L85.6865625,45.155 C84.8839062,43.7590625 83.4346875,43 81.9865625,43 L73.5217187,43 C70.7796875,43 68.7603125,45.5489063 69.37125,48.2079687 L73.7445312,73.2265625 C70.5107813,73.3917187 67.3648438,73.6682813 64.5692188,74.0342188 L59.57125,65.0590625 L59.5307813,64.9892187 C58.7657813,63.7140625 57.3667188,62.9220313 55.8798437,62.9220313 L49.6442188,62.9220313 C46.9546875,62.9220313 44.9426562,65.3828125 45.4690625,68.0148437 L47.564375,78.4917187 C45.8609375,79.8051562 45,81.3164062 45,83.0001563 C45,84.68375 45.8609375,86.195 47.564375,87.5085937 L45.4690625,97.985 C44.9417187,100.622031 46.96,103.078281 49.644375,103.077969 L55.8804687,103.077813 C57.3673438,103.0775 58.7659375,102.285313 59.5307813,101.010625 L64.5690625,91.9657813 C67.3646875,92.3317187 70.5104688,92.6082813 73.7445312,92.7734375 L69.37125,117.792031 C68.76,120.452188 70.7810937,123 73.5217187,123 L81.9865625,123 C83.3932813,123 84.8009375,122.295 85.6515625,120.910625 L89.7951563,113 L95,113 C96.0354688,113 96.875,112.160469 96.875,111.125 L96.875,104.875 C96.875,103.850313 96.0528125,103.019063 95.0323437,103.001563 L100.2975,92.9496875 L117.265625,92.95 C124.8225,92.95 135,90.3934375 135,83 C135,75.5621875 124.723125,73.0498438 117.265625,73.0498437 Z M117.265625,87.95 L97.1967188,87.9498438 L81.5389062,118 L74.410625,118 L79.65875,87.978125 C72.5751562,87.766875 69.1634375,87.629375 61.8809375,86.51625 L55.4426562,98.0778125 L50.5495313,98.0779687 L53.59375,83.0001563 L50.5495313,67.921875 L55.4425,67.921875 L61.8809375,79.48375 C69.2075,78.36375 72.6401563,78.2310937 79.6585937,78.021875 L74.410625,48 L81.5389062,48 L97.1967188,78.0498437 L117.265625,78.0498437 C122.345781,78.0498437 130,79.7217187 130,83 C130,86.6254687 121.22625,87.95 117.265625,87.95 Z" id="Shape" fill="#FFFFFF" fill-rule="nonzero"></path>
            </g>
        </g>
    </g>
</svg>