<?xml version="1.0" encoding="UTF-8"?>
<svg width="180px" height="169px" viewBox="0 0 180 169" version="1.1" xmlns="http://www.w3.org/2000/svg" xmlns:xlink="http://www.w3.org/1999/xlink">
    <!-- Generator: Sketch 55.2 (78181) - https://sketchapp.com -->
    <title>Group 13</title>
    <desc>Created with Sketch.</desc>
    <g id="Page-1" stroke="none" stroke-width="1" fill="none" fill-rule="evenodd">
        <g id="Que-es" transform="translate(-239.000000, -929.000000)">
            <g id="Group-13" transform="translate(239.000000, 929.000000)">
                <path d="M90.1200799,169 C40.4803534,169 0.240159886,128.876534 0.240159886,79.3825513 C0.240159886,61.1513158 -2.54150478,40.4497713 10.8289282,23.3486842 C24.1993612,6.24759714 45.7175005,0 59.1100199,0 C108.749746,0 180,29.8885688 180,79.3825513 C180,128.876534 139.759806,169 90.1200799,169 Z" id="Fill-11" fill="#80DCE6"></path>
                <path d="M103.5,77 C102.125,77 101,78.125 101,79.5 C101,80.875 102.125,82 103.5,82 C104.875,82 106,80.875 106,79.5 C106,78.125 104.875,77 103.5,77 Z M123.499902,72 L118.890347,72 C117.155904,68.046875 114.405796,64.671875 110.999413,62.09375 L110.999413,52 L108.499315,52 C103.764755,52 99.4677116,53.578125 95.8581953,56.09375 C95.9206978,55.5625 95.9988258,55.046875 95.9988258,54.5 C95.9988258,44.828125 88.1703944,37 78.4981409,37 C68.8258873,37 60.9974559,44.828125 60.9974559,54.5 C60.9974559,56.015625 61.2474657,57.453125 61.6224804,58.859375 C53.9659307,61.953125 48.1844544,68.71875 46.4968884,77 L44.7468199,77 C42.4342294,77 40.6060328,74.890625 41.0748012,72.5 C41.4185646,70.71875 43.0905051,69.5 44.903076,69.5 L45.0593321,69.5 C45.5749773,69.5 45.9968688,69.078125 45.9968688,68.5625 L45.9968688,65.4375 C45.9968688,64.921875 45.5749773,64.5 45.0593321,64.5 C40.6060328,64.5 36.6371275,67.6875 36.0746055,72.09375 C35.3870786,77.4375 39.5434913,82 44.7468199,82 L45.9968688,82 C45.9968688,90.15625 49.9657742,97.328125 55.9972602,101.890625 L55.9972602,114.5 C55.9972602,115.875 57.1223043,117 58.4973581,117 L75.998043,117 C77.3730968,117 78.4981409,115.875 78.4981409,114.5 L78.4981409,107 L88.4985323,107 L88.4985323,114.5 C88.4985323,115.875 89.6235763,117 90.9986301,117 L108.499315,117 C109.874369,117 110.999413,115.875 110.999413,114.5 L110.999413,101.859375 C112.827609,100.453125 114.49955,98.84375 115.890229,97 L123.499902,97 C124.874956,97 126,95.875 126,94.5 L126,74.5 C126,73.125 124.874956,72 123.499902,72 Z M78.5,42 C85.40625,42 91,47.6502525 91,54.6262626 C91,55.4943182 90.90625,56.3308081 90.75,57.1515152 L71,57.1515152 C69.421875,57.1515152 67.890625,57.3409091 66.390625,57.625 C66.140625,56.6622475 66,55.6679293 66,54.6262626 C66,47.6502525 71.59375,42 78.5,42 Z M121,91.9315849 L113.390631,91.9315849 C110.734383,95.4435576 110.734383,95.7100912 106.000011,99.3474914 L106.000011,112 L93.5000205,112 L93.5000205,101.965792 L73.5000355,101.965792 L73.5000355,112 L61.0000448,112 L61.0000448,99.3474914 C50.8594274,91.6650513 51,84.6881414 51,81.8973774 C51,70.8283922 59.9687956,61.8289624 71.0000373,61.8289624 L96.2656435,61.8289624 C98.9062665,59.7123717 101.45314,57.6741733 106.000011,57 L106.000011,64.4159065 C112.203132,69.1351197 112.875006,70.5775371 115.625004,76.8802737 L121,76.8802737 L121,91.9315849 Z" id="Shape" fill="#FFFFFF" fill-rule="nonzero"></path>
            </g>
        </g>
    </g>
</svg>