<?xml version="1.0" encoding="UTF-8"?>
<svg width="180px" height="169px" viewBox="0 0 180 169" version="1.1" xmlns="http://www.w3.org/2000/svg" xmlns:xlink="http://www.w3.org/1999/xlink">
    <!-- Generator: Sketch 55.2 (78181) - https://sketchapp.com -->
    <title>Group 9</title>
    <desc>Created with Sketch.</desc>
    <g id="Page-1" stroke="none" stroke-width="1" fill="none" fill-rule="evenodd">
        <g id="Que-es" transform="translate(-1021.000000, -929.000000)">
            <g id="Group-9" transform="translate(1021.000000, 929.000000)">
                <path d="M90.1200799,169 C40.4803534,169 0.240159886,128.876534 0.240159886,79.3825513 C0.240159886,61.1513158 -2.54150478,40.4497713 10.8289282,23.3486842 C24.1993612,6.24759714 45.7175005,0 59.1100199,0 C108.749746,0 180,29.8885688 180,79.3825513 C180,128.876534 139.759806,169 90.1200799,169 Z" id="Fill-11-Copy-6" fill="#538DE4"></path>
                <path d="M128.671875,108.666667 L50.3125,108.666667 L50.3125,51.3333333 C50.3125,50.5966667 49.7181641,50 48.984375,50 L46.328125,50 C45.5943359,50 45,50.5966667 45,51.3333333 L45,111.333333 C45,112.806667 46.1886719,114 47.65625,114 L128.671875,114 C129.405664,114 130,113.403333 130,112.666667 L130,110 C130,109.263333 129.405664,108.666667 128.671875,108.666667 Z M61.3259766,83.1716667 C60.8080078,83.6916667 60.8080078,84.5366667 61.3259766,85.0566667 L63.2036133,86.9416667 C63.721582,87.4616667 64.5632813,87.4616667 65.08125,86.9416667 L77.1489258,74.94 L91.2087891,89.055 C92.2463867,90.0966667 93.928125,90.0966667 94.9657227,89.055 L110.493164,73.4666667 L117.804492,80.8066667 C118.62627,81.6316667 119.635645,82 120.626758,82 C122.698633,82 124.6875,80.3833333 124.6875,77.9433333 L124.6875,58.0316667 C124.6875,56.5416667 123.483887,55.3333333 121.999707,55.3333333 L102.16582,55.3333333 C98.5732422,55.3333333 96.775293,59.6933333 99.315332,62.2433333 L106.737891,69.695 L93.0880859,83.3983333 L79.0381836,69.2933333 C78.0039062,68.255 76.3288086,68.2516667 75.2912109,69.285 L61.3259766,83.1716667 Z M105.257031,60.6666667 L119.375,60.6666667 L119.375,74.84 L105.257031,60.6666667 Z" id="Shape" fill="#FFFFFF" fill-rule="nonzero"></path>
            </g>
        </g>
    </g>
</svg>