<?xml version="1.0" encoding="utf-8"?>
<!-- Generator: Adobe Illustrator 22.0.0, SVG Export Plug-In . SVG Version: 6.00 Build 0)  -->
<svg version="1.1" id="Layer_1" xmlns="http://www.w3.org/2000/svg" xmlns:xlink="http://www.w3.org/1999/xlink" x="0px" y="0px"
	 viewBox="0 0 81.4 109.3" style="enable-background:new 0 0 81.4 109.3;" xml:space="preserve">
<style type="text/css">
	.st0{opacity:0.32;}
</style>
<g>
	<g>
		<g>
			<path d="M45.5,87.4c-0.8,0-1.5-0.3-2-1c-0.9-1.1-0.7-2.8,0.4-3.7C49.8,78,53,71.7,55,61.1c2.7-15-5.2-33.9-11.5-42
				c-0.9-1.1-0.7-2.8,0.5-3.7c1.1-0.9,2.8-0.7,3.7,0.5C54.8,25,63.3,45.3,60.2,62c-2.2,11.8-6,19.2-13,24.7
				C46.6,87.2,46.1,87.4,45.5,87.4z"/>
		</g>
		<g>
			<path d="M45.7,72.1c-0.2,0-0.5,0-0.7-0.1c-1.4-0.4-2.2-1.9-1.8-3.2c4.6-15.6,2.9-28.2-5.1-38.7c-0.9-1.1-0.7-2.8,0.5-3.7
				c1.1-0.9,2.8-0.7,3.7,0.5c9,11.7,11,26.3,6,43.3C47.8,71.3,46.8,72.1,45.7,72.1z"/>
		</g>
		<g>
			<path d="M35.4,70.1c-0.3,0-0.7-0.1-1-0.2c-1.3-0.5-2-2.1-1.4-3.4c4.9-12.1,2.5-27.1-5.9-37.5c-0.9-1.1-0.7-2.8,0.4-3.7
				c1.1-0.9,2.8-0.7,3.7,0.4c9.6,11.7,12.3,28.9,6.7,42.7C37.4,69.4,36.4,70.1,35.4,70.1z"/>
		</g>
		<g>
			<path d="M18.6,99.2c-1.2,0-2.3-0.8-2.6-2.1c-0.3-1.4,0.6-2.8,2-3.1l0,0c5.6-1.1,9.9-2.3,10.7-6.1c-2.8-4-7.9-4.6-13.7-5.2
				c-3.3-0.4-6.8-0.7-9.8-1.9c-0.2-0.1-0.4-0.2-0.5-0.3L2,78.8c-0.3-0.2-0.6-0.5-0.8-0.9c-1-1.8-1.3-3.2-1.1-5.2
				c0-0.2,0.1-0.4,0.1-0.6c1.3-3.7,5.3-5.4,8.8-5.4h0.1c1.2,0.1,2.4,0.2,3.6,0.3c2.3,0.3,4.5,0.5,6.1,0c4.8-2.5,11.1-9.6,1.1-30
				c-0.6-1.3-0.1-2.9,1.2-3.5c1.3-0.6,2.9-0.1,3.5,1.2c8.8,18,7.5,31.5-3.6,37c-0.1,0-0.2,0.1-0.3,0.1c-2.7,1-5.7,0.6-8.6,0.3
				C11,72.1,10,72,8.9,72c-1.5,0-3.2,0.6-3.7,1.7c0,0.5,0,0.8,0.2,1.2l1.9,1.3c2.4,0.8,5.3,1.1,8.3,1.5c6.6,0.7,14.1,1.5,18.1,8.5
				c0.3,0.5,0.4,1,0.3,1.5c-0.7,8.6-9.6,10.5-15,11.6C18.9,99.1,18.7,99.2,18.6,99.2z"/>
		</g>
	</g>
	<g class="st0">
		<path d="M50.3,100.7c-0.7,0-1.4-0.3-1.9-0.8c-1-1-1-2.7,0.1-3.7c13-12.4,19.1-27,18.1-43.6c-0.8-13.9-6.3-26-9.6-33.3
			c-1.3-2.8-2.2-4.8-2.6-6.3c-0.4-1.4,0.5-2.8,1.9-3.2s2.8,0.5,3.2,1.9c0.3,1,1.2,3.1,2.3,5.4c3.5,7.6,9.2,20.3,10.1,35.2
			C73,70.5,66.3,86.5,52.2,100C51.6,100.5,51,100.7,50.3,100.7z"/>
	</g>
	<g class="st0">
		<path d="M58.5,109.3c-0.7,0-1.4-0.3-1.9-0.8c-1-1-1-2.7,0.1-3.7C75.8,86.6,77.5,63,75.5,46.5c-2.2-19.1-9.8-35.8-14.4-42.4
			c-0.8-1.2-0.5-2.8,0.7-3.6s2.8-0.5,3.6,0.7C70.3,8.2,78.3,26,80.7,46c3,25.5-4.1,47.2-20.4,62.7C59.8,109.1,59.2,109.3,58.5,109.3
			z"/>
	</g>
</g>
</svg>
