<?xml version="1.0" standalone="no"?>
<!DOCTYPE svg PUBLIC "-//W3C//DTD SVG 1.1//EN" "http://www.w3.org/Graphics/SVG/1.1/DTD/svg11.dtd" >
<svg xmlns="http://www.w3.org/2000/svg">
<metadata>Generated by IcoMoon</metadata>
<defs>
<font id="icomoon" horiz-adv-x="1024">
<font-face units-per-em="1024" ascent="960" descent="-64" />
<missing-glyph horiz-adv-x="1024" />
<glyph unicode="&#x20;" horiz-adv-x="512" d="" />
<glyph unicode="&#xe900;" glyph-name="angle" d="M856.747 718.75l-344.747-348.16-344.747 348.16-105.813-105.813 450.56-453.973 450.56 453.973z" />
<glyph unicode="&#xe901;" glyph-name="faq" d="M696.32 746.057c-37.547 0-71.68-34.133-68.267-71.68 0-13.653 10.24-23.893 23.893-23.893s23.893 10.24 23.893 23.893c0 13.653 10.24 23.893 23.893 23.893s23.893-10.24 23.893-23.893c0-6.827-6.827-13.653-20.48-23.893-13.653-13.653-34.133-27.307-34.133-54.613 0-13.653 10.24-23.893 23.893-23.893s23.893 10.24 23.893 23.893c0 3.413 10.24 13.653 17.067 17.067 17.067 13.653 37.547 30.72 37.547 61.44 0 37.547-34.133 71.68-75.093 71.68zM180.907 356.937c0-13.653 10.24-23.893 23.893-23.893h3.413c13.653 0 23.893 10.24 23.893 23.893s-10.24 23.893-27.307 23.893c-13.653 0-23.893-10.24-23.893-23.893zM716.8 524.19c0-13.196-10.697-23.893-23.893-23.893s-23.893 10.697-23.893 23.893c0 13.196 10.697 23.893 23.893 23.893s23.893-10.697 23.893-23.893zM880.64 882.59h-368.64c-64.853 0-116.053-51.2-119.467-116.053v-163.84h-252.587c-61.44 0-116.053-51.2-116.053-116.053v-273.067c0-64.853 51.2-116.053 116.053-116.053h341.333l105.813-95.573c6.827-3.413 10.24-6.827 17.067-6.827 3.413 0 6.827 3.413 10.24 3.413 6.827 3.413 13.653 10.24 13.653 20.48v283.307c0 13.653-10.24 23.893-23.893 23.893s-23.893-10.24-23.893-23.893v-232.107l-71.68 64.853c-6.827 3.413-10.24 6.827-17.067 6.827h-348.16c-37.547 0-68.267 30.72-68.267 68.267v273.067c0 37.547 30.72 68.267 68.267 68.267h252.587v-256c0-6.827 3.413-17.067 13.653-20.48s20.48-3.413 27.307 3.413l88.747 81.92c3.413 3.413 3.413 3.413 6.827 6.827s6.827 10.24 10.24 10.24c0 0 6.827 0 10.24 0 6.827 0 10.24 0 17.067 0h314.027c64.853 0 116.053 51.2 116.053 116.053v273.067c0 64.853-54.613 116.053-119.467 116.053zM952.32 496.884c0-37.547-30.72-68.267-68.267-68.267h-314.027c-3.413 0-10.24 0-13.653 0-30.72 0-37.547-3.413-58.027-23.893-3.413-3.413-3.413-3.413-6.827-6.827l-47.787-44.373v413.013c0 37.547 30.72 68.267 68.267 68.267h368.64c37.547 0 68.267-30.72 68.267-68.267h3.413v-269.653zM266.24 356.937c0-13.653 10.24-23.893 23.893-23.893h3.413c13.653 0 23.893 10.24 23.893 23.893s-13.653 23.893-27.307 23.893-23.893-10.24-23.893-23.893z" />
<glyph unicode="&#xe902;" glyph-name="twitter" horiz-adv-x="878" d="M762.052 859.733h-646.104c-47.508 0-88.681-38.008-88.681-88.681v-646.104c0-47.508 38.008-88.681 88.681-88.681h646.104c47.508 0 88.681 38.008 88.681 88.681v646.104c0 50.673-38.008 88.681-88.681 88.681zM673.371 568.355c0-6.335 0-9.5 0-15.835 0-158.359-120.355-342.056-342.056-342.056-69.677 0-133.020 19.004-183.697 53.843 9.5 0 19.004 0 28.504 0 57.008 0 107.685 19.004 148.859 50.673-53.843 0-98.181 34.839-114.020 82.347 19.004-3.165 34.839-3.165 53.843 3.165-53.843 12.669-95.016 60.177-95.016 117.185v0c15.835-9.5 34.839-15.835 53.843-15.835-34.839 22.169-53.843 60.177-53.843 101.351 0 22.169 6.335 44.339 15.835 60.177 60.177-72.847 148.859-120.355 247.040-126.685-15.835 82.347 44.339 148.859 117.185 148.859 34.839 0 66.512-15.835 88.681-38.008 28.504 6.335 53.843 15.835 76.012 28.504-9.5-28.504-28.504-50.673-53.843-66.512 25.339 3.165 47.508 9.5 69.677 19.004-12.669-22.169-34.839-44.339-57.008-60.177v0z" />
<glyph unicode="&#xe903;" glyph-name="facebook" horiz-adv-x="878" d="M760.469 859.733h-646.104c-47.508 0-88.681-38.008-88.681-88.681v-646.104c0-47.508 38.008-88.681 88.681-88.681h253.375v278.713h-117.185v133.020h117.185v101.351c0 114.020 66.512 177.363 171.028 177.363 50.673 0 101.351-9.5 101.351-9.5v-110.851h-57.008c-57.008 0-72.847-34.839-72.847-69.677v-88.681h126.686l-19.004-133.020h-107.685v-278.713h253.375c47.508 0 88.681 38.008 88.681 88.681v646.104c-3.165 50.673-41.173 88.681-91.847 88.681v0z" />
<glyph unicode="&#xe904;" glyph-name="instagram" horiz-adv-x="878" d="M773.776 864.794c50.295 0 91.16-40.864 91.16-91.16v-669.551c0-50.295-40.864-91.16-91.16-91.16h-669.551c-50.295 0-91.16 40.864-91.16 91.16v669.551c0 50.295 40.864 91.16 91.16 91.16h669.551zM440.572 591.314c-84.873 0-150.885-69.155-150.885-150.885s69.155-150.885 150.885-150.885 150.885 69.155 150.885 150.885-66.012 150.885-150.885 150.885zM440.572 342.983c-53.439 0-97.446 44.008-97.446 97.446s44.008 97.446 97.446 97.446c53.439 0 97.446-44.008 97.446-97.446s-44.008-97.446-97.446-97.446zM635.465 597.601c0 18.861-15.718 34.578-34.578 34.578s-34.578-15.718-34.578-34.578c0-18.861 15.718-34.578 34.578-34.578s34.578 15.718 34.578 34.578zM736.055 563.023c-3.143 47.151-12.572 91.16-47.151 125.737s-75.442 44.008-125.737 47.151c-50.295 3.143-194.893 3.143-245.188 0-47.151-3.143-88.016-12.572-125.737-47.151-34.578-34.578-44.008-75.442-47.151-125.737s-3.143-194.893 0-245.188c3.143-47.151 12.572-91.16 47.151-125.737s75.442-44.008 125.737-47.151c50.295-3.143 194.893-3.143 245.188 0 47.151 3.143 91.16 12.572 125.737 47.151s44.008 75.442 47.151 125.737c3.143 50.295 3.143 194.893 0 245.188zM673.186 264.395c-9.43-25.148-31.434-47.151-56.582-56.582-37.721-15.718-132.024-12.572-176.033-12.572s-135.167-3.143-176.033 12.572c-25.148 9.43-47.151 31.434-56.582 56.582-15.718 37.721-12.572 132.024-12.572 176.033s-3.143 135.167 12.572 176.033c9.43 25.148 31.434 47.151 56.582 56.582 37.721 15.718 132.024 12.572 176.033 12.572s135.167 3.143 176.033-12.572c25.148-9.43 47.151-31.434 56.582-56.582 15.718-37.721 12.572-132.024 12.572-176.033s3.143-135.167-12.572-176.033z" />
<glyph unicode="&#xe905;" glyph-name="pz" horiz-adv-x="960" d="M92.917 664.746c0 0 3.413 0 3.413 0 6.827 0 10.24 3.413 13.653 10.24 17.067 40.96 51.2 78.507 95.573 98.987s95.573 27.307 139.947 30.72c6.827 0 13.653 6.827 13.653 17.067 0 6.827-6.827 13.653-17.067 13.653-44.373-6.827-98.987-13.653-150.187-34.133-51.2-23.893-92.16-68.267-109.227-116.053-3.413-6.827 0-17.067 10.24-20.48zM171.424 719.36c-6.827-3.413-10.24-13.653-3.413-20.48 3.413-3.413 6.827-6.827 10.24-6.827s6.827 0 6.827 3.413c75.093 54.613 146.773 68.267 218.453 44.373 6.827-3.413 17.067 0 17.067 10.24 3.413 6.827 0 17.067-10.24 17.067-75.093 27.307-157.013 10.24-238.933-47.787zM441.077 709.12c-81.92 30.72-177.493 13.653-242.347-40.96-6.827-6.827-6.827-13.653 0-20.48 0-3.413 6.827-6.827 10.24-6.827s6.827 0 10.24 3.413c54.613 47.787 139.947 61.44 211.627 37.547 6.827-3.413 17.067 0 20.48 6.827 0 10.24-3.413 20.48-10.24 20.48zM403.531 657.92c-37.547 3.413-64.853 3.413-92.16 0-23.893-3.413-78.507-20.48-95.573-61.44-10.24-23.893 0-47.787 6.827-68.267 3.413-6.827 6.827-13.653 6.827-17.067 6.827-17.067 3.413-23.893 3.413-23.893s-3.413-3.413-6.827-3.413c-13.653 0-23.893 23.893-30.72 40.96-3.413 6.827-3.413 13.653-6.827 17.067-10.24 20.48-23.893 40.96-44.373 58.027-10.24 10.24-20.48 13.653-30.72 13.653-17.067 0-34.133-13.653-40.96-37.547-6.827-20.48-3.413-40.96-3.413-58.027 6.827-75.093 37.547-146.773 88.747-208.213 3.413-3.413 6.827-6.827 10.24-6.827s6.827 0 6.827 3.413c6.827 3.413 6.827 13.653 3.413 20.48-44.373 54.613-75.093 122.88-81.92 191.147 0 13.653-3.413 30.72 3.413 44.373 3.413 10.24 6.827 17.067 13.653 17.067 3.413 0 6.827 0 13.653-6.827 17.067-13.653 27.307-30.72 37.547-47.787 3.413-3.413 3.413-10.24 6.827-13.653 10.24-27.307 27.307-64.853 61.44-61.44 17.067 0 23.893 10.24 27.307 17.067 6.827 10.24 6.827 27.307 0 47.787-3.413 6.827-6.827 13.653-10.24 20.48-6.827 17.067-13.653 30.72-6.827 44.373 13.653 30.72 61.44 40.96 75.093 44.373 23.893 3.413 51.2 3.413 85.333 0 6.827 0 13.653 3.413 17.067 13.653-3.413 13.653-10.24 20.48-17.067 20.48zM881.397 343.893c-3.413 6.827-10.24 10.24-17.067 10.24-6.827-3.413-10.24-10.24-10.24-17.067 13.653-40.96 10.24-92.16-10.24-136.533-23.893-47.787-58.027-85.333-92.16-116.053-6.827-6.827-6.827-13.653 0-20.48 3.413-3.413 6.827-3.413 10.24-3.413s6.827 0 10.24 3.413c34.133 30.72 71.68 71.68 95.573 119.467 27.307 51.2 30.72 109.227 13.653 160.427zM837.024 258.56c3.413 6.827-3.413 17.067-10.24 17.067s-17.067-3.413-17.067-10.24c-23.893-88.747-71.68-143.36-139.947-170.667-6.827-3.413-10.24-10.24-6.827-20.48 0-6.827 6.827-10.24 13.653-10.24 0 0 3.413 0 3.413 0 75.093 34.133 129.707 98.987 157.013 194.56zM782.411 282.453c0 6.827-3.413 13.653-10.24 17.067-6.827 0-13.653-3.413-17.067-10.24-13.653-71.68-68.267-136.533-139.947-163.84-6.827-3.413-10.24-10.24-10.24-17.067 3.413-6.827 6.827-10.24 13.653-10.24 0 0 3.413 0 3.413 0 78.507 27.307 143.36 102.4 160.427 184.32zM618.571 159.573c30.72 20.48 54.613 37.547 71.68 58.027 13.653 17.067 47.787 64.853 34.133 109.227-6.827 27.307-30.72 37.547-51.2 47.787-6.827 3.413-13.653 6.827-17.067 10.24-13.653 10.24-17.067 17.067-17.067 17.067s0 3.413 3.413 6.827c10.24 10.24 34.133-3.413 51.2-13.653 6.827-3.413 13.653-6.827 17.067-6.827 20.48-6.827 44.373-17.067 71.68-17.067 13.653 0 23.893 3.413 34.133 10.24 13.653 10.24 17.067 30.72 6.827 54.613-6.827 20.48-20.48 34.133-34.133 47.787-54.613 54.613-122.88 88.747-197.973 105.813-6.827 0-17.067-3.413-17.067-10.24s3.413-17.067 10.24-17.067c71.68-13.653 133.12-47.787 184.32-95.573 10.24-10.24 20.48-23.893 27.307-37.547 3.413-6.827 3.413-17.067 0-20.48-3.413 0-6.827-3.413-13.653-3.413-20.48 0-40.96 6.827-58.027 13.653-3.413 0-10.24 3.413-13.653 6.827-23.893 13.653-61.44 34.133-85.333 6.827-10.24-10.24-13.653-23.893-10.24-30.72 0-13.653 10.24-27.307 30.72-37.547 6.827-3.413 13.653-6.827 20.48-10.24 17.067-6.827 30.72-13.653 34.133-27.307 10.24-30.72-20.48-68.267-30.72-81.92-17.067-17.067-37.547-34.133-64.853-54.613-6.827-3.413-10.24-13.653-3.413-20.48 3.413-3.413 6.827-6.827 13.653-6.827-3.413-3.413-3.413-3.413 3.413-3.413z" />
<glyph unicode="&#xe906;" glyph-name="salud" horiz-adv-x="1214" d="M536.374 172.895c-61.44 0-122.88 13.653-177.493 44.373-85.333 44.373-153.6 112.64-208.213 174.080-10.24 10.24-6.827 27.307 3.413 37.547s27.307 6.827 37.547-3.413c51.2-58.027 116.053-122.88 194.56-160.427s167.253-51.2 238.933-23.893c13.653 3.413 27.307-3.413 34.133-17.067 3.413-13.653-3.413-27.307-17.067-34.133-37.547-10.24-71.68-17.067-105.813-17.067zM498.827 271.882c-3.413 0-3.413 0-6.827 0-170.667 51.2-283.307 150.187-331.093 290.133-3.413 13.653 3.413 27.307 17.067 34.133 13.653 3.413 27.307-3.413 34.133-17.067 44.373-126.293 139.947-208.213 296.96-256 13.653-3.413 20.48-20.48 17.067-34.133-3.413-10.24-13.653-17.067-27.307-17.067zM539.787 367.455c-3.413 0-3.413 0-6.827 0-146.773 30.72-276.48 146.773-320.853 293.547-3.413 13.653 3.413 27.307 17.067 34.133 13.653 3.413 27.307-3.413 34.133-17.067 40.96-129.707 153.6-232.107 279.893-256 13.653-3.413 23.893-17.067 20.48-30.72 0-13.653-13.653-23.893-23.893-23.893zM761.654 278.708c-23.893 0-40.96 6.827-54.613 23.893-13.653 13.653-17.067 34.133-17.067 61.44 3.413 47.787 17.067 88.747 34.133 122.88 3.413 10.24 10.24 20.48 17.067 30.72 17.067 30.72 40.96 75.093 23.893 88.747-3.413 3.413-6.827 6.827-10.24 6.827s-13.653-3.413-30.72-27.307c-6.827-10.24-13.653-20.48-17.067-30.72-17.067-34.133-40.96-75.093-85.333-85.333-78.507-20.48-157.013 40.96-191.147 68.267-37.547 30.72-68.267 75.093-102.4 129.707-6.827 13.653-3.413 27.307 10.24 34.133s27.307 3.413 34.133-10.24c30.72-51.2 58.027-88.747 92.16-119.467 20.48-17.067 85.333-71.68 139.947-58.027 23.893 6.827 37.547 30.72 51.2 61.44 6.827 13.653 13.653 23.893 20.48 37.547 23.893 30.72 44.373 47.787 68.267 51.2 13.653 0 34.133-3.413 51.2-23.893 44.373-44.373 6.827-109.227-17.067-153.6-6.827-10.24-10.24-20.48-13.653-23.893-13.653-30.72-27.307-68.267-30.72-105.813 0-13.653 0-20.48 3.413-23.893 6.827-6.827 20.48-6.827 34.133 0 23.893 10.24 47.787 30.72 64.853 47.787 92.16 85.333 153.6 197.973 180.907 320.853 3.413 13.653 17.067 23.893 30.72 20.48s23.893-17.067 20.48-30.72c-30.72-133.12-98.987-256-194.56-348.16-23.893-20.48-51.2-44.373-85.333-58.027-3.413-3.413-13.653-6.827-27.307-6.827z" />
<glyph unicode="&#xe907;" glyph-name="trabajo" horiz-adv-x="958" d="M420.727 546.28c-3.413 3.413-6.827 3.413-10.24 0s-3.413-6.827 0-10.24c17.067-17.067 27.307-40.96 30.72-64.853 0-27.307-6.827-51.2-13.653-75.093 0-3.413 0-10.24 6.827-10.24 0 0 0 0 3.413 0s6.827 3.413 6.827 6.827c6.827 23.893 13.653 51.2 13.653 81.92-3.413 23.893-17.067 51.2-37.547 71.68zM413.901 501.907c-3.413 0-6.827-6.827-6.827-10.24 10.24-47.787 3.413-85.333-20.48-116.053-3.413-3.413-3.413-6.827 0-10.24 0 0 3.413-3.413 3.413-3.413 3.413 0 3.413 0 6.827 3.413 27.307 34.133 37.547 78.507 23.893 129.707 0 3.413-3.413 6.827-6.827 6.827zM390.007 491.667c0 3.413-6.827 6.827-10.24 3.413-3.413 0-6.827-6.827-3.413-10.24 13.653-37.547 3.413-81.92-23.893-112.64-3.413-3.413-3.413-6.827 0-10.24 0 0 3.413-3.413 6.827-3.413s3.413 0 6.827 3.413c27.307 34.133 37.547 85.333 23.893 129.707zM352.461 498.494c-10.24 10.24-23.893 10.24-34.133 10.24-3.413 0-6.827 0-10.24 0-10.24 0-10.24 3.413-13.653 3.413 0 0 0 3.413 0 3.413 0 6.827 17.067 6.827 27.307 6.827 3.413 0 6.827 0 10.24 0 10.24 0 23.893 3.413 37.547 10.24 6.827 3.413 10.24 6.827 13.653 13.653 3.413 10.24 0 20.48-10.24 27.307s-20.48 10.24-27.307 13.653c-37.547 10.24-81.92 10.24-119.467-3.413-3.413 0-6.827-6.827-3.413-10.24 0-3.413 6.827-6.827 10.24-3.413 37.547 10.24 75.093 13.653 112.64 3.413 6.827-3.413 17.067-3.413 23.893-10.24 3.413-3.413 6.827-6.827 6.827-10.24 0 0-3.413-3.413-6.827-3.413-10.24-6.827-20.48-6.827-30.72-10.24-3.413 0-6.827 0-10.24 0-13.653 0-37.547 0-40.96-20.48-3.413-6.827 0-13.653 3.413-17.067 3.413-6.827 13.653-10.24 23.893-10.24 3.413 0 10.24 0 13.653 0 10.24 0 17.067 0 23.893-3.413 13.653-13.653 10.24-37.547 6.827-44.373-3.413-13.653-6.827-27.307-17.067-40.96-3.413-3.413 0-10.24 3.413-10.24 0 0 3.413 0 3.413 0 3.413 0 6.827 0 6.827 3.413 10.24 17.067 17.067 30.72 17.067 47.787-6.827 6.827-3.413 34.133-20.48 54.613zM69.154 491.667c-20.48 13.653-34.133 37.547-37.547 61.44-3.413 27.307 0 51.2 3.413 75.093 0 3.413-3.413 10.24-6.827 10.24s-10.24-3.413-10.24-6.827c-3.413-23.893-10.24-51.2-3.413-81.92s20.48-54.613 44.373-71.68c0 0 3.413 0 3.413 0 3.413 0 3.413 0 6.827 3.413s3.413 6.827 0 10.24zM58.914 522.387c0 0 3.413 0 0 0 6.827 3.413 10.24 6.827 6.827 10.24-17.067 44.373-17.067 85.333 6.827 119.467 3.413 3.413 0 10.24-3.413 10.24 0 3.413-6.827 0-10.24-3.413-23.893-37.547-27.307-81.92-6.827-133.12 0 0 3.413-3.413 6.827-3.413zM106.701 655.507c3.413 3.413 0 6.827-3.413 10.24s-6.827 0-10.24-3.413c-27.307-37.547-30.72-88.747-10.24-129.707 0-3.413 3.413-3.413 6.827-3.413 0 0 3.413 0 3.413 0 3.413 3.413 6.827 6.827 3.413 10.24-17.067 37.547-13.653 85.333 10.24 116.053zM253.474 478.014c-34.133-17.067-71.68-20.48-109.227-17.067-6.827 0-17.067 3.413-23.893 6.827-3.413 3.413-6.827 6.827-6.827 10.24 0 0 3.413 3.413 3.413 6.827 10.24 6.827 20.48 10.24 30.72 13.653 3.413 0 6.827 0 10.24 0 13.653 3.413 37.547 6.827 40.96 23.893 0 10.24-3.413 13.653-3.413 17.067-3.413 6.827-13.653 6.827-23.893 6.827-3.413 0-6.827 0-13.653 0-10.24 0-17.067-3.413-23.893 0-13.653 10.24-13.653 37.547-13.653 44.373 0 13.653 3.413 27.307 10.24 44.373 0 3.413 0 10.24-3.413 10.24s-10.24 0-10.24-3.413c-10.24-20.48-13.653-34.133-13.653-51.2 0-13.653 0-40.96 17.067-58.027 10.24-10.24 23.893-6.827 37.547-3.413 3.413 0 6.827 0 10.24 0 10.24 0 13.653 0 13.653-3.413 0 0 0-3.413 0-3.413 0-6.827-17.067-10.24-27.307-10.24-3.413 0-6.827 0-10.24 0-10.24-3.413-23.893-6.827-34.133-13.653-6.827-3.413-10.24-10.24-10.24-13.653-3.413-10.24 3.413-20.48 13.653-27.307s20.48-6.827 30.72-10.24c10.24 0 20.48-3.413 30.72-3.413 30.72 0 61.44 6.827 88.747 20.48 3.413 3.413 6.827 6.827 3.413 10.24s-10.24 6.827-13.653 3.413zM946.381 341.48c0 30.72-13.653 58.027-34.133 78.507-3.413 3.413-6.827 3.413-10.24 0s-3.413-6.827 0-10.24c17.067-17.067 27.307-40.96 30.72-64.853 0-27.307-6.827-51.2-13.653-75.093 0-3.413 0-10.24 6.827-10.24 0 0 0 0 3.413 0s6.827 3.413 6.827 6.827c3.413 17.067 10.24 44.373 10.24 75.093zM902.007 372.2c-3.413 0-6.827-6.827-6.827-10.24 10.24-47.787 3.413-85.333-20.48-116.053-3.413-3.413-3.413-6.827 0-10.24 0 0 3.413-3.413 3.413-3.413 3.413 0 3.413 0 6.827 3.413 27.307 34.133 37.547 78.507 23.893 129.707 0 6.827-3.413 10.24-6.827 6.827zM878.114 361.96c0 3.413-6.827 6.827-10.24 3.413-3.413 0-6.827-6.827-3.413-10.24 13.653-37.547 3.413-81.92-23.893-112.64-3.413-3.413-3.413-6.827 0-10.24 0 0 3.413-3.413 6.827-3.413s3.413 0 6.827 3.413c30.72 37.547 40.96 88.747 23.893 129.707zM840.567 368.787c-10.24 10.24-23.893 10.24-34.133 10.24-3.413 0-6.827 0-10.24 0-10.24 0-10.24 3.413-13.653 3.413 0 0 0 3.413 0 3.413 0 6.827 17.067 6.827 27.307 6.827 3.413 0 6.827 0 10.24 0 10.24 0 23.893 3.413 37.547 10.24 6.827 3.413 10.24 6.827 13.653 13.653 3.413 10.24 0 20.48-10.24 27.307s-20.48 10.24-27.307 13.653c-37.547 10.24-81.92 10.24-119.467-3.413-3.413 0-6.827-6.827-3.413-10.24 0-3.413 6.827-6.827 10.24-3.413 37.547 10.24 75.093 13.653 112.64 3.413 6.827-3.413 17.067-3.413 23.893-10.24 3.413-3.413 6.827-6.827 6.827-10.24 0 0-3.413-3.413-6.827-3.413-10.24-6.827-20.48-6.827-30.72-10.24-3.413 0-6.827 0-10.24 0-13.653 0-37.547 0-40.96-20.48-3.413-6.827 0-13.653 3.413-17.067 3.413-6.827 13.653-10.24 23.893-10.24 3.413 0 10.24 0 13.653 0 10.24 0 17.067 0 23.893-3.413 13.653-13.653 10.24-37.547 6.827-44.373-3.413-13.653-6.827-27.307-17.067-40.96-3.413-3.413 0-10.24 3.413-10.24 0 0 3.413 0 3.413 0 3.413 0 6.827 0 6.827 3.413 10.24 17.067 17.067 30.72 17.067 47.787-6.827 6.827-3.413 37.547-20.48 54.613zM557.261 361.96c-20.48 13.653-34.133 37.547-37.547 61.44-3.413 27.307 0 51.2 3.413 75.093 0 3.413-3.413 10.24-6.827 10.24s-10.24-3.413-10.24-6.827c-3.413-23.893-10.24-51.2-3.413-81.92s20.48-58.027 44.373-71.68c0 0 3.413 0 3.413 0 3.413 0 3.413 0 6.827 3.413s3.413 10.24 0 10.24zM550.434 396.094c0 0 0 0 0 0 6.827 3.413 10.24 6.827 6.827 10.24-17.067 44.373-17.067 85.333 6.827 119.467 3.413 3.413 0 10.24-3.413 10.24-3.413 3.413-10.24 0-10.24-3.413-23.893-37.547-27.307-81.92-6.827-133.12 0-3.413 3.413-3.413 6.827-3.413zM594.807 529.214c3.413 3.413 0 6.827-3.413 10.24s-6.827 0-10.24-3.413c-27.307-37.547-30.72-88.747-10.24-129.707 0-3.413 3.413-3.413 6.827-3.413 0 0 3.413 0 3.413 0 3.413 3.413 6.827 6.827 3.413 10.24-17.067 37.547-13.653 81.92 10.24 116.053zM744.994 351.72c-34.133-17.067-71.68-20.48-109.227-17.067-6.827 0-17.067 3.413-23.893 6.827-3.413 3.413-6.827 6.827-6.827 10.24 0 0 3.413 3.413 3.413 6.827 10.24 6.827 20.48 10.24 30.72 13.653 3.413 0 6.827 0 10.24 0 13.653 3.413 37.547 6.827 40.96 23.893 0 10.24-3.413 13.653-3.413 17.067-3.413 6.827-13.653 6.827-23.893 6.827-3.413 0-6.827 0-13.653 0-10.24 0-17.067-3.413-23.893 0-13.653 10.24-13.653 37.547-13.653 44.373 0 13.653 3.413 27.307 10.24 44.373 0 3.413 0 10.24-3.413 10.24s-10.24 0-10.24-3.413c-6.827-17.067-10.24-34.133-13.653-47.787 0-13.653 0-40.96 17.067-58.027 10.24-10.24 23.893-6.827 37.547-3.413 3.413 0 6.827 0 10.24 0 10.24 0 13.653 0 13.653-3.413 0 0 0-3.413 0-3.413 0-6.827-17.067-10.24-27.307-10.24-3.413 0-6.827 0-10.24 0-10.24-3.413-23.893-6.827-34.133-13.653-6.827-3.413-10.24-10.24-10.24-13.653-3.413-10.24 3.413-20.48 13.653-27.307s20.48-6.827 30.72-10.24c10.24 0 20.48-3.413 30.72-3.413 30.72 0 61.44 6.827 88.747 20.48 3.413 3.413 6.827 6.827 3.413 10.24-6.827 0-10.24 0-13.653 0z" />
<glyph unicode="&#xe908;" glyph-name="educacion" horiz-adv-x="1057" d="M656.207 160.332c-6.827 3.413-13.653-3.413-17.067-10.24-10.24-37.547-37.547-71.68-75.093-95.573-37.547-20.48-81.92-30.72-119.467-37.547-6.827 0-13.653-6.827-10.24-13.653 0-6.827 6.827-10.24 13.653-10.24 0 0 0 0 0 0 40.96 6.827 88.747 17.067 129.707 40.96 44.373 23.893 75.093 64.853 88.747 112.64 0 6.827-3.413 13.653-10.24 13.653zM591.353 126.199c-3.413 6.827-13.653 6.827-17.067 0-61.44-54.613-122.88-71.68-187.733-58.027-6.827 0-13.653-3.413-17.067-10.24 0-6.827 3.413-13.653 10.24-17.067 17.067-3.413 34.133-6.827 47.787-6.827 54.613 0 109.227 23.893 163.84 68.267 3.413 10.24 6.827 17.067 0 23.893zM560.633 150.092c3.413 6.827 3.413 13.653 0 17.067-6.827 3.413-13.653 3.413-17.067 0-44.373-47.787-119.467-68.267-184.32-51.2-6.827 0-13.653-3.413-17.067-10.24 0-6.827 3.413-13.653 10.24-17.067 17.067-3.413 37.547-6.827 54.613-6.827 58.027 3.413 116.053 27.307 153.6 68.267zM567.46 467.532c-3.413 3.413-13.653 3.413-17.067 0s-3.413-13.653 0-17.067c44.373-44.373 75.093-102.4 88.747-163.84 3.413-13.653 3.413-27.307 3.413-40.96 0-6.827-6.827-13.653-10.24-13.653s-6.827 0-10.24 3.413c-13.653 10.24-27.307 27.307-37.547 40.96 0 3.413-3.413 6.827-6.827 13.653-10.24 20.48-27.307 54.613-58.027 47.787-13.653-3.413-20.48-10.24-23.893-17.067-6.827-10.24-3.413-23.893 3.413-44.373 3.413-6.827 6.827-13.653 10.24-17.067 6.827-13.653 13.653-27.307 10.24-37.547-10.24-27.307-51.2-40.96-61.44-44.373-20.48-6.827-44.373-6.827-75.093-6.827-6.827 0-13.653-6.827-13.653-13.653s6.827-13.653 13.653-13.653c6.827 0 10.24 0 17.067 0 27.307 0 47.787 3.413 64.853 10.24 20.48 6.827 68.267 23.893 78.507 61.44 6.827 23.893-3.413 44.373-13.653 58.027-3.413 6.827-6.827 10.24-6.827 17.067-6.827 13.653-3.413 20.48-3.413 20.48s3.413 3.413 6.827 3.413c10.24 3.413 23.893-20.48 30.72-34.133 3.413-6.827 6.827-10.24 10.24-13.653 10.24-17.067 23.893-34.133 44.373-47.787 10.24-6.827 20.48-10.24 30.72-10.24 13.653 3.413 27.307 17.067 30.72 34.133s0 37.547-3.413 51.2c-20.48 64.853-51.2 126.293-102.4 174.080zM970.233 436.812c-17.067 47.787-47.787 88.747-92.16 109.227-6.827 3.413-13.653 0-17.067-6.827s0-13.653 6.827-17.067c34.133-17.067 64.853-51.2 78.507-92.16s13.653-85.333 13.653-126.293c0-6.827 6.827-13.653 13.653-13.653s13.653 3.413 13.653 10.24c0 0 0 0 0 3.413 0 37.547-3.413 88.747-17.067 133.12zM884.9 470.945c-6.827-3.413-10.24-10.24-6.827-17.067 40.96-71.68 44.373-136.533 17.067-197.973-3.413-6.827 0-13.653 6.827-17.067s13.653 0 17.067 6.827c6.827 13.653 13.653 30.72 17.067 47.787 10.24 54.613 0 112.64-30.72 174.080-6.827 3.413-13.653 6.827-20.48 3.413zM837.113 450.465c-6.827-3.413-6.827-13.653-3.413-17.067 37.547-54.613 40.96-129.707 10.24-191.147-3.413-6.827 0-13.653 6.827-17.067s13.653 0 17.067 6.827c6.827 17.067 13.653 34.133 17.067 51.2 13.653 58.027 0 119.467-30.72 167.253-3.413 0-13.653 3.413-17.067 0zM789.327 440.225c-20.48 13.653-44.373 3.413-61.44 0-6.827-3.413-13.653-3.413-17.067-3.413-17.067-3.413-20.48 0-20.48 0s0 3.413 0 6.827c0 10.24 23.893 17.067 40.96 23.893 6.827 3.413 13.653 3.413 17.067 6.827 17.067 6.827 37.547 17.067 54.613 34.133 10.24 10.24 13.653 17.067 13.653 27.307 0 13.653-10.24 30.72-27.307 37.547s-34.133 10.24-51.2 10.24c-68.267 0-133.12-20.48-191.147-58.027-6.827-3.413-6.827-13.653-3.413-17.067 3.413-6.827 13.653-6.827 17.067-3.413 54.613 34.133 116.053 54.613 177.493 51.2 13.653 0 27.307 0 40.96-6.827 6.827-3.413 13.653-10.24 13.653-13.653s-3.413-6.827-6.827-10.24c-13.653-13.653-30.72-20.48-47.787-27.307-3.413 0-10.24-3.413-13.653-3.413-23.893-6.827-58.027-17.067-58.027-47.787 0-13.653 6.827-23.893 10.24-27.307 10.24-6.827 23.893-10.24 44.373-6.827 6.827 0 13.653 3.413 20.48 6.827 13.653 3.413 27.307 10.24 40.96 3.413 23.893-13.653 30.72-58.027 30.72-71.68 0-20.48 0-44.373-6.827-75.093-3.413-6.827 3.413-13.653 10.24-17.067s13.653 3.413 17.067 10.24c0 3.413 3.413 10.24 3.413 13.653 6.827 23.893 6.827 47.787 6.827 68.267-13.653 17.067-20.48 68.267-54.613 88.747zM417.273 784.972c0 0 3.413 0 6.827 0s10.24 3.413 10.24 6.827c17.067 34.133 54.613 61.44 95.573 75.093s88.747 10.24 126.293 6.827c6.827 0 13.653 3.413 13.653 13.653 0 6.827-3.413 13.653-13.653 13.653-40.96 3.413-88.747 3.413-136.533-10.24s-88.747-44.373-112.64-85.333c0-6.827 3.413-17.067 10.24-20.48zM492.367 822.519c-6.827-3.413-10.24-10.24-6.827-17.067 3.413-3.413 6.827-6.827 13.653-6.827 3.413 0 3.413 0 6.827 0 71.68 37.547 136.533 40.96 197.973 10.24 6.827-3.413 13.653 0 17.067 6.827s0 13.653-6.827 17.067c-64.853 34.133-139.947 30.72-221.867-10.24zM512.847 774.732c-6.827-3.413-6.827-13.653-3.413-17.067s6.827-6.827 10.24-6.827c3.413 0 3.413 0 6.827 0 54.613 34.133 133.12 37.547 191.147 3.413 6.827-3.413 13.653 0 17.067 3.413 3.413 6.827 0 13.653-3.413 17.067-68.267 40.96-157.013 37.547-218.453 0zM437.753 460.705c3.413 0 3.413 0 6.827 3.413 6.827 3.413 6.827 13.653 3.413 17.067-34.133 54.613-47.787 116.053-44.373 180.907 0 13.653 0 27.307 6.827 40.96 3.413 6.827 10.24 13.653 13.653 13.653s6.827-3.413 10.24-6.827c13.653-13.653 20.48-30.72 27.307-47.787 0-3.413 3.413-10.24 3.413-13.653 6.827-23.893 13.653-61.44 47.787-61.44 13.653 0 23.893 6.827 27.307 10.24 6.827 10.24 10.24 23.893 6.827 44.373 0 6.827-3.413 13.653-3.413 20.48-3.413 13.653-6.827 30.72 0 40.96 13.653 23.893 58.027 27.307 71.68 27.307 20.48 0 44.373-3.413 75.093-10.24 6.827-3.413 13.653 0 17.067 10.24 3.413 6.827 0 13.653-10.24 17.067-30.72 10.24-58.027 13.653-81.92 13.653-20.48 0-71.68-6.827-92.16-40.96-13.653-20.48-6.827-44.373 0-61.44 0-6.827 3.413-13.653 3.413-17.067 3.413-17.067 0-20.48 0-20.48s-3.413 0-6.827 0c-10.24 0-17.067 23.893-20.48 40.96 0 6.827-3.413 10.24-3.413 17.067-6.827 17.067-13.653 40.96-30.72 58.027-10.24 10.24-17.067 13.653-27.307 17.067-13.653 0-30.72-10.24-40.96-27.307-6.827-17.067-10.24-34.133-10.24-51.2-3.413-68.267 13.653-136.533 51.2-194.56-10.24-17.067-3.413-20.48 0-20.48zM161.273 399.265c-30.72 23.893-54.613 61.44-64.853 102.4-6.827 44.373 0 88.747 6.827 126.293 0 6.827-3.413 13.653-10.24 13.653s-13.653-3.413-13.653-10.24c-6.827-40.96-13.653-88.747-6.827-136.533 10.24-47.787 37.547-92.16 75.093-119.467 3.413 0 3.413-3.413 6.827-3.413s6.827 3.413 10.24 6.827c3.413 6.827 3.413 13.653-3.413 20.48zM147.62 450.465c0 0 3.413 0 3.413 0 6.827 3.413 10.24 10.24 6.827 17.067-27.307 75.093-27.307 139.947 10.24 197.973 3.413 6.827 3.413 13.653-3.413 17.067-3.413 3.413-10.24 3.413-13.653-3.413-40.96-61.44-44.373-136.533-13.653-221.867 0-3.413 6.827-6.827 10.24-6.827zM226.127 675.745c3.413 6.827 3.413 13.653-3.413 17.067s-13.653 3.413-17.067-3.413c-44.373-61.44-51.2-150.187-20.48-218.453 3.413-3.413 6.827-6.827 13.653-6.827 3.413 0 3.413 0 3.413 0 6.827 3.413 10.24 10.24 6.827 17.067-27.307 61.44-20.48 139.947 17.067 194.56zM488.953 371.959c-3.413 6.827-10.24 10.24-17.067 6.827-58.027-27.307-119.467-37.547-184.32-27.307-13.653 3.413-27.307 3.413-37.547 13.653-6.827 3.413-10.24 10.24-10.24 13.653s3.413 6.827 6.827 10.24c13.653 10.24 34.133 17.067 51.2 20.48 3.413 0 10.24 0 13.653 3.413 23.893 3.413 61.44 10.24 64.853 40.96 0 13.653-3.413 23.893-6.827 27.307-6.827 10.24-20.48 13.653-40.96 13.653-6.827 0-13.653 0-20.48-3.413-17.067-3.413-30.72-3.413-40.96 3.413-23.893 17.067-20.48 61.44-20.48 71.68 0 20.48 6.827 44.373 17.067 71.68 3.413 3.413 0 13.653-6.827 13.653-6.827 3.413-13.653 0-17.067-6.827-13.653-30.72-17.067-54.613-20.48-81.92 0-20.48 0-71.68 30.72-95.573 20.48-13.653 40.96-10.24 61.44-6.827 6.827 0 13.653 0 17.067 3.413 17.067 0 20.48-3.413 20.48-3.413s0-3.413 0-6.827c0-10.24-27.307-13.653-44.373-17.067-6.827 0-13.653 0-17.067-3.413-20.48-3.413-40.96-10.24-58.027-23.893-10.24-6.827-17.067-17.067-17.067-23.893-3.413-13.653 6.827-30.72 23.893-44.373 17.067-10.24 34.133-13.653 47.787-13.653 17.067-3.413 34.133-3.413 47.787-3.413 51.2 0 102.4 10.24 150.187 30.72 6.827 3.413 10.24 10.24 6.827 17.067z" />
<glyph unicode="&#xe909;" glyph-name="ambiente" horiz-adv-x="990" d="M986.44 477.584c0.018 44.571-18.746 86.902-51.324 115.796 12.417 21.098 18.952 45.38 18.871 70.127-0.085 68.563-49.355 126.244-114.72 134.304 0.759 5.905 1.14 11.857 1.136 17.815 0.168 74.511-57.683 135.054-129.215 135.231-42.091 0.103-81.606-21.108-105.954-56.872-41.32 60.742-122.089 75.090-180.403 32.049-11.918-8.798-22.321-19.634-30.767-32.049-41.55 60.721-122.487 74.859-180.78 31.582-39.095-29.025-59.585-78.183-53.253-127.755-65.366-8.060-114.635-65.741-114.72-134.304-0.081-24.747 6.454-49.029 18.871-70.127-61.386-54.492-68.741-150.505-16.427-214.448 5.030-6.15 10.525-11.872 16.427-17.111-12.423-21.109-18.958-45.401-18.871-70.161 0.081-74.644 58.151-135.132 129.811-135.217h97.358v-185.923h-48.679c-8.961 0-16.226-7.568-16.226-16.902s7.265-16.902 16.226-16.902h551.697c8.961 0 16.226 7.568 16.226 16.902s-7.265 16.902-16.226 16.902h-48.679v185.923h97.358c71.66 0.085 129.73 60.573 129.811 135.217 0.081 24.747-6.454 49.029-18.871 70.127 32.578 28.894 51.34 71.228 51.324 115.796zM175.121 190.4c-53.691 0.055-97.224 45.334-97.358 101.261-0.063 22.987 7.458 45.298 21.305 63.197 5.592 7.293 4.45 17.929-2.552 23.756-0.339 0.283-0.69 0.551-1.051 0.803-52.048 36.475-65.857 109.993-30.842 164.21 8.192 12.683 18.664 23.593 30.842 32.125 7.428 5.221 9.387 15.727 4.373 23.464-0.243 0.376-0.501 0.739-0.771 1.094-13.847 17.899-21.368 40.21-21.305 63.197 0.053 55.986 43.61 101.358 97.358 101.413l4.203-0.237c5.247-0.273 10.283 2.176 13.452 6.541 3.225 4.31 4.235 9.985 2.71 15.212-15.2 53.723 14.289 110.111 65.867 125.944 45.85 14.075 94.725-8.603 115.349-53.518 0-0.169 0-0.338-0.114-0.507-2.022-6.336-3.586-12.822-4.673-19.404-0.195-1.132-0.341-2.282-0.503-3.38-1.941-12.478-2.089-25.186-0.438-37.709-65.384-8.064-114.66-65.77-114.72-134.355-0.081-24.747 6.454-49.029 18.871-70.127-0.292-0.27-0.535-0.558-0.828-0.828l-75.534 78.679c-6.446 6.484-16.719 6.298-22.944-0.416-6.073-6.55-6.073-16.934 0-23.483l76.459-79.643c-45.48-64.232-35.501-154.168 22.847-205.901-6.261-10.638-11.048-22.142-14.214-34.176l-58.090 60.51c-6.446 6.486-16.717 6.3-22.944-0.414-6.073-6.55-6.073-16.934 0-23.485l76.735-79.93c0.13-2.349 0.162-4.716 0.406-7.014 0.162-1.589 0.471-3.11 0.682-4.665 0.422-3.127 0.844-6.237 1.477-9.296 0.373-1.825 0.892-3.583 1.331-5.375 0.665-2.704 1.331-5.426 2.158-8.062 0.584-1.876 1.282-3.668 1.947-5.51 0.892-2.468 1.785-4.952 2.823-7.352 0.779-1.825 1.623-3.6 2.483-5.375 1.103-2.316 2.239-4.597 3.456-6.761 0.957-1.69 1.98-3.38 3.018-5.071 1.298-2.147 2.629-4.242 4.040-6.288 1.12-1.69 2.288-3.262 3.489-4.851 1.477-1.994 3.018-3.904 4.608-5.797 1.282-1.521 2.58-3.025 3.911-4.479 1.623-1.825 3.424-3.566 5.209-5.29 0.892-0.879 1.72-1.859 2.645-2.704h-125.17zM483.422-29.479h-178.49v185.923h178.49v-185.923zM499.648 731.116c-8.961 0-16.226-7.568-16.226-16.902v-119.768l-73.716 76.786c-6.446 6.484-16.719 6.298-22.944-0.416-6.073-6.55-6.073-16.934 0-23.483l96.66-100.686v-231.086l-69.66 72.561c-6.446 6.486-16.717 6.3-22.944-0.414-6.073-6.55-6.073-16.934 0-23.485l92.604-96.46v-77.513h-97.358c-53.748 0.055-97.305 45.427-97.358 101.413-0.063 22.987 7.458 45.298 21.305 63.197 5.592 7.293 4.45 17.929-2.552 23.756-0.339 0.283-0.69 0.551-1.051 0.803-52.048 36.475-65.857 109.993-30.842 164.21 8.192 12.683 18.664 23.593 30.842 32.125 7.428 5.221 9.387 15.727 4.373 23.464-0.243 0.376-0.501 0.739-0.771 1.094-13.847 17.899-21.368 40.21-21.305 63.197 0.053 55.986 43.61 101.358 97.358 101.413l4.203-0.237c5.253-0.304 10.302 2.151 13.452 6.541 3.225 4.31 4.235 9.985 2.71 15.212-2.734 9.469-4.13 19.302-4.138 29.19 0.008 6.239 0.58 12.463 1.704 18.592 0 0.237 0 0.49 0.097 0.727 1.176 6.102 2.876 12.081 5.079 17.866 14.65 38.721 50.523 64.186 90.478 64.228 39.955-0.042 75.828-25.507 90.478-64.228 2.209-5.823 3.909-11.842 5.079-17.984 0-0.237 0-0.49 0.097-0.727 1.118-6.089 1.688-12.275 1.704-18.474-0.008-9.888-1.404-19.721-4.138-29.19-1.525-5.227-0.515-10.902 2.71-15.212 3.162-4.373 8.202-6.824 13.452-6.541l4.203 0.237c53.748-0.055 97.305-45.427 97.358-101.413 0.063-22.987-7.458-45.298-21.305-63.197-5.592-7.293-4.45-17.929 2.552-23.756 0.339-0.283 0.69-0.551 1.051-0.803 52.048-36.475 65.857-109.993 30.84-164.21-8.192-12.683-18.664-23.593-30.84-32.125-7.428-5.221-9.387-15.727-4.373-23.464 0.243-0.376 0.501-0.739 0.771-1.094 13.847-17.899 21.368-40.21 21.305-63.197-0.053-55.986-43.61-101.358-97.358-101.413h-97.358v230.798c1.211 0.623 2.341 1.407 3.359 2.332l105.471 109.864c6.227 6.714 6.048 17.413-0.398 23.9-6.288 6.326-16.257 6.326-22.547 0l-85.886-89.463v246.534c0 9.336-7.265 16.902-16.226 16.902zM694.365-29.479h-178.49v185.923h178.49v-185.923zM899.456 355.952c0.243-0.376 0.501-0.739 0.771-1.094 13.847-17.899 21.368-40.21 21.305-63.197-0.053-55.986-43.61-101.358-97.358-101.413h-125.168c0.925 0.845 1.752 1.825 2.645 2.704 1.785 1.69 3.521 3.465 5.209 5.29 1.331 1.454 2.629 2.958 3.911 4.479 1.623 1.893 3.132 3.803 4.608 5.797 1.201 1.589 2.369 3.194 3.489 4.851 1.412 2.045 2.742 4.141 4.040 6.288 1.038 1.69 2.061 3.38 3.018 5.071 1.217 2.231 2.353 4.513 3.456 6.761 0.844 1.775 1.623 3.549 2.483 5.375 1.038 2.4 1.931 4.885 2.823 7.352 0.665 1.842 1.363 3.634 1.947 5.51 0.828 2.637 1.493 5.358 2.158 8.062 0.438 1.792 0.957 3.549 1.331 5.375 0.633 3.059 1.055 6.169 1.477 9.296 0.211 1.555 0.519 3.076 0.682 4.665 0.505 4.828 0.761 9.681 0.763 14.536 0.081 24.747-6.454 49.029-18.871 70.127 30.625 27.248 49.062 66.484 50.935 108.393l60.541 63.062c6.227 6.714 6.048 17.413-0.398 23.9-6.288 6.326-16.257 6.326-22.547 0l-41.556-43.286c-7.265 30.958-23.701 58.752-46.975 79.44 12.431 21.121 18.967 45.435 18.871 70.211-0.085 68.563-49.355 126.244-114.72 134.304 1.635 12.524 1.471 25.235-0.487 37.709-0.162 1.149-0.308 2.299-0.503 3.38-1.087 6.581-2.651 13.067-4.673 19.404 0 0.169 0 0.338-0.114 0.507 23.202 50.527 81.331 71.895 129.837 47.727 43.12-21.483 64.889-72.396 51.379-120.153-1.525-5.227-0.515-10.902 2.71-15.212 3.168-4.365 8.204-6.814 13.452-6.541l4.251 0.287c53.748-0.055 97.305-45.427 97.358-101.413 0.063-22.987-7.458-45.298-21.305-63.197-5.592-7.293-4.45-17.929 2.552-23.756 0.339-0.283 0.69-0.551 1.051-0.803 52.048-36.475 65.857-109.993 30.84-164.21-8.192-12.683-18.664-23.593-30.84-32.125-7.43-5.221-9.387-15.727-4.375-23.464z" />
<glyph unicode="&#xe90a;" glyph-name="inclusion" horiz-adv-x="1092" d="M281.059 721.608c3.413-3.413 10.24-3.413 13.653-3.413 6.827 0 13.653 3.413 17.067 10.24 37.547 54.613 98.987 92.16 170.667 105.813s146.773 3.413 211.627-10.24c13.653 0 23.893 6.827 27.307 17.067s-6.827 23.893-17.067 23.893c-68.267 10.24-146.773 23.893-225.28 10.24-85.333-13.653-157.013-61.44-201.387-126.293-6.827-6.827-6.827-20.48 3.413-27.307zM414.179 772.808c-10.24-3.413-17.067-17.067-13.653-27.307s17.067-17.067 27.307-13.653c129.707 47.787 235.52 44.373 327.68-17.067 3.413-3.413 6.827-3.413 10.24-3.413 6.827 0 13.653 3.413 17.067 10.24 6.827 10.24 3.413 23.893-6.827 30.72-95.573 64.853-221.867 71.68-361.813 20.48zM438.072 684.061c-10.24-6.827-17.067-17.067-10.24-30.72 6.827-10.24 17.067-17.067 30.72-10.24 98.987 47.787 225.28 37.547 317.44-27.307 3.413-3.413 6.827-3.413 13.653-3.413s13.653 3.413 20.48 10.24c6.827 10.24 3.413 23.893-6.827 30.72-105.813 75.093-252.587 88.747-365.227 30.72zM236.686 516.808c3.413 20.48 6.827 44.373 20.48 64.853 6.827 10.24 17.067 20.48 23.893 17.067 3.413 0 10.24-6.827 17.067-13.653 17.067-23.893 27.307-58.027 34.133-85.333 0-6.827 3.413-13.653 3.413-23.893 6.827-40.96 13.653-102.4 64.853-109.227 23.893-3.413 37.547 3.413 47.787 13.653 13.653 13.653 20.48 37.547 20.48 68.267 0 10.24-3.413 23.893-3.413 34.133-3.413 27.307-10.24 51.2 3.413 68.267 30.72 37.547 102.4 37.547 122.88 34.133 37.547-3.413 75.093-10.24 119.467-30.72 10.24-3.413 23.893 0 27.307 10.24s0 23.893-10.24 27.307c-51.2 20.48-92.16 30.72-133.12 34.133-34.133 3.413-119.467 0-160.427-51.2-23.893-30.72-17.067-71.68-13.653-102.4 0-10.24 3.413-20.48 3.413-30.72 0-27.307-3.413-34.133-6.827-34.133-3.413-3.413-6.827-3.413-10.24 0-20.48 3.413-23.893 44.373-30.72 71.68 0 10.24-3.413 20.48-3.413 27.307-6.827 30.72-20.48 68.267-40.96 98.987-13.653 20.48-27.307 30.72-40.96 34.133-27.307 6.827-54.613-10.24-71.68-37.547s-20.48-58.027-27.307-81.92c-17.067-112.64 0-225.28 51.2-331.093 3.413-6.827 10.24-13.653 17.067-13.653 3.413 0 6.827 0 10.24 3.413 10.24 6.827 13.653 17.067 10.24 30.72-40.96 98.987-58.027 204.8-44.373 307.2zM813.539 175.474c-10.24 6.827-23.893 3.413-30.72-6.827-37.547-54.613-98.987-92.16-170.667-105.813s-146.773-3.413-211.627 10.24c-10.24 3.413-23.893-6.827-23.893-17.067s6.827-23.893 17.067-23.893c44.373-10.24 95.573-17.067 146.773-17.067 27.307 0 54.613 0 81.92 6.827 85.333 13.653 157.013 61.44 201.387 126.293 3.413 6.827 0 20.48-10.24 27.307zM680.419 127.688c10.24 3.413 17.067 17.067 13.653 27.307s-17.067 17.067-27.307 13.653c-129.707-47.787-235.52-44.373-327.68 17.067-10.24 6.827-23.893 3.413-30.72-6.827s-3.413-23.893 6.827-30.72c58.027-37.547 122.88-58.027 194.56-58.027 51.2 0 109.227 13.653 170.667 37.547zM659.939 213.021c10.24 6.827 17.067 17.067 10.24 30.72-6.827 10.24-17.067 17.067-30.72 10.24-98.987-47.787-225.28-37.547-317.44 27.307-10.24 6.827-23.893 3.413-30.72-6.827s-3.413-23.893 6.827-30.72c61.44-40.96 136.533-64.853 208.213-64.853 51.2-3.413 105.813 10.24 153.6 34.133zM851.086 707.954c-6.827 10.24-17.067 13.653-30.72 10.24-10.24-6.827-13.653-17.067-10.24-30.72 44.373-95.573 61.44-204.8 44.373-307.2-3.413-20.48-6.827-44.373-20.48-64.853-6.827-10.24-17.067-20.48-23.893-17.067-3.413 0-10.24 6.827-17.067 13.653-17.067 23.893-27.307 58.027-34.133 85.333 0 6.827-3.413 13.653-3.413 23.893-6.827 40.96-13.653 102.4-64.853 109.227-23.893 3.413-37.547-3.413-47.787-13.653-13.653-13.653-20.48-37.547-20.48-68.267 0-10.24 3.413-23.893 3.413-34.133 3.413-27.307 10.24-51.2-3.413-68.267-30.72-37.547-102.4-37.547-122.88-34.133-37.547 3.413-75.093 10.24-119.467 30.72-10.24 3.413-23.893 0-27.307-10.24s0-23.893 10.24-27.307c51.2-20.48 92.16-30.72 133.12-34.133 34.133-3.413 119.467 0 160.427 51.2 23.893 30.72 17.067 71.68 13.653 102.4 0 10.24-3.413 20.48-3.413 30.72 0 27.307 3.413 34.133 6.827 34.133 3.413 3.413 6.827 3.413 10.24 0 20.48-3.413 23.893-44.373 30.72-71.68 0-10.24 3.413-20.48 3.413-27.307 6.827-30.72 20.48-68.267 40.96-98.987 13.653-17.067 27.307-27.307 40.96-30.72 3.413 0 6.827 0 10.24 0 20.48 0 44.373 13.653 58.027 37.547 17.067 27.307 20.48 58.027 27.307 81.92 23.893 105.813 6.827 221.867-44.373 327.68z" />
<glyph unicode="&#xe90b;" glyph-name="ciudades" horiz-adv-x="992" d="M612.053 444.588c3.413 0 3.413 0 6.827 0s6.827 0 6.827 3.413c17.067 23.893 44.373 44.373 78.507 47.787 34.133 6.827 68.267 0 95.573-3.413 6.827 0 10.24 3.413 10.24 6.827 0 6.827-3.413 10.24-6.827 10.24-30.72 6.827-68.267 10.24-102.4 3.413-37.547-6.827-71.68-27.307-92.16-58.027-3.413-3.413 0-6.827 3.413-10.24zM673.493 465.068c-3.413-3.413-6.827-6.827-6.827-13.653 3.413-3.413 6.827-6.827 13.653-6.827 58.027 20.48 105.813 20.48 150.187-6.827 0 0 3.413 0 6.827 0s6.827 0 10.24 3.413c3.413 3.413 0 10.24-3.413 13.653-51.2 30.72-109.227 34.133-170.667 10.24zM847.573 413.868c-47.787 34.133-112.64 37.547-163.84 13.653-3.413-3.413-6.827-6.827-3.413-13.653 3.413-3.413 6.827-6.827 13.653-3.413 44.373 20.48 102.4 17.067 143.36-13.653 0 0 3.413 0 6.827 0s6.827 0 6.827 3.413 0 10.24-3.413 13.653zM813.44 386.561c-23.893 10.24-40.96 13.653-61.44 13.653-13.653 0-54.613 0-71.68-23.893-10.24-13.653-6.827-30.72-6.827-44.373 0-3.413 0-10.24 0-13.653 0-13.653-3.413-13.653-3.413-17.067 0 0-3.413 0-3.413 0-10.24 0-10.24 20.48-13.653 34.133 0 3.413 0 10.24-3.413 13.653-3.413 13.653-10.24 30.72-20.48 44.373-6.827 6.827-13.653 13.653-20.48 13.653-10.24 3.413-23.893-3.413-30.72-17.067s-10.24-27.307-10.24-37.547c-6.827-51.2 0-102.4 23.893-150.187 0-3.413 6.827-6.827 10.24-6.827 0 0 3.413 0 3.413 0 3.413 3.413 6.827 6.827 3.413 13.653-20.48 44.373-27.307 92.16-20.48 139.947 0 10.24 3.413 20.48 10.24 30.72 3.413 3.413 6.827 10.24 10.24 6.827 3.413 0 3.413-3.413 6.827-6.827 6.827-10.24 13.653-27.307 17.067-37.547 0-3.413 0-6.827 3.413-10.24 3.413-17.067 6.827-47.787 30.72-51.2 10.24 0 17.067 3.413 20.48 6.827 6.827 6.827 10.24 17.067 10.24 30.72 0 3.413 0 10.24-3.413 17.067 0 13.653-3.413 23.893 3.413 30.72 13.653 17.067 44.373 17.067 54.613 17.067 17.067 0 34.133-6.827 54.613-13.653 3.413-3.413 10.24 0 13.653 6.827 0 3.413 0 6.827-6.827 10.24zM147.84 499.201c0-6.827 6.827-10.24 10.24-6.827 30.72 3.413 64.853 6.827 98.987 3.413 34.133-6.827 61.44-23.893 78.507-47.787 3.413-3.413 3.413-3.413 6.827-3.413s3.413 0 6.827 3.413 6.827 10.24 3.413 13.653c-20.48 30.72-54.613 51.2-92.16 58.027-34.133 6.827-71.68 0-102.4-3.413-6.827-6.827-10.24-13.653-10.24-17.067zM120.533 454.828c-3.413-3.413-6.827-10.24-3.413-13.653 0-3.413 3.413-3.413 6.827-3.413 0 0 3.413 0 6.827 0 44.373 30.72 92.16 30.72 150.187 10.24 3.413-3.413 10.24 0 13.653 6.827 3.413 3.413 0 10.24-6.827 13.653-64.853 20.48-119.467 17.067-167.253-13.653zM267.307 410.454c3.413-3.413 10.24 0 13.653 3.413s0 10.24-3.413 13.653c-51.2 23.893-116.053 20.48-163.84-13.653-3.413-3.413-6.827-10.24-3.413-13.653s3.413-3.413 6.827-3.413 3.413 0 6.827 0c40.96 30.72 98.987 34.133 143.36 13.653zM376.533 389.974c-6.827 13.653-20.48 20.48-30.72 17.067-6.827 0-13.653-6.827-20.48-13.653-10.24-13.653-13.653-30.72-20.48-44.373 0-3.413 0-6.827-3.413-13.653-3.413-13.653-3.413-30.72-13.653-34.133 0 0-3.413 0-3.413 0s-3.413 3.413-3.413 17.067c0 3.413 0 10.24 0 13.653 6.827 13.653 10.24 30.72-3.413 47.787-17.067 23.893-58.027 23.893-71.68 23.893-17.067 0-37.547-6.827-61.44-13.653-3.413-3.413-6.827-6.827-6.827-13.653 3.413-3.413 6.827-6.827 13.653-6.827 20.48 10.24 37.547 13.653 54.613 13.653 10.24 0 40.96 0 54.613-17.067 6.827-6.827 3.413-17.067 3.413-30.72 0-3.413 0-10.24-3.413-17.067 0-13.653 3.413-23.893 10.24-30.72 3.413-3.413 10.24-6.827 20.48-6.827 23.893 3.413 27.307 30.72 30.72 51.2 0 3.413 0 6.827 3.413 10.24 3.413 13.653 6.827 27.307 17.067 37.547 3.413 3.413 3.413 6.827 6.827 6.827s6.827-3.413 10.24-6.827c6.827-10.24 6.827-20.48 10.24-30.72 6.827-47.787 0-95.573-20.48-139.947-3.413-3.413 0-10.24 3.413-13.653 0 0 3.413 0 3.413 0 3.413 0 6.827 3.413 6.827 6.827 23.893 47.787 30.72 98.987 23.893 150.187 0 10.24-3.413 27.307-10.24 37.547zM185.387 666.454c3.413 0 3.413 3.413 3.413 6.827 0 6.827-3.413 10.24-10.24 10.24-58.027-3.413-112.64-40.96-136.533-92.16-3.413-3.413 0-10.24 3.413-13.653s10.24 0 13.653 3.413c20.48 44.373 68.267 78.507 119.467 81.92 3.413 0 6.827 0 6.827 3.413zM816.853 639.148c-6.827 0-10.24-3.413-10.24-10.24s3.413-10.24 10.24-10.24c51.2-3.413 98.987-37.547 119.467-81.92 0-3.413 3.413-3.413 3.413-3.413 3.413 0 6.827-3.413 10.24 0s6.827 6.827 3.413 13.653c-23.893 51.2-78.507 88.747-136.533 92.16zM963.627 587.948c-17.067 40.96-61.44 68.267-105.813 71.68-3.413 0-6.827-3.413-6.827-6.827s3.413-6.827 6.827-6.827c37.547-3.413 75.093-27.307 92.16-64.853 0 0 3.413-3.413 3.413-3.413 3.413 0 3.413 0 6.827 0 3.413 3.413 3.413 6.827 3.413 10.24zM134.187 683.521c0 0 3.413 0 3.413 3.413 3.413 0 3.413 3.413 3.413 6.827s-3.413 6.827-10.24 6.827c-44.373-6.827-85.333-37.547-102.4-78.507 0-3.413 0-6.827 3.413-10.24 3.413 0 6.827 0 10.24 3.413 17.067 37.547 51.2 64.853 92.16 68.267z" />
<glyph unicode="&#xe90c;" glyph-name="comment" horiz-adv-x="1103" d="M550.452 950.857c-303.96 0-550.31-200.132-550.31-447.127 0-102.323 42.778-196.048 113.716-271.5-32.030-84.696-98.669-156.494-99.744-157.354-14.188-15.048-18.057-36.974-9.888-55.891s26.871-31.17 47.507-31.17c132.203 0 236.461 55.246 299.016 99.529 62.125-19.562 129.194-30.74 199.702-30.74 303.96 0 550.31 200.132 550.31 447.127s-246.35 447.127-550.31 447.127zM550.452 159.787c-57.396 0-114.146 8.814-168.532 26.011l-48.797 15.477-41.918-29.665c-30.74-21.711-72.873-46.002-123.605-62.34 15.692 26.011 30.955 55.246 42.778 86.416l22.786 60.405-44.283 46.862c-38.909 41.488-85.556 110.062-85.556 200.777 0 189.599 200.562 343.944 447.127 343.944s447.127-154.345 447.127-343.944c0-189.599-200.562-343.944-447.127-343.944z" />
<glyph unicode="&#xe90d;" glyph-name="heart" horiz-adv-x="1103" d="M985.316 881.241c-124.492 104.677-316.831 88.954-435.938-32.308-119.108 121.261-311.446 137.2-435.938 32.308-161.969-136.338-138.277-358.615-22.831-476.43l377.784-384.892c21.538-21.969 50.4-34.246 80.985-34.246 30.8 0 59.446 12.062 80.984 34.031l377.784 384.892c115.231 117.815 139.354 340.092-22.831 476.646zM934.485 477.395l-377.784-384.892c-5.169-5.169-9.477-5.169-14.646 0l-377.784 384.892c-78.615 80.123-94.554 231.754 15.723 324.584 83.785 70.431 213.015 59.877 294-22.615l75.385-76.892 75.385 76.892c81.415 82.923 210.646 93.046 294 22.831 110.061-92.831 93.692-245.323 15.723-324.8v0z" />
<glyph unicode="&#xe90e;" glyph-name="angle02" horiz-adv-x="658" d="M650.971 65.828l-372.216 373.029 372.216 373.029-114.59 114.59-487.619-487.619 487.619-487.619z" />
<glyph unicode="&#xe90f;" glyph-name="angle01" horiz-adv-x="658" d="M7.314 65.828l372.216 373.029-372.216 373.029 114.59 114.59 487.619-487.619-487.619-487.619z" />
<glyph unicode="&#xe910;" glyph-name="menu" d="M938.667 172.617h-853.333c-13.653 0-23.893-10.24-23.893-23.893v-64.853c0-13.653 10.24-23.893 23.893-23.893h849.92c13.653 0 23.893 10.24 23.893 23.893v64.853c3.413 13.653-6.827 23.893-20.48 23.893zM938.667 493.47h-853.333c-13.653 0-23.893-10.24-23.893-23.893v-64.853c0-13.653 10.24-23.893 23.893-23.893h849.92c13.653 0 23.893 10.24 23.893 23.893v64.853c3.413 13.653-6.827 23.893-20.48 23.893zM938.667 817.737h-853.333c-13.653 0-23.893-10.24-23.893-23.893v-64.853c0-13.653 10.24-23.893 23.893-23.893h849.92c13.653 0 23.893 10.24 23.893 23.893v61.44c3.413 13.653-6.827 27.307-20.48 27.307z" />
<glyph unicode="&#xe911;" glyph-name="download" d="M443.733 148.724c37.547-37.547 95.573-37.547 133.12 0l286.72 286.72c58.027 58.027 17.067 163.84-68.267 163.84h-102.4v187.733c0 51.2-40.96 95.573-95.573 95.573h-174.080c-51.2 0-95.573-40.96-95.573-95.573v-191.147h-102.4c-85.333 0-126.293-102.4-68.267-163.84l286.72-283.307zM423.253 503.71v283.307h174.080v-286.72h197.973l-283.307-283.307-286.72 286.72h197.973zM866.987 90.697h-709.973c-13.653 0-23.893-10.24-23.893-23.893v-47.787c0-13.653 10.24-23.893 23.893-23.893h713.387c13.653 0 23.893 10.24 23.893 23.893v47.787c-3.413 13.653-13.653 23.893-27.307 23.893z" />
<glyph unicode="&#xe912;" glyph-name="arrow-next" d="M512-28.77c256 0 467.627 211.627 467.627 467.627s-208.213 467.627-467.627 467.627c-256 0-467.627-208.213-467.627-467.627 0-256 211.627-467.627 467.627-467.627zM512 838.217c221.867 0 399.36-177.493 399.36-399.36s-177.493-399.36-399.36-399.36c-221.867 0-399.36 180.907-399.36 399.36 0 221.867 177.493 399.36 399.36 399.36zM600.747 281.844l-157.013 157.013 157.013 157.013-47.787 47.787-204.8-204.8 204.8-204.8z" />
<glyph unicode="&#xe913;" glyph-name="arrow-next1" d="M512 906.484c-256 0-467.627-211.627-467.627-467.627s208.213-467.627 467.627-467.627c256 0 467.627 208.213 467.627 467.627 0 256-211.627 467.627-467.627 467.627zM512 39.497c-221.867 0-399.36 177.493-399.36 399.36s177.493 399.36 399.36 399.36c221.867 0 399.36-180.907 399.36-399.36 0-221.867-177.493-399.36-399.36-399.36zM423.253 595.87l157.013-157.013-157.013-157.013 47.787-47.787 204.8 204.8-204.8 204.8z" />
<glyph unicode="&#xe914;" glyph-name="clear-button" d="M921.6 766.537l-81.92 81.92-327.68-327.68-327.68 327.68-81.92-81.92 327.68-327.68-327.68-327.68 81.92-81.92 327.68 327.68 327.68-327.68 81.92 81.92-327.68 327.68z" />
<glyph unicode="&#xe915;" glyph-name="quote" horiz-adv-x="1138" d="M455.278-64h-455v488.075c-2.136 70.181 8.010 136.108 30.44 197.782s53.938 115.904 94.525 162.692c40.587 46.787 89.184 85.599 145.792 116.436s118.022 50.509 184.243 59.016v-210.542c-81.174-27.647-136.713-68.585-166.62-122.816s-44.859-120.689-44.859-199.377h211.479v-491.265zM1137.778-64h-455v488.075c-2.136 70.181 8.010 136.108 30.44 197.782s53.938 115.904 94.525 162.692c40.587 46.787 89.184 85.599 145.792 116.436s118.022 50.509 184.243 59.016v-210.542c-81.174-27.647-136.713-68.585-166.62-122.816s-44.859-120.689-44.859-199.377h211.479v-491.265z" />
<glyph unicode="&#xe916;" glyph-name="share" horiz-adv-x="1182" d="M1123.875 579.876l-351.996 351.906c-60.3 60.3-163.88 17.56-163.88-67.88v-161.406c-275.92-8.3-607.999-61.86-607.999-402.6 0-147.5 76.040-269.438 195.26-347.898 74.24-48.86 171.68 21.8 144.38 108.92-48.7 155.36-24.82 238.678 268.36 255.758v-156.56c0-85.28 103.46-128.3 163.88-67.88l351.994 351.88c37.502 37.48 37.502 98.28 0.002 135.76zM703.999 159.996v255.82c-329.042-3.58-554.88-67.642-455.96-383.22-72.040 47.4-152.040 133.38-152.040 267.3 0 284.484 321.638 306.78 607.999 308.040v256.060l352-352-352-352z" />
<glyph unicode="&#xe917;" glyph-name="link" d="M914.286 960c60.571 0 109.714-49.143 109.714-109.714v-804.571c0-60.571-49.143-109.714-109.714-109.714h-804.571c-60.571 0-109.714 49.143-109.714 109.714v804.571c0 60.571 49.143 109.714 109.714 109.714h804.571zM622.864 558.859c-8.094 8.093-16.884 15.459-26.268 22.012-8.195 5.719-19.281 4.851-26.348-2.216l-26.949-26.95c-10.688-10.688-15.48-24.626-14.973-38.152 0.248-6.481 3.545-12.464 8.892-16.136 3.727-2.566 8.499-6.24 13.236-10.968 35.933-35.933 36.084-94.258 0-130.342l-86.016-86.003c-36.146-36.146-95.105-35.928-130.976 0.653-35.52 36.224-34.395 94.636 1.478 130.509l16.751 16.751c5.568 5.568 7.384 13.811 4.842 21.263-7.506 22.008-11.574 44.799-12.403 67.483-0.65 17.8-22.341 26.171-34.936 13.576l-47.496-47.496c-75.866-75.853-75.866-199.296 0-275.149 75.854-75.855 199.283-75.866 275.149 0l86.016 86.016c0.154 0.154 0.32 0.32 0.461 0.474 74.966 75.382 76.015 198.12-0.461 274.675zM803.261 739.265c-75.854 75.855-199.283 75.866-275.149 0l-86.016-86.016c-0.154-0.154-0.32-0.32-0.461-0.474-74.965-75.382-76.015-198.12 0.461-274.675 8.093-8.093 16.883-15.458 26.267-22.011 8.195-5.719 19.282-4.85 26.348 2.216l26.949 26.95c10.688 10.688 15.48 24.626 14.973 38.152-0.248 6.481-3.545 12.464-8.892 16.136-3.727 2.566-8.499 6.24-13.237 10.968-35.933 35.933-36.084 94.258 0 130.342l86.016 86.003c36.146 36.146 95.104 35.928 130.976-0.653 35.52-36.224 34.396-94.636-1.478-130.509l-16.751-16.751c-5.568-5.568-7.384-13.811-4.842-21.263 7.506-22.008 11.574-44.799 12.403-67.483 0.652-17.8 22.341-26.171 34.936-13.576l47.496 47.496c75.867 75.852 75.867 199.295 0.001 275.148z" />
<glyph unicode="&#xe918;" glyph-name="full-heart" horiz-adv-x="1103" d="M987.323 890.384c162.184-136.554 138.061-358.831 22.831-476.646l-377.784-384.892c-21.538-21.969-50.185-34.031-80.984-34.031-30.585 0-59.446 12.277-80.985 34.246l-377.784 384.892c-115.446 117.815-139.138 340.092 22.831 476.43 124.492 104.892 316.831 88.954 435.938-32.308 119.107 121.261 311.446 136.985 435.938 32.308z" />
<glyph unicode="&#xe919;" glyph-name="winner" d="M684.34 396.658l-104.86 15.28-46.86 95.040c-4.22 8.5-12.44 12.78-20.66 12.78-8.16 0-16.32-4.24-20.56-12.78l-46.86-95.040-104.86-15.28c-18.8-2.72-26.34-25.92-12.7-39.18l75.86-73.92-17.94-104.44c-2.56-14.92 9.34-26.88 22.64-26.88 3.54 0 7.16 0.84 10.66 2.7l93.8 49.3 93.8-49.3c3.48-1.84 7.1-2.66 10.62-2.66 13.32 0 25.24 11.92 22.68 26.86l-17.94 104.44 75.86 73.92c13.66 13.26 6.12 36.44-12.68 39.16v0zM991.941 960h-315.701c-22.48 0-43.32-11.8-54.88-31.080l-109.36-182.261-109.36 182.261c-11.564 19.281-32.397 31.080-54.88 31.080h-315.701c-25.9 0-41.060-29.14-26.22-50.36l227.981-325.701c-65.4-68.88-105.82-161.68-105.82-263.941 0-211.741 172.26-384.001 384.001-384.001s384.001 172.261 384.001 384.001c0 102.26-40.42 195.061-105.82 263.961l227.981 325.681c14.84 21.22-0.32 50.36-26.22 50.36zM154.979 864h174.661l101.28-168.801c-44.22-9.56-85.46-26.9-122.6-50.26l-153.34 219.061zM800.001 319.998c0-159.060-128.94-288.001-288.001-288.001s-288.001 128.94-288.001 288.001c0 159.060 128.94 288.001 288.001 288.001s288.001-128.94 288.001-288.001zM715.681 644.939c-37.14 23.36-78.38 40.72-122.6 50.26l101.28 168.801h174.661l-153.34-219.061z" />
<glyph unicode="&#xe91a;" glyph-name="all" d="M927.904 960h-831.79c-85.276 0-128.302-103.462-67.882-163.882l323.768-323.882v-344.236c0-30.216 14.226-58.67 38.4-80l128-94.132c62.546-43.71 153.6-3.076 153.6 76.8v441.568l323.786 323.882c60.298 60.298 17.564 163.882-67.882 163.882zM576 512v-480l-128 96v384l-352 352h832l-352-352z" />
</font>
</defs>
</svg>
