<?xml version="1.0" encoding="utf-8"?>
<!-- Generator: Adobe Illustrator 22.0.0, SVG Export Plug-In . SVG Version: 6.00 Build 0)  -->
<svg version="1.1" id="Layer_1" xmlns="http://www.w3.org/2000/svg" xmlns:xlink="http://www.w3.org/1999/xlink" x="0px" y="0px"
	 viewBox="0 0 160.3 83.8" style="enable-background:new 0 0 160.3 83.8;" xml:space="preserve">
<style type="text/css">
	.st0{fill:#43A742;}
	.st1{fill:#E6672B;}
	.st2{fill:#5AB8C7;}
	.st3{fill:#F1B435;}
	.st4{fill:#383838;}
	.st5{fill:#824290;}
	.st6{fill:#3080BC;}
	.st7{opacity:0.32;}
</style>
<g>
	<g>
		<path class="st0" d="M-451-233.6c-6.4,0-12.9-1.6-18.9-4.8c-9-4.7-16.2-12-22-18.5c-1-1.1-0.9-2.9,0.2-3.9c1.1-1,2.9-0.9,3.9,0.2
			c5.5,6.1,12.2,12.9,20.5,17.2c8.3,4.3,17.6,5.3,25.5,2.7c1.5-0.5,3,0.3,3.5,1.8c0.5,1.5-0.3,3-1.8,3.5
			C-443.6-234.2-447.3-233.6-451-233.6z"/>
	</g>
	<g>
		<path class="st0" d="M-454.7-244c-0.3,0-0.5,0-0.8-0.1c-18.1-5.5-29.9-15.9-35.1-30.8c-0.5-1.5,0.3-3,1.7-3.5
			c1.5-0.5,3,0.3,3.5,1.7c4.6,13.3,14.9,22.2,31.4,27.3c1.5,0.4,2.3,2,1.8,3.5C-452.4-244.8-453.5-244-454.7-244z"/>
	</g>
	<g>
		<path class="st0" d="M-450.5-254.3c-0.2,0-0.4,0-0.6-0.1c-15.6-3.1-29.2-15.6-34.1-31.1c-0.5-1.5,0.4-3,1.8-3.5
			c1.5-0.5,3,0.4,3.5,1.8c4.2,13.6,16.2,24.5,29.8,27.3c1.5,0.3,2.5,1.8,2.2,3.3C-448-255.2-449.2-254.3-450.5-254.3z"/>
	</g>
	<g>
		<path class="st0" d="M-426.9-244.9c-2.4,0-4.5-0.9-5.9-2.5c-1.3-1.5-1.9-3.6-1.8-6.4c0.2-4.9,1.9-9.4,3.5-13.2
			c0.4-1,1-2.1,1.7-3.2c1.8-3.1,4.4-7.8,2.7-9.5c-0.3-0.3-0.8-0.7-1.2-0.7c-0.2,0-1.4,0.2-3.3,3c-0.7,1-1.3,2.1-1.9,3.3
			c-1.9,3.5-4.2,7.9-9.1,9.2c-8.4,2.1-16.8-4.3-20.1-7.2c-3.9-3.4-7.3-7.8-10.8-13.9c-0.8-1.3-0.3-3,1-3.8c1.3-0.8,3-0.3,3.8,1
			c3.2,5.5,6.3,9.5,9.7,12.5c2,1.8,9.1,7.5,15,6c2.6-0.7,4-3.4,5.6-6.4c0.7-1.3,1.4-2.7,2.3-3.9c2.4-3.4,4.8-5.2,7.4-5.4
			c1.4-0.1,3.5,0.2,5.6,2.4c4.6,4.7,0.7,11.6-1.9,16.2c-0.6,1-1.1,2-1.5,2.7c-1.4,3.3-2.9,7.2-3.1,11.1c0,1.3,0.1,2.2,0.5,2.6
			c0.6,0.7,2.2,0.7,3.8,0.1c2.7-1,5.1-3.1,7-5c9.5-9.2,16.1-21.1,19.1-34.2c0.3-1.5,1.8-2.4,3.3-2.1c1.5,0.3,2.4,1.8,2.1,3.3
			c-3.2,14.2-10.4,27-20.7,37c-2.4,2.3-5.3,4.8-8.9,6.2C-424.2-245.2-425.6-244.9-426.9-244.9z"/>
	</g>
</g>
<g>
	<g>
		<g>
			<path class="st1" d="M53.8-310.3c-0.5,0-1.1-0.2-1.6-0.5c-1.3-0.9-1.6-2.6-0.7-3.9c5.5-8.1,14.8-13.9,25.4-15.8
				c10-1.8,20.1-0.4,28.7,1.1c1.5,0.3,2.5,1.7,2.2,3.2c-0.3,1.5-1.7,2.5-3.2,2.2c-8.1-1.5-17.6-2.8-26.7-1.1
				c-9.2,1.7-17.1,6.6-21.8,13.5C55.5-310.7,54.6-310.3,53.8-310.3z"/>
		</g>
		<g>
			<path class="st1" d="M114.1-309.1c-0.5,0-1-0.1-1.5-0.5c-11.8-7.7-25.4-8.5-41.6-2.3c-1.4,0.5-3-0.2-3.6-1.6
				c-0.5-1.4,0.2-3,1.6-3.6c17.7-6.7,33.4-5.8,46.6,2.9c1.3,0.8,1.6,2.6,0.8,3.8C115.9-309.6,115-309.1,114.1-309.1z"/>
		</g>
		<g>
			<path class="st1" d="M116.1-297.5c-0.6,0-1.1-0.2-1.6-0.5c-11.6-8.1-27.8-9.5-40.3-3.3c-1.4,0.7-3,0.1-3.7-1.3
				c-0.7-1.4-0.1-3,1.3-3.7c14.2-7,32.7-5.5,46,3.7c1.3,0.9,1.6,2.6,0.7,3.9C117.9-297.9,117-297.5,116.1-297.5z"/>
		</g>
		<g>
			<path class="st1" d="M49.7-242c-1,0-2-0.6-2.5-1.6c-6.2-13.2-8.3-27.7-6.3-41.9c0.5-3.2,1.2-7,3.3-10.4c2.2-3.6,5.7-5.5,9-4.8
				c2,0.4,3.7,1.7,5.3,3.9c2.9,4,4.3,8.6,5.3,12.6c0.3,1,0.4,2.3,0.6,3.6c0.5,3.5,1.3,8.9,3.7,9.2c0.5,0.1,1.1,0.1,1.4-0.2
				c0.2-0.1,0.9-1,0.8-4.4c-0.1-1.2-0.3-2.4-0.5-3.8c-0.7-3.9-1.5-8.8,1.6-12.8c5.3-6.8,16-6.9,20.3-6.6c5.2,0.3,10.6,1.7,17,4.3
				c1.4,0.6,2.1,2.2,1.5,3.6c-0.6,1.4-2.2,2.1-3.6,1.5c-5.9-2.4-10.7-3.6-15.3-3.9c-2.7-0.2-11.8-0.4-15.5,4.5
				c-1.6,2.1-1.1,5.2-0.5,8.5c0.2,1.5,0.5,3,0.6,4.4c0.2,4.2-0.6,7-2.5,8.8c-1,1-2.9,2-5.9,1.6c-6.5-0.9-7.7-8.7-8.4-13.9
				c-0.2-1.2-0.3-2.3-0.5-3.1c-0.9-3.5-2.1-7.5-4.4-10.7c-0.8-1-1.4-1.6-2-1.8c-0.9-0.2-2.2,0.8-3.1,2.2c-1.5,2.5-2.1,5.6-2.5,8.2
				c-1.9,13.1,0.1,26.5,5.8,38.8c0.6,1.4,0,3-1.3,3.7C50.5-242.1,50.1-242,49.7-242z"/>
		</g>
	</g>
	<g>
		<g>
			<path class="st1" d="M84.5-221.4c-6.5,0-12.9-0.9-18.5-2c-1.5-0.3-2.5-1.7-2.2-3.2c0.3-1.5,1.7-2.5,3.2-2.2
				c8.1,1.5,17.6,2.8,26.7,1.1c9.2-1.7,17.1-6.6,21.8-13.5c0.9-1.3,2.6-1.6,3.9-0.7c1.3,0.9,1.6,2.6,0.7,3.9
				c-5.5,8.1-14.8,13.9-25.4,15.8C91.3-221.6,87.9-221.4,84.5-221.4z"/>
		</g>
		<g>
			<path class="st1" d="M80.5-231.2c-8.9,0-17.1-2.4-24.5-7.3c-1.3-0.8-1.6-2.6-0.8-3.8c0.8-1.3,2.6-1.6,3.8-0.8
				c11.8,7.7,25.4,8.5,41.6,2.3c1.4-0.5,3,0.2,3.6,1.6c0.5,1.4-0.2,3-1.6,3.6C94.8-232.6,87.4-231.2,80.5-231.2z"/>
		</g>
		<g>
			<path class="st1" d="M80.3-242c-9.3,0-18.8-2.8-26.5-8.1c-1.3-0.9-1.6-2.6-0.7-3.9c0.9-1.3,2.6-1.6,3.9-0.7
				c11.6,8.1,27.8,9.5,40.3,3.3c1.4-0.7,3-0.1,3.7,1.3c0.7,1.4,0.1,3-1.3,3.7C93.8-243.5,87.1-242,80.3-242z"/>
		</g>
		<g>
			<path class="st1" d="M119.8-251.9c-0.5,0-0.9,0-1.4-0.1c-2-0.4-3.7-1.7-5.3-3.9c-2.9-4-4.3-8.6-5.3-12.6c-0.3-1-0.4-2.3-0.6-3.6
				c-0.5-3.5-1.3-8.9-3.7-9.2c-0.5-0.1-1.1-0.1-1.4,0.2c-0.2,0.1-0.9,1-0.8,4.4c0.1,1.2,0.3,2.4,0.5,3.8c0.7,3.9,1.5,8.8-1.6,12.8
				c-5.3,6.8-16,6.9-20.3,6.6c-5.2-0.3-10.6-1.7-17-4.3c-1.4-0.6-2.1-2.2-1.5-3.6c0.6-1.4,2.2-2.1,3.6-1.5
				c5.9,2.4,10.7,3.6,15.3,3.9c2.7,0.2,11.8,0.4,15.5-4.5c1.6-2.1,1.1-5.2,0.5-8.5c-0.2-1.5-0.5-3-0.6-4.4c-0.2-4.2,0.6-7,2.5-8.8
				c1-1,2.9-2,5.9-1.6c6.5,0.9,7.7,8.7,8.4,13.9c0.2,1.2,0.3,2.3,0.5,3.1c0.9,3.5,2.1,7.5,4.4,10.7c0.8,1,1.4,1.6,2,1.8
				c0.9,0.2,2.2-0.8,3.1-2.2c1.5-2.5,2.1-5.6,2.5-8.2c1.9-13.1-0.1-26.5-5.8-38.8c-0.6-1.4,0-3,1.3-3.7c1.4-0.6,3,0,3.7,1.3
				c6.2,13.2,8.3,27.7,6.3,41.9c-0.5,3.2-1.2,7-3.3,10.4C125.5-253.7,122.7-251.9,119.8-251.9z"/>
		</g>
	</g>
</g>
<g>
	<g>
		<g>
			<path class="st2" d="M-153.8-298.6c-0.5,0-1.1-0.2-1.6-0.5c-1.3-0.9-1.6-2.6-0.7-3.9c5.5-8.1,14.8-13.9,25.4-15.8
				c10-1.8,20.1-0.4,28.7,1.1c1.5,0.3,2.5,1.7,2.2,3.2c-0.3,1.5-1.7,2.5-3.2,2.2c-8.1-1.5-17.6-2.8-26.7-1.1
				c-9.2,1.7-17.1,6.6-21.8,13.5C-152-299.1-152.9-298.6-153.8-298.6z"/>
		</g>
		<g>
			<path class="st2" d="M-93.4-297.5c-0.5,0-1-0.1-1.5-0.5c-11.8-7.7-25.4-8.5-41.6-2.3c-1.4,0.5-3-0.2-3.6-1.6
				c-0.5-1.4,0.2-3,1.6-3.6c17.7-6.7,33.4-5.8,46.6,2.9c1.3,0.8,1.6,2.6,0.8,3.8C-91.6-297.9-92.5-297.5-93.4-297.5z"/>
		</g>
		<g>
			<path class="st2" d="M-91.4-285.8c-0.6,0-1.1-0.2-1.6-0.5c-11.6-8.1-27.8-9.5-40.3-3.3c-1.4,0.7-3,0.1-3.7-1.3
				c-0.7-1.4-0.1-3,1.3-3.7c14.2-7,32.7-5.5,46,3.7c1.3,0.9,1.6,2.6,0.7,3.9C-89.7-286.2-90.5-285.8-91.4-285.8z"/>
		</g>
		<g>
			<path class="st2" d="M-157.8-230.3c-1,0-2-0.6-2.5-1.6c-6.2-13.2-8.3-27.7-6.3-41.9c0.5-3.2,1.2-7,3.3-10.4
				c2.2-3.6,5.7-5.5,9-4.8c2,0.4,3.7,1.7,5.3,3.9c2.9,4,4.3,8.6,5.3,12.6c0.3,1,0.4,2.3,0.6,3.6c0.5,3.5,1.3,8.9,3.7,9.2
				c0.5,0.1,1.1,0.1,1.4-0.2c0.2-0.1,0.9-1,0.8-4.4c-0.1-1.2-0.3-2.4-0.5-3.8c-0.7-3.9-1.5-8.8,1.6-12.8c5.3-6.8,16-6.9,20.3-6.6
				c5.2,0.3,10.6,1.7,17,4.3c1.4,0.6,2.1,2.2,1.5,3.6c-0.6,1.4-2.2,2.1-3.6,1.5c-5.9-2.4-10.7-3.6-15.3-3.9
				c-2.7-0.2-11.8-0.4-15.5,4.5c-1.6,2.1-1.1,5.2-0.5,8.5c0.2,1.5,0.5,3,0.6,4.4c0.2,4.2-0.6,7-2.5,8.8c-1,1-2.9,2-5.9,1.6
				c-6.5-0.9-7.7-8.7-8.4-13.9c-0.2-1.2-0.3-2.3-0.5-3.1c-0.9-3.5-2.1-7.5-4.4-10.7c-0.8-1-1.4-1.6-2-1.8c-0.9-0.2-2.2,0.8-3.1,2.2
				c-1.5,2.5-2.1,5.6-2.5,8.2c-1.9,13.1,0.1,26.5,5.8,38.8c0.6,1.4,0,3-1.3,3.7C-157-230.4-157.4-230.3-157.8-230.3z"/>
		</g>
	</g>
	<g>
		<g>
			<path class="st2" d="M-194.5-298.6c-0.9,0-1.8-0.4-2.3-1.2c-4.7-6.9-12.7-11.8-21.8-13.5c-9.1-1.6-18.6-0.4-26.7,1.1
				c-1.5,0.3-3-0.7-3.2-2.2c-0.3-1.5,0.7-3,2.2-3.2c8.6-1.6,18.7-2.9,28.7-1.1c10.6,1.9,19.9,7.7,25.4,15.8c0.9,1.3,0.5,3-0.7,3.9
				C-193.4-298.8-193.9-298.6-194.5-298.6z"/>
		</g>
		<g>
			<path class="st2" d="M-254.8-297.5c-0.9,0-1.8-0.4-2.3-1.3c-0.8-1.3-0.5-3,0.8-3.8c13.2-8.6,28.9-9.6,46.6-2.9
				c1.4,0.5,2.2,2.2,1.6,3.6c-0.5,1.4-2.2,2.2-3.6,1.6c-16.2-6.1-29.8-5.4-41.6,2.3C-253.8-297.6-254.3-297.5-254.8-297.5z"/>
		</g>
		<g>
			<path class="st2" d="M-256.8-285.8c-0.9,0-1.7-0.4-2.3-1.2c-0.9-1.3-0.6-3,0.7-3.9c13.3-9.3,31.7-10.8,46-3.7
				c1.4,0.7,1.9,2.3,1.3,3.7c-0.7,1.4-2.3,1.9-3.7,1.3c-12.5-6.2-28.7-4.8-40.3,3.3C-255.7-286-256.3-285.8-256.8-285.8z"/>
		</g>
		<g>
			<path class="st2" d="M-190.4-230.3c-0.4,0-0.8-0.1-1.2-0.3c-1.4-0.6-2-2.3-1.3-3.7c5.7-12.2,7.7-25.6,5.8-38.8
				c-0.4-2.7-1-5.8-2.5-8.2c-0.9-1.5-2.2-2.4-3.1-2.2c-0.6,0.1-1.2,0.7-2,1.8c-2.3,3.2-3.5,7.2-4.4,10.7c-0.2,0.7-0.4,1.9-0.5,3.1
				c-0.8,5.2-1.9,13-8.4,13.9c-3,0.4-4.8-0.6-5.9-1.6c-1.9-1.8-2.8-4.6-2.5-8.8c0.1-1.5,0.3-3,0.6-4.4c0.6-3.3,1.1-6.4-0.5-8.5
				c-3.8-4.9-12.9-4.7-15.5-4.5c-4.6,0.3-9.4,1.5-15.3,3.9c-1.4,0.6-3-0.1-3.6-1.5c-0.6-1.4,0.1-3,1.5-3.6c6.4-2.6,11.9-4,17-4.3
				c4.3-0.3,15-0.2,20.3,6.6c3.1,4,2.3,8.9,1.6,12.8c-0.2,1.4-0.4,2.6-0.5,3.8c-0.2,3.4,0.6,4.3,0.8,4.4c0.3,0.3,0.9,0.2,1.4,0.2
				c2.4-0.3,3.2-5.7,3.7-9.2c0.2-1.3,0.4-2.6,0.6-3.6c1-4,2.4-8.6,5.3-12.6c1.6-2.2,3.3-3.5,5.3-3.9c3.2-0.7,6.8,1.2,9,4.8
				c2.1,3.3,2.8,7.1,3.3,10.4c2,14.2-0.1,28.7-6.3,41.9C-188.4-230.9-189.4-230.3-190.4-230.3z"/>
		</g>
	</g>
</g>
<g>
	<g>
		<g>
			<path class="st3" d="M377.9-254.3c-0.2,0-0.3,0-0.5,0c-1.5-0.3-2.5-1.7-2.2-3.2c1.5-8.1,2.8-17.6,1.1-26.7
				c-1.7-9.2-6.6-17.1-13.5-21.8c-1.3-0.9-1.6-2.6-0.7-3.9c0.9-1.3,2.6-1.6,3.9-0.7c8.1,5.5,13.9,14.8,15.8,25.4
				c1.8,10,0.4,20.1-1.1,28.7C380.3-255.2,379.2-254.3,377.9-254.3z"/>
		</g>
		<g>
			<path class="st3" d="M363.2-245.3c-0.5,0-1-0.1-1.5-0.5c-1.3-0.8-1.6-2.6-0.8-3.8c7.7-11.8,8.5-25.4,2.3-41.6
				c-0.5-1.4,0.2-3,1.6-3.6c1.4-0.5,3,0.2,3.6,1.6c6.7,17.7,5.8,33.4-2.9,46.6C364.9-245.7,364.1-245.3,363.2-245.3z"/>
		</g>
		<g>
			<path class="st3" d="M351.5-243.2c-0.6,0-1.1-0.2-1.6-0.5c-1.3-0.9-1.6-2.6-0.7-3.9c8.1-11.6,9.5-27.8,3.3-40.3
				c-0.7-1.4-0.1-3,1.3-3.7c1.4-0.7,3-0.1,3.7,1.3c7,14.2,5.5,32.7-3.7,46C353.2-243.6,352.4-243.2,351.5-243.2z"/>
		</g>
		<g>
			<path class="st3" d="M343.5-251.8c-0.3,0-0.7-0.1-1-0.2c-1.4-0.6-2.1-2.2-1.5-3.6c2.4-5.9,3.6-10.7,3.9-15.3
				c0.2-2.7,0.4-11.8-4.5-15.5c-2.1-1.6-5.2-1.1-8.5-0.5c-1.5,0.2-3,0.5-4.4,0.6c-4.2,0.2-7-0.6-8.8-2.5c-1-1-2-2.9-1.6-5.9
				c0.9-6.5,8.7-7.7,13.9-8.4c1.2-0.2,2.3-0.3,3.1-0.5c3.5-0.9,7.5-2.1,10.7-4.4c1-0.8,1.6-1.4,1.8-2c0.2-0.9-0.8-2.2-2.2-3.1
				c-2.5-1.5-5.6-2.1-8.2-2.5c-13.1-1.9-26.5,0.1-38.8,5.8c-1.4,0.7-3,0-3.7-1.3c-0.6-1.4,0-3,1.3-3.7c13.2-6.2,27.7-8.4,41.9-6.3
				c3.2,0.5,7,1.2,10.4,3.3c3.6,2.2,5.5,5.7,4.8,9c-0.4,2-1.7,3.7-3.9,5.3c-4,2.9-8.6,4.3-12.6,5.3c-1,0.3-2.3,0.4-3.6,0.6
				c-3.5,0.5-8.9,1.3-9.2,3.7c-0.1,0.5-0.1,1.1,0.2,1.4c0.1,0.2,1,0.9,4.4,0.7c1.2-0.1,2.4-0.3,3.8-0.5c3.9-0.7,8.8-1.5,12.8,1.6
				c6.8,5.3,6.9,16,6.6,20.3c-0.3,5.2-1.7,10.6-4.3,17C345.6-252.5,344.6-251.8,343.5-251.8z"/>
		</g>
	</g>
	<g>
		<g>
			<path class="st3" d="M290.8-241.5c-0.5,0-1.1-0.2-1.6-0.5c-8.1-5.5-13.9-14.8-15.8-25.4c-1.8-10-0.4-20.1,1.1-28.7
				c0.3-1.5,1.7-2.5,3.2-2.2c1.5,0.3,2.5,1.7,2.2,3.2c-1.5,8.1-2.8,17.6-1.1,26.7c1.7,9.2,6.6,17.1,13.5,21.8
				c1.3,0.9,1.6,2.6,0.7,3.9C292.6-241.9,291.7-241.5,290.8-241.5z"/>
		</g>
		<g>
			<path class="st3" d="M289.4-257.8c-1.1,0-2.2-0.7-2.6-1.8c-6.7-17.7-5.8-33.4,2.9-46.6c0.8-1.3,2.6-1.6,3.8-0.8
				c1.3,0.8,1.6,2.6,0.8,3.8c-7.7,11.8-8.5,25.4-2.3,41.6c0.5,1.4-0.2,3-1.6,3.6C290.1-257.9,289.8-257.8,289.4-257.8z"/>
		</g>
		<g>
			<path class="st3" d="M300.2-260.8c-1,0-2-0.6-2.5-1.5c-7-14.2-5.5-32.7,3.7-46c0.9-1.3,2.6-1.6,3.9-0.7c1.3,0.9,1.6,2.6,0.7,3.9
				c-8.1,11.6-9.5,27.8-3.3,40.3c0.7,1.4,0.1,3-1.3,3.7C301-260.9,300.6-260.8,300.2-260.8z"/>
		</g>
		<g>
			<path class="st3" d="M328.8-230.7c-3.5,0-6.9-0.2-10.4-0.7c-3.2-0.5-7-1.2-10.4-3.3c-3.6-2.2-5.5-5.7-4.8-9
				c0.4-2,1.7-3.7,3.9-5.3c4-2.9,8.6-4.3,12.6-5.3c1-0.3,2.3-0.4,3.6-0.6c3.5-0.5,8.9-1.3,9.2-3.7c0.1-0.5,0.1-1.1-0.2-1.4
				c-0.1-0.2-1-0.9-4.4-0.7c-1.2,0.1-2.4,0.3-3.8,0.5c-3.9,0.7-8.8,1.5-12.8-1.6c-6.8-5.3-6.9-16-6.6-20.3c0.3-5.2,1.7-10.6,4.3-17
				c0.6-1.4,2.2-2.1,3.6-1.5c1.4,0.6,2.1,2.2,1.5,3.6c-2.4,5.9-3.6,10.7-3.9,15.3c-0.2,2.7-0.4,11.8,4.5,15.5
				c2.1,1.6,5.2,1.1,8.5,0.5c1.5-0.2,3-0.5,4.4-0.6c4.2-0.2,7,0.6,8.8,2.5c1,1,2,2.9,1.6,5.9c-0.9,6.5-8.7,7.7-13.9,8.4
				c-1.2,0.2-2.3,0.3-3.1,0.5c-3.5,0.9-7.5,2.1-10.7,4.4c-1,0.8-1.6,1.4-1.8,2c-0.2,0.9,0.8,2.2,2.2,3.1c2.5,1.5,5.6,2.1,8.2,2.5
				c13.1,1.9,26.5-0.1,38.8-5.8c1.4-0.6,3,0,3.7,1.3c0.6,1.4,0,3-1.3,3.7C350.3-233.1,339.6-230.7,328.8-230.7z"/>
		</g>
	</g>
</g>
<g>
	<g>
		<path class="st4" d="M-466.3-140v5.9c-1.7,0.7-3.7,1.1-5.7,1.1c-3.2,0-5.1-1.2-5.1-3.7c0-2.4,2.1-3.6,4.9-3.6
			c0.9,0,1.7,0.1,2.4,0.3v-0.5c0-1-0.7-1.7-2.3-1.7c-1.3,0-2.5,0.5-3.1,1c-0.8-0.4-1.4-1.2-1.5-2.3c0.6-0.6,2.4-1.6,4.9-1.6
			C-468.5-145-466.3-143.6-466.3-140z M-471.5-135.5c0.6,0,1.1-0.1,1.7-0.3v-2.1c-0.6-0.2-1.2-0.3-2-0.3c-1.1,0-1.8,0.4-1.8,1.2
			S-472.9-135.5-471.5-135.5z"/>
		<path class="st4" d="M-452.8-139.1c0,3.8-2.8,6.1-6.2,6.1c-0.8,0-1.4-0.1-1.9-0.2v4.2c-0.6,0.1-1.2,0.1-1.8,0.1
			c-0.6,0-1.2,0-1.8-0.1v-14.3c1.2-1,3.1-1.7,5.4-1.7C-455.5-145-452.8-143.1-452.8-139.1z M-456.4-139c0-1.8-1.2-2.9-3-2.9
			c-0.5,0-1.1,0.1-1.6,0.3v5.2c0.5,0.2,1,0.3,1.6,0.3C-457.6-136-456.4-137.1-456.4-139z"/>
		<path class="st4" d="M-451.9-139c0-3.7,2.6-6.1,6.2-6.1s6.2,2.4,6.2,6.1c0,3.6-2.6,6-6.2,6S-451.9-135.3-451.9-139z M-443.1-139
			c0-1.9-1-3.1-2.6-3.1c-1.7,0-2.7,1.2-2.7,3.1c0,1.8,1,3.1,2.7,3.1C-444-135.9-443.1-137.2-443.1-139z"/>
		<path class="st4" d="M-427.1-144.5c-1,7.2-3.7,12.6-8.9,16.2c-1.1-0.4-1.8-1.4-2.1-2.5c1.3-1,2.4-2,3.1-3
			c-2.3-3.6-3.4-6.7-4.3-10.8c0.5-0.1,1.6-0.3,2.6-0.3c0.4,0,0.9,0,1.3,0.1c0.4,2.6,1.2,5.4,2.2,7.7c0.1,0.3,0.2,0.5,0.2,0.6
			c0-0.2,0.1-0.5,0.2-0.6c1-2.3,1.5-5.1,1.9-7.7c0.5,0,1-0.1,1.4-0.1C-428.6-144.7-427.8-144.6-427.1-144.5z"/>
		<path class="st4" d="M-426.8-139c0-3.7,2.6-6.1,6.2-6.1s6.2,2.4,6.2,6.1c0,3.6-2.6,6-6.2,6S-426.8-135.3-426.8-139z M-417.9-139
			c0-1.9-1-3.1-2.6-3.1c-1.7,0-2.7,1.2-2.7,3.1c0,1.8,1,3.1,2.7,3.1C-418.9-135.9-417.9-137.2-417.9-139z"/>
	</g>
</g>
<g>
	<g>
		<path class="st4" d="M75.5-140.6v7.2c-0.6,0.1-1.2,0.1-1.8,0.1c-0.6,0-1.2,0-1.8-0.1v-6.3c0-1.4-0.6-2.2-2.1-2.2
			c-0.7,0-1.4,0.2-1.9,0.5v8c-0.6,0.1-1.2,0.1-1.8,0.1c-0.6,0-1.2,0-1.8-0.1V-149c0.6-0.1,1.2-0.1,1.8-0.1c0.6,0,1.2,0,1.8,0.1v4.4
			c0.7-0.3,1.5-0.5,2.4-0.5C73.7-145.1,75.5-143.1,75.5-140.6z"/>
		<path class="st4" d="M88.4-144.6v10.3c-0.9,0.5-2.9,1.3-5.6,1.3c-3.9,0-5.4-1.8-5.4-4.6v-7c0.6-0.1,1.2-0.1,1.8-0.1
			c0.6,0,1.2,0,1.8,0.1v6.2c0,1.6,0.5,2.3,2.2,2.3c0.7,0,1.3-0.1,1.8-0.4v-8.2c0.6-0.1,1.2-0.1,1.8-0.1
			C87.2-144.7,87.8-144.7,88.4-144.6z"/>
		<path class="st4" d="M101-138.1h-7.5c0.2,1.6,1.1,2.3,2.8,2.3c1.4,0,2.5-0.6,3.3-1.1c0.7,0.6,1.2,1.5,1.3,2.4
			c-1,0.8-2.6,1.6-5,1.6c-3.5,0-6-2.2-6-6c0-3.6,2.5-6.1,5.9-6.1c3.2,0,5.4,2,5.4,5.2C101.1-139.2,101.1-138.7,101-138.1z
			 M97.7-140.1c0-1.1-0.5-2.1-2-2.2c-1.4,0-2.1,0.9-2.3,2.2H97.7z"/>
		<path class="st4" d="M102.7-133.4V-149c0.5-0.1,1.1-0.1,1.7-0.1s1.2,0,1.8,0.1v15.6c-0.5,0.1-1.2,0.1-1.8,0.1
			C103.9-133.2,103.3-133.3,102.7-133.4z"/>
		<path class="st4" d="M108.3-133.4V-149c0.5-0.1,1.1-0.1,1.7-0.1s1.2,0,1.8,0.1v15.6c-0.5,0.1-1.2,0.1-1.8,0.1
			C109.6-133.2,109-133.3,108.3-133.4z"/>
		<path class="st4" d="M124.2-140v5.9c-1.7,0.7-3.7,1.1-5.7,1.1c-3.2,0-5.1-1.2-5.1-3.7c0-2.4,2.1-3.6,4.9-3.6
			c0.9,0,1.7,0.1,2.4,0.3v-0.5c0-1-0.7-1.7-2.3-1.7c-1.3,0-2.5,0.5-3.1,1c-0.8-0.4-1.4-1.2-1.5-2.3c0.6-0.6,2.4-1.6,4.9-1.6
			C121.9-145,124.2-143.6,124.2-140z M118.9-135.5c0.6,0,1.1-0.1,1.7-0.3v-2.1c-0.6-0.2-1.2-0.3-2-0.3c-1.1,0-1.8,0.4-1.8,1.2
			S117.6-135.5,118.9-135.5z"/>
	</g>
</g>
<g>
	<g>
		<path class="st4" d="M322.5-140.5v7.1c-0.6,0.1-1.2,0.1-1.8,0.1s-1.2,0-1.8-0.1v-6.4c0-1.4-0.7-2.1-2-2.1c-0.9,0-1.5,0.3-1.9,0.6
			c0,0.2,0,0.5,0,0.7v7.1c-0.6,0.1-1.2,0.1-1.8,0.1c-0.6,0-1.2,0-1.8-0.1v-6.4c0-1.4-0.7-2.1-2-2.1c-0.8,0-1.4,0.2-1.8,0.5v8
			c-0.6,0.1-1.2,0.1-1.8,0.1c-0.6,0-1.2,0-1.8-0.1v-9.8c0.8-0.7,2.9-1.9,5.7-1.9c1.6,0,2.8,0.4,3.7,1.1c0.9-0.6,2.2-1.1,3.7-1.1
			C320.8-145.1,322.5-143.2,322.5-140.5z"/>
		<path class="st4" d="M335.4-144.6v10.3c-0.9,0.5-2.9,1.3-5.6,1.3c-3.9,0-5.4-1.8-5.4-4.6v-7c0.6-0.1,1.2-0.1,1.8-0.1
			c0.6,0,1.2,0,1.8,0.1v6.2c0,1.6,0.5,2.3,2.2,2.3c0.7,0,1.3-0.1,1.8-0.4v-8.2c0.6-0.1,1.2-0.1,1.8-0.1
			C334.2-144.7,334.8-144.7,335.4-144.6z"/>
		<path class="st4" d="M348.6-140.2v6.9c-0.6,0.1-1.2,0.1-1.8,0.1c-0.6,0-1.2,0-1.8-0.1v-6.3c0-1.6-0.9-2.2-2.1-2.2
			c-0.8,0-1.5,0.2-1.9,0.5v8c-0.6,0.1-1.2,0.1-1.8,0.1c-0.6,0-1.2,0-1.8-0.1v-9.8c0.9-0.8,2.9-1.9,5.7-1.9
			C346.9-145.1,348.6-143,348.6-140.2z"/>
		<path class="st4" d="M361.6-149v15c-1.2,0.6-3.2,1.1-5.1,1.1c-4.1,0-6.6-2.1-6.6-6c0-3.7,2.8-6.1,6.3-6.1c0.7,0,1.3,0.1,1.8,0.2
			v-4.3c0.6-0.1,1.2-0.1,1.8-0.1C360.4-149.2,361-149.1,361.6-149z M358.1-136.2v-5.4c-0.5-0.3-1.1-0.3-1.6-0.3c-1.7,0-3,1.1-3,3
			c0,1.8,1.2,3,2.9,3C357-136,357.5-136.1,358.1-136.2z"/>
		<path class="st4" d="M363.1-139c0-3.7,2.6-6.1,6.2-6.1c3.6,0,6.2,2.4,6.2,6.1c0,3.6-2.6,6-6.2,6C365.7-133,363.1-135.3,363.1-139z
			 M371.9-139c0-1.9-1-3.1-2.6-3.1s-2.7,1.2-2.7,3.1c0,1.8,1,3.1,2.7,3.1S371.9-137.2,371.9-139z"/>
	</g>
</g>
<g>
	<g>
		<path class="st4" d="M-232.1-139c0-3.7,2.6-6.1,6.1-6.1c1.7,0,3.3,0.7,3.9,1.3c-0.2,1-1,2-1.8,2.5c-0.5-0.4-1.1-0.8-2-0.8
			c-1.7,0-2.7,1.3-2.7,3.1c0,1.7,0.8,3.1,2.7,3.1c1.1,0,1.7-0.4,2.2-0.8c0.9,0.4,1.5,1.3,1.8,2.3c-0.8,0.7-2.2,1.5-4,1.5
			C-229.7-133-232.1-135.2-232.1-139z"/>
		<path class="st4" d="M-213.1-144.7c0,1.2-0.4,2.3-1,3.1c-0.4-0.1-0.9-0.2-1.4-0.2c-0.7,0-1.4,0.1-1.7,0.3v8.1
			c-0.6,0.1-1.2,0.1-1.8,0.1c-0.6,0-1.2,0-1.8-0.1v-10c0.8-0.7,2.6-1.7,5-1.7C-214.6-145.1-213.7-144.9-213.1-144.7z"/>
		<path class="st4" d="M-202-138.1h-7.5c0.2,1.6,1.1,2.3,2.8,2.3c1.4,0,2.5-0.6,3.3-1.1c0.7,0.6,1.2,1.5,1.3,2.4
			c-1,0.8-2.6,1.6-5,1.6c-3.5,0-6-2.2-6-6c0-3.6,2.5-6.1,5.9-6.1c3.2,0,5.4,2,5.4,5.2C-201.9-139.2-201.9-138.7-202-138.1z
			 M-205.2-140.1c0-1.1-0.5-2.1-2-2.2c-1.4,0-2.1,0.9-2.3,2.2H-205.2z"/>
		<path class="st4" d="M-200.9-139c0-3.7,2.6-6.1,6.1-6.1c1.7,0,3.3,0.7,3.9,1.3c-0.2,1-1,2-1.8,2.5c-0.5-0.4-1.1-0.8-2-0.8
			c-1.7,0-2.7,1.3-2.7,3.1c0,1.7,0.8,3.1,2.7,3.1c1.1,0,1.7-0.4,2.2-0.8c0.9,0.4,1.5,1.3,1.8,2.3c-0.8,0.7-2.2,1.5-4,1.5
			C-198.5-133-200.9-135.2-200.9-139z"/>
		<path class="st4" d="M-189.8-148.3c0-1.2,1-2.1,2.1-2.1c1.2,0,2.1,1,2.1,2.1c0,1.2-1,2.1-2.1,2.1
			C-188.9-146.2-189.8-147.1-189.8-148.3z M-189.5-133.4v-11.3c0.6-0.1,1.2-0.1,1.8-0.1c0.6,0,1.2,0,1.8,0.1v11.3
			c-0.6,0.1-1.2,0.1-1.8,0.1C-188.3-133.2-188.9-133.3-189.5-133.4z"/>
		<path class="st4" d="M-165.5-140.5v7.1c-0.6,0.1-1.2,0.1-1.8,0.1s-1.2,0-1.8-0.1v-6.4c0-1.4-0.7-2.1-2-2.1c-0.9,0-1.5,0.3-1.9,0.6
			c0,0.2,0,0.5,0,0.7v7.1c-0.6,0.1-1.2,0.1-1.8,0.1s-1.2,0-1.8-0.1v-6.4c0-1.4-0.7-2.1-2-2.1c-0.8,0-1.4,0.2-1.8,0.5v8
			c-0.6,0.1-1.2,0.1-1.8,0.1c-0.6,0-1.2,0-1.8-0.1v-9.8c0.8-0.7,2.9-1.9,5.7-1.9c1.6,0,2.8,0.4,3.7,1.1c0.9-0.6,2.2-1.1,3.7-1.1
			C-167.2-145.1-165.5-143.2-165.5-140.5z"/>
		<path class="st4" d="M-163.9-148.3c0-1.2,1-2.1,2.1-2.1c1.2,0,2.1,1,2.1,2.1c0,1.2-1,2.1-2.1,2.1S-163.9-147.1-163.9-148.3z
			 M-163.5-133.4v-11.3c0.6-0.1,1.2-0.1,1.8-0.1c0.6,0,1.2,0,1.8,0.1v11.3c-0.6,0.1-1.2,0.1-1.8,0.1
			C-162.3-133.2-162.9-133.3-163.5-133.4z"/>
		<path class="st4" d="M-147.3-138.1h-7.5c0.2,1.6,1.1,2.3,2.8,2.3c1.4,0,2.5-0.6,3.3-1.1c0.7,0.6,1.2,1.5,1.3,2.4
			c-1,0.8-2.6,1.6-5,1.6c-3.5,0-6-2.2-6-6c0-3.6,2.5-6.1,5.9-6.1c3.2,0,5.4,2,5.4,5.2C-147.2-139.2-147.2-138.7-147.3-138.1z
			 M-150.5-140.1c0-1.1-0.5-2.1-2-2.2c-1.4,0-2.1,0.9-2.3,2.2H-150.5z"/>
		<path class="st4" d="M-134.5-140.2v6.9c-0.6,0.1-1.2,0.1-1.8,0.1c-0.6,0-1.2,0-1.8-0.1v-6.3c0-1.6-0.9-2.2-2.1-2.2
			c-0.8,0-1.5,0.2-1.9,0.5v8c-0.6,0.1-1.2,0.1-1.8,0.1c-0.6,0-1.2,0-1.8-0.1v-9.8c0.9-0.8,2.9-1.9,5.7-1.9
			C-136.2-145.1-134.5-143-134.5-140.2z"/>
		<path class="st4" d="M-123.3-134.3c-0.8,0.6-2,1.3-3.7,1.3c-2.6,0-4.6-1.1-4.6-3.9v-4.7h-1.9c-0.1-0.5-0.1-1-0.1-1.5
			c0-0.5,0-1,0.1-1.4h1.9v-3c0.6-0.1,1.2-0.1,1.8-0.1c0.6,0,1.2,0,1.7,0.1v3h4c0.1,0.5,0.2,0.9,0.2,1.4c0,0.5-0.1,1-0.2,1.5h-4v3.8
			c0,1.3,0.6,1.7,1.6,1.7c0.7,0,1.2-0.3,1.6-0.7C-124.1-136.3-123.5-135.2-123.3-134.3z"/>
		<path class="st4" d="M-123-139c0-3.7,2.6-6.1,6.2-6.1s6.2,2.4,6.2,6.1c0,3.6-2.6,6-6.2,6S-123-135.3-123-139z M-114.2-139
			c0-1.9-1-3.1-2.6-3.1c-1.7,0-2.7,1.2-2.7,3.1c0,1.8,1,3.1,2.7,3.1C-115.1-135.9-114.2-137.2-114.2-139z"/>
	</g>
</g>
<g>
	<g>
		<path class="st5" d="M-441,93.4c-3.5,0-6.9-0.5-10.2-1.6c-1.4-0.4-2.1-1.9-1.7-3.3s1.9-2.1,3.3-1.7c7.5,2.4,16.2,1.5,23.9-2.5
			c7.7-4,14-10.4,19.2-16.2c1-1.1,2.6-1.2,3.7-0.2c1.1,1,1.2,2.6,0.2,3.7c-5.5,6.1-12.2,12.9-20.6,17.3
			C-428.9,91.9-435,93.4-441,93.4z"/>
	</g>
	<g>
		<path class="st5" d="M-437.5,83.7c-1.1,0-2.2-0.7-2.5-1.8c-0.4-1.4,0.4-2.8,1.7-3.3c15.5-4.7,25.2-13.1,29.5-25.6
			c0.5-1.4,2-2.1,3.3-1.6c1.4,0.5,2.1,2,1.6,3.3c-4.8,14-15.9,23.7-32.9,28.9C-437,83.7-437.2,83.7-437.5,83.7z"/>
	</g>
	<g>
		<path class="st5" d="M-441.5,74c-1.2,0-2.3-0.9-2.6-2.1c-0.3-1.4,0.6-2.8,2-3.1c12.8-2.6,24-12.9,28-25.6c0.4-1.4,1.9-2.1,3.3-1.7
			c1.4,0.4,2.1,1.9,1.7,3.3c-4.5,14.5-17.3,26.2-31.9,29.1C-441.1,74-441.3,74-441.5,74z"/>
	</g>
	<g>
		<path class="st5" d="M-464,82.7c-5.4,0-9.9-4.5-12.9-7.5c-1-1-1-2.7,0-3.7c1-1,2.7-1,3.7,0l0,0c4,4,7.4,7,11,5.6
			c1.8-4.6-0.5-9.1-3.2-14.3c-1.5-3-3.1-6-3.9-9.2c0-0.2-0.1-0.4-0.1-0.6v-3.3c0-0.4,0.1-0.8,0.3-1.2c0.9-1.8,2-2.9,3.8-3.8
			c0.2-0.1,0.3-0.2,0.5-0.2c3.8-1,7.4,1.5,9.3,4.3c0,0,0,0.1,0.1,0.1c0.6,1.1,1.2,2.1,1.7,3.2c1.1,2.1,2.1,4.1,3.4,5.1
			c4.7,2.6,14.1,4,25.6-15.6c0.7-1.2,2.3-1.7,3.6-0.9c1.2,0.7,1.7,2.3,0.9,3.6c-10.1,17.3-22.1,23.6-32.8,17.4
			c-0.1-0.1-0.2-0.1-0.3-0.2c-2.3-1.7-3.7-4.4-5-7c-0.5-1-1-1.9-1.5-2.8c-0.8-1.2-2.3-2.3-3.4-2.2c-0.4,0.2-0.6,0.4-0.9,0.8v2.3
			c0.6,2.5,1.9,5,3.3,7.7c3,5.9,6.5,12.6,2.9,19.8c-0.2,0.5-0.6,0.9-1.1,1.1C-460.7,82.3-462.4,82.7-464,82.7z"/>
	</g>
</g>
<g>
	<g>
		<path class="st0" d="M359.4,64.8c-0.8,0-1.5-0.3-2-1c-0.9-1.1-0.7-2.8,0.4-3.7c5.9-4.7,9.1-11,11.1-21.6c2.7-15-5.2-33.9-11.5-42
			c-0.9-1.1-0.7-2.8,0.5-3.7c1.1-0.9,2.8-0.7,3.7,0.5c7.1,9.1,15.6,29.4,12.5,46.1c-2.2,11.8-6,19.2-13,24.7
			C360.5,64.6,359.9,64.8,359.4,64.8z"/>
	</g>
	<g>
		<path class="st0" d="M359.5,49.4c-0.2,0-0.5,0-0.7-0.1c-1.4-0.4-2.2-1.9-1.8-3.2c4.6-15.6,2.9-28.2-5.1-38.7
			c-0.9-1.1-0.7-2.8,0.5-3.7c1.1-0.9,2.8-0.7,3.7,0.5c9,11.7,11,26.3,6,43.3C361.7,48.7,360.7,49.4,359.5,49.4z"/>
	</g>
	<g>
		<path class="st0" d="M349.3,47.4c-0.3,0-0.7-0.1-1-0.2c-1.3-0.5-2-2.1-1.4-3.4c4.9-12.1,2.5-27.1-5.9-37.5
			c-0.9-1.1-0.7-2.8,0.4-3.7c1.1-0.9,2.8-0.7,3.7,0.4c9.6,11.7,12.3,28.9,6.7,42.7C351.3,46.8,350.3,47.4,349.3,47.4z"/>
	</g>
	<g>
		<path class="st0" d="M332.4,76.5c-1.2,0-2.3-0.8-2.6-2.1c-0.3-1.4,0.6-2.8,2-3.1l0,0c5.6-1.1,9.9-2.3,10.7-6.1
			c-2.8-4-7.9-4.6-13.7-5.2c-3.3-0.4-6.8-0.7-9.8-1.9c-0.2-0.1-0.4-0.2-0.5-0.3l-2.7-1.8c-0.3-0.2-0.6-0.5-0.8-0.9
			c-1-1.8-1.3-3.2-1.1-5.2c0-0.2,0.1-0.4,0.1-0.6c1.3-3.7,5.3-5.4,8.8-5.4c0,0,0.1,0,0.1,0c1.2,0.1,2.4,0.2,3.6,0.3
			c2.3,0.3,4.5,0.5,6.1,0c4.8-2.5,11.1-9.6,1.1-30c-0.6-1.3-0.1-2.9,1.2-3.5c1.3-0.6,2.9-0.1,3.5,1.2c8.8,18,7.5,31.5-3.6,37
			c-0.1,0-0.2,0.1-0.3,0.1c-2.7,1-5.7,0.6-8.6,0.3c-1.1-0.1-2.2-0.2-3.2-0.3c-1.5,0-3.2,0.6-3.7,1.7c0,0.5,0,0.8,0.2,1.2l1.9,1.3
			c2.4,0.8,5.3,1.1,8.3,1.5c6.6,0.7,14.1,1.5,18.1,8.5c0.3,0.5,0.4,1,0.3,1.5c-0.7,8.6-9.6,10.5-15,11.6
			C332.8,76.5,332.6,76.5,332.4,76.5z"/>
	</g>
</g>
<g>
	<path class="st4" d="M-484.2,173.4c-0.1,1-0.7,2-1.4,2.5c-0.4-0.2-0.8-0.4-1.5-0.4c-0.9,0-1.5,0.4-1.5,1.6v0.4h2.5
		c0.1,0.5,0.2,1,0.2,1.5c0,0.5-0.1,1-0.2,1.5h-2.5v8.2c-0.6,0.1-1.1,0.1-1.7,0.1c-0.6,0-1.2,0-1.8-0.1v-8.2h-1.5
		c-0.1-0.4-0.1-0.9-0.1-1.4s0-1,0.1-1.5h1.5c0.1-3.2,2.1-4.8,4.8-4.8C-485.8,172.6-484.8,173-484.2,173.4z"/>
	<path class="st4" d="M-473.9,177.3v10.3c-0.9,0.5-2.9,1.3-5.6,1.3c-3.9,0-5.4-1.8-5.4-4.6v-7c0.6-0.1,1.2-0.1,1.8-0.1
		c0.6,0,1.2,0,1.8,0.1v6.2c0,1.6,0.5,2.3,2.2,2.3c0.7,0,1.3-0.1,1.8-0.4v-8.2c0.6-0.1,1.2-0.1,1.8-0.1
		C-475.1,177.1-474.5,177.2-473.9,177.3z"/>
	<path class="st4" d="M-462.5,187.6c-0.8,0.6-2,1.3-3.7,1.3c-2.6,0-4.6-1.1-4.6-3.9v-4.7h-1.9c-0.1-0.5-0.1-1-0.1-1.5
		c0-0.5,0-1,0.1-1.4h1.9v-3c0.6-0.1,1.2-0.1,1.8-0.1c0.6,0,1.2,0,1.7,0.1v3h4c0.1,0.5,0.2,0.9,0.2,1.4c0,0.5-0.1,1-0.2,1.5h-4v3.8
		c0,1.3,0.6,1.7,1.6,1.7c0.7,0,1.2-0.3,1.6-0.7C-463.3,185.6-462.6,186.6-462.5,187.6z"/>
	<path class="st4" d="M-450.7,177.3v10.3c-0.9,0.5-2.9,1.3-5.6,1.3c-3.9,0-5.4-1.8-5.4-4.6v-7c0.6-0.1,1.2-0.1,1.8-0.1
		c0.6,0,1.2,0,1.8,0.1v6.2c0,1.6,0.5,2.3,2.2,2.3c0.7,0,1.3-0.1,1.8-0.4v-8.2c0.6-0.1,1.2-0.1,1.8-0.1
		C-451.9,177.1-451.3,177.2-450.7,177.3z"/>
	<path class="st4" d="M-441.1,177.1c0,1.2-0.4,2.3-1,3.1c-0.4-0.1-0.9-0.2-1.4-0.2c-0.7,0-1.4,0.1-1.7,0.3v8.1
		c-0.6,0.1-1.2,0.1-1.8,0.1c-0.6,0-1.2,0-1.8-0.1v-10c0.8-0.7,2.6-1.7,5-1.7C-442.6,176.8-441.7,176.9-441.1,177.1z"/>
	<path class="st4" d="M-441.2,182.8c0-3.7,2.6-6.1,6.2-6.1s6.2,2.4,6.2,6.1c0,3.6-2.6,6-6.2,6S-441.2,186.6-441.2,182.8z
		 M-432.3,182.8c0-1.9-1-3.1-2.6-3.1c-1.7,0-2.7,1.2-2.7,3.1c0,1.8,1,3.1,2.7,3.1C-433.3,185.9-432.3,184.7-432.3,182.8z"/>
	<path class="st4" d="M-482.4,212.4h-7.5c0.2,1.6,1.1,2.3,2.8,2.3c1.4,0,2.5-0.6,3.3-1.1c0.7,0.6,1.2,1.5,1.3,2.4
		c-1,0.8-2.6,1.6-5,1.6c-3.5,0-6-2.2-6-6c0-3.6,2.5-6.1,5.9-6.1c3.2,0,5.4,2,5.4,5.2C-482.3,211.3-482.3,211.8-482.4,212.4z
		 M-485.6,210.4c0-1.1-0.5-2.1-2-2.2c-1.4,0-2.1,0.9-2.3,2.2H-485.6z"/>
	<path class="st4" d="M-481.4,216.1c0.2-1.1,0.7-2,1.4-2.4c0.8,0.5,2,1.1,3.7,1.1c1.1,0,1.5-0.4,1.5-0.9c0-0.6-0.6-0.9-2.5-1.2
		c-1.9-0.4-3.8-1.1-3.8-3.6c0-2.3,2.1-3.7,5-3.7c2.4,0,3.8,0.5,4.6,1.1c-0.1,1.1-0.6,2-1.2,2.5c-0.8-0.4-2-0.8-3.3-0.8
		c-1.1,0-1.6,0.2-1.6,0.8c0,0.6,0.5,0.8,2.3,1.1c2.2,0.4,4.1,1.1,4.1,3.6c0,2.4-1.8,3.8-5.1,3.8C-479,217.6-480.7,216.8-481.4,216.1
		z"/>
	<path class="st4" d="M-458.1,211.5c0,3.8-2.8,6.1-6.2,6.1c-0.8,0-1.4-0.1-1.9-0.2v4.2c-0.6,0.1-1.2,0.1-1.8,0.1
		c-0.6,0-1.2,0-1.8-0.1v-14.3c1.2-1,3.1-1.7,5.4-1.7C-460.8,205.5-458.1,207.4-458.1,211.5z M-461.7,211.6c0-1.8-1.2-2.9-3-2.9
		c-0.5,0-1.1,0.1-1.6,0.3v5.2c0.5,0.2,1,0.3,1.6,0.3C-462.9,214.5-461.7,213.4-461.7,211.6z"/>
	<path class="st4" d="M-446,212.4h-7.5c0.2,1.6,1.1,2.3,2.8,2.3c1.4,0,2.5-0.6,3.3-1.1c0.7,0.6,1.2,1.5,1.3,2.4
		c-1,0.8-2.6,1.6-5,1.6c-3.5,0-6-2.2-6-6c0-3.6,2.5-6.1,5.9-6.1c3.2,0,5.4,2,5.4,5.2C-445.9,211.3-445.9,211.8-446,212.4z
		 M-449.3,210.4c0-1.1-0.5-2.1-2-2.2c-1.4,0-2.1,0.9-2.3,2.2H-449.3z"/>
	<path class="st4" d="M-436.8,205.8c0,1.2-0.4,2.3-1,3.1c-0.4-0.1-0.9-0.2-1.4-0.2c-0.7,0-1.4,0.1-1.7,0.3v8.1
		c-0.6,0.1-1.2,0.1-1.8,0.1c-0.6,0-1.2,0-1.8-0.1v-10c0.8-0.7,2.6-1.7,5-1.7C-438.3,205.5-437.4,205.6-436.8,205.8z"/>
	<path class="st4" d="M-425.9,210.5v5.9c-1.7,0.7-3.7,1.1-5.7,1.1c-3.2,0-5.1-1.2-5.1-3.7c0-2.4,2.1-3.6,4.9-3.6
		c0.9,0,1.7,0.1,2.4,0.3v-0.5c0-1-0.7-1.7-2.3-1.7c-1.3,0-2.5,0.5-3.1,1c-0.8-0.4-1.4-1.2-1.5-2.3c0.6-0.6,2.4-1.6,4.9-1.6
		C-428.2,205.5-425.9,206.9-425.9,210.5z M-431.2,215.1c0.6,0,1.1-0.1,1.7-0.3v-2.1c-0.6-0.2-1.2-0.3-2-0.3c-1.1,0-1.8,0.4-1.8,1.2
		S-432.5,215.1-431.2,215.1z"/>
	<path class="st4" d="M-413,210.3v6.9c-0.6,0.1-1.2,0.1-1.8,0.1c-0.6,0-1.2,0-1.8-0.1v-6.3c0-1.6-0.9-2.2-2.1-2.2
		c-0.8,0-1.5,0.2-1.9,0.5v8c-0.6,0.1-1.2,0.1-1.8,0.1c-0.6,0-1.2,0-1.8-0.1v-9.8c0.9-0.8,2.9-1.9,5.7-1.9
		C-414.7,205.4-413,207.5-413,210.3z"/>
	<path class="st4" d="M-401.5,215.7c0,0.6-0.1,1.1-0.2,1.5h-9.8c-0.1-0.3-0.1-0.6-0.1-0.8c0-0.9,0.4-1.5,0.7-1.9l4.3-4.9l0.6-0.7
		h-5.4c-0.1-0.3-0.2-0.9-0.2-1.5c0-0.6,0.1-1.1,0.2-1.4h9.5c0.1,0.2,0.1,0.5,0.1,0.8c0,0.9-0.3,1.6-0.7,2.1l-4,4.8l-0.6,0.6h5.3
		C-401.6,214.6-401.5,215.1-401.5,215.7z"/>
	<path class="st4" d="M-389.9,210.5v5.9c-1.7,0.7-3.7,1.1-5.7,1.1c-3.2,0-5.1-1.2-5.1-3.7c0-2.4,2.1-3.6,4.9-3.6
		c0.9,0,1.7,0.1,2.4,0.3v-0.5c0-1-0.7-1.7-2.3-1.7c-1.3,0-2.5,0.5-3.1,1c-0.8-0.4-1.4-1.2-1.5-2.3c0.6-0.6,2.4-1.6,4.9-1.6
		C-392.2,205.5-389.9,206.9-389.9,210.5z M-395.2,215.1c0.6,0,1.1-0.1,1.7-0.3v-2.1c-0.6-0.2-1.2-0.3-2-0.3c-1.1,0-1.8,0.4-1.8,1.2
		S-396.5,215.1-395.2,215.1z"/>
</g>
<g>
	<path class="st4" d="M-218.6,181.4v9.4c0,3.7-2.6,5.5-5.9,5.5c-2.7,0-4.6-1-5.6-2.1c0.1-0.9,0.8-1.9,1.9-2.2c0.8,1,1.9,1.6,3.5,1.6
		c1.8,0,2.6-0.8,2.6-2.1V191c-0.5,0.2-1.2,0.3-1.9,0.3c-3.3,0-6.1-1.9-6.1-5.5c0-3.8,2.9-6,6.4-6
		C-221.7,179.7-219.8,180.4-218.6,181.4z M-222.2,188.1V183c-0.5-0.2-1-0.3-1.6-0.3c-1.6,0-2.8,1.1-2.8,2.8c0,1.7,1.2,2.8,2.8,2.8
		C-223.1,188.4-222.7,188.3-222.2,188.1z"/>
	<path class="st4" d="M-209,180.1c0,1.2-0.4,2.3-1,3.1c-0.4-0.1-0.9-0.2-1.4-0.2c-0.7,0-1.4,0.1-1.7,0.3v8.1
		c-0.6,0.1-1.2,0.1-1.8,0.1c-0.6,0-1.2,0-1.8-0.1v-10c0.8-0.7,2.6-1.7,5-1.7C-210.6,179.7-209.7,179.8-209,180.1z"/>
	<path class="st4" d="M-198.2,184.7v5.9c-1.7,0.7-3.7,1.1-5.7,1.1c-3.2,0-5.1-1.2-5.1-3.7c0-2.4,2.1-3.6,4.9-3.6
		c0.9,0,1.7,0.1,2.4,0.3v-0.5c0-1-0.7-1.7-2.3-1.7c-1.3,0-2.5,0.5-3.1,1c-0.8-0.4-1.4-1.2-1.5-2.3c0.6-0.6,2.4-1.6,4.9-1.6
		C-200.5,179.8-198.2,181.2-198.2,184.7z M-203.4,189.3c0.6,0,1.1-0.1,1.7-0.3V187c-0.6-0.2-1.2-0.3-2-0.3c-1.1,0-1.8,0.4-1.8,1.2
		S-204.8,189.3-203.4,189.3z"/>
	<path class="st4" d="M-187.2,190.5c-0.8,0.6-2,1.3-3.7,1.3c-2.6,0-4.6-1.1-4.6-3.9v-4.7h-1.9c-0.1-0.5-0.1-1-0.1-1.5
		c0-0.5,0-1,0.1-1.4h1.9v-3c0.6-0.1,1.2-0.1,1.8-0.1c0.6,0,1.2,0,1.7,0.1v3h4c0.1,0.5,0.2,0.9,0.2,1.4c0,0.5-0.1,1-0.2,1.5h-4v3.8
		c0,1.3,0.6,1.7,1.6,1.7c0.7,0,1.2-0.3,1.6-0.7C-188,188.5-187.3,189.6-187.2,190.5z"/>
	<path class="st4" d="M-186.7,176.5c0-1.2,1-2.1,2.1-2.1c1.2,0,2.1,1,2.1,2.1c0,1.2-1,2.1-2.1,2.1
		C-185.7,178.6-186.7,177.7-186.7,176.5z M-186.3,191.4v-11.3c0.6-0.1,1.2-0.1,1.8-0.1c0.6,0,1.2,0,1.8,0.1v11.3
		c-0.6,0.1-1.2,0.1-1.8,0.1C-185.1,191.6-185.7,191.5-186.3,191.4z"/>
	<path class="st4" d="M-171.4,190.5c-0.8,0.6-2,1.3-3.7,1.3c-2.6,0-4.6-1.1-4.6-3.9v-4.7h-1.9c-0.1-0.5-0.1-1-0.1-1.5
		c0-0.5,0-1,0.1-1.4h1.9v-3c0.6-0.1,1.2-0.1,1.8-0.1c0.6,0,1.2,0,1.7,0.1v3h4c0.1,0.5,0.2,0.9,0.2,1.4c0,0.5-0.1,1-0.2,1.5h-4v3.8
		c0,1.3,0.6,1.7,1.6,1.7c0.7,0,1.2-0.3,1.6-0.7C-172.2,188.5-171.5,189.6-171.4,190.5z"/>
	<path class="st4" d="M-159.5,180.2v10.3c-0.9,0.5-2.9,1.3-5.6,1.3c-3.9,0-5.4-1.8-5.4-4.6v-7c0.6-0.1,1.2-0.1,1.8-0.1
		c0.6,0,1.2,0,1.8,0.1v6.2c0,1.6,0.5,2.3,2.2,2.3c0.7,0,1.3-0.1,1.8-0.4v-8.2c0.6-0.1,1.2-0.1,1.8-0.1
		C-160.7,180.1-160.1,180.1-159.5,180.2z"/>
	<path class="st4" d="M-146.4,175.7v15c-1.2,0.6-3.2,1.1-5.1,1.1c-4.1,0-6.6-2.1-6.6-6c0-3.7,2.8-6.1,6.3-6.1c0.7,0,1.3,0.1,1.8,0.2
		v-4.3c0.6-0.1,1.2-0.1,1.8-0.1C-147.6,175.6-147,175.6-146.4,175.7z M-149.9,188.6v-5.4c-0.5-0.3-1.1-0.3-1.6-0.3c-1.7,0-3,1.1-3,3
		c0,1.8,1.2,3,2.9,3C-151,188.8-150.5,188.7-149.9,188.6z"/>
</g>
<g>
	<path class="st4" d="M308.6,191.4v-15.6c0.5-0.1,1.1-0.1,1.7-0.1c0.6,0,1.2,0,1.8,0.1v15.6c-0.5,0.1-1.2,0.1-1.8,0.1
		S309.2,191.5,308.6,191.4z"/>
	<path class="st4" d="M313.9,176.5c0-1.2,1-2.1,2.1-2.1c1.2,0,2.1,1,2.1,2.1c0,1.2-1,2.1-2.1,2.1
		C314.9,178.6,313.9,177.7,313.9,176.5z M314.3,191.4v-11.3c0.6-0.1,1.2-0.1,1.8-0.1c0.6,0,1.2,0,1.8,0.1v11.3
		c-0.6,0.1-1.2,0.1-1.8,0.1C315.5,191.6,314.9,191.5,314.3,191.4z"/>
	<path class="st4" d="M331.1,175.7v15c-1.2,0.6-3.2,1.1-5.1,1.1c-4.1,0-6.6-2.1-6.6-6c0-3.7,2.8-6.1,6.3-6.1c0.7,0,1.3,0.1,1.8,0.2
		v-4.3c0.6-0.1,1.2-0.1,1.8-0.1C329.9,175.6,330.5,175.6,331.1,175.7z M327.5,188.6v-5.4c-0.5-0.3-1.1-0.3-1.6-0.3c-1.7,0-3,1.1-3,3
		c0,1.8,1.2,3,2.9,3C326.4,188.8,326.9,188.7,327.5,188.6z"/>
	<path class="st4" d="M343.7,186.7h-7.5c0.2,1.6,1.1,2.3,2.8,2.3c1.4,0,2.5-0.6,3.3-1.1c0.7,0.6,1.2,1.5,1.3,2.4
		c-1,0.8-2.6,1.6-5,1.6c-3.5,0-6-2.2-6-6c0-3.6,2.5-6.1,5.9-6.1c3.2,0,5.4,2,5.4,5.2C343.8,185.6,343.8,186.1,343.7,186.7z
		 M340.4,184.6c0-1.1-0.5-2.1-2-2.2c-1.4,0-2.1,0.9-2.3,2.2H340.4z"/>
	<path class="st4" d="M353,180.1c0,1.2-0.4,2.3-1,3.1c-0.4-0.1-0.9-0.2-1.4-0.2c-0.7,0-1.4,0.1-1.7,0.3v8.1
		c-0.6,0.1-1.2,0.1-1.8,0.1c-0.6,0-1.2,0-1.8-0.1v-10c0.8-0.7,2.6-1.7,5-1.7C351.4,179.7,352.3,179.8,353,180.1z"/>
	<path class="st4" d="M363.8,184.7v5.9c-1.7,0.7-3.7,1.1-5.7,1.1c-3.2,0-5.1-1.2-5.1-3.7c0-2.4,2.1-3.6,4.9-3.6
		c0.9,0,1.7,0.1,2.4,0.3v-0.5c0-1-0.7-1.7-2.3-1.7c-1.3,0-2.5,0.5-3.1,1c-0.8-0.4-1.4-1.2-1.5-2.3c0.6-0.6,2.4-1.6,4.9-1.6
		C361.5,179.8,363.8,181.2,363.8,184.7z M358.5,189.3c0.6,0,1.1-0.1,1.7-0.3V187c-0.6-0.2-1.2-0.3-2-0.3c-1.1,0-1.8,0.4-1.8,1.2
		S357.2,189.3,358.5,189.3z"/>
	<path class="st4" d="M375.2,190c0,0.6-0.1,1.1-0.2,1.5h-9.8c-0.1-0.3-0.1-0.6-0.1-0.8c0-0.9,0.4-1.5,0.7-1.9l4.3-4.9l0.6-0.7h-5.4
		c-0.1-0.3-0.2-0.9-0.2-1.5c0-0.6,0.1-1.1,0.2-1.4h9.5c0.1,0.2,0.1,0.5,0.1,0.8c0,0.9-0.3,1.6-0.7,2.1l-4,4.8l-0.6,0.6h5.3
		C375,188.9,375.2,189.4,375.2,190z"/>
	<path class="st4" d="M387.3,181.4v9.4c0,3.7-2.6,5.5-5.9,5.5c-2.7,0-4.6-1-5.6-2.1c0.1-0.9,0.8-1.9,1.9-2.2c0.8,1,1.9,1.6,3.5,1.6
		c1.8,0,2.6-0.8,2.6-2.1V191c-0.5,0.2-1.2,0.3-1.9,0.3c-3.3,0-6.1-1.9-6.1-5.5c0-3.8,2.9-6,6.4-6
		C384.2,179.7,386.1,180.4,387.3,181.4z M383.7,188.1V183c-0.5-0.2-1-0.3-1.6-0.3c-1.6,0-2.8,1.1-2.8,2.8c0,1.7,1.2,2.8,2.8,2.8
		C382.8,188.4,383.3,188.3,383.7,188.1z"/>
	<path class="st4" d="M388.7,185.8c0-3.7,2.6-6.1,6.2-6.1c3.6,0,6.2,2.4,6.2,6.1c0,3.6-2.6,6-6.2,6
		C391.3,191.8,388.7,189.5,388.7,185.8z M397.6,185.8c0-1.9-1-3.1-2.6-3.1s-2.7,1.2-2.7,3.1c0,1.8,1,3.1,2.7,3.1
		S397.6,187.6,397.6,185.8z"/>
</g>
<g>
	<g>
		<g>
			<path class="st1" d="M99.2,19.7c-0.5,0-1-0.1-1.5-0.5c-1.2-0.8-1.5-2.4-0.7-3.6C102.3,8,111,2.6,121,0.8c9.4-1.7,18.9-0.4,26.9,1
				c1.4,0.3,2.4,1.6,2.1,3c-0.3,1.4-1.6,2.4-3,2.1c-7.6-1.4-16.5-2.6-25.1-1c-8.6,1.5-16.1,6.2-20.5,12.6
				C100.9,19.3,100.1,19.7,99.2,19.7z"/>
		</g>
		<g>
			<path class="st1" d="M155.8,20.8c-0.5,0-1-0.1-1.4-0.4c-11.1-7.2-23.8-7.9-39-2.2c-1.3,0.5-2.9-0.2-3.4-1.5
				c-0.5-1.3,0.2-2.9,1.5-3.4c16.6-6.3,31.3-5.4,43.7,2.7c1.2,0.8,1.5,2.4,0.8,3.6C157.5,20.4,156.7,20.8,155.8,20.8z"/>
		</g>
		<g>
			<path class="st1" d="M157.7,31.7c-0.5,0-1-0.2-1.5-0.5c-10.9-7.6-26.1-8.9-37.8-3.1c-1.3,0.6-2.9,0.1-3.5-1.2
				c-0.6-1.3-0.1-2.9,1.2-3.5c13.3-6.6,30.7-5.2,43.1,3.5c1.2,0.8,1.5,2.5,0.6,3.6C159.4,31.3,158.6,31.7,157.7,31.7z"/>
		</g>
		<g>
			<path class="st1" d="M95.4,83.8c-1,0-1.9-0.6-2.4-1.5c-5.8-12.4-7.8-26-5.9-39.3c0.4-3,1.1-6.6,3.1-9.7c2.1-3.4,5.4-5.1,8.4-4.5
				c1.8,0.4,3.5,1.6,5,3.7c2.7,3.7,4,8.1,4.9,11.8c0.2,1,0.4,2.1,0.6,3.4c0.5,3.3,1.2,8.3,3.5,8.6c0.4,0.1,1,0.1,1.3-0.2
				c0.1-0.1,0.9-1,0.7-4.2c-0.1-1.1-0.3-2.3-0.5-3.6c-0.6-3.7-1.4-8.3,1.5-12c5-6.4,15-6.5,19-6.2c4.9,0.3,9.9,1.6,16,4.1
				c1.3,0.5,2,2.1,1.4,3.4c-0.5,1.3-2.1,2-3.4,1.4c-5.5-2.2-10.1-3.4-14.4-3.7c-2.5-0.2-11-0.3-14.6,4.2c-1.5,2-1,4.9-0.5,8
				c0.2,1.4,0.5,2.8,0.5,4.2c0.2,3.9-0.6,6.6-2.4,8.3c-1,0.9-2.7,1.9-5.5,1.5c-6.1-0.9-7.2-8.2-7.9-13.1c-0.2-1.1-0.3-2.2-0.5-2.9
				c-0.8-3.3-1.9-7-4.1-10c-0.7-1-1.3-1.5-1.8-1.6c-0.8-0.2-2,0.7-2.9,2.1c-1.4,2.3-2,5.2-2.4,7.7c-1.8,12.3,0.1,24.9,5.5,36.3
				c0.6,1.3,0,2.9-1.3,3.5C96.2,83.7,95.8,83.8,95.4,83.8z"/>
		</g>
	</g>
	<g>
		<g>
			<path class="st1" d="M61.1,19.7c-0.8,0-1.7-0.4-2.2-1.1C54.5,12.1,47.1,7.5,38.5,5.9C29.9,4.4,21,5.6,13.4,7
				c-1.4,0.3-2.8-0.7-3-2.1s0.7-2.8,2.1-3c8-1.5,17.5-2.7,26.9-1c10,1.8,18.7,7.2,23.9,14.8c0.8,1.2,0.5,2.8-0.7,3.6
				C62.1,19.6,61.6,19.7,61.1,19.7z"/>
		</g>
		<g>
			<path class="st1" d="M4.5,20.8c-0.9,0-1.7-0.4-2.2-1.2c-0.8-1.2-0.4-2.8,0.8-3.6c12.4-8.1,27.1-9,43.7-2.7c1.3,0.5,2,2,1.5,3.4
				c-0.5,1.3-2,2-3.4,1.5c-15.2-5.8-27.9-5.1-39,2.2C5.5,20.7,5,20.8,4.5,20.8z"/>
		</g>
		<g>
			<path class="st1" d="M2.6,31.7c-0.8,0-1.6-0.4-2.1-1.1c-0.8-1.2-0.5-2.8,0.6-3.6c12.4-8.7,29.7-10.1,43.1-3.5
				c1.3,0.6,1.8,2.2,1.2,3.5c-0.6,1.3-2.2,1.8-3.5,1.2C30.2,22.4,15,23.6,4.1,31.3C3.6,31.6,3.1,31.7,2.6,31.7z"/>
		</g>
		<g>
			<path class="st1" d="M64.9,83.8c-0.4,0-0.7-0.1-1.1-0.2c-1.3-0.6-1.9-2.2-1.3-3.5c5.4-11.5,7.2-24,5.5-36.3
				c-0.4-2.5-0.9-5.4-2.4-7.7c-0.8-1.4-2.1-2.3-2.9-2.1c-0.5,0.1-1.1,0.7-1.8,1.6c-2.2,3-3.3,6.8-4.1,10c-0.2,0.7-0.3,1.8-0.5,2.9
				c-0.7,4.9-1.8,12.2-7.9,13.1c-2.8,0.4-4.5-0.6-5.5-1.5c-1.8-1.7-2.6-4.4-2.4-8.3c0.1-1.4,0.3-2.8,0.5-4.2c0.5-3.1,1-6-0.5-8
				C37,35,28.5,35.2,26,35.4c-4.3,0.3-8.8,1.4-14.4,3.7c-1.3,0.5-2.9-0.1-3.4-1.4c-0.5-1.3,0.1-2.9,1.4-3.4c6-2.5,11.1-3.7,16-4.1
				c4.1-0.3,14.1-0.2,19,6.2c2.9,3.8,2.1,8.4,1.5,12c-0.2,1.3-0.4,2.5-0.5,3.6c-0.2,3.2,0.6,4,0.7,4.2c0.3,0.2,0.8,0.2,1.3,0.2
				c2.2-0.3,3-5.3,3.5-8.6c0.2-1.2,0.4-2.4,0.6-3.4c0.9-3.7,2.3-8.1,4.9-11.8c1.5-2.1,3.1-3.3,5-3.7c3-0.7,6.4,1.1,8.4,4.5
				c1.9,3.1,2.6,6.7,3.1,9.7c1.9,13.3-0.1,26.9-5.9,39.3C66.8,83.2,65.9,83.8,64.9,83.8z"/>
		</g>
	</g>
</g>
<g>
	<path class="st4" d="M44.9,185.7c0,3.8-2.8,6.1-6.2,6.1c-0.8,0-1.4-0.1-1.9-0.2v4.2c-0.6,0.1-1.2,0.1-1.8,0.1c-0.6,0-1.2,0-1.8-0.1
		v-14.3c1.2-1,3.1-1.7,5.4-1.7C42.2,179.8,44.9,181.7,44.9,185.7z M41.3,185.8c0-1.8-1.2-2.9-3-2.9c-0.5,0-1.1,0.1-1.6,0.3v5.2
		c0.5,0.2,1,0.3,1.6,0.3C40.2,188.8,41.3,187.7,41.3,185.8z"/>
	<path class="st4" d="M54,180.1c0,1.2-0.4,2.3-1,3.1c-0.4-0.1-0.9-0.2-1.4-0.2c-0.7,0-1.4,0.1-1.7,0.3v8.1c-0.6,0.1-1.2,0.1-1.8,0.1
		c-0.6,0-1.2,0-1.8-0.1v-10c0.8-0.7,2.6-1.7,5-1.7C52.5,179.7,53.4,179.8,54,180.1z"/>
	<path class="st4" d="M53.9,185.8c0-3.7,2.6-6.1,6.2-6.1s6.2,2.4,6.2,6.1c0,3.6-2.6,6-6.2,6S53.9,189.5,53.9,185.8z M62.7,185.8
		c0-1.9-1-3.1-2.6-3.1c-1.7,0-2.7,1.2-2.7,3.1c0,1.8,1,3.1,2.7,3.1C61.8,188.9,62.7,187.6,62.7,185.8z"/>
	<path class="st4" d="M78.8,181.4v9.4c0,3.7-2.6,5.5-5.9,5.5c-2.7,0-4.6-1-5.6-2.1c0.1-0.9,0.8-1.9,1.9-2.2c0.8,1,1.9,1.6,3.5,1.6
		c1.8,0,2.6-0.8,2.6-2.1V191c-0.5,0.2-1.2,0.3-1.9,0.3c-3.3,0-6.1-1.9-6.1-5.5c0-3.8,2.9-6,6.4-6C75.7,179.7,77.6,180.4,78.8,181.4z
		 M75.2,188.1V183c-0.5-0.2-1-0.3-1.6-0.3c-1.6,0-2.8,1.1-2.8,2.8c0,1.7,1.2,2.8,2.8,2.8C74.3,188.4,74.7,188.3,75.2,188.1z"/>
	<path class="st4" d="M88.4,180.1c0,1.2-0.4,2.3-1,3.1C87,183,86.5,183,86,183c-0.7,0-1.4,0.1-1.7,0.3v8.1c-0.6,0.1-1.2,0.1-1.8,0.1
		c-0.6,0-1.2,0-1.8-0.1v-10c0.8-0.7,2.6-1.7,5-1.7C86.8,179.7,87.7,179.8,88.4,180.1z"/>
	<path class="st4" d="M99.5,186.7h-7.5c0.2,1.6,1.1,2.3,2.8,2.3c1.4,0,2.5-0.6,3.3-1.1c0.7,0.6,1.2,1.5,1.3,2.4
		c-1,0.8-2.6,1.6-5,1.6c-3.5,0-6-2.2-6-6c0-3.6,2.5-6.1,5.9-6.1c3.2,0,5.4,2,5.4,5.2C99.6,185.6,99.6,186.1,99.5,186.7z M96.2,184.6
		c0-1.1-0.5-2.1-2-2.2c-1.4,0-2.1,0.9-2.3,2.2H96.2z"/>
	<path class="st4" d="M100.4,190.4c0.2-1.1,0.7-2,1.4-2.4c0.8,0.5,2,1.1,3.7,1.1c1.1,0,1.5-0.4,1.5-0.9c0-0.6-0.6-0.9-2.5-1.2
		c-1.9-0.4-3.8-1.1-3.8-3.6c0-2.3,2.1-3.7,5-3.7c2.4,0,3.8,0.5,4.6,1.1c-0.1,1.1-0.6,2-1.2,2.5c-0.8-0.4-2-0.8-3.3-0.8
		c-1.1,0-1.6,0.2-1.6,0.8c0,0.6,0.5,0.8,2.3,1.1c2.2,0.4,4.1,1.1,4.1,3.6c0,2.4-1.8,3.8-5.1,3.8C102.9,191.8,101.2,191,100.4,190.4z
		"/>
	<path class="st4" d="M111.5,185.8c0-3.7,2.6-6.1,6.2-6.1s6.2,2.4,6.2,6.1c0,3.6-2.6,6-6.2,6S111.5,189.5,111.5,185.8z M120.4,185.8
		c0-1.9-1-3.1-2.6-3.1c-1.7,0-2.7,1.2-2.7,3.1c0,1.8,1,3.1,2.7,3.1C119.4,188.9,120.4,187.6,120.4,185.8z"/>
</g>
<g>
	<g>
		<g>
			<path class="st6" d="M-266.6,26c-0.3,0-0.6,0-0.9-0.2c-1.4-0.5-2.1-2-1.6-3.3c3.1-8.7,10.2-16.1,19.4-20.3
				c8.7-4,18.2-5.1,26.3-5.7c1.4-0.1,2.7,1,2.8,2.4c0.1,1.4-1,2.7-2.4,2.8c-7.7,0.6-16.6,1.6-24.5,5.2c-7.9,3.6-14,10-16.7,17.3
				C-264.5,25.4-265.5,26-266.6,26z"/>
		</g>
		<g>
			<path class="st6" d="M-252.1,20.9c-0.8,0-1.6-0.4-2.1-1.1c-0.8-1.2-0.6-2.8,0.6-3.6c14.5-10.2,29-13,43-8.3
				c1.4,0.5,2.1,1.9,1.6,3.3c-0.5,1.4-1.9,2.1-3.3,1.6c-12.5-4.2-25-1.8-38.3,7.6C-251.1,20.8-251.6,20.9-252.1,20.9z"/>
		</g>
		<g>
			<path class="st6" d="M-246.9,30c-0.7,0-1.5-0.3-2-0.9c-0.9-1.1-0.8-2.7,0.3-3.7c11.3-9.7,28.4-12.7,42.6-7.4c1.3,0.5,2,2,1.5,3.4
				c-0.5,1.3-2,2-3.4,1.5c-12.5-4.7-27.5-2.1-37.4,6.4C-245.7,29.8-246.3,30-246.9,30z"/>
		</g>
		<g>
			<path class="st6" d="M-254.3,89c-0.8,0-1.5-0.3-2-1c-8.7-10.6-14.1-23.2-15.5-36.6c-0.3-3.1-0.5-6.6,0.6-10.2
				c1.2-3.8,3.9-6.3,7-6.4c1.9-0.1,3.8,0.7,5.7,2.3c3.5,2.9,5.9,6.8,7.7,10.2c0.5,0.9,0.9,2,1.4,3.1c1.3,3.1,3.2,7.8,5.5,7.5
				c0.4,0,1-0.2,1.2-0.5c0.1-0.2,0.6-1.2-0.4-4.2c-0.3-1-0.8-2.2-1.3-3.3c-1.5-3.4-3.4-7.7-1.5-12c3.2-7.4,12.9-10,16.9-10.8
				c4.8-0.9,10-0.9,16.5-0.1c1.4,0.2,2.4,1.5,2.2,2.9c-0.2,1.4-1.5,2.4-2.9,2.2c-5.9-0.8-10.6-0.8-14.8,0
				c-2.5,0.5-10.8,2.4-13.1,7.7c-1,2.3,0.2,5,1.5,7.8c0.6,1.3,1.1,2.6,1.6,3.9c1.2,3.7,1.1,6.5-0.3,8.6c-0.7,1.1-2.2,2.5-5,2.8
				c-6.1,0.7-9-6.1-10.9-10.7c-0.4-1-0.8-2-1.2-2.7c-1.6-3-3.6-6.3-6.5-8.7c-0.9-0.8-1.7-1.2-2.2-1.1c-0.8,0-1.8,1.2-2.3,2.8
				c-0.8,2.6-0.6,5.5-0.4,8.1c1.4,12.4,6.3,24.1,14.4,33.8c0.9,1.1,0.8,2.8-0.4,3.7C-253.1,88.8-253.7,89-254.3,89z"/>
		</g>
	</g>
	<g>
		<g>
			<path class="st6" d="M-149.3,132.4c-0.7,0-1.4-0.3-1.9-0.8c-1-1-0.9-2.7,0.1-3.7c5.6-5.3,11.9-11.7,15.7-19.6
				c3.9-7.8,4.6-16.6,2-24c-0.5-1.4,0.2-2.8,1.6-3.3c1.4-0.5,2.8,0.2,3.3,1.6c3.1,8.7,2.3,18.9-2.2,28c-4.2,8.6-10.9,15.4-16.8,21.1
				C-148.1,132.1-148.7,132.4-149.3,132.4z"/>
		</g>
		<g>
			<path class="st6" d="M-165.5,131c-1.1,0-2.1-0.6-2.4-1.7c-0.5-1.3,0.2-2.9,1.5-3.4c12.4-4.6,20.5-14.5,24.9-30.1
				c0.4-1.4,1.8-2.2,3.2-1.8c1.4,0.4,2.2,1.8,1.8,3.2c-4.8,17.1-14.2,28.4-28.1,33.6C-164.8,131-165.2,131-165.5,131z"/>
		</g>
		<g>
			<path class="st6" d="M-175.4,126.1c-1.1,0-2.1-0.7-2.5-1.8c-0.5-1.4,0.3-2.8,1.6-3.3c12.6-4.3,22.6-15.8,24.9-28.6
				c0.3-1.4,1.6-2.4,3-2.1c1.4,0.3,2.4,1.6,2.1,3c-2.6,14.7-14,27.8-28.4,32.6C-174.8,126-175.1,126.1-175.4,126.1z"/>
		</g>
		<g>
			<path class="st6" d="M-176.6,115.1c-0.9,0-1.7-0.4-2.2-1.2c-0.8-1.2-0.4-2.8,0.9-3.6c5.1-3.1,8.7-6.1,11.5-9.4
				c1.6-1.9,6.8-8.7,5.2-14.2c-0.7-2.4-3.3-3.7-6.1-5.1c-1.2-0.6-2.5-1.3-3.7-2c-3.3-2.2-5-4.4-5.2-6.8c-0.1-1.3,0.1-3.3,2.1-5.3
				c4.3-4.4,10.9-0.9,15.2,1.4c1,0.5,1.9,1,2.6,1.3c3.1,1.3,6.8,2.6,10.5,2.6c1.2,0,2-0.2,2.4-0.5c0.6-0.5,0.6-2.1,0-3.6
				c-1-2.5-3-4.7-4.8-6.5c-8.9-8.7-20.1-14.7-32.5-17.1c-1.4-0.3-2.3-1.7-2-3.1c0.3-1.4,1.7-2.3,3.1-2c13.4,2.7,25.6,9.1,35.1,18.5
				c2.2,2.2,4.6,4.8,6,8.2c1.5,3.7,0.9,7.4-1.4,9.4c-1.4,1.2-3.3,1.9-5.9,1.8c-4.6,0-8.9-1.5-12.4-3c-0.9-0.4-2-0.9-3.1-1.5
				c-3-1.6-7.4-4-9-2.3c-0.3,0.3-0.7,0.8-0.6,1.1c0,0.2,0.3,1.3,2.9,3c0.9,0.6,2,1.1,3.2,1.7c3.3,1.7,7.5,3.8,8.8,8.4
				c2.2,7.8-3.7,15.9-6.3,19c-3.1,3.7-7.2,7.1-12.7,10.5C-175.7,115-176.2,115.1-176.6,115.1z"/>
		</g>
	</g>
</g>
<g class="st7">
	<path class="st0" d="M364.2,78.1c-0.7,0-1.4-0.3-1.9-0.8c-1-1-1-2.7,0.1-3.7c13-12.4,19.1-27,18.1-43.6c-0.8-13.9-6.3-26-9.6-33.3
		c-1.3-2.8-2.2-4.8-2.6-6.3c-0.4-1.4,0.5-2.8,1.9-3.2c1.4-0.4,2.8,0.5,3.2,1.9c0.3,1,1.2,3.1,2.3,5.4c3.5,7.6,9.2,20.3,10.1,35.2
		c1.1,18.2-5.6,34.2-19.7,47.7C365.5,77.9,364.8,78.1,364.2,78.1z"/>
</g>
<g class="st7">
	<path class="st0" d="M372.4,86.7c-0.7,0-1.4-0.3-1.9-0.8c-1-1-1-2.7,0.1-3.7c19.1-18.2,20.8-41.8,18.8-58.3
		c-2.2-19.1-9.8-35.8-14.4-42.4c-0.8-1.2-0.5-2.8,0.7-3.6c1.2-0.8,2.8-0.5,3.6,0.7c4.9,7,12.9,24.8,15.3,44.8
		c3,25.5-4.1,47.2-20.4,62.7C373.7,86.5,373,86.7,372.4,86.7z"/>
</g>
<g>
	<g>
		<path class="st0" d="M263.7,445.1c-0.2,0-0.5,0-0.7-0.1c-1.3-0.4-2-1.7-1.6-3c2.1-6.8,4.2-14.8,3.8-22.8c-0.5-8-3.8-15.4-9.3-20.2
			c-1-0.9-1.1-2.4-0.2-3.4c0.9-1,2.4-1.1,3.4-0.2c6.4,5.6,10.4,14.2,10.9,23.5c0.5,8.8-1.7,17.3-4,24.5
			C265.7,444.4,264.7,445.1,263.7,445.1z"/>
	</g>
	<g>
		<path class="st0" d="M250.1,451.2c-0.5,0-1.1-0.2-1.5-0.6c-1-0.9-1.1-2.4-0.3-3.4c7.9-9.3,9.9-20.9,6.4-35.4
			c-0.3-1.3,0.5-2.6,1.8-2.9c1.3-0.3,2.6,0.5,2.9,1.8c3.9,15.9,1.4,29.2-7.4,39.7C251.5,451,250.8,451.2,250.1,451.2z"/>
	</g>
	<g>
		<path class="st0" d="M239.9,451.8c-0.6,0-1.1-0.2-1.6-0.6c-1-0.9-1.1-2.4-0.2-3.4c8.2-9.1,11.1-22.9,7.1-34.2
			c-0.4-1.3,0.2-2.6,1.5-3.1c1.3-0.4,2.6,0.2,3.1,1.5c4.5,13,1.3,28.6-8,39C241.2,451.5,240.6,451.8,239.9,451.8z"/>
	</g>
	<g>
		<path class="st0" d="M233.9,443.6c-0.4,0-0.8-0.1-1.2-0.3c-1.2-0.6-1.6-2.1-0.9-3.3c2.7-4.8,4.3-8.8,5-12.7
			c0.4-2.3,1.5-10.1-2.2-13.8c-1.6-1.6-4.3-1.5-7.2-1.4c-1.3,0.1-2.6,0.1-3.9,0c-3.6-0.3-6-1.3-7.3-3.1c-0.7-1-1.4-2.7-0.7-5.2
			c1.5-5.5,8.3-5.7,12.8-5.8c1,0,2,0,2.7-0.1c3.1-0.4,6.6-1,9.6-2.6c1-0.5,1.6-1,1.7-1.5c0.2-0.7-0.4-1.9-1.6-2.9
			c-2-1.6-4.5-2.4-6.8-3c-11.1-3-22.8-2.7-33.9,0.9c-1.3,0.4-2.6-0.3-3-1.5c-0.4-1.3,0.3-2.6,1.5-3c12-3.9,24.7-4.2,36.6-1
			c2.7,0.7,5.9,1.8,8.5,3.9c2.9,2.3,4.1,5.5,3.1,8.2c-0.6,1.6-1.9,3-3.9,4.1c-3.7,2-7.8,2.8-11.4,3.2c-0.9,0.1-2,0.1-3.2,0.2
			c-3.1,0.1-7.8,0.2-8.3,2.2c-0.1,0.4-0.2,0.9,0,1.2c0.1,0.1,0.8,0.9,3.7,1.1c1,0.1,2.1,0,3.3,0c3.4-0.2,7.7-0.4,10.9,2.7
			c5.3,5.3,4.2,14.4,3.6,18.1c-0.8,4.4-2.6,8.9-5.5,14.2C235.6,443.1,234.8,443.6,233.9,443.6z"/>
	</g>
</g>
<g>
	<g>
		<path class="st2" d="M-445.9,500.5c-1.2,0-2.2-0.8-2.4-2c-0.2-1.3,0.7-2.5,2-2.8c7-1.2,15.1-2.9,22.1-6.9c7-4,12-10.4,13.8-17.4
			c0.3-1.3,1.6-2.1,2.9-1.7c1.3,0.3,2.1,1.6,1.7,2.9c-2.1,8.2-8,15.7-16.1,20.3c-7.6,4.4-16.2,6.3-23.7,7.5
			C-445.6,500.5-445.8,500.5-445.9,500.5z"/>
	</g>
	<g>
		<path class="st2" d="M-449.1,492.2c-3,0-6-0.4-9-1.1c-1.3-0.3-2.1-1.6-1.8-2.9c0.3-1.3,1.6-2.1,2.9-1.8
			c11.9,2.8,23.1-0.6,34.5-10.3c1-0.9,2.5-0.7,3.4,0.3c0.9,1,0.7,2.5-0.3,3.4C-429,488-439,492.2-449.1,492.2z"/>
	</g>
	<g>
		<path class="st2" d="M-453.3,483.5c-3.4,0-6.7-0.4-10-1.3c-1.3-0.3-2-1.7-1.7-2.9c0.3-1.3,1.7-2,2.9-1.7
			c11.9,3.2,25.4-0.5,33.8-9.1c0.9-1,2.4-1,3.4-0.1c1,0.9,1,2.4,0.1,3.4C-432,479.3-442.6,483.5-453.3,483.5z"/>
	</g>
	<g>
		<path class="st2" d="M-455.1,473.3c-0.9,0-1.9,0-2.9-0.1c-1.3-0.1-2.4-1.2-2.3-2.5c0.1-1.3,1.2-2.4,2.5-2.3
			c5.5,0.2,9.8-0.2,13.6-1.3c2.2-0.7,9.7-3.2,11.3-8.2c0.7-2.2-0.6-4.6-2.1-7.1c-0.6-1.1-1.3-2.3-1.8-3.4c-1.4-3.3-1.6-5.9-0.5-7.9
			c0.6-1.1,1.8-2.5,4.3-3c5.6-1.2,8.8,4.9,10.9,8.8c0.5,0.9,1,1.8,1.3,2.3c1.7,2.6,3.9,5.5,6.7,7.4c0.9,0.6,1.6,0.9,2.1,0.8
			c0.7-0.1,1.5-1.3,1.8-2.7c0.5-2.5,0.1-5.1-0.4-7.4c-2.3-11.2-7.9-21.5-16.1-29.8c-0.9-0.9-0.9-2.5,0-3.4c0.9-0.9,2.5-0.9,3.4,0
			c8.9,8.9,14.9,20.1,17.4,32.2c0.6,2.8,1.1,6.1,0.4,9.4c-0.7,3.6-3.1,6.1-5.9,6.5c-1.7,0.2-3.5-0.3-5.5-1.6c-3.5-2.4-6-5.7-8-8.7
			c-0.5-0.8-1-1.7-1.6-2.7c-1.5-2.7-3.6-6.8-5.7-6.4c-0.4,0.1-0.9,0.2-1.1,0.5c-0.1,0.2-0.5,1.1,0.7,3.8c0.4,0.9,0.9,1.9,1.5,2.9
			c1.7,3,3.8,6.7,2.4,10.9c-2.3,7.1-11,10.3-14.6,11.3C-446.5,472.8-450.5,473.3-455.1,473.3z"/>
	</g>
</g>
<g>
	<g>
		<path class="st2" d="M-347.6,444.4c-0.2,1.1-1.3,2-2.5,1.9c-1.3-0.1-2.4-1.2-2.3-2.5c0.3-7.1,0.3-15.4-2.2-23
			c-2.5-7.7-7.7-13.9-14.1-17.1c-1.2-0.6-1.7-2-1.1-3.2c0.6-1.2,2-1.7,3.2-1.1c7.6,3.8,13.7,11,16.6,19.9c2.7,8.4,2.8,17.2,2.5,24.7
			C-347.5,444.1-347.5,444.3-347.6,444.4z"/>
	</g>
	<g>
		<path class="st2" d="M-356.4,445.8c-0.6,2.9-1.6,5.8-2.9,8.6c-0.6,1.2-2,1.7-3.2,1.1c-1.2-0.6-1.7-2-1.1-3.2
			c5.2-11,4.2-22.7-3-35.9c-0.6-1.2-0.2-2.6,1-3.3c1.2-0.6,2.6-0.2,3.3,1C-356.3,425.3-354.3,435.9-356.4,445.8z"/>
	</g>
	<g>
		<path class="st2" d="M-365.7,448.1c-0.7,3.3-1.8,6.5-3.3,9.5c-0.6,1.2-2.1,1.7-3.2,1c-1.2-0.6-1.7-2.1-1-3.2
			c5.6-10.9,4.8-25-2-34.9c-0.7-1.1-0.5-2.6,0.6-3.3c1.1-0.7,2.6-0.5,3.3,0.6C-365.4,426.4-363.5,437.7-365.7,448.1z"/>
	</g>
	<g>
		<path class="st2" d="M-376.1,447.8c-0.2,0.9-0.4,1.9-0.7,2.8c-0.3,1.3-1.6,2.1-2.9,1.7c-1.3-0.3-2.1-1.6-1.7-2.9
			c1.3-5.3,1.8-9.6,1.5-13.6c-0.2-2.3-1.1-10.1-5.7-12.8c-2-1.1-4.6-0.3-7.3,0.6c-1.2,0.4-2.5,0.8-3.7,1c-3.5,0.7-6.1,0.3-7.9-1.1
			c-0.9-0.8-2.1-2.2-2.1-4.9c0-5.7,6.6-7.6,10.9-8.9c1-0.3,1.9-0.6,2.6-0.8c2.9-1.2,6.2-2.7,8.6-5c0.8-0.8,1.2-1.4,1.3-1.9
			c0.1-0.8-0.9-1.8-2.3-2.4c-2.3-1-5-1.2-7.4-1.2c-11.5-0.1-22.7,3.3-32.5,9.6c-1.1,0.7-2.6,0.4-3.3-0.7c-0.7-1.1-0.4-2.6,0.7-3.3
			c10.6-6.9,22.7-10.4,35.1-10.4c2.8,0,6.1,0.2,9.3,1.6c3.3,1.5,5.4,4.3,5.1,7.1c-0.1,1.7-1,3.4-2.7,5c-3.1,2.9-6.8,4.7-10.1,6
			c-0.8,0.3-1.9,0.6-3,1c-3,0.9-7.4,2.2-7.5,4.3c0,0.4,0.1,0.9,0.3,1.1c0.1,0.1,1,0.7,3.9,0.1c1-0.2,2.1-0.5,3.2-0.9
			c3.3-1,7.4-2.3,11.2-0.1c6.5,3.7,7.8,12.8,8.1,16.6C-374.8,439.3-375.1,443.2-376.1,447.8z"/>
	</g>
</g>
<g>
	<g>
		<path class="st2" d="M-449.9,355.9c-0.4,0-0.8-0.1-1.1-0.3c-1.2-0.6-1.6-2.1-1-3.3c4.1-7.5,11.5-13.3,20.5-15.8
			c8.5-2.4,17.3-2.2,24.8-1.6c1.3,0.1,2.3,1.3,2.2,2.6c-0.1,1.3-1.2,2.3-2.6,2.2c-7.1-0.6-15.4-0.8-23.1,1.4
			c-7.7,2.2-14.2,7.1-17.6,13.5C-448.2,355.4-449.1,355.9-449.9,355.9z"/>
	</g>
	<g>
		<path class="st2" d="M-436,353.2c-0.9,0-1.7-0.5-2.2-1.3c-0.6-1.2-0.1-2.6,1.1-3.2c14.6-7.3,28.2-7.9,40.3-1.6
			c1.2,0.6,1.6,2.1,1,3.2c-0.6,1.2-2.1,1.6-3.2,1c-10.8-5.6-22.6-5.1-35.9,1.7C-435.3,353.1-435.7,353.2-436,353.2z"/>
	</g>
	<g>
		<path class="st2" d="M-432.5,362.2c-0.8,0-1.6-0.4-2-1.1c-0.7-1.1-0.4-2.6,0.8-3.3c11.6-7.3,27.6-7.6,39.9-0.8
			c1.2,0.6,1.6,2.1,0.9,3.3c-0.6,1.2-2.1,1.6-3.3,0.9c-10.7-6-24.8-5.7-35,0.7C-431.6,362.1-432.1,362.2-432.5,362.2z"/>
	</g>
	<g>
		<path class="st2" d="M-447.4,415c-0.8,0-1.6-0.4-2.1-1.2c-6.5-10.8-9.6-23.1-9.1-35.5c0.1-2.8,0.4-6.1,1.9-9.2
			c1.6-3.3,4.5-5.2,7.3-4.9c1.7,0.2,3.3,1.1,4.9,2.9c2.8,3.2,4.4,7,5.6,10.4c0.3,0.9,0.6,1.9,0.9,3c0.8,3,1.9,7.5,4,7.6
			c0.4,0,0.9,0,1.2-0.3c0.1-0.1,0.7-1,0.3-3.9c-0.2-1-0.5-2.1-0.8-3.2c-0.9-3.3-2.1-7.5,0.3-11.2c4-6.3,13.1-7.3,16.9-7.5
			c4.5-0.2,9.3,0.5,15,2.2c1.3,0.4,2,1.7,1.6,3c-0.4,1.3-1.7,2-3,1.6c-5.3-1.5-9.6-2.2-13.5-2c-2.3,0.1-10.2,0.7-13,5.2
			c-1.2,1.9-0.5,4.6,0.3,7.4c0.3,1.2,0.7,2.5,0.9,3.8c0.6,3.6,0.1,6.1-1.4,7.8c-0.8,0.9-2.3,2-4.9,1.9c-5.7-0.2-7.4-6.8-8.5-11.2
			c-0.3-1-0.5-2-0.7-2.6c-1.1-2.9-2.4-6.2-4.7-8.8c-0.7-0.8-1.4-1.3-1.8-1.3c-0.8-0.1-1.8,0.9-2.4,2.2c-1.1,2.3-1.3,5-1.4,7.3
			c-0.5,11.5,2.4,22.8,8.4,32.8c0.7,1.1,0.3,2.6-0.8,3.3C-446.5,414.9-447,415-447.4,415z"/>
	</g>
</g>
<g>
	<g>
		<path class="st2" d="M-499.1,430.8c-0.5,0-0.9-0.1-1.4-0.4c-7-4.8-12-12.8-13.7-22c-1.6-8.7-0.4-17.4,1-24.8
			c0.2-1.3,1.5-2.2,2.8-1.9c1.3,0.2,2.2,1.5,1.9,2.8c-1.3,7-2.4,15.2-1,23.1c1.4,7.9,5.7,14.8,11.6,18.9c1.1,0.7,1.4,2.2,0.6,3.3
			C-497.5,430.5-498.3,430.8-499.1,430.8z"/>
	</g>
	<g>
		<path class="st2" d="M-500.3,416.7c-1,0-1.9-0.6-2.2-1.5c-5.8-15.3-5-28.9,2.5-40.3c0.7-1.1,2.2-1.4,3.3-0.7
			c1.1,0.7,1.4,2.2,0.7,3.3c-6.7,10.2-7.3,21.9-2,35.9c0.5,1.2-0.2,2.6-1.4,3.1C-499.7,416.7-500,416.7-500.3,416.7z"/>
	</g>
	<g>
		<path class="st2" d="M-491,414.2c-0.9,0-1.7-0.5-2.2-1.3c-6.1-12.3-4.8-28.3,3.2-39.7c0.8-1.1,2.3-1.4,3.3-0.6
			c1.1,0.8,1.4,2.3,0.6,3.3c-7,10.1-8.2,24.1-2.9,34.8c0.6,1.2,0.1,2.6-1.1,3.2C-490.3,414.1-490.6,414.2-491,414.2z"/>
	</g>
	<g>
		<path class="st2" d="M-466.2,440.2c-3,0-6-0.2-9-0.6c-2.8-0.4-6.1-1.1-9-2.8c-3.1-1.9-4.7-5-4.1-7.8c0.4-1.7,1.5-3.2,3.4-4.6
			c3.4-2.5,7.4-3.7,10.9-4.6c0.9-0.2,2-0.4,3.1-0.5c3.1-0.4,7.7-1.1,8-3.2c0.1-0.4,0.1-0.9-0.2-1.2c-0.1-0.1-0.9-0.8-3.8-0.6
			c-1,0.1-2.1,0.2-3.3,0.4c-3.4,0.6-7.6,1.3-11.1-1.4c-5.9-4.6-6-13.8-5.7-17.5c0.3-4.5,1.5-9.2,3.7-14.7c0.5-1.2,1.9-1.8,3.1-1.3
			c1.2,0.5,1.8,1.9,1.3,3.1c-2.1,5.1-3.1,9.3-3.4,13.2c-0.1,2.3-0.3,10.2,3.9,13.4c1.8,1.4,4.5,0.9,7.4,0.5c1.3-0.2,2.6-0.4,3.8-0.5
			c3.6-0.2,6.1,0.5,7.6,2.2c0.8,0.9,1.7,2.5,1.4,5.1c-0.8,5.6-7.6,6.6-12,7.3c-1,0.2-2,0.3-2.6,0.5c-3,0.8-6.5,1.8-9.2,3.8
			c-0.9,0.7-1.4,1.2-1.5,1.7c-0.2,0.7,0.7,1.9,1.9,2.7c2.1,1.3,4.8,1.8,7.1,2.2c11.4,1.6,22.9-0.1,33.5-5c1.2-0.6,2.6,0,3.2,1.2
			c0.6,1.2,0,2.6-1.2,3.2C-447.6,438.1-456.9,440.2-466.2,440.2z"/>
	</g>
</g>
<g>
	<g>
		<path class="st1" d="M150.4,416.4c-0.5,0-0.9-0.1-1.4-0.4c-7-4.8-12-12.8-13.7-22c-1.6-8.7-0.4-17.4,1-24.8
			c0.2-1.3,1.5-2.2,2.8-1.9c1.3,0.2,2.2,1.5,1.9,2.8c-1.3,7-2.4,15.2-1,23.1c1.4,7.9,5.7,14.8,11.6,18.9c1.1,0.7,1.4,2.2,0.6,3.3
			C151.9,416,151.2,416.4,150.4,416.4z"/>
	</g>
	<g>
		<path class="st1" d="M149.2,402.3c-1,0-1.9-0.6-2.2-1.5c-5.8-15.3-5-28.9,2.5-40.3c0.7-1.1,2.2-1.4,3.3-0.7
			c1.1,0.7,1.4,2.2,0.7,3.3c-6.7,10.2-7.3,21.9-2,35.9c0.5,1.2-0.2,2.6-1.4,3.1C149.8,402.3,149.5,402.3,149.2,402.3z"/>
	</g>
	<g>
		<path class="st1" d="M158.5,399.7c-0.9,0-1.7-0.5-2.2-1.3c-6.1-12.3-4.8-28.3,3.2-39.7c0.8-1.1,2.3-1.4,3.3-0.6
			c1.1,0.8,1.4,2.3,0.6,3.3c-7,10.1-8.2,24.1-2.9,34.8c0.6,1.2,0.1,2.6-1.1,3.2C159.2,399.7,158.8,399.7,158.5,399.7z"/>
	</g>
	<g>
		<path class="st1" d="M183.3,425.8c-3,0-6-0.2-9-0.6c-2.8-0.4-6.1-1.1-9-2.8c-3.1-1.9-4.7-5-4.1-7.8c0.4-1.7,1.5-3.2,3.4-4.6
			c3.4-2.5,7.4-3.7,10.9-4.6c0.9-0.2,2-0.4,3.1-0.5c3.1-0.4,7.7-1.1,8-3.2c0.1-0.4,0.1-0.9-0.2-1.2c-0.1-0.1-0.9-0.8-3.8-0.6
			c-1,0.1-2.1,0.2-3.3,0.4c-3.4,0.6-7.6,1.3-11.1-1.4c-5.9-4.6-6-13.8-5.7-17.5c0.3-4.5,1.5-9.2,3.7-14.7c0.5-1.2,1.9-1.8,3.1-1.3
			c1.2,0.5,1.8,1.9,1.3,3.1c-2.1,5.1-3.1,9.3-3.4,13.2c-0.1,2.3-0.3,10.2,3.9,13.4c1.8,1.4,4.5,0.9,7.4,0.5c1.3-0.2,2.6-0.4,3.8-0.5
			c3.6-0.2,6.1,0.5,7.6,2.2c0.8,0.9,1.7,2.5,1.4,5.1c-0.8,5.6-7.6,6.6-12,7.3c-1,0.2-2,0.3-2.6,0.5c-3,0.8-6.5,1.8-9.2,3.8
			c-0.9,0.7-1.4,1.2-1.5,1.7c-0.2,0.7,0.7,1.9,1.9,2.7c2.1,1.3,4.8,1.8,7.1,2.2c11.4,1.6,22.9-0.1,33.5-5c1.2-0.6,2.6,0,3.2,1.2
			c0.6,1.2,0,2.6-1.2,3.2C201.9,423.7,192.6,425.8,183.3,425.8z"/>
	</g>
</g>
<g>
	<g>
		<path class="st3" d="M412.6,483.9c-0.2,0-0.5,0-0.7-0.1c-1.3-0.4-2-1.7-1.6-3c2.1-6.8,4.2-14.8,3.8-22.8c-0.5-8-3.8-15.4-9.3-20.2
			c-1-0.9-1.1-2.4-0.2-3.4c0.9-1,2.4-1.1,3.4-0.2c6.4,5.6,10.4,14.2,10.9,23.5c0.5,8.8-1.7,17.3-4,24.5
			C414.6,483.3,413.7,483.9,412.6,483.9z"/>
	</g>
	<g>
		<path class="st3" d="M399.1,490.1c-0.5,0-1.1-0.2-1.5-0.6c-1-0.9-1.1-2.4-0.3-3.4c7.9-9.3,9.9-20.9,6.4-35.4
			c-0.3-1.3,0.5-2.6,1.8-2.9c1.3-0.3,2.6,0.5,2.9,1.8c3.9,15.9,1.4,29.2-7.4,39.7C400.4,489.8,399.8,490.1,399.1,490.1z"/>
	</g>
	<g>
		<path class="st3" d="M388.9,490.6c-0.6,0-1.1-0.2-1.6-0.6c-1-0.9-1.1-2.4-0.2-3.4c8.2-9.1,11.1-22.9,7.1-34.2
			c-0.4-1.3,0.2-2.6,1.5-3.1c1.3-0.4,2.6,0.2,3.1,1.5c4.5,13,1.3,28.6-8,39C390.2,490.3,389.5,490.6,388.9,490.6z"/>
	</g>
	<g>
		<path class="st3" d="M382.9,482.4c-0.4,0-0.8-0.1-1.2-0.3c-1.2-0.6-1.6-2.1-0.9-3.3c2.7-4.8,4.3-8.8,5-12.7
			c0.4-2.3,1.5-10.1-2.2-13.8c-1.6-1.6-4.3-1.5-7.2-1.4c-1.3,0.1-2.6,0.1-3.9,0c-3.6-0.3-6-1.3-7.3-3.1c-0.7-1-1.4-2.7-0.7-5.2
			c1.5-5.5,8.3-5.7,12.8-5.8c1,0,2,0,2.7-0.1c3.1-0.4,6.6-1,9.6-2.6c1-0.5,1.6-1,1.7-1.5c0.2-0.7-0.4-1.9-1.6-2.9
			c-2-1.6-4.5-2.4-6.8-3c-11.1-3-22.8-2.7-33.9,0.9c-1.3,0.4-2.6-0.3-3-1.5c-0.4-1.3,0.3-2.6,1.5-3c12-3.9,24.7-4.2,36.6-1
			c2.7,0.7,5.9,1.8,8.5,3.9c2.9,2.3,4.1,5.5,3.1,8.2c-0.6,1.6-1.9,3-3.9,4.1c-3.7,2-7.8,2.8-11.4,3.2c-0.9,0.1-2,0.1-3.2,0.2
			c-3.1,0.1-7.8,0.2-8.3,2.2c-0.1,0.4-0.2,0.9,0,1.2c0.1,0.1,0.8,0.9,3.7,1.1c1,0.1,2.1,0,3.3,0c3.4-0.2,7.7-0.4,10.9,2.7
			c5.3,5.3,4.2,14.4,3.6,18.1c-0.8,4.4-2.6,8.9-5.5,14.2C384.6,482,383.7,482.4,382.9,482.4z"/>
	</g>
</g>
<g>
	<g>
		<path class="st2" d="M299.4,455.2c-0.5,0-0.9-0.1-1.4-0.4c-7-4.8-12-12.8-13.7-22c-1.6-8.7-0.4-17.4,1-24.8
			c0.2-1.3,1.5-2.2,2.8-1.9c1.3,0.2,2.2,1.5,1.9,2.8c-1.3,7-2.4,15.2-1,23.1c1.4,7.9,5.7,14.8,11.6,18.9c1.1,0.7,1.4,2.2,0.6,3.3
			C300.9,454.9,300.1,455.2,299.4,455.2z"/>
	</g>
	<g>
		<path class="st2" d="M298.1,441.2c-1,0-1.9-0.6-2.2-1.5c-5.8-15.3-5-28.9,2.5-40.3c0.7-1.1,2.2-1.4,3.3-0.7
			c1.1,0.7,1.4,2.2,0.7,3.3c-6.7,10.2-7.3,21.9-2,35.9c0.5,1.2-0.2,2.6-1.4,3.1C298.7,441.1,298.4,441.2,298.1,441.2z"/>
	</g>
	<g>
		<path class="st2" d="M307.4,438.6c-0.9,0-1.7-0.5-2.2-1.3c-6.1-12.3-4.8-28.3,3.2-39.7c0.8-1.1,2.3-1.4,3.3-0.6
			c1.1,0.8,1.4,2.3,0.6,3.3c-7,10.1-8.2,24.1-2.9,34.8c0.6,1.2,0.1,2.6-1.1,3.2C308.1,438.5,307.8,438.6,307.4,438.6z"/>
	</g>
	<g>
		<path class="st2" d="M332.2,464.6c-3,0-6-0.2-9-0.6c-2.8-0.4-6.1-1.1-9-2.8c-3.1-1.9-4.7-5-4.1-7.8c0.4-1.7,1.5-3.2,3.4-4.6
			c3.4-2.5,7.4-3.7,10.9-4.6c0.9-0.2,2-0.4,3.1-0.5c3.1-0.4,7.7-1.1,8-3.2c0.1-0.4,0.1-0.9-0.2-1.2c-0.1-0.1-0.9-0.8-3.8-0.6
			c-1,0.1-2.1,0.2-3.3,0.4c-3.4,0.6-7.6,1.3-11.1-1.4c-5.9-4.6-6-13.8-5.7-17.5c0.3-4.5,1.5-9.2,3.7-14.7c0.5-1.2,1.9-1.8,3.1-1.3
			c1.2,0.5,1.8,1.9,1.3,3.1c-2.1,5.1-3.1,9.3-3.4,13.2c-0.1,2.3-0.3,10.2,3.9,13.4c1.8,1.4,4.5,0.9,7.4,0.5c1.3-0.2,2.6-0.4,3.8-0.5
			c3.6-0.2,6.1,0.5,7.6,2.2c0.8,0.9,1.7,2.5,1.4,5.1c-0.8,5.6-7.6,6.6-12,7.3c-1,0.2-2,0.3-2.6,0.5c-3,0.8-6.5,1.8-9.2,3.8
			c-0.9,0.7-1.4,1.2-1.5,1.7c-0.2,0.7,0.7,1.9,1.9,2.7c2.1,1.3,4.8,1.8,7.1,2.2c11.4,1.6,22.9-0.1,33.5-5c1.2-0.6,2.6,0,3.2,1.2
			c0.6,1.2,0,2.6-1.2,3.2C350.8,462.6,341.5,464.6,332.2,464.6z"/>
	</g>
</g>
<g>
	<path class="st4" d="M-460.6,562.4h-6.5c0.2,1.4,1,2,2.4,2c1.2,0,2.1-0.5,2.9-1c0.6,0.5,1,1.3,1.1,2.1c-0.9,0.7-2.2,1.4-4.3,1.4
		c-3,0-5.2-1.9-5.2-5.2c0-3.1,2.2-5.3,5.1-5.3c2.8,0,4.6,1.8,4.6,4.5C-460.5,561.5-460.5,561.9-460.6,562.4z M-463.4,560.7
		c0-1-0.5-1.8-1.7-1.9c-1.2,0-1.9,0.8-2,1.9H-463.4z"/>
	<path class="st4" d="M-449.7,556.9c-0.9,3.8-1.9,6.7-3.7,9.6c-0.5,0.1-1,0.1-1.5,0.1c-0.5,0-1,0-1.5-0.1c-2-3-2.9-5.9-3.7-9.6
		c0.4-0.1,1.4-0.2,2.2-0.2c0.4,0,0.8,0,1.1,0.1c0.6,2.8,1.3,5.5,1.8,6.7c0,0.1,0.1,0.3,0.1,0.5c0-0.2,0.1-0.3,0.1-0.5
		c0.6-1.4,1.3-3.9,1.8-6.7c0.4,0,0.8-0.1,1.2-0.1C-451,556.7-450.3,556.8-449.7,556.9z"/>
	<path class="st4" d="M-449.6,561.7c0-3.2,2.3-5.2,5.4-5.2c3.1,0,5.4,2,5.4,5.2c0,3.1-2.3,5.2-5.4,5.2S-449.6,564.9-449.6,561.7z
		 M-441.9,561.7c0-1.6-0.8-2.7-2.3-2.7s-2.3,1.1-2.3,2.7c0,1.6,0.8,2.7,2.3,2.7S-441.9,563.2-441.9,561.7z"/>
	<path class="st4" d="M-437.6,566.5V553c0.5-0.1,1-0.1,1.5-0.1s1.1,0,1.6,0.1v13.5c-0.5,0.1-1,0.1-1.5,0.1
		C-436.5,566.7-437,566.6-437.6,566.5z"/>
	<path class="st4" d="M-423.2,556.8v8.9c-0.8,0.4-2.5,1.1-4.9,1.1c-3.4,0-4.7-1.6-4.7-4v-6.1c0.5-0.1,1-0.1,1.5-0.1
		c0.5,0,1,0,1.5,0.1v5.4c0,1.3,0.4,2,1.9,2c0.6,0,1.1-0.1,1.5-0.3v-7.1c0.5-0.1,1-0.1,1.5-0.1C-424.2,556.7-423.7,556.8-423.2,556.8
		z"/>
	<path class="st4" d="M-421.9,561.7c0-3.2,2.3-5.3,5.3-5.3c1.5,0,2.8,0.6,3.4,1.1c-0.2,0.8-0.8,1.7-1.6,2.2c-0.4-0.4-1-0.7-1.7-0.7
		c-1.5,0-2.3,1.1-2.3,2.6c0,1.5,0.7,2.7,2.3,2.7c1,0,1.5-0.3,1.9-0.7c0.8,0.4,1.3,1.1,1.6,2c-0.7,0.6-1.9,1.3-3.5,1.3
		C-419.9,566.9-421.9,565-421.9,561.7z"/>
	<path class="st4" d="M-412.4,553.6c0-1,0.8-1.8,1.9-1.8c1,0,1.9,0.8,1.9,1.8c0,1-0.8,1.9-1.9,1.9
		C-411.5,555.5-412.4,554.6-412.4,553.6z M-412,566.5v-9.8c0.5-0.1,1-0.1,1.5-0.1c0.5,0,1,0,1.5,0.1v9.8c-0.5,0.1-1,0.1-1.5,0.1
		C-411,566.7-411.5,566.6-412,566.5z"/>
	<path class="st4" d="M-407.7,561.7c0-3.2,2.3-5.2,5.4-5.2c3.1,0,5.4,2,5.4,5.2c0,3.1-2.3,5.2-5.4,5.2S-407.7,564.9-407.7,561.7z
		 M-404.9,554.6l3.6-3.3c0.9,0.5,1.4,1.3,1.7,2.4l-4.4,2.2C-404.4,555.6-404.7,555.2-404.9,554.6z M-400,561.7
		c0-1.6-0.8-2.7-2.3-2.7s-2.3,1.1-2.3,2.7c0,1.6,0.8,2.7,2.3,2.7S-400,563.2-400,561.7z"/>
	<path class="st4" d="M-386,560.6v6c-0.5,0.1-1,0.1-1.5,0.1s-1,0-1.5-0.1v-5.5c0-1.4-0.8-1.9-1.9-1.9c-0.7,0-1.3,0.2-1.7,0.4v6.9
		c-0.5,0.1-1,0.1-1.5,0.1s-1,0-1.5-0.1V558c0.8-0.7,2.5-1.6,5-1.6C-387.5,556.4-386,558.2-386,560.6z"/>
</g>
<g>
	<path class="st4" d="M271.3,566.4c-0.6,0.1-1.3,0.2-2,0.2c-0.4,0-0.8,0-1.1-0.1l-1-2.6h-4.9l-1,2.6c-0.5,0.1-1,0.1-1.4,0.1
		c-0.6,0-1.2-0.1-1.6-0.2l5-13.1c0.5-0.1,1.1-0.1,1.6-0.1c0.5,0,1,0,1.5,0.1L271.3,566.4z M266.2,561.4l-1.1-3.1l-0.4-1.3l-0.4,1.3
		l-1.1,3.1H266.2z"/>
	<path class="st4" d="M284.1,559.8c0,4.4-3,7-7.5,7c-1.9,0-3.1-0.1-4.3-0.3v-13.2c1.1-0.2,2.4-0.3,4.3-0.3
		C281.4,553,284.1,555.7,284.1,559.8z M280.7,559.8c0-2.4-1.4-3.9-4.1-3.9c-0.4,0-0.8,0-1.3,0v7.9c0.5,0,0.9,0,1.4,0
		C279.3,563.9,280.7,562.3,280.7,559.8z"/>
	<path class="st4" d="M297.2,553.3v13.2c-1,0.2-2,0.2-3,0.2l-5.1-7.5l-0.4-0.8l0.1,1v7.3c-0.5,0.1-1.1,0.1-1.5,0.1
		c-0.5,0-0.9,0-1.5-0.1v-13.1c0.7-0.2,1.9-0.3,3-0.2l5.1,7.7l0.5,0.8l-0.1-1.1v-7.4c0.6-0.1,1-0.1,1.5-0.1
		C296.2,553.2,296.7,553.2,297.2,553.3z"/>
</g>
<g>
	<path class="st4" d="M-136.6,561.7c0-3.2,2.3-5.3,5.3-5.3c1.5,0,2.8,0.6,3.4,1.1c-0.2,0.8-0.8,1.7-1.6,2.2c-0.4-0.4-1-0.7-1.7-0.7
		c-1.5,0-2.3,1.1-2.3,2.6c0,1.5,0.7,2.7,2.3,2.7c1,0,1.5-0.3,1.9-0.7c0.8,0.4,1.3,1.1,1.6,2c-0.7,0.6-1.9,1.3-3.5,1.3
		C-134.5,566.9-136.6,565-136.6,561.7z"/>
	<path class="st4" d="M-127.5,561.7c0-3.2,2.3-5.2,5.4-5.2c3.1,0,5.4,2,5.4,5.2c0,3.1-2.3,5.2-5.4,5.2S-127.5,564.9-127.5,561.7z
		 M-119.8,561.7c0-1.6-0.8-2.7-2.3-2.7s-2.3,1.1-2.3,2.7c0,1.6,0.8,2.7,2.3,2.7S-119.8,563.2-119.8,561.7z"/>
	<path class="st4" d="M-99.6,560.4v6.2c-0.5,0.1-1,0.1-1.5,0.1s-1,0-1.5-0.1v-5.5c0-1.2-0.6-1.9-1.7-1.9c-0.8,0-1.3,0.3-1.7,0.6
		c0,0.2,0,0.4,0,0.6v6.2c-0.5,0.1-1,0.1-1.5,0.1s-1,0-1.5-0.1v-5.5c0-1.2-0.6-1.9-1.8-1.9c-0.7,0-1.2,0.2-1.6,0.4v6.9
		c-0.5,0.1-1,0.1-1.5,0.1s-1,0-1.5-0.1V558c0.7-0.6,2.5-1.6,5-1.6c1.4,0,2.5,0.4,3.2,0.9c0.8-0.5,1.9-0.9,3.2-0.9
		C-101.1,556.4-99.6,558.1-99.6,560.4z"/>
	<path class="st4" d="M-88.4,556.8v8.9c-0.8,0.4-2.5,1.1-4.9,1.1c-3.4,0-4.7-1.6-4.7-4v-6.1c0.5-0.1,1-0.1,1.5-0.1
		c0.5,0,1,0,1.5,0.1v5.4c0,1.3,0.4,2,1.9,2c0.6,0,1.1-0.1,1.5-0.3v-7.1c0.5-0.1,1-0.1,1.5-0.1C-89.5,556.7-88.9,556.8-88.4,556.8z"
		/>
	<path class="st4" d="M-77,560.6v6c-0.5,0.1-1,0.1-1.5,0.1s-1,0-1.5-0.1v-5.5c0-1.4-0.8-1.9-1.9-1.9c-0.7,0-1.3,0.2-1.7,0.4v6.9
		c-0.5,0.1-1,0.1-1.5,0.1s-1,0-1.5-0.1V558c0.8-0.7,2.5-1.6,5-1.6C-78.5,556.4-77,558.2-77,560.6z"/>
	<path class="st4" d="M-75.7,553.6c0-1,0.8-1.8,1.9-1.8c1,0,1.9,0.8,1.9,1.8c0,1-0.8,1.9-1.9,1.9C-74.8,555.5-75.7,554.6-75.7,553.6
		z M-75.4,566.5v-9.8c0.5-0.1,1-0.1,1.5-0.1c0.5,0,1,0,1.5,0.1v9.8c-0.5,0.1-1,0.1-1.5,0.1C-74.3,566.7-74.8,566.6-75.4,566.5z"/>
	<path class="st4" d="M-60.9,553v13c-1,0.5-2.7,1-4.4,1c-3.6,0-5.7-1.9-5.7-5.2c0-3.2,2.4-5.2,5.5-5.2c0.6,0,1.1,0.1,1.6,0.2V553
		c0.5-0.1,1-0.1,1.5-0.1C-61.9,552.8-61.4,552.9-60.9,553z M-63.9,564.1v-4.7c-0.5-0.2-0.9-0.3-1.4-0.3c-1.5,0-2.6,1-2.6,2.6
		c0,1.6,1,2.6,2.5,2.6C-64.9,564.3-64.4,564.2-63.9,564.1z"/>
	<path class="st4" d="M-50.3,560.8v5.1c-1.5,0.6-3.2,1-5,1c-2.8,0-4.4-1.1-4.4-3.2c0-2.1,1.8-3.1,4.3-3.1c0.8,0,1.5,0.1,2.1,0.3
		v-0.4c0-0.8-0.6-1.4-2-1.4c-1.2,0-2.1,0.5-2.7,0.8c-0.7-0.4-1.2-1.1-1.3-2c0.6-0.5,2.1-1.4,4.3-1.4
		C-52.2,556.5-50.3,557.7-50.3,560.8z M-54.8,564.7c0.5,0,1-0.1,1.5-0.2v-1.8c-0.5-0.1-1.1-0.2-1.7-0.2c-1,0-1.6,0.3-1.6,1.1
		C-56.6,564.3-56,564.7-54.8,564.7z"/>
	<path class="st4" d="M-39.1,553v13c-1,0.5-2.7,1-4.4,1c-3.6,0-5.7-1.9-5.7-5.2c0-3.2,2.4-5.2,5.5-5.2c0.6,0,1.1,0.1,1.6,0.2V553
		c0.5-0.1,1-0.1,1.5-0.1C-40.1,552.8-39.6,552.9-39.1,553z M-42.2,564.1v-4.7c-0.5-0.2-0.9-0.3-1.4-0.3c-1.5,0-2.6,1-2.6,2.6
		c0,1.6,1,2.6,2.5,2.6C-43.1,564.3-42.7,564.2-42.2,564.1z"/>
	<path class="st4" d="M-149.3,582.2c-0.1-0.3-0.2-0.8-0.2-1.3c0-1.5,0.9-3.1,1.9-3.9c0.4,0,1,0.3,1.1,0.7c-0.5,0.8-0.6,1.8-0.6,2.6
		c0,0.7,0.1,1.3,0.4,1.8c-0.4,0.2-1,0.3-1.5,0.3C-148.7,582.4-149,582.3-149.3,582.2z M-145.7,582.2c-0.1-0.3-0.2-0.8-0.2-1.3
		c0-1.5,1-3.1,1.9-3.9c0.4,0,1,0.3,1.1,0.7c-0.5,0.8-0.6,1.8-0.6,2.6c0,0.7,0.1,1.3,0.4,1.8c-0.4,0.2-1,0.3-1.5,0.3
		C-145.1,582.4-145.5,582.3-145.7,582.2z"/>
	<path class="st4" d="M-142.7,586.5c0-3.2,2.3-5.3,5.3-5.3c1.5,0,2.8,0.6,3.4,1.1c-0.2,0.8-0.8,1.7-1.6,2.2c-0.4-0.4-1-0.7-1.7-0.7
		c-1.5,0-2.3,1.1-2.3,2.6c0,1.5,0.7,2.7,2.3,2.7c1,0,1.5-0.3,1.9-0.7c0.8,0.4,1.3,1.1,1.6,2c-0.7,0.6-1.9,1.3-3.5,1.3
		C-140.6,591.7-142.7,589.8-142.7,586.5z"/>
	<path class="st4" d="M-123.2,585.1v6.2c-0.5,0.1-1,0.1-1.5,0.1c-0.5,0-1,0-1.5-0.1v-5.5c0-1.2-0.6-1.9-1.8-1.9
		c-0.6,0-1.2,0.2-1.7,0.5v6.9c-0.5,0.1-1,0.1-1.5,0.1c-0.5,0-1,0-1.6-0.1v-13.5c0.5-0.1,1-0.1,1.5-0.1c0.5,0,1,0,1.6,0.1v3.8
		c0.6-0.2,1.3-0.4,2.1-0.4C-124.7,581.2-123.2,582.9-123.2,585.1z"/>
	<path class="st4" d="M-122,586.4c0-3.2,2.3-5.2,5.4-5.2c3.1,0,5.4,2,5.4,5.2c0,3.1-2.3,5.2-5.4,5.2S-122,589.7-122,586.4z
		 M-114.3,586.4c0-1.6-0.8-2.7-2.3-2.7s-2.3,1.1-2.3,2.7c0,1.6,0.8,2.7,2.3,2.7S-114.3,588-114.3,586.4z"/>
	<path class="st4" d="M-110.5,586.5c0-3.2,2.3-5.3,5.3-5.3c1.5,0,2.8,0.6,3.4,1.1c-0.2,0.8-0.8,1.7-1.6,2.2c-0.4-0.4-1-0.7-1.7-0.7
		c-1.5,0-2.3,1.1-2.3,2.6c0,1.5,0.7,2.7,2.3,2.7c1,0,1.5-0.3,1.9-0.7c0.8,0.4,1.3,1.1,1.6,2c-0.7,0.6-1.9,1.3-3.5,1.3
		C-108.4,591.7-110.5,589.8-110.5,586.5z"/>
	<path class="st4" d="M-91.8,585.6v5.1c-1.5,0.6-3.2,1-5,1c-2.8,0-4.4-1.1-4.4-3.2c0-2.1,1.8-3.1,4.3-3.1c0.8,0,1.5,0.1,2.1,0.3
		v-0.4c0-0.8-0.6-1.4-2-1.4c-1.2,0-2.1,0.5-2.7,0.8c-0.7-0.4-1.2-1.1-1.3-2c0.6-0.5,2.1-1.4,4.3-1.4
		C-93.8,581.3-91.8,582.5-91.8,585.6z M-96.3,589.5c0.5,0,1-0.1,1.5-0.2v-1.8c-0.5-0.1-1.1-0.2-1.7-0.2c-1,0-1.6,0.3-1.6,1.1
		C-98.1,589-97.5,589.5-96.3,589.5z"/>
	<path class="st4" d="M-77.3,587.2h-6.5c0.2,1.4,1,2,2.4,2c1.2,0,2.1-0.5,2.9-1c0.6,0.5,1,1.3,1.1,2.1c-0.9,0.7-2.2,1.4-4.3,1.4
		c-3,0-5.2-1.9-5.2-5.2c0-3.1,2.2-5.3,5.1-5.3c2.8,0,4.6,1.8,4.6,4.5C-77.2,586.3-77.2,586.7-77.3,587.2z M-80.1,585.5
		c0-1-0.5-1.8-1.7-1.9c-1.2,0-1.9,0.8-2,1.9H-80.1z"/>
	<path class="st4" d="M-76.4,590.4c0.2-1,0.6-1.7,1.2-2.1c0.7,0.5,1.7,1,3.2,1c1,0,1.3-0.4,1.3-0.8c0-0.5-0.5-0.8-2.1-1.1
		c-1.6-0.3-3.3-0.9-3.3-3.1c0-2,1.9-3.2,4.3-3.2c2,0,3.3,0.5,4,0.9c-0.1,1-0.5,1.7-1.1,2.1c-0.7-0.4-1.8-0.7-2.9-0.7
		c-1,0-1.4,0.2-1.4,0.7c0,0.5,0.4,0.7,2,1c1.9,0.3,3.6,1,3.6,3.1c0,2-1.6,3.3-4.4,3.3C-74.3,591.7-75.8,591-76.4,590.4z"/>
	<path class="st4" d="M-66.8,586.4c0-3.2,2.3-5.2,5.4-5.2c3.1,0,5.4,2,5.4,5.2c0,3.1-2.3,5.2-5.4,5.2S-66.8,589.7-66.8,586.4z
		 M-59.2,586.4c0-1.6-0.8-2.7-2.3-2.7s-2.3,1.1-2.3,2.7c0,1.6,0.8,2.7,2.3,2.7S-59.2,588-59.2,586.4z"/>
	<path class="st4" d="M-55.4,590.4c0.2-1,0.6-1.7,1.2-2.1c0.7,0.5,1.7,1,3.2,1c1,0,1.3-0.4,1.3-0.8c0-0.5-0.5-0.8-2.1-1.1
		c-1.6-0.3-3.3-0.9-3.3-3.1c0-2,1.9-3.2,4.3-3.2c2,0,3.3,0.5,4,0.9c-0.1,1-0.5,1.7-1.1,2.1c-0.7-0.4-1.8-0.7-2.9-0.7
		c-1,0-1.4,0.2-1.4,0.7c0,0.5,0.4,0.7,2,1c1.9,0.3,3.6,1,3.6,3.1c0,2-1.6,3.3-4.4,3.3C-53.3,591.7-54.8,591-55.4,590.4z"/>
	<path class="st4" d="M-41.8,590.3c0.2-1,0.7-1.9,1.4-2.4c0.4,0.3,1.5,1,2.9,1c1.6,0,2.3-0.8,2.3-2c0-1.1-0.7-1.8-2.2-1.8
		c-1.3,0-2.4,0.4-3.2,0.4c-0.5,0-0.7-0.1-0.8-0.1v-7.5h8.5c0.1,0.5,0.1,1,0.1,1.4c0,0.4,0,0.9-0.1,1.3h-5.7v2.1
		c0.3-0.1,0.9-0.2,1.6-0.2c3.4,0,5,1.6,5,4.3c0,3-2,4.8-5.6,4.8C-39.8,591.7-41.2,590.9-41.8,590.3z"/>
	<path class="st4" d="M-31,581.8c0.5-0.8,0.6-1.8,0.6-2.6c0-0.7-0.1-1.3-0.4-1.8c0.4-0.2,0.9-0.3,1.5-0.3c0.4,0,0.7,0,1,0.1
		c0.1,0.4,0.2,0.8,0.2,1.3c0,1.5-1,3.1-1.9,3.9C-30.3,582.4-30.9,582.1-31,581.8z M-27.4,581.8c0.5-0.8,0.6-1.8,0.6-2.6
		c0-0.7-0.1-1.3-0.4-1.8c0.4-0.2,0.9-0.3,1.5-0.3c0.3,0,0.7,0,1,0.1c0.1,0.4,0.2,0.8,0.2,1.3c0,1.5-1,3.1-1.9,3.9
		C-26.7,582.4-27.3,582.1-27.4,581.8z"/>
</g>
<g>
	<g>
		<path class="st3" d="M-56.3,415.2c-0.5,0-0.9-0.1-1.4-0.4c-1.1-0.7-1.4-2.2-0.6-3.3c4.8-7,12.8-12,22-13.7
			c8.7-1.6,17.4-0.4,24.8,1c1.3,0.2,2.2,1.5,1.9,2.8c-0.2,1.3-1.5,2.2-2.8,1.9c-7-1.3-15.2-2.4-23.1-1c-7.9,1.4-14.8,5.7-18.9,11.7
			C-54.8,414.9-55.6,415.2-56.3,415.2z"/>
	</g>
	<g>
		<path class="st3" d="M-4.2,416.2c-0.5,0-0.9-0.1-1.3-0.4c-10.2-6.7-21.9-7.3-35.9-2c-1.2,0.5-2.6-0.2-3.1-1.4
			c-0.5-1.2,0.2-2.6,1.4-3.1c15.3-5.8,28.9-5,40.3,2.5c1.1,0.7,1.4,2.2,0.7,3.3C-2.6,415.9-3.4,416.2-4.2,416.2z"/>
	</g>
	<g>
		<path class="st3" d="M-2.4,426.3c-0.5,0-1-0.1-1.4-0.4c-10.1-7-24.1-8.2-34.8-2.9c-1.2,0.6-2.6,0.1-3.2-1.1
			c-0.6-1.2-0.1-2.6,1.1-3.2c12.3-6.1,28.3-4.8,39.7,3.2c1.1,0.8,1.4,2.3,0.6,3.3C-0.9,426-1.6,426.3-2.4,426.3z"/>
	</g>
	<g>
		<path class="st3" d="M-59.8,474.3c-0.9,0-1.8-0.5-2.2-1.4c-5.3-11.4-7.2-24-5.5-36.2c0.4-2.8,1.1-6.1,2.8-9c1.9-3.1,5-4.7,7.8-4.1
			c1.7,0.4,3.2,1.5,4.6,3.4c2.5,3.4,3.7,7.4,4.6,10.9c0.2,0.9,0.4,2,0.5,3.1c0.4,3.1,1.1,7.7,3.2,8c0.4,0.1,0.9,0.1,1.2-0.2
			c0.1-0.1,0.8-0.9,0.6-3.8c-0.1-1-0.2-2.1-0.4-3.3c-0.6-3.4-1.3-7.6,1.4-11.1c4.6-5.9,13.8-6,17.5-5.7c4.5,0.3,9.2,1.5,14.7,3.7
			c1.2,0.5,1.8,1.9,1.3,3.1c-0.5,1.2-1.9,1.8-3.1,1.3c-5.1-2.1-9.3-3.1-13.2-3.4c-2.3-0.2-10.2-0.3-13.4,3.9
			c-1.4,1.8-0.9,4.5-0.5,7.4c0.2,1.3,0.4,2.6,0.5,3.8c0.2,3.6-0.5,6.1-2.2,7.6c-0.9,0.8-2.5,1.7-5.1,1.4c-5.6-0.8-6.6-7.6-7.3-12
			c-0.2-1-0.3-2-0.5-2.6c-0.8-3-1.8-6.5-3.8-9.2c-0.7-0.9-1.2-1.4-1.7-1.5c-0.7-0.2-1.9,0.7-2.7,1.9c-1.3,2.1-1.8,4.8-2.2,7.1
			c-1.6,11.4,0.1,22.9,5,33.5c0.6,1.2,0,2.6-1.2,3.2C-59.2,474.2-59.5,474.3-59.8,474.3z"/>
	</g>
</g>
<g>
	<g>
		<path class="st3" d="M-122.6,415.2c-0.8,0-1.5-0.4-2-1.1c-4.1-6-11-10.2-18.9-11.7c-7.9-1.4-16.1-0.3-23.1,1
			c-1.3,0.2-2.6-0.6-2.8-1.9c-0.2-1.3,0.6-2.6,1.9-2.8c7.4-1.4,16.2-2.5,24.8-1c9.2,1.7,17.2,6.6,22,13.7c0.7,1.1,0.5,2.6-0.6,3.3
			C-121.6,415.1-122.1,415.2-122.6,415.2z"/>
	</g>
	<g>
		<path class="st3" d="M-174.7,416.2c-0.8,0-1.6-0.4-2-1.1c-0.7-1.1-0.4-2.6,0.7-3.3c11.4-7.5,25-8.3,40.3-2.5
			c1.2,0.5,1.9,1.9,1.4,3.1s-1.9,1.9-3.1,1.4c-14-5.3-25.7-4.7-35.9,2C-173.8,416.1-174.3,416.2-174.7,416.2z"/>
	</g>
	<g>
		<path class="st3" d="M-176.5,426.3c-0.8,0-1.5-0.4-2-1c-0.8-1.1-0.5-2.6,0.6-3.3c11.5-8,27.4-9.3,39.7-3.2c1.2,0.6,1.7,2,1.1,3.2
			c-0.6,1.2-2,1.7-3.2,1.1c-10.8-5.3-24.8-4.2-34.8,2.9C-175.5,426.2-176,426.3-176.5,426.3z"/>
	</g>
	<g>
		<path class="st3" d="M-119.1,474.3c-0.3,0-0.7-0.1-1-0.2c-1.2-0.6-1.7-2-1.2-3.2c4.9-10.6,6.7-22.2,5-33.5c-0.3-2.3-0.9-5-2.2-7.1
			c-0.8-1.3-1.9-2.1-2.7-1.9c-0.5,0.1-1,0.6-1.7,1.5c-2,2.8-3,6.2-3.8,9.2c-0.2,0.6-0.3,1.6-0.5,2.6c-0.7,4.5-1.6,11.2-7.3,12
			c-2.6,0.4-4.2-0.5-5.1-1.4c-1.7-1.5-2.4-4-2.2-7.6c0.1-1.3,0.3-2.6,0.5-3.8c0.5-2.9,0.9-5.6-0.5-7.4c-3.3-4.2-11.1-4-13.4-3.9
			c-3.9,0.3-8.2,1.3-13.2,3.4c-1.2,0.5-2.6-0.1-3.1-1.3c-0.5-1.2,0.1-2.6,1.3-3.1c5.6-2.3,10.3-3.5,14.7-3.7
			c3.8-0.2,13-0.2,17.5,5.7c2.7,3.5,2,7.7,1.4,11.1c-0.2,1.2-0.4,2.3-0.4,3.3c-0.2,2.9,0.5,3.7,0.6,3.8c0.2,0.2,0.8,0.2,1.2,0.2
			c2.1-0.3,2.7-4.9,3.2-8c0.2-1.2,0.3-2.2,0.5-3.1c0.9-3.5,2.1-7.4,4.6-10.9c1.4-1.9,2.9-3,4.6-3.4c2.8-0.6,5.9,1,7.8,4.1
			c1.8,2.9,2.4,6.2,2.8,9c1.8,12.3-0.1,24.8-5.5,36.2C-117.3,473.8-118.2,474.3-119.1,474.3z"/>
	</g>
</g>
<g>
	<path class="st3" d="M-160.1,361.4c-0.4,0.3-0.8,0.5-1.3,0.5c-12.3,0.8-23.9,8.6-29,19.5c-0.6,1.2-2,1.7-3.2,1.2
		c-1.2-0.6-1.7-2-1.2-3.2c5.8-12.4,19.1-21.4,33.1-22.2c1.3-0.1,2.5,0.9,2.5,2.2C-159.2,360.2-159.5,360.9-160.1,361.4z"/>
</g>
<g>
	<path class="st3" d="M21.2,393.3c-0.4-0.2-0.8-0.6-1-1.1c-5.2-11.1-16.7-19.1-28.7-19.9c-1.3-0.1-2.3-1.2-2.2-2.6
		c0.1-1.3,1.2-2.3,2.6-2.2c13.7,0.9,26.9,10,32.8,22.7c0.6,1.2,0,2.6-1.2,3.2C22.7,393.7,21.9,393.7,21.2,393.3z"/>
</g>
<g>
	<path class="st3" d="M24.1,382.1c-0.3-0.2-0.6-0.5-0.8-0.8c-4-8.6-12.9-14.8-22.2-15.4c-1-0.1-1.8-0.9-1.7-2s0.9-1.8,2-1.7
		c10.6,0.7,20.8,7.7,25.3,17.5c0.4,0.9,0,2-0.9,2.5C25.3,382.4,24.6,382.4,24.1,382.1z"/>
</g>
<g>
	<path class="st3" d="M-172.1,356.4c-0.3,0.2-0.6,0.4-1,0.5c-9.4,1.1-18.1,7.7-21.5,16.3c-0.4,1-1.5,1.4-2.4,1c-1-0.4-1.4-1.5-1-2.4
		c4-9.8,13.8-17.3,24.5-18.6c1-0.1,1.9,0.6,2.1,1.6C-171.4,355.5-171.7,356.1-172.1,356.4z"/>
</g>
</svg>
