<?xml version="1.0" encoding="UTF-8"?>
<svg width="31px" height="32px" viewBox="0 0 31 32" version="1.1" xmlns="http://www.w3.org/2000/svg" xmlns:xlink="http://www.w3.org/1999/xlink">
    <!-- Generator: Sketch 55.2 (78181) - https://sketchapp.com -->
    <title>005-building</title>
    <desc>Created with Sketch.</desc>
    <g id="Page-1" stroke="none" stroke-width="1" fill="none" fill-rule="evenodd">
        <g id="Finalistas" transform="translate(-150.000000, -1064.000000)" fill="#000000" fill-rule="nonzero">
            <g id="Group-4" transform="translate(150.000000, 678.000000)">
                <g id="005-building" transform="translate(0.000000, 386.550202)">
                    <path d="M22.0654994,28.5227047 L7.64565136,28.5227047 C7.3613981,28.5227047 7.13067618,28.7889239 7.13067618,29.1169103 L7.13067618,30.3053912 C7.13067618,30.6333776 7.3613981,30.8995968 7.64565136,30.8995968 C7.92990462,30.8995968 8.16062653,30.6333776 8.16062653,30.3053912 L8.16062653,29.7111856 L22.0654994,29.7111856 C22.3497527,29.7111856 22.5804746,29.4449664 22.5804746,29.11698 C22.5804746,28.7889935 22.349813,28.5227047 22.0654994,28.5227047 Z" id="Path"></path>
                    <path d="M10.6960143,12.4787007 C10.6960143,12.8066872 10.9622308,13.0729063 11.2902141,13.0729063 L13.6671526,13.0729063 C13.9951358,13.0729063 14.2613524,12.8066872 14.2613524,12.4787007 L14.2613524,8.91332782 C14.2613524,8.58534137 13.9951358,8.31912222 13.6671526,8.31912222 L11.2902837,8.31912222 C10.9623005,8.31912222 10.6960839,8.58534137 10.6960839,8.91332782 L10.6960839,12.4787007 L10.6960143,12.4787007 Z M11.8844835,9.50760306 L13.0729528,9.50760306 L13.0729528,11.8844951 L11.8844835,11.8844951 L11.8844835,9.50760306 Z" id="Shape"></path>
                    <path d="M7.7249191,7.13067618 L0.594203119,7.13067618 C0.266218039,7.13067618 0,7.34849012 0,7.61684052 L0,17.3405261 C0,17.6088765 0.266218039,17.8266905 0.594203119,17.8266905 C0.9221882,17.8266905 1.18840624,17.6088765 1.18840624,17.3405261 L1.18840624,8.10306184 L7.7249191,8.10306184 C8.05290418,8.10306184 8.31912222,7.88524791 8.31912222,7.6168975 C8.31912222,7.34854709 8.05297381,7.13067618 7.7249191,7.13067618 Z" id="Path"></path>
                    <path d="M23.7689206,25.5516071 C23.7689206,25.8795935 24.0351424,26.1458127 24.363132,26.1458127 L26.7400473,26.1458127 C27.068037,26.1458127 27.3342587,25.8795935 27.3342587,25.5516071 L27.3342587,21.9862342 C27.3342587,21.6582477 27.068037,21.3920286 26.7400473,21.3920286 L24.363132,21.3920286 C24.0351424,21.3920286 23.7689206,21.6582477 23.7689206,21.9862342 L23.7689206,25.5516071 Z M24.9574131,22.5805094 L26.1459055,22.5805094 L26.1459055,24.9574015 L24.9574131,24.9574015 L24.9574131,22.5805094 Z" id="Shape"></path>
                    <path d="M2.37694769,17.8266905 C0.0270747082,17.8266905 0,24.8370365 0,24.9078268 C0,26.223288 0.81814643,27.323059 1.90152472,27.5763466 L1.90152472,30.3549136 C1.90152472,30.655565 2.11450129,30.8995968 2.37689198,30.8995968 C2.63928267,30.8995968 2.85225923,30.655565 2.85225923,30.3549136 L2.85225923,27.5763466 C3.93563753,27.323059 4.75378404,26.223288 4.75378404,24.9078268 C4.75383967,24.8370365 4.72676496,17.8266905 2.37694769,17.8266905 Z M2.37694769,26.5419401 C1.59066696,26.5419401 0.950790217,25.8087594 0.950790217,24.9078268 C0.950790217,22.1941136 1.58687873,18.9160568 2.37694769,18.9160568 C3.16701664,18.9160568 3.80310516,22.1941136 3.80310516,24.9078268 C3.80310516,25.8087594 3.16322841,26.5419401 2.37694769,26.5419401 Z" id="Shape"></path>
                    <path d="M6.5365344,15.4497984 L4.1595495,15.4497984 C3.83155984,15.4497984 3.56533809,15.7160137 3.56533809,16.0439953 L3.56533809,17.2324587 C3.56533809,17.5604404 3.83155984,17.8266556 4.1595495,17.8266556 C4.48753915,17.8266556 4.75376091,17.5604404 4.75376091,17.2324587 L4.75376091,16.6382618 L5.94225336,16.6382618 L5.94225336,19.6093856 C5.94225336,19.9373673 6.20847511,20.2035825 6.53646476,20.2035825 C6.86445442,20.2035825 7.13067618,19.9373673 7.13067618,19.6093856 L7.13067618,16.0440649 C7.13074581,15.7160137 6.86452406,15.4497984 6.5365344,15.4497984 Z" id="Path"></path>
                    <path d="M24.363132,13.0729063 L26.7400473,13.0729063 C27.068037,13.0729063 27.3342587,12.8066872 27.3342587,12.4787007 L27.3342587,8.91332782 C27.3342587,8.58534137 27.068037,8.31912222 26.7400473,8.31912222 L24.363132,8.31912222 C24.0351424,8.31912222 23.7689206,8.58534137 23.7689206,8.91332782 L23.7689206,12.4787007 C23.7689206,12.8066872 24.0351424,13.0729063 24.363132,13.0729063 Z M24.9574131,9.50753343 L26.1459055,9.50753343 L26.1459055,11.8844255 L24.9574131,11.8844255 L24.9574131,9.50753343 Z" id="Shape"></path>
                    <path d="M6.53653439,8.31912222 L4.1595495,8.31912222 C3.83155984,8.31912222 3.56533809,8.58534137 3.56533809,8.91332782 L3.56533809,12.4787007 C3.56533809,12.8066872 3.83155984,13.0729063 4.1595495,13.0729063 L6.53646475,13.0729063 C6.86445441,13.0729063 7.13067617,12.8066872 7.13067617,12.4787007 L7.13067617,8.91332782 C7.13074579,8.58534137 6.86452404,8.31912222 6.53653439,8.31912222 Z M5.94225335,11.8844951 L4.75383054,11.8844951 L4.75383054,9.50760306 L5.94232298,9.50760306 L5.94232298,11.8844951 L5.94225335,11.8844951 Z" id="Shape"></path>
                    <path d="M16.6382444,12.4787007 C16.6382444,12.8066872 16.9044662,13.0729063 17.2324558,13.0729063 L19.6093711,13.0729063 C19.9373608,13.0729063 20.2035825,12.8066872 20.2035825,12.4787007 L20.2035825,8.91332782 C20.2035825,8.58534137 19.9373608,8.31912222 19.6093711,8.31912222 L17.2324558,8.31912222 C16.9044662,8.31912222 16.6382444,8.58534137 16.6382444,8.91332782 L16.6382444,12.4787007 Z M17.8266672,9.50760306 L19.0151597,9.50760306 L19.0151597,11.8844951 L17.8266672,11.8844951 L17.8266672,9.50760306 Z" id="Shape"></path>
                    <path d="M30.3053937,5.94223015 L23.1746777,5.94223015 C22.8466926,5.94223015 22.5804746,6.17516964 22.5804746,6.46215498 C22.5804746,6.74914033 22.8466926,6.98207981 23.1746777,6.98207981 L29.7111906,6.98207981 L29.7111906,27.8755878 C29.524636,27.8173376 29.3267308,27.779926 29.1169874,27.779926 C29.0142049,27.779926 28.9119794,27.7877251 28.8115644,27.8033235 C28.4015482,27.1570276 27.6213476,26.7400154 26.7401053,26.7400154 C25.858863,26.7400154 25.0786624,27.1570276 24.6686463,27.8033235 C24.5682313,27.7877251 24.4660058,27.779926 24.3632232,27.779926 C23.3803821,27.779926 22.5804746,28.4797803 22.5804746,29.3397614 C22.5804746,30.1997425 23.3803821,30.8995968 24.3632232,30.8995968 L29.1169178,30.8995968 C30.0997589,30.8995968 30.8995968,30.1997425 30.8995968,29.3397614 L30.8995968,6.46215498 C30.8995968,6.17516964 30.6333788,5.94223015 30.3053937,5.94223015 Z M29.1169178,29.8596862 L24.3630839,29.8596862 C24.035656,29.8596862 23.7688808,29.6262593 23.7688808,29.3397614 C23.7688808,29.0532635 24.035656,28.8198366 24.3630839,28.8198366 C24.4771475,28.8198366 24.5852921,28.8484132 24.68515,28.9045917 C24.8479587,28.9961101 25.0512259,29.0127443 25.2306776,28.9493151 C25.4101293,28.8858858 25.5426464,28.749644 25.5860296,28.5848254 C25.7114438,28.1111473 26.1862214,27.779926 26.7400357,27.779926 C27.29385,27.779926 27.7686275,28.1111473 27.8940418,28.5848254 C27.937425,28.749644 28.0699421,28.8858858 28.2493938,28.9493151 C28.4282884,29.0127443 28.632043,28.9961101 28.7949214,28.9045917 C29.1817488,28.6862147 29.7111906,28.9534584 29.7111906,29.3397614 C29.7111209,29.6262593 29.4443458,29.8596862 29.1169178,29.8596862 Z" id="Shape"></path>
                    <path d="M17.2324558,8.31912222 L19.6093711,8.31912222 C19.9373608,8.31912222 20.2035825,8.05290306 20.2035825,7.72491661 L20.2035825,4.1595437 C20.2035825,3.83155725 19.9373608,3.56533809 19.6093711,3.56533809 L17.2324558,3.56533809 C16.9044662,3.56533809 16.6382444,3.83155725 16.6382444,4.1595437 L16.6382444,7.72491661 C16.6382444,8.05290306 16.9044662,8.31912222 17.2324558,8.31912222 Z M17.8266672,4.75374931 L19.0151597,4.75374931 L19.0151597,7.13064137 L17.8266672,7.13064137 L17.8266672,4.75374931 Z" id="Shape"></path>
                    <path d="M16.6382444,19.6093769 C16.6382444,19.9373634 16.9044662,20.2035825 17.2324558,20.2035825 L19.6093711,20.2035825 C19.9373608,20.2035825 20.2035825,19.9373634 20.2035825,19.6093769 L20.2035825,16.044004 C20.2035825,15.7160176 19.9373608,15.4497984 19.6093711,15.4497984 L17.2324558,15.4497984 C16.9044662,15.4497984 16.6382444,15.7160176 16.6382444,16.044004 L16.6382444,19.6093769 Z M17.8266672,16.6382792 L19.0151597,16.6382792 L19.0151597,19.0151713 L17.8266672,19.0151713 L17.8266672,16.6382792 Z" id="Shape"></path>
                    <path d="M11.2902257,8.31912222 L13.667141,8.31912222 C13.9951306,8.31912222 14.2613524,8.05290306 14.2613524,7.72491661 L14.2613524,4.1595437 C14.2613524,3.83155725 13.9951306,3.56533809 13.667141,3.56533809 L11.2902257,3.56533809 C10.9622361,3.56533809 10.6960143,3.83155725 10.6960143,4.1595437 L10.6960143,7.72491661 C10.6959447,8.05290306 10.9621664,8.31912222 11.2902257,8.31912222 Z M11.8844371,4.75374931 L13.0729296,4.75374931 L13.0729296,7.13064137 L11.8844371,7.13064137 L11.8844371,4.75374931 Z" id="Shape"></path>
                    <path d="M15.6221328,25.123321 C15.515181,25.2369 15.4497984,25.3923793 15.4497984,25.5478586 C15.4497984,25.7033379 15.515181,25.8587471 15.6221328,25.9723962 C15.7350032,26.0800195 15.8895123,26.1458127 16.0440214,26.1458127 C16.1985305,26.1458127 16.35297,26.0800195 16.46591,25.9723962 C16.5728618,25.8588171 16.6382444,25.7033379 16.6382444,25.5478586 C16.6382444,25.3923793 16.5728618,25.2369701 16.46591,25.123321 C16.2400997,24.9020485 15.8479431,24.9020485 15.6221328,25.123321 Z" id="Path"></path>
                    <path d="M10.6960143,19.6093769 C10.6960143,19.9373634 10.9622308,20.2035825 11.2902141,20.2035825 L13.6671526,20.2035825 C13.9951358,20.2035825 14.2613524,19.9373634 14.2613524,19.6093769 L14.2613524,16.044004 C14.2613524,15.7160176 13.9951358,15.4497984 13.6671526,15.4497984 L11.2902837,15.4497984 C10.9623005,15.4497984 10.6960839,15.7160176 10.6960839,16.044004 L10.6960839,19.6093769 L10.6960143,19.6093769 Z M11.8844835,16.6382792 L13.0729528,16.6382792 L13.0729528,19.0151713 L11.8844835,19.0151713 L11.8844835,16.6382792 Z" id="Shape"></path>
                    <path d="M10.6960143,21.8871999 C10.6960143,22.1605219 10.9356115,22.3823712 11.2307993,22.3823712 L12.8352171,22.3823712 L12.8352171,26.8390874 C12.8352171,27.1124094 13.0748144,27.3342587 13.3700022,27.3342587 C13.66519,27.3342587 13.9047872,27.1124094 13.9047872,26.8390874 L13.9047872,22.3823712 L18.1832556,22.3823712 L18.1832556,26.8390874 C18.1832556,27.1124094 18.4228528,27.3342587 18.7180407,27.3342587 C19.0132285,27.3342587 19.2528257,27.1124094 19.2528257,26.8390874 L19.2528257,22.3823712 L20.8572435,22.3823712 C21.1524313,22.3823712 21.3920286,22.1605219 21.3920286,21.8871999 C21.3920286,21.6138778 21.1524313,21.3920286 20.8572435,21.3920286 L11.2307993,21.3920286 C10.9356115,21.3920286 10.6960143,21.6138778 10.6960143,21.8871999 Z" id="Path"></path>
                    <path d="M23.7689206,19.6093769 C23.7689206,19.9373634 24.0351424,20.2035825 24.363132,20.2035825 L26.7400473,20.2035825 C27.068037,20.2035825 27.3342587,19.9373634 27.3342587,19.6093769 L27.3342587,16.044004 C27.3342587,15.7160176 27.068037,15.4497984 26.7400473,15.4497984 L24.363132,15.4497984 C24.0351424,15.4497984 23.7689206,15.7160176 23.7689206,16.044004 L23.7689206,19.6093769 Z M24.9574131,16.6382792 L26.1459055,16.6382792 L26.1459055,19.0151713 L24.9574131,19.0151713 L24.9574131,16.6382792 Z" id="Shape"></path>
                    <path d="M22.0711576,0 L8.82843917,0 C8.54730911,0 8.31912222,0.226777556 8.31912222,0.506171301 L8.31912222,26.8280874 C8.31912222,27.1074812 8.54730911,27.3342587 8.82843917,27.3342587 C9.10956924,27.3342587 9.33775613,27.1074812 9.33775613,26.8280874 L9.33775613,1.0123426 L21.5618407,1.0123426 L21.5618407,26.8280874 C21.5618407,27.1074812 21.7900275,27.3342587 22.0711576,27.3342587 C22.3522877,27.3342587 22.5804746,27.1074812 22.5804746,26.8280874 L22.5804746,0.506171301 C22.5804746,0.226777556 22.3523474,0 22.0711576,0 Z" id="Path"></path>
                </g>
            </g>
        </g>
    </g>
</svg>