<?xml version="1.0" encoding="UTF-8"?>
<svg width="120px" height="113px" viewBox="0 0 120 113" version="1.1" xmlns="http://www.w3.org/2000/svg" xmlns:xlink="http://www.w3.org/1999/xlink">
    <!-- Generator: Sketch 55.2 (78181) - https://sketchapp.com -->
    <title>Group 9</title>
    <desc>Created with Sketch.</desc>
    <g id="Page-1" stroke="none" stroke-width="1" fill="none" fill-rule="evenodd">
        <g id="Modal-Ayuda-Feedback" transform="translate(-163.000000, -47.000000)">
            <g id="Group-9" transform="translate(163.000000, 47.000000)">
                <path d="M60.0800533,113 C26.9869023,113 0.160106591,86.1718835 0.160106591,53.0782739 C0.160106591,40.8881579 -1.69433652,27.0462968 7.21928549,15.6118421 C16.1329075,4.17738744 30.4783336,0 39.40668,0 C72.499831,0 120,19.9846644 120,53.0782739 C120,86.1718835 93.1732043,113 60.0800533,113 Z" id="Fill-11-Copy-6" fill="#538DE4"></path>
                <path d="M70.8333333,66.1116864 L70.2825521,66.1116864 C68.8575521,66.1116864 67.4700521,66.4525356 66.1223958,66.910919 C61.88018,68.3542569 57.2817991,68.3542569 53.0395833,66.910919 C51.6942708,66.4525356 50.3102865,66.1140371 48.8888021,66.1140371 L48.3333333,66.1140371 C40.0499773,66.114037 33.3346276,72.8482022 33.3333333,81.1560651 C33.3333333,83.2332603 35.0122655,84.9171598 37.0833333,84.9171598 L82.0833333,84.9171598 C84.1544011,84.9171598 85.8333333,83.2332603 85.8333333,81.1560651 C85.8333333,72.8472842 79.1176046,66.1116864 70.8333333,66.1116864 Z M37.0833333,81.1560651 C37.0897925,74.9271648 42.1228074,69.8792594 48.3333333,69.8727811 L48.8888021,69.8727811 C49.6997396,69.8727811 50.6372396,70.0631865 51.8372396,70.4710302 C56.8592713,72.1792046 62.3027079,72.1792046 67.3247396,70.4710302 C68.5329427,70.0608358 69.4727865,69.8704304 70.2825521,69.8704304 L70.8333333,69.8704304 C77.0438593,69.8769087 82.0768741,74.9248141 82.0833333,81.1537144 L37.0833333,81.1560651 Z M38.9583333,51.0673077 C39.9938672,51.0673077 40.8333333,50.225358 40.8333333,49.1867604 L40.8333333,47.306213 C40.8333333,36.9373451 49.2450521,28.5007396 59.5833333,28.5007396 C69.9216146,28.5007396 78.3333333,36.9373451 78.3333333,47.306213 L78.3333333,49.1867604 C78.327521,54.3773318 74.1335934,58.5836675 68.9583333,58.589497 L65.2083333,58.589497 C65.2083333,56.5123018 63.5294011,54.8284024 61.4583333,54.8284024 L57.7083333,54.8284024 C55.6372655,54.8284024 53.9583333,56.5123018 53.9583333,58.589497 C53.9583333,60.6666923 55.6372655,62.3505917 57.7083333,62.3505917 L68.9583333,62.3505917 C76.2033232,62.3415257 82.074294,56.4531851 82.0833333,49.1867604 L82.0833333,47.306213 C82.0833333,34.861691 71.9911458,24.739645 59.5833333,24.739645 C47.1755208,24.739645 37.0833333,34.861691 37.0833333,47.306213 L37.0833333,49.1867604 C37.0833333,50.225358 37.9227994,51.0673077 38.9583333,51.0673077 Z M59.5833333,36.022929 C64.0225867,36.0030628 68.0545218,38.6148702 69.8622701,42.6814199 C71.6700185,46.7479697 70.9123164,51.5015849 67.930599,54.8001942 C67.930599,54.8107722 67.9458333,54.8178243 67.9516927,54.8284024 L68.9583333,54.8284024 C70.8924603,54.8241328 72.6880971,53.8212861 73.7102865,52.1744799 C74.2317708,50.6394832 74.5833333,49.0198618 74.5833333,47.306213 C74.5833333,38.9974321 67.8676046,32.2618343 59.5833333,32.2618343 C51.2990621,32.2618343 44.5833333,38.9974321 44.5833333,47.306213 C44.5833333,52.0569457 46.8216146,56.2388129 50.249349,58.9973407 C50.2423177,58.8598257 50.2083333,58.7293627 50.2083333,58.589497 C50.2167775,57.2646712 50.5780694,55.9661778 51.2548177,54.8284024 C48.2575682,51.5335946 47.4875826,46.7724735 49.2927856,42.6963933 C51.0979886,38.6203132 55.1364413,36.0013593 59.5833333,36.022929 L59.5833333,36.022929 Z" id="Shape" fill="#FFFFFF" fill-rule="nonzero"></path>
            </g>
        </g>
    </g>
</svg>