<?xml version="1.0" encoding="UTF-8"?>
<svg width="168px" height="60px" viewBox="0 0 168 60" version="1.1" xmlns="http://www.w3.org/2000/svg" xmlns:xlink="http://www.w3.org/1999/xlink">
    <!-- Generator: Sketch 55.2 (78181) - https://sketchapp.com -->
    <title>Logo</title>
    <desc>Created with Sketch.</desc>
    <defs>
        <polygon id="path-1" points="0 0.275107762 31.9635699 0.275107762 31.9635699 27.0354745 0 27.0354745"></polygon>
    </defs>
    <g id="Symbols" stroke="none" stroke-width="1" fill="none" fill-rule="evenodd">
        <g id="atoms-/-logo-/-negative">
            <g id="Logo">
                <path d="M6.20233577,9.5700438 C5.95708029,9.5700438 5.70919708,9.49909489 5.49109489,9.35106569 C4.91386861,8.95734307 4.76408759,8.16989781 5.15737226,7.59179562 C7.68043796,3.88712409 11.9027737,1.26289051 16.7421898,0.39179562 C21.3,-0.428934307 25.9068613,0.187270073 29.8121168,0.898948905 C30.499708,1.02420438 30.9556204,1.68332847 30.830365,2.37091971 C30.7051095,3.05851095 30.0437956,3.51267153 29.3583942,3.38916788 C25.6760584,2.71778102 21.3512409,2.13354745 17.1910949,2.88245255 C13.0160584,3.63442336 9.39240876,5.87018978 7.24992701,9.01690511 C7.00510949,9.37690511 6.6070073,9.5700438 6.20233577,9.5700438" id="Fill-1" fill="#3FB04A"></path>
                <path d="M33.6812847,10.104219 C33.4439124,10.104219 33.2034745,10.0372117 32.9897518,9.89750365 C27.6217226,6.38684672 21.4325255,6.04129927 14.0700438,8.84071533 C13.4157372,9.08947445 12.6852263,8.76013139 12.4369051,8.10713869 C12.1885839,7.45370803 12.5170511,6.72275912 13.1700438,6.47443796 C21.2315036,3.41049635 28.3653723,3.84976642 34.3754453,7.77954745 C34.9601168,8.16188321 35.1239124,8.94582482 34.7415766,9.53093431 C34.4989489,9.90232117 34.0942774,10.104219 33.6812847,10.104219" id="Fill-3" fill="#54C1D1"></path>
                <path d="M34.6048905,15.408438 C34.3548175,15.408438 34.1016788,15.3344234 33.8805109,15.1802628 C28.5816788,11.4734015 21.2069343,10.8698978 15.5310219,13.6763212 C14.9047445,13.9863942 14.1457664,13.7297518 13.8356934,13.1034745 C13.5256204,12.4767591 13.7822628,11.7173431 14.4085401,11.407708 C20.8894161,8.20274453 29.2972993,8.88508029 35.3314599,13.1061022 C35.9043066,13.5063942 36.0440146,14.2955912 35.6432847,14.868438 C35.3971533,15.2205547 35.0043066,15.408438 34.6048905,15.408438" id="Fill-5" fill="#F3B62D"></path>
                <g id="Group-9" transform="translate(0.000000, 13.638832)">
                    <mask id="mask-2" fill="white">
                        <use xlink:href="#path-1"></use>
                    </mask>
                    <g id="Clip-8"></g>
                    <path d="M4.35727007,27.0354745 C3.88077372,27.0354745 3.42442336,26.7652555 3.20938686,26.3054015 C0.401211679,20.290073 -0.59119708,13.6922628 0.339021898,7.22540146 C0.551430657,5.74905109 0.895226277,4.03445255 1.8320146,2.50992701 C2.83843796,0.872846715 4.44442336,0.0218978102 5.92164964,0.341605839 C6.81420438,0.534744526 7.6029635,1.12072993 8.3330365,2.13328467 C9.63464234,3.93941606 10.2771241,6.04248175 10.7343504,7.86087591 C10.8504088,8.32467153 10.9340584,8.89708029 11.0225255,9.50364964 C11.2572701,11.1140146 11.6120146,13.5472993 12.7016496,13.6988321 C12.9140584,13.7290511 13.1921606,13.7382482 13.3231095,13.6191241 C13.3940584,13.5538686 13.7448613,13.1505109 13.6642774,11.6036496 C13.6371241,11.0772263 13.5385839,10.4925547 13.4339124,9.87328467 C13.1299708,8.08116788 12.7520146,5.84978102 14.1731825,4.02350365 C16.587635,0.920583942 21.4397518,0.880729927 23.4114307,1.00510949 C25.7707007,1.15576642 28.2372701,1.78160584 31.1737664,2.97459854 C31.8215036,3.23824818 32.1333285,3.97620438 31.8701168,4.62394161 C31.6069051,5.27167883 30.8685109,5.58306569 30.2212117,5.31985401 C27.5444234,4.23240876 25.3296788,3.66394161 23.2502628,3.53167883 C22.0239854,3.45240876 17.8896788,3.36963504 16.1707007,5.57824818 C15.4336204,6.52510949 15.6744964,7.94627737 15.9293869,9.45065693 C16.0415036,10.1141606 16.157562,10.8 16.1925985,11.4731387 C16.2902628,13.3681752 15.9109927,14.680292 15.0333285,15.4848175 C14.5607737,15.9179562 13.7107007,16.3957664 12.3525985,16.2056934 C9.38194161,15.7918248 8.86164964,12.2272993 8.51785401,9.86890511 C8.43858394,9.3280292 8.36413139,8.81649635 8.27916788,8.47751825 C7.88062774,6.89124088 7.33186861,5.07284672 6.27945985,3.61313869 C5.9369781,3.1379562 5.63610219,2.86948905 5.38646715,2.81518248 C4.99449635,2.73240876 4.39756204,3.16992701 3.98851095,3.83518248 C3.2930365,4.96686131 3.01975182,6.36613139 2.84456934,7.58583942 C1.98442336,13.5639416 2.90369343,19.6664234 5.50340146,25.2341606 C5.79858394,25.8674453 5.52486131,26.6207299 4.89157664,26.9167883 C4.71814599,26.9973723 4.53639416,27.0354745 4.35727007,27.0354745" id="Fill-7" fill="#EE6D25" mask="url(#mask-2)"></path>
                </g>
                <path d="M167.753431,38.2559562 C167.753431,35.2796058 167.324672,32.3930365 166.855182,29.8121606 C166.729489,29.1245693 166.070365,28.6686569 165.382774,28.7939124 C164.69562,28.9196058 164.239708,29.5787299 164.364526,30.2658832 C165.035036,33.948219 165.620146,38.2730365 164.871241,42.4327445 C164.119708,46.607781 161.883942,50.2314307 158.737226,52.3743504 C158.159124,52.767635 158.010219,53.5555182 158.403066,54.1327445 C158.796788,54.7104088 159.584234,54.8597518 160.161898,54.4664672 C163.866569,51.9434015 166.491241,47.7210657 167.362336,42.8816496 C167.640876,41.3356642 167.753431,39.7839854 167.753431,38.2559562" id="Fill-10" fill="#EE6D25"></path>
                <path d="M163.290657,36.4192117 C163.290657,32.3637372 162.184818,28.6292847 159.974453,25.2491387 C159.591679,24.6640292 158.807737,24.5002336 158.22219,24.8825693 C157.637956,25.2649051 157.473285,26.0492847 157.856058,26.6343942 C161.366715,32.0024234 161.712701,38.1916204 158.913285,45.5541022 C158.664526,46.2084088 158.993431,46.9389197 159.646423,47.1868029 C160.299854,47.435562 161.031241,47.1070949 161.279562,46.4541022 C162.620584,42.926365 163.290657,39.575562 163.290657,36.4192117" id="Fill-12" fill="#F3B62D"></path>
                <path d="M158.352745,36.3456788 C158.352745,32.0887445 157.095372,27.7919562 154.648073,24.2926861 C154.246905,23.7198394 153.458146,23.5801314 152.885299,23.9804234 C152.312891,24.3815912 152.173182,25.1703504 152.573474,25.743635 C156.280336,31.0433431 156.883839,38.4172117 154.077416,44.0931241 C153.767343,44.7207153 154.023547,45.4788175 154.650263,45.7888905 C155.276978,46.0985255 156.035956,45.8423212 156.345591,45.2151679 C157.692307,42.4932701 158.352745,39.4297664 158.352745,36.3456788" id="Fill-14" fill="#54C1D1"></path>
                <path d="M153.840175,54.3281606 C153.840175,54.1183796 153.818277,53.9094745 153.773606,53.7027591 C153.580029,52.8093285 152.994044,52.0210073 151.981927,51.2913723 C150.174044,49.9884526 148.071854,49.3464088 146.253898,48.8900584 C145.79054,48.774 145.218131,48.6903504 144.611562,48.6018832 C143.001197,48.3671387 140.567912,48.0119562 140.415942,46.9218832 C140.385723,46.7103504 140.376526,46.4318102 140.49565,46.3012993 C140.560905,46.2299124 140.964263,45.8795474 142.511562,45.9596934 C143.037985,45.9868467 143.622657,46.0858248 144.241927,46.1904964 C146.034482,46.494438 148.265431,46.8719562 150.09127,45.4503504 C153.193314,43.0372117 153.234482,38.1881606 153.109664,36.2125401 C152.959007,33.8519562 152.333168,31.3853869 151.139737,28.4502044 C150.876964,27.8029051 150.138131,27.4915182 149.490832,27.7547299 C148.843533,28.0175036 148.53127,28.7567737 148.79492,29.4031971 C149.882365,32.0782336 150.450832,34.2934161 150.583533,36.373708 C150.663241,37.5995474 150.746015,41.7351679 148.537401,43.4528321 C147.590102,44.1903504 146.168934,43.9499124 144.664555,43.6950219 C144.001051,43.5829051 143.315212,43.4664088 142.642073,43.4318102 C140.747036,43.334146 139.434482,43.7129781 138.629956,44.5910803 C138.196818,45.063635 137.719445,45.9115182 137.90908,47.2713723 C138.323387,50.2424672 141.887474,50.7627591 144.246307,51.1065547 C144.78762,51.1853869 145.298277,51.2602774 145.637693,51.3452409 C147.223095,51.7433431 149.041051,52.2921022 150.502073,53.3449489 C150.977255,53.6874307 151.245285,53.9878686 151.299591,54.2383796 C151.384117,54.6290365 150.945285,55.2277226 150.280029,55.6358978 C149.147912,56.3313723 147.748642,56.604219 146.529372,56.7798394 C140.551708,57.6395474 134.449226,56.7202774 128.880613,54.1210073 C128.247328,53.8258248 127.494482,54.0995474 127.198423,54.7328321 C126.903241,55.3661168 127.176964,56.1194015 127.810248,56.4150219 C133.825577,59.2227591 140.423387,60.2156058 146.889372,59.2849489 C148.365285,59.0725401 150.079883,58.7296204 151.604847,57.7923942 C153.013314,56.9265547 153.840175,55.6179416 153.840175,54.3281606" id="Fill-16" fill="#3FB04A"></path>
                <path d="M25.0861752,36.1378248 C26.1460292,36.1378248 26.4911387,35.8422044 26.4911387,35.2750511 C26.4911387,33.7224964 21.067927,34.6592847 21.067927,30.1233723 C21.067927,27.4610365 22.7444234,25.9080438 25.9489489,25.9080438 C27.2308467,25.9080438 28.6112847,26.1546131 29.5971241,26.7217664 C30.1642774,27.485562 30.5093869,29.1125693 30.2873431,30.1973869 C29.178,29.556219 27.6744964,29.0880438 26.5161022,29.0880438 C25.6038394,29.0880438 25.4063212,29.3587007 25.4063212,29.7782628 C25.4063212,31.2327153 30.8790219,30.4189927 30.8790219,34.8068759 C30.8790219,38.1839562 28.6607737,39.3427883 25.2836934,39.3427883 C23.9768321,39.3427883 22.5963942,39.1697956 21.4625255,38.6770949 C20.7968321,37.7648321 20.5752263,35.9407445 20.8213577,35.0284818 C21.8816496,35.6451241 23.6812117,36.1378248 25.0861752,36.1378248" id="Fill-18" fill="#FFFFFF"></path>
                <path d="M38.8912117,35.9160438 C40.2716496,35.9160438 40.8388029,34.683635 40.8388029,32.4154599 C40.8388029,30.5423212 40.1485839,29.334438 38.8912117,29.334438 C37.5602628,29.334438 36.9440584,30.5423212 36.9440584,32.4154599 C36.9440584,34.6586715 37.5847883,35.9160438 38.8912117,35.9160438 M45.3007007,32.4154599 C45.3007007,36.9268467 42.8354453,39.3426131 38.8912117,39.3426131 C34.7498978,39.3426131 32.4821606,37.0499124 32.4821606,32.4154599 C32.4821606,28.324073 35.1199708,25.9078686 38.8912117,25.9078686 C42.7863942,25.9078686 45.3007007,28.1760438 45.3007007,32.4154599" id="Fill-20" fill="#FFFFFF"></path>
                <path d="M54.7919124,35.6205109 C55.8272409,35.6205109 57.0105985,35.3739416 57.8243212,34.979781 C57.996438,36.1381752 57.4792117,37.9127737 56.6654891,38.7019708 C55.8027153,39.0711679 54.7178978,39.3427007 53.3624234,39.3427007 C49.245635,39.3427007 47.0024234,36.9024088 47.0024234,32.8351095 C47.0024234,28.2251825 49.8618394,25.9079562 53.7320584,25.9079562 C54.9399416,25.9079562 56.0738102,26.13 56.7889927,26.5486861 C57.4542482,27.3624088 57.7498686,29.0879562 57.5527883,30.2218248 C56.7395036,29.7536496 55.8767299,29.5070803 54.7919124,29.5070803 C52.7707445,29.5070803 51.4638832,30.3453285 51.4638832,32.5390511 C51.4638832,34.7332117 52.7952701,35.6205109 54.7919124,35.6205109" id="Fill-22" fill="#FFFFFF"></path>
                <path d="M60.1665109,26.6229635 C60.5365839,26.4254453 61.1773139,26.277854 62.336146,26.277854 C63.4945401,26.277854 64.135708,26.4254453 64.5053431,26.6229635 L64.5053431,38.627781 C64.135708,38.8248613 63.4945401,38.9728905 62.336146,38.9728905 C61.1773139,38.9728905 60.5365839,38.8248613 60.1665109,38.627781 L60.1665109,26.6229635 Z M64.7024234,22.5556642 C64.7024234,24.108219 63.7411095,24.9959562 62.336146,24.9959562 C60.8076788,24.9959562 59.9694307,24.1331825 59.9694307,22.5556642 C59.9694307,21.1502628 60.9802336,20.238 62.336146,20.238 C63.7411095,20.238 64.7024234,21.0762482 64.7024234,22.5556642 L64.7024234,22.5556642 Z" id="Fill-24" fill="#FFFFFF"></path>
                <path d="M74.0453431,34.0179416 C73.626219,33.8453869 73.2070949,33.7713723 72.7143942,33.7713723 C71.555562,33.7713723 70.9888467,34.1904964 70.9888467,34.9796934 C70.9888467,35.7684526 71.5305985,36.0395474 72.3688467,36.0395474 C73.0100146,36.0395474 73.626219,35.8669927 74.0453431,35.3493285 L74.0453431,34.0179416 Z M74.1684088,37.5430511 C73.6507445,38.6029051 72.6154161,39.3426131 70.7422774,39.3426131 C68.5976058,39.3426131 66.7485547,38.2577956 66.7485547,35.373854 C66.7485547,32.2678686 68.8687007,31.0599854 71.7771679,31.0599854 C72.6154161,31.0599854 73.3551241,31.134 73.9713285,31.3556058 L73.9713285,31.0845109 C73.9713285,29.8275766 73.2070949,29.4084526 71.7276788,29.4084526 C70.3481168,29.4084526 68.8441752,29.8026131 67.7593577,30.4192555 C67.3647591,29.3589635 67.5622774,27.5594015 68.2279708,26.6475766 C69.1397956,26.2284526 70.6927883,25.9078686 72.5908905,25.9078686 C76.4116204,25.9078686 78.2606715,27.1402774 78.2606715,30.8878686 L78.2606715,34.7331241 C78.2606715,35.4478686 78.6053431,35.6449489 79.1479708,35.6449489 C79.4685547,35.6449489 79.8136642,35.5464088 80.0847591,35.373854 C80.306365,36.5077226 79.8872409,38.0607153 79.3205255,38.7259708 C78.7533723,39.1205693 77.9891387,39.3426131 77.0032993,39.3426131 C75.425781,39.3426131 74.686073,38.7259708 74.3904526,37.5430511 L74.1684088,37.5430511 Z" id="Fill-26" fill="#FFFFFF"></path>
                <path d="M87.5302336,38.7758102 C86.9389927,39.1458832 86.1743212,39.3425255 85.1639562,39.3425255 C82.2800146,39.3425255 81.5648321,37.4689489 81.5648321,35.078146 L81.5648321,21.1997518 C82.5265839,20.6325985 83.8820584,20.3369781 85.9036642,20.3369781 L85.9036642,34.4615036 C85.9036642,35.3492409 86.2238102,35.5958102 86.9389927,35.5958102 C87.4316934,35.5958102 87.8753431,35.4972701 88.3439562,35.2012117 C88.565562,36.3355182 88.1714015,38.0606277 87.5302336,38.7758102" id="Fill-28" fill="#FFFFFF"></path>
                <path d="M94.753708,32.5635766 C94.753708,34.1905839 93.7429051,35.1273723 92.263927,35.1273723 C90.6614453,35.1273723 89.774146,34.2151095 89.774146,32.5635766 C89.774146,31.0845985 90.8585255,30.1232847 92.263927,30.1232847 C93.7429051,30.1232847 94.753708,31.0105839 94.753708,32.5635766" id="Fill-30" fill="#3FB04A"></path>
                <path d="M101.113708,36.1378248 C102.173562,36.1378248 102.518672,35.8422044 102.518672,35.2750511 C102.518672,33.7224964 97.0958978,34.6592847 97.0958978,30.1233723 C97.0958978,27.4610365 98.7719562,25.9080438 101.976482,25.9080438 C103.257942,25.9080438 104.638818,26.1546131 105.624657,26.7217664 C106.19181,27.485562 106.53692,29.1125693 106.314876,30.1973869 C105.205533,29.556219 103.702029,29.0880438 102.543635,29.0880438 C101.63181,29.0880438 101.433854,29.3587007 101.433854,29.7782628 C101.433854,31.2327153 106.906555,30.4189927 106.906555,34.8068759 C106.906555,38.1839562 104.688307,39.3427883 101.311226,39.3427883 C100.004365,39.3427883 98.623927,39.1697956 97.4900584,38.6770949 C96.824365,37.7648321 96.6023212,35.9407445 96.8488905,35.0284818 C97.9091825,35.6451241 99.7087445,36.1378248 101.113708,36.1378248" id="Fill-32" fill="#FFFFFF"></path>
                <path d="M113.514,30.4437372 L114.426263,30.4437372 L116.964657,26.4745401 C117.309766,26.3269489 118.074,26.2034453 118.862759,26.2034453 C120.021591,26.2034453 121.105971,26.4500146 121.500569,26.7705985 L118.000423,31.9472409 C119.158818,34.1414015 120.563781,36.4581898 122.141299,38.6278248 C121.722613,38.8989197 120.859839,38.9974599 119.799985,38.9974599 C118.592102,38.9974599 117.506847,38.8743942 117.039109,38.6278248 C116.028307,37.0993577 115.141007,35.5713285 114.327285,33.7717664 L113.514,33.7717664 L113.514,38.6278248 C113.143927,38.8249051 112.503197,38.9729343 111.344365,38.9729343 C110.185533,38.9729343 109.544803,38.8249051 109.175168,38.6278248 L109.175168,21.1997956 C110.13692,20.6326423 111.492394,20.3370219 113.514,20.3370219 L113.514,30.4437372 Z" id="Fill-34" fill="#FFFFFF"></path>
                <path d="M123.818584,26.6229635 C124.188657,26.4254453 124.829387,26.277854 125.988219,26.277854 C127.146613,26.277854 127.787781,26.4254453 128.157416,26.6229635 L128.157416,38.627781 C127.787781,38.8248613 127.146613,38.9728905 125.988219,38.9728905 C124.829387,38.9728905 124.188657,38.8248613 123.818584,38.627781 L123.818584,26.6229635 Z M128.354058,22.5556642 C128.354058,24.108219 127.393182,24.9959562 125.988219,24.9959562 C124.459752,24.9959562 123.621504,24.1331825 123.621504,22.5556642 C123.621504,21.1502628 124.631869,20.238 125.988219,20.238 C127.393182,20.238 128.354058,21.0762482 128.354058,22.5556642 L128.354058,22.5556642 Z" id="Fill-36" fill="#FFFFFF"></path>
                <path d="M135.552745,38.6276058 C135.183109,38.8246861 134.541942,38.9727153 133.383109,38.9727153 C132.224715,38.9727153 131.583547,38.8246861 131.213912,38.6276058 L131.213912,26.8203066 C132.027635,26.376219 133.186029,26.1296496 134.739022,26.1296496 L134.961066,28.2497956 L135.183109,28.2497956 C135.848365,26.8203066 137.080774,25.9080438 139.29946,25.9080438 C141.148073,25.9080438 143.391285,26.5242482 143.391285,30.665562 L143.391285,38.6276058 C143.022088,38.8246861 142.38092,38.9727153 141.222526,38.9727153 C140.063693,38.9727153 139.422964,38.8246861 139.052891,38.6276058 L139.052891,31.4297956 C139.052891,30.3944672 138.634204,29.7782628 137.573912,29.7782628 C136.563547,29.7782628 135.922818,30.3204526 135.552745,30.986146 L135.552745,38.6276058 Z" id="Fill-38" fill="#FFFFFF"></path>
            </g>
        </g>
    </g>
</svg>