<?xml version="1.0" encoding="UTF-8"?>
<svg width="199px" height="71px" viewBox="0 0 199 71" version="1.1" xmlns="http://www.w3.org/2000/svg" xmlns:xlink="http://www.w3.org/1999/xlink">
    <!-- Generator: Sketch 55.2 (78181) - https://sketchapp.com -->
    <title>Group 4 Copy</title>
    <desc>Created with Sketch.</desc>
    <defs>
        <polygon id="path-1" points="0.302319012 0.446264582 30.8355259 0.446264582 30.8355259 11.608687 0.302319012 11.608687"></polygon>
        <polygon id="path-3" points="0.346443237 0.252368948 11.6221923 0.252368948 11.6221923 30.4774459 0.346443237 30.4774459"></polygon>
    </defs>
    <g id="Page-1" stroke="none" stroke-width="1" fill="none" fill-rule="evenodd">
        <g id="Pre-Home" transform="translate(-170.000000, -12.000000)">
            <g id="Group-4-Copy" transform="translate(170.000000, 12.000000)">
                <g id="Group-105" transform="translate(0.962895, 0.000000)">
                    <g id="Group-3" transform="translate(5.515991, 0.050137)">
                        <mask id="mask-2" fill="white">
                            <use xlink:href="#path-1"></use>
                        </mask>
                        <g id="Clip-2"></g>
                        <path d="M1.79204508,11.608687 C1.50320775,11.608687 1.21086024,11.525788 0.954115949,11.3530405 C0.273643282,10.8938694 0.0976330347,9.97552743 0.56097625,9.30141474 C3.53409522,4.98024324 8.50901734,1.9189377 14.2115488,0.902804666 C19.5816164,-0.0547530405 25.0098527,0.664532142 29.6111918,1.49451477 C30.421541,1.64045669 30.9585979,2.40938198 30.8111705,3.21106974 C30.6632417,4.01325391 29.8839826,4.54341028 29.0766422,4.39895756 C24.7375633,3.61613304 19.6417909,2.93457434 14.740081,3.80824026 C9.82031876,4.68488459 5.55094199,7.29297592 3.02612262,10.963862 C2.73778675,11.3833209 2.26942899,11.608687 1.79204508,11.608687" id="Fill-1" fill="#FFFFFF" mask="url(#mask-2)"></path>
                    </g>
                    <path d="M39.6863493,12.2817573 C39.4060367,12.2817573 39.1232168,12.2038223 38.8714871,12.0410027 C32.5461501,7.94619012 25.253509,7.54311243 16.5783601,10.8079424 C15.8076258,11.0978407 14.9471312,10.7141226 14.6542822,9.95264334 C14.3619347,9.19017126 14.7485555,8.33785058 15.518287,8.04795235 C25.0168229,4.47436088 33.4226912,4.98664681 40.5037189,9.57041449 C41.1932177,10.0161827 41.3862774,10.9310499 40.9359719,11.6136014 C40.6496419,12.0459667 40.1727594,12.2817573 39.6863493,12.2817573" id="Fill-4" fill="#FFFFFF"></path>
                    <path d="M40.7744537,18.4688012 C40.4795989,18.4688012 40.181234,18.3824274 39.9209795,18.2022338 C33.6773795,13.8790767 24.9881899,13.1746835 18.2998005,16.4484487 C17.5621621,16.8103251 16.6675687,16.5109953 16.3025104,15.7797965 C15.9374521,15.0490941 16.2393272,14.1635145 16.9774671,13.8026309 C24.613604,10.0642343 34.5203232,10.8599653 41.6309366,15.7832713 C42.3053918,16.2503847 42.4698687,17.1707123 41.9974993,17.8388682 C41.707659,18.2493919 41.2448173,18.4688012 40.7744537,18.4688012" id="Fill-6" fill="#FFFFFF"></path>
                    <path d="M5.13403338,47.9392405 C4.57240524,47.9392405 4.03484688,47.6240258 3.78161276,47.0874162 C0.473021272,40.0707868 -0.696368748,32.3750807 0.399809032,24.8322661 C0.650034427,23.1102507 1.05470756,21.1107471 2.15840715,19.332142 C3.34484659,17.422487 5.23683139,16.4301812 6.97737717,16.8029784 C8.02942703,17.0283445 8.95811927,17.7118888 9.81861382,18.892827 C11.3520592,20.9995532 12.1097558,23.4527674 12.6478156,25.5738893 C12.7847124,26.1149665 12.8834988,26.782626 12.9878012,27.4895011 C13.2641022,29.3678828 13.6823145,32.2063043 14.966036,32.3835195 C15.2162614,32.4182676 15.5442121,32.4291884 15.6986599,32.2901961 C15.7819012,32.2142467 16.195099,31.7436585 16.1008257,29.9392405 C16.0687327,29.3251924 15.9523954,28.6431373 15.8285364,27.9208737 C15.4709999,25.8305287 15.025709,23.2278977 16.7000629,21.0978407 C19.5453112,17.4785803 25.2623848,17.4319186 27.5856197,17.5773641 C30.3651776,17.7525937 33.2716032,18.4827997 36.7321352,19.874212 C37.4948462,20.1814842 37.8619103,21.0427401 37.552012,21.7977662 C37.2421136,22.5537851 36.37159,22.9171507 35.6088789,22.6098784 C32.4552366,21.3410772 29.8451701,20.6783817 27.3955688,20.524001 C25.9503792,20.4316704 21.079258,20.3353686 19.0533851,22.9111938 C18.1853687,24.0156863 18.4686901,25.6731695 18.7690608,27.4279474 C18.9014446,28.2018367 19.0383415,29.0020352 19.0799621,29.7873418 C19.194795,31.9973194 18.7474983,33.5282204 17.7135008,34.4664185 C17.1568872,34.9717548 16.1554842,35.5287168 14.554844,35.3073219 C11.0546972,34.8243237 10.4414193,30.6669645 10.0362447,27.9159097 C9.94297433,27.2849839 9.85572139,26.6883098 9.7549292,26.2931745 C9.28556854,24.4425912 8.63869327,22.3214693 7.39909973,20.6188136 C6.9954295,20.06483 6.64090174,19.7516009 6.34654842,19.688558 C5.88521102,19.5922561 5.18117003,20.1020601 4.69977448,20.8784314 C3.88039914,22.1983619 3.55796441,23.8305287 3.35136549,25.2527178 C2.33842902,32.2256639 3.42156901,39.3440556 6.48444819,45.8379747 C6.83245705,46.5771159 6.51002233,47.4557458 5.76385923,47.8007446 C5.55976757,47.8945644 5.34514539,47.9392405 5.13403338,47.9392405" id="Fill-8" fill="#FFFFFF"></path>
                    <g id="Group-12" transform="translate(186.039321, 33.805411)">
                        <mask id="mask-4" fill="white">
                            <use xlink:href="#path-3"></use>
                        </mask>
                        <g id="Clip-11"></g>
                        <path d="M11.6222926,11.3129809 C11.6222926,7.84115165 11.1173287,4.47455944 10.5637239,1.46438322 C10.415795,0.661702656 9.63904325,0.130553487 8.82919553,0.276495408 C8.01884635,0.42293373 7.4822909,1.19136262 7.62921683,1.99354679 C8.4190064,6.28791263 9.10850524,11.3328369 8.22644818,16.1846612 C7.3403795,21.0548523 4.70624323,25.2812112 0.998494601,27.7805907 C0.317520481,28.2397617 0.142011687,29.1586001 0.604853449,29.8322164 C1.06869812,30.5058327 1.99638746,30.6800695 2.67686012,30.2213949 C7.04201455,27.2787292 10.134981,22.3529412 11.1614567,16.7083644 C11.4894074,14.9049392 11.6222926,13.0955572 11.6222926,11.3129809" id="Fill-10" fill="#FFFFFF" mask="url(#mask-4)"></path>
                    </g>
                    <path d="M192.402969,42.9759742 C192.402969,38.2452718 191.099691,33.8898486 188.495642,29.9469347 C188.044835,29.2643832 187.120656,29.0732688 186.431157,29.5195334 C185.742661,29.965798 185.5491,30.8801688 185.999406,31.5627203 C190.135897,37.8243237 190.543579,45.0434847 187.245017,53.6312236 C186.952168,54.3941921 187.339791,55.2460164 188.109021,55.5359146 C188.879254,55.8258129 189.740752,55.4420948 190.033099,54.6806155 C191.61318,50.5664433 192.402969,46.6577811 192.402969,42.9759742" id="Fill-13" fill="#FFFFFF"></path>
                    <path d="M186.584853,42.8901464 C186.584853,37.9246463 185.103057,32.9129809 182.219197,28.8310747 C181.747329,28.1634152 180.817634,28.0000993 180.142677,28.4672127 C179.468222,28.9348225 179.303244,29.8551502 179.775112,30.5238024 C184.142773,36.7054852 184.853835,45.306627 181.547249,51.9271283 C181.181689,52.6588235 181.484066,53.5434103 182.222206,53.9042939 C182.960847,54.2661703 183.854939,53.9668404 184.219997,53.236138 C185.806597,50.0606602 186.584853,46.4875652 186.584853,42.8901464" id="Fill-15" fill="#FFFFFF"></path>
                    <path d="M181.267639,63.8652767 C181.267639,63.620551 181.242064,63.3768181 181.18891,63.1355671 C180.96125,62.0941176 180.270749,61.1742864 179.078292,60.323455 C176.948116,58.8034748 174.470935,58.0544056 172.328725,57.5222636 C171.782642,57.3867461 171.108187,57.2889551 170.393615,57.1857036 C168.496114,56.9121866 165.629304,56.4981881 165.450285,55.2264085 C165.414681,54.9801936 165.403649,54.6545545 165.544056,54.5026557 C165.620779,54.4197568 166.096157,54.0107223 167.918941,54.1040457 C168.539741,54.1353189 169.228738,54.2514768 169.958353,54.3730951 C172.070476,54.7280218 174.698595,55.1678332 176.850834,53.51035 C180.505429,50.6952594 180.55407,45.0392653 180.407144,42.7349715 C180.229629,39.9814346 179.49149,37.1042939 178.085915,33.6811119 C177.776016,32.9255895 176.905994,32.5622239 176.143283,32.8694962 C175.380071,33.176272 175.012505,34.0385207 175.323406,34.792554 C176.604621,37.9129312 177.274061,40.4962025 177.430515,42.9231075 C177.524287,44.3527426 177.621569,49.176272 175.019525,51.1802432 C173.902788,52.0405063 172.228936,51.7600397 170.456297,51.4626955 C169.67453,51.3316456 168.866187,51.1961281 168.072887,51.1554232 C165.839914,51.0417473 164.293431,51.4840407 163.345683,52.5081162 C162.835204,53.0591214 162.273074,54.0479523 162.496221,55.6339538 C162.984637,59.0998263 167.184311,59.7064284 169.963368,60.1075205 C170.601217,60.1998511 171.202961,60.2867213 171.603121,60.3860015 C173.471036,60.8501365 175.612745,61.4904939 177.334236,62.7185902 C177.894359,63.1176967 178.210275,63.4686523 178.274461,63.7605361 C178.373749,64.2162323 177.856249,64.9146687 177.072477,65.3907173 C175.739111,66.2018367 174.090332,66.5205262 172.653165,66.7250434 C165.609747,67.7277736 158.419402,66.6555473 151.858382,63.6240258 C151.112219,63.2790271 150.224646,63.598213 149.876136,64.3373542 C149.528628,65.0755026 149.850562,65.9546289 150.597226,66.2996277 C157.685274,69.5743857 165.458809,70.7324895 173.077897,69.6468603 C174.816938,69.3996525 176.837295,68.9990568 178.634004,67.9059816 C180.293314,66.8958054 181.267639,65.3693721 181.267639,63.8652767" id="Fill-17" fill="#FFFFFF"></path>
                    <path d="M29.5585893,42.648002 C30.8077105,42.648002 31.2143894,42.3030032 31.2143894,41.641797 C31.2143894,39.8304294 24.824365,40.9230082 24.824365,35.6323654 C24.824365,32.5268801 26.7995911,30.7155125 30.5755374,30.7155125 C32.0859159,30.7155125 33.7121303,31.0029288 34.8739985,31.6646314 C35.5419348,32.5556714 35.9486138,34.4534128 35.6873564,35.7187391 C34.3800666,34.9711591 32.6084307,34.4251179 31.2434737,34.4251179 C30.1688585,34.4251179 29.9361839,34.740829 29.9361839,35.2297841 C29.9361839,36.926483 36.384377,35.9773641 36.384377,41.0957558 C36.384377,45.0346984 33.7702989,46.3859022 29.7912638,46.3859022 C28.251801,46.3859022 26.6250852,46.1848598 25.2887111,45.6095309 C24.5044375,44.5457434 24.2431801,42.4181683 24.5335218,41.3543807 C25.7831444,42.0731695 27.9032907,42.648002 29.5585893,42.648002" id="Fill-19" fill="#FFFFFF"></path>
                    <path d="M45.824995,42.3891288 C47.4517108,42.3891288 48.1196472,40.9515513 48.1196472,38.3062298 C48.1196472,36.1210722 47.3062893,34.7122859 45.824995,34.7122859 C44.2569493,34.7122859 43.5308444,36.1210722 43.5308444,38.3062298 C43.5308444,40.92276 44.2860337,42.3891288 45.824995,42.3891288 M53.3773892,38.3062298 C53.3773892,43.5680814 50.4724679,46.3861504 45.824995,46.3861504 C40.9458506,46.3861504 38.2731024,43.7120377 38.2731024,38.3062298 C38.2731024,33.5338297 41.3811124,30.7157607 45.824995,30.7157607 C50.4142993,30.7157607 53.3773892,33.3605858 53.3773892,38.3062298" id="Fill-21" fill="#FFFFFF"></path>
                    <path d="M64.5604585,42.0442293 C65.7804953,42.0442293 67.1750381,41.7563167 68.1333161,41.2966493 C68.3369063,42.6478531 67.7266371,44.718342 66.7683591,45.6386696 C65.751411,46.0695458 64.473707,46.3862497 62.8760755,46.3862497 C58.0255139,46.3862497 55.3828529,43.5393894 55.3828529,38.7952842 C55.3828529,33.418764 58.7516189,30.71586 63.3118388,30.71586 C64.7349644,30.71586 66.070837,30.974485 66.9132792,31.4629437 C67.6975528,32.4120625 68.0460631,34.4244726 67.8138901,35.7473815 C66.8551106,35.2008439 65.838664,34.9134276 64.5604585,34.9134276 C62.1785534,34.9134276 60.639592,35.8913378 60.639592,38.4502854 C60.639592,41.0092331 62.2081392,42.0442293 64.5604585,42.0442293" id="Fill-23" fill="#FFFFFF"></path>
                    <path d="M70.8935178,31.549516 C71.3292811,31.3191859 72.0844703,31.1469347 73.4499288,31.1469347 C74.8143843,31.1469347 75.570075,31.3191859 76.0053368,31.549516 L76.0053368,45.551998 C75.570075,45.7818317 74.8143843,45.9545793 73.4499288,45.9545793 C72.0844703,45.9545793 71.3292811,45.7818317 70.8935178,45.551998 L70.8935178,31.549516 Z M76.2380113,26.8054108 C76.2380113,28.616282 75.1052274,29.6517746 73.4499288,29.6517746 C71.6487071,29.6517746 70.6613448,28.6455696 70.6613448,26.8054108 C70.6613448,25.1662944 71.8522973,24.1025068 73.4499288,24.1025068 C75.1052274,24.1025068 76.2380113,25.0799206 76.2380113,26.8054108 L76.2380113,26.8054108 Z" id="Fill-25" fill="#FFFFFF"></path>
                    <path d="M87.2465747,40.1752296 C86.7526429,39.9741871 86.258711,39.8878134 85.678529,39.8878134 C84.3130706,39.8878134 83.6446328,40.3767684 83.6446328,41.2965997 C83.6446328,42.2169273 84.2834849,42.5331348 85.2713486,42.5331348 C86.0265379,42.5331348 86.7526429,42.3320923 87.2465747,41.7274758 L87.2465747,40.1752296 Z M87.3919963,44.2869198 C86.7817272,45.5229586 85.5616903,46.3862 83.3542912,46.3862 C80.827466,46.3862 78.6491511,45.1203773 78.6491511,41.7567635 C78.6491511,38.1340283 81.146892,36.7247456 84.574328,36.7247456 C85.5616903,36.7247456 86.4332169,36.8116158 87.1593218,37.0702408 L87.1593218,36.7535369 C87.1593218,35.287168 86.258711,34.798213 84.5161594,34.798213 C82.889945,34.798213 81.1178077,35.2588732 79.8401037,35.9771655 C79.3752561,34.7406304 79.6074291,32.6418466 80.3917027,31.5785555 C81.466318,31.0896004 83.296624,30.7158104 85.5331075,30.7158104 C90.0351588,30.7158104 92.2134736,32.1528915 92.2134736,36.5241996 L92.2134736,41.0091834 C92.2134736,41.8426409 92.6196511,42.072971 93.2590046,42.072971 C93.6365992,42.072971 94.0432782,41.9583023 94.3622027,41.7567635 C94.6239615,43.079176 94.1305311,44.89104 93.4625948,45.6669149 C92.794157,46.1270787 91.8940476,46.3862 90.7321794,46.3862 C88.8732905,46.3862 88.001764,45.6669149 87.6532537,44.2869198 L87.3919963,44.2869198 Z" id="Fill-27" fill="#FFFFFF"></path>
                    <path d="M103.135637,45.7245967 C102.439117,46.1564656 101.538005,46.3862993 100.347053,46.3862993 C96.9492023,46.3862993 96.1067601,44.2006453 96.1067601,41.411864 L96.1067601,25.223728 C97.239544,24.5625217 98.8371755,24.217523 101.219081,24.217523 L101.219081,40.6925788 C101.219081,41.7275751 101.596675,42.0154877 102.439117,42.0154877 C103.019801,42.0154877 103.542316,41.9003227 104.094416,41.5558203 C104.355673,42.8782328 103.891327,44.8906428 103.135637,45.7245967" id="Fill-29" fill="#FFFFFF"></path>
                    <path d="M111.64691,38.4787789 C111.64691,40.3765202 110.455958,41.469099 108.713406,41.469099 C106.825433,41.469099 105.779401,40.4053115 105.779401,38.4787789 C105.779401,36.7537851 107.057606,35.632415 108.713406,35.632415 C110.455958,35.632415 111.64691,36.6674113 111.64691,38.4787789" id="Fill-31" fill="#FFFFFF"></path>
                    <path d="M119.140785,42.648002 C120.389906,42.648002 120.796585,42.3030032 120.796585,41.641797 C120.796585,39.8304294 114.406561,40.9230082 114.406561,35.6323654 C114.406561,32.5268801 116.381787,30.7155125 120.157733,30.7155125 C121.668112,30.7155125 123.294326,31.0029288 124.456194,31.6646314 C125.12413,32.5556714 125.530809,34.4534128 125.269552,35.7187391 C123.962262,34.9711591 122.190626,34.4251179 120.825669,34.4251179 C119.751054,34.4251179 119.51838,34.740829 119.51838,35.2297841 C119.51838,36.926483 125.966573,35.9773641 125.966573,41.0957558 C125.966573,45.0346984 123.352495,46.3859022 119.373459,46.3859022 C117.833997,46.3859022 116.207281,46.1848598 114.870907,45.6095309 C114.087135,44.5457434 113.825376,42.4181683 114.115717,41.3543807 C115.36534,42.0731695 117.485486,42.648002 119.140785,42.648002" id="Fill-33" fill="#FFFFFF"></path>
                    <path d="M133.751742,36.006205 L134.826858,36.006205 L137.81803,31.3767684 C138.224709,31.2040208 139.124818,31.0605609 140.054513,31.0605609 C141.419972,31.0605609 142.697676,31.3479772 143.162523,31.7217672 L139.038066,37.7599901 C140.403525,40.3189377 142.058322,43.0218416 143.917712,45.551998 C143.42378,45.8682055 142.407334,45.9833706 141.158213,45.9833706 C139.735087,45.9833706 138.456882,45.8399106 137.905283,45.551998 C136.714831,43.7694217 135.668799,41.9868454 134.710521,39.8875652 L133.751742,39.8875652 L133.751742,45.551998 C133.315978,45.7818317 132.560789,45.9545793 131.195331,45.9545793 C129.830374,45.9545793 129.075184,45.7818317 128.639421,45.551998 L128.639421,25.2238769 C129.772205,24.5626706 131.369837,24.2176719 133.751742,24.2176719 L133.751742,36.006205 Z" id="Fill-35" fill="#FFFFFF"></path>
                    <path d="M145.893641,31.549516 C146.329404,31.3191859 147.084593,31.1469347 148.450051,31.1469347 C149.815008,31.1469347 150.570198,31.3191859 151.005961,31.549516 L151.005961,45.551998 C150.570198,45.7818317 149.815008,45.9545793 148.450051,45.9545793 C147.084593,45.9545793 146.329404,45.7818317 145.893641,45.551998 L145.893641,31.549516 Z M151.238134,26.8054108 C151.238134,28.616282 150.105852,29.6517746 148.450051,29.6517746 C146.649331,29.6517746 145.661467,28.6455696 145.661467,26.8054108 C145.661467,25.1662944 146.85242,24.1025068 148.450051,24.1025068 C150.105852,24.1025068 151.238134,25.0799206 151.238134,26.8054108 L151.238134,26.8054108 Z" id="Fill-37" fill="#FFFFFF"></path>
                    <path d="M159.719822,45.551998 C159.284059,45.7818317 158.52887,45.9545793 157.163411,45.9545793 C155.798454,45.9545793 155.043265,45.7818317 154.607502,45.551998 L154.607502,31.7793497 C155.566281,31.2616034 156.931238,30.9741871 158.761043,30.9741871 L159.022802,33.446761 L159.284059,33.446761 C160.068332,31.7793497 161.520542,30.7155622 164.13462,30.7155622 C166.312935,30.7155622 168.956098,31.4348474 168.956098,36.26483 L168.956098,45.551998 C168.520836,45.7818317 167.765145,45.9545793 166.40069,45.9545793 C165.035231,45.9545793 164.280042,45.7818317 163.844279,45.551998 L163.844279,37.1563663 C163.844279,35.9486225 163.350848,35.2298337 162.101727,35.2298337 C160.910775,35.2298337 160.155585,35.8622487 159.719822,36.63862 L159.719822,45.551998 Z" id="Fill-39" fill="#FFFFFF"></path>
                </g>
            </g>
        </g>
    </g>
</svg>