<?xml version="1.0" encoding="UTF-8"?>
<svg width="180px" height="169px" viewBox="0 0 180 169" version="1.1" xmlns="http://www.w3.org/2000/svg" xmlns:xlink="http://www.w3.org/1999/xlink">
    <!-- Generator: Sketch 55.2 (78181) - https://sketchapp.com -->
    <title>Group 12</title>
    <desc>Created with Sketch.</desc>
    <g id="Page-1" stroke="none" stroke-width="1" fill="none" fill-rule="evenodd">
        <g id="Que-es" transform="translate(-1021.000000, -1303.000000)">
            <g id="Group-12" transform="translate(1021.000000, 1303.000000)">
                <path d="M90.1200799,169 C40.4803534,169 0.240159886,128.876534 0.240159886,79.3825513 C0.240159886,61.1513158 -2.54150478,40.4497713 10.8289282,23.3486842 C24.1993612,6.24759714 45.7175005,0 59.1100199,0 C108.749746,0 180,29.8885688 180,79.3825513 C180,128.876534 139.759806,169 90.1200799,169 Z" id="Fill-11-Copy-7" fill="#ECBB3F"></path>
                <path d="M128.001474,68.8875 L128.001474,45 C128.001474,43.634375 126.91083,40 123.00295,40 L123.001387,40 C121.888868,40 120.784161,40.371875 119.879458,41.096875 L106.59329,51.7265625 C99.919737,57.0609375 91.5414668,60 83.0006937,60 L53.0001734,60 C47.4766401,60 43,64.4765625 43,70 L43,85 C43,90.5234375 47.4766401,95 53.0001734,95 L52.9251721,100 C52.9251721,106.214062 54.3720722,112.085938 56.9189914,117.334375 C57.7299429,119.004688 59.5002861,120 61.3565683,120 L77.9631063,120 C82.0334894,120 84.4772818,115.3375 82.0100515,112.1 C79.447507,108.7375 77.9240431,104.54375 77.9240431,100 C77.9240431,98.2640625 78.1771725,96.5953125 78.6131176,95 L83.0006937,95 C91.5414668,95 99.919737,97.9390625 106.591728,103.273438 L119.877896,113.903125 C120.764026,114.612219 121.864899,114.999005 122.999825,115 C126.893642,115 127.999911,111.440625 127.999911,110 L127.999911,86.1125 C130.976526,84.3796875 133,81.1921875 133,77.5 C133.001561,73.8078125 130.978088,70.6203125 128.001474,68.8875 Z M77.9631063,115 L61.4175069,114.995313 C59.1002792,110.220313 57.9252588,105.278125 57.9236963,100.075 L57.9986976,95.075 L58.0002601,95 L73.5208418,95 C73.159898,96.671875 72.9255189,98.3484375 72.9255189,100 C72.9255189,105.514063 74.6911746,110.746875 77.9631063,115 Z M53.0001734,90 C50.2438756,90 48.0000867,87.75625 48.0000867,85 L48.0000867,70 C48.0000867,67.24375 50.2438756,65 53.0001734,65 L83.0006937,65 L83.0006937,90 L53.0001734,90 Z M123.0092,109.832813 C123.00295,109.871875 122.988887,109.923438 122.970137,109.973438 L109.715219,99.36875 C103.468236,94.375 95.8977923,91.271875 88.0007804,90.3328125 L88.0007804,64.6671875 C95.8977923,63.728125 103.468236,60.625 109.716782,55.6296875 L122.977949,45.0203125 C122.982637,45.025 122.987325,45.028125 122.99045,45.028125 C122.9967,45.028125 122.999825,45.0203125 123.001387,45.0015625 L123.0092,109.832813 Z" id="Shape" fill="#FFFFFF" fill-rule="nonzero"></path>
            </g>
        </g>
    </g>
</svg>