<?xml version="1.0" encoding="UTF-8"?>
<svg width="78px" height="75px" viewBox="0 0 78 75" version="1.1" xmlns="http://www.w3.org/2000/svg" xmlns:xlink="http://www.w3.org/1999/xlink">
    <!-- Generator: Sketch 55.2 (78181) - https://sketchapp.com -->
    <title>Group 2</title>
    <desc>Created with Sketch.</desc>
    <defs>
        <path d="M26.0346898,49 C11.6943243,49 0.0693795228,37.366569 0.0693795228,23.0162427 C0.0693795228,17.7302632 -0.734212492,11.7280402 3.12835705,6.76973684 C6.99092658,1.81143349 13.2072779,0 17.076228,0 C31.4165934,0 52,8.6659164 52,23.0162427 C52,37.366569 40.3750552,49 26.0346898,49 Z" id="path-1"></path>
        <filter x="-37.5%" y="-39.8%" width="175.0%" height="179.6%" filterUnits="objectBoundingBox" id="filter-2">
            <feOffset dx="0" dy="0" in="SourceAlpha" result="shadowOffsetOuter1"></feOffset>
            <feGaussianBlur stdDeviation="6.5" in="shadowOffsetOuter1" result="shadowBlurOuter1"></feGaussianBlur>
            <feColorMatrix values="0 0 0 0 0   0 0 0 0 0   0 0 0 0 0  0 0 0 0.7 0" type="matrix" in="shadowBlurOuter1"></feColorMatrix>
        </filter>
    </defs>
    <g id="Page-1" stroke="none" stroke-width="1" fill="none" fill-rule="evenodd">
        <g id="Home" transform="translate(-337.000000, -1809.000000)">
            <g id="Group-2" transform="translate(350.000000, 1822.000000)">
                <g id="Fill-11-Copy-6">
                    <use fill="black" fill-opacity="1" filter="url(#filter-2)" xlink:href="#path-1"></use>
                    <use fill="#70C149" fill-rule="evenodd" xlink:href="#path-1"></use>
                </g>
                <path d="M21.3120738,27.6 L26.8172933,33.105 C27.436068,33.72375 28.1960983,34 28.9423781,34 C30.5024403,34 32,32.7875 32,30.9575 L32,16.02375 C32,14.90625 31.0937139,14 29.9761693,14 L15.0418237,14 C12.3367158,14 10.9829118,17.27 12.8954881,19.1825 L18.484461,24.77125 L21.3120738,27.6 Z M16.5,17.7928932 L27.5,17.7928932 L27.5,28.7928932 L16.5,17.7928932 Z" id="Shape" fill="#FFFFFF" fill-rule="nonzero" transform="translate(22.000000, 24.000000) rotate(-315.000000) translate(-22.000000, -24.000000) "></path>
            </g>
        </g>
    </g>
</svg>