<?xml version="1.0" encoding="utf-8"?>
<!-- Generator: Adobe Illustrator 22.0.0, SVG Export Plug-In . SVG Version: 6.00 Build 0)  -->
<svg version="1.1" id="Capa_1" xmlns="http://www.w3.org/2000/svg" xmlns:xlink="http://www.w3.org/1999/xlink" x="0px" y="0px"
	 viewBox="0 0 167.8 59.6" style="enable-background:new 0 0 167.8 59.6;" xml:space="preserve">
<style type="text/css">
	.st0{clip-path:url(#SVGID_2_);}
	.st1{clip-path:url(#SVGID_4_);fill:#6CA753;}
	.st2{clip-path:url(#SVGID_6_);}
	.st3{clip-path:url(#SVGID_8_);fill:#7AB6C3;}
	.st4{clip-path:url(#SVGID_10_);}
	.st5{clip-path:url(#SVGID_12_);fill:#DAAE42;}
	.st6{clip-path:url(#SVGID_14_);}
	.st7{clip-path:url(#SVGID_16_);enable-background:new    ;}
	.st8{clip-path:url(#SVGID_18_);}
	.st9{clip-path:url(#SVGID_20_);}
	.st10{clip-path:url(#SVGID_22_);fill:#C86B33;}
	.st11{clip-path:url(#SVGID_24_);}
	.st12{clip-path:url(#SVGID_26_);fill:#C86B33;}
	.st13{clip-path:url(#SVGID_28_);}
	.st14{clip-path:url(#SVGID_30_);fill:#DAAE42;}
	.st15{clip-path:url(#SVGID_32_);}
	.st16{clip-path:url(#SVGID_34_);fill:#7AB6C3;}
	.st17{clip-path:url(#SVGID_36_);}
	.st18{clip-path:url(#SVGID_38_);fill:#6CA753;}
	.st19{clip-path:url(#SVGID_40_);}
	.st20{clip-path:url(#SVGID_42_);fill:#070308;}
	.st21{clip-path:url(#SVGID_44_);}
	.st22{clip-path:url(#SVGID_46_);fill:#070308;}
	.st23{clip-path:url(#SVGID_48_);}
	.st24{clip-path:url(#SVGID_50_);fill:#070308;}
	.st25{clip-path:url(#SVGID_52_);}
	.st26{clip-path:url(#SVGID_54_);fill:#070308;}
	.st27{clip-path:url(#SVGID_56_);}
	.st28{clip-path:url(#SVGID_58_);fill:#070308;}
	.st29{clip-path:url(#SVGID_60_);}
	.st30{clip-path:url(#SVGID_62_);fill:#070308;}
	.st31{clip-path:url(#SVGID_64_);}
	.st32{clip-path:url(#SVGID_66_);fill:#6CA753;}
	.st33{clip-path:url(#SVGID_68_);}
	.st34{clip-path:url(#SVGID_70_);fill:#070308;}
	.st35{clip-path:url(#SVGID_72_);}
	.st36{clip-path:url(#SVGID_74_);fill:#070308;}
	.st37{clip-path:url(#SVGID_76_);}
	.st38{clip-path:url(#SVGID_78_);fill:#070308;}
	.st39{clip-path:url(#SVGID_80_);}
	.st40{clip-path:url(#SVGID_82_);fill:#070308;}
	.st41{clip-path:url(#SVGID_84_);}
	.st42{clip-path:url(#SVGID_86_);fill:#070308;}
	.st43{clip-path:url(#SVGID_88_);}
	.st44{clip-path:url(#SVGID_90_);fill:#070308;}
	.st45{clip-path:url(#SVGID_92_);}
	.st46{clip-path:url(#SVGID_94_);fill:#070308;}
	.st47{clip-path:url(#SVGID_96_);}
	.st48{clip-path:url(#SVGID_98_);fill:#070308;}
	.st49{clip-path:url(#SVGID_100_);}
	.st50{clip-path:url(#SVGID_102_);fill:#070308;}
	.st51{clip-path:url(#SVGID_104_);}
	.st52{clip-path:url(#SVGID_106_);fill:#070308;}
	.st53{clip-path:url(#SVGID_108_);}
	.st54{clip-path:url(#SVGID_110_);fill:#070308;}
	.st55{clip-path:url(#SVGID_112_);}
	.st56{clip-path:url(#SVGID_114_);fill:#070308;}
	.st57{clip-path:url(#SVGID_116_);}
	.st58{clip-path:url(#SVGID_118_);fill:#070308;}
	.st59{clip-path:url(#SVGID_120_);}
	.st60{clip-path:url(#SVGID_122_);fill:#070308;}
	.st61{clip-path:url(#SVGID_124_);}
	.st62{clip-path:url(#SVGID_126_);fill:#070308;}
	.st63{clip-path:url(#SVGID_128_);}
	.st64{clip-path:url(#SVGID_130_);fill:#070308;}
	.st65{clip-path:url(#SVGID_132_);}
	.st66{clip-path:url(#SVGID_134_);fill:#070308;}
	.st67{clip-path:url(#SVGID_136_);}
	.st68{clip-path:url(#SVGID_138_);fill:#070308;}
	.st69{clip-path:url(#SVGID_140_);}
	.st70{clip-path:url(#SVGID_142_);fill:#070308;}
	.st71{clip-path:url(#SVGID_144_);}
	.st72{clip-path:url(#SVGID_146_);fill:#070308;}
	.st73{clip-path:url(#SVGID_148_);}
	.st74{clip-path:url(#SVGID_150_);fill:#070308;}
	.st75{clip-path:url(#SVGID_152_);}
	.st76{clip-path:url(#SVGID_154_);fill:#070308;}
	.st77{clip-path:url(#SVGID_156_);}
	.st78{clip-path:url(#SVGID_158_);fill:#070308;}
	.st79{clip-path:url(#SVGID_160_);}
	.st80{clip-path:url(#SVGID_162_);fill:#070308;}
	.st81{clip-path:url(#SVGID_164_);}
	.st82{clip-path:url(#SVGID_166_);fill:#070308;}
	.st83{clip-path:url(#SVGID_168_);}
	.st84{clip-path:url(#SVGID_170_);fill:#070308;}
	.st85{clip-path:url(#SVGID_172_);}
	.st86{clip-path:url(#SVGID_174_);fill:#070308;}
	.st87{clip-path:url(#SVGID_176_);}
	.st88{clip-path:url(#SVGID_178_);fill:#070308;}
	.st89{clip-path:url(#SVGID_180_);}
	.st90{clip-path:url(#SVGID_182_);fill:#070308;}
	.st91{clip-path:url(#SVGID_184_);}
	.st92{clip-path:url(#SVGID_186_);fill:#070308;}
	.st93{clip-path:url(#SVGID_188_);}
	.st94{clip-path:url(#SVGID_190_);fill:#070308;}
	.st95{clip-path:url(#SVGID_192_);}
	.st96{clip-path:url(#SVGID_194_);fill:#070308;}
	.st97{clip-path:url(#SVGID_196_);}
	.st98{clip-path:url(#SVGID_198_);fill:#070308;}
	.st99{clip-path:url(#SVGID_200_);}
	.st100{clip-path:url(#SVGID_202_);fill:#070308;}
	.st101{clip-path:url(#SVGID_204_);}
	.st102{clip-path:url(#SVGID_206_);fill:#070308;}
	.st103{clip-path:url(#SVGID_208_);}
	.st104{clip-path:url(#SVGID_210_);fill:#070308;}
</style>
<g>
	<g>
		<defs>
			<path id="SVGID_1_" d="M6.2,9.6C6,9.6,5.7,9.5,5.5,9.4C4.9,9,4.8,8.2,5.2,7.6c2.5-3.7,6.7-6.3,11.6-7.2c4.6-0.8,9.2-0.2,13.1,0.5
				c0.7,0.1,1.1,0.8,1,1.5c-0.1,0.7-0.8,1.1-1.5,1c-3.7-0.7-8-1.3-12.2-0.5C13,3.6,9.4,5.9,7.2,9C7,9.4,6.6,9.6,6.2,9.6"/>
		</defs>
		<clipPath id="SVGID_2_">
			<use xlink:href="#SVGID_1_"  style="overflow:visible;"/>
		</clipPath>
		<g class="st0">
			<defs>
				<rect id="SVGID_3_" x="-170" y="-20" width="1440" height="1680"/>
			</defs>
			<clipPath id="SVGID_4_">
				<use xlink:href="#SVGID_3_"  style="overflow:visible;"/>
			</clipPath>
			<rect x="-0.1" y="-5" class="st1" width="35.9" height="19.6"/>
		</g>
	</g>
	<g>
		<defs>
			<path id="SVGID_5_" d="M33.7,10.1c-0.2,0-0.5-0.1-0.7-0.2C27.6,6.4,21.4,6,14.1,8.8c-0.7,0.2-1.4-0.1-1.6-0.7
				c-0.2-0.7,0.1-1.4,0.7-1.6c8.1-3.1,15.2-2.6,21.2,1.3c0.6,0.4,0.7,1.2,0.4,1.8C34.5,9.9,34.1,10.1,33.7,10.1"/>
		</defs>
		<clipPath id="SVGID_6_">
			<use xlink:href="#SVGID_5_"  style="overflow:visible;"/>
		</clipPath>
		<g class="st2">
			<defs>
				<rect id="SVGID_7_" x="-170" y="-20" width="1440" height="1680"/>
			</defs>
			<clipPath id="SVGID_8_">
				<use xlink:href="#SVGID_7_"  style="overflow:visible;"/>
			</clipPath>
			<rect x="7.4" y="-0.5" class="st3" width="32.6" height="15.6"/>
		</g>
	</g>
	<g>
		<defs>
			<path id="SVGID_9_" d="M34.6,15.4c-0.3,0-0.5-0.1-0.7-0.2c-5.3-3.7-12.7-4.3-18.3-1.5c-0.6,0.3-1.4,0.1-1.7-0.6
				c-0.3-0.6-0.1-1.4,0.6-1.7c6.5-3.2,14.9-2.5,20.9,1.7c0.6,0.4,0.7,1.2,0.3,1.8C35.4,15.2,35,15.4,34.6,15.4"/>
		</defs>
		<clipPath id="SVGID_10_">
			<use xlink:href="#SVGID_9_"  style="overflow:visible;"/>
		</clipPath>
		<g class="st4">
			<defs>
				<rect id="SVGID_11_" x="-170" y="-20" width="1440" height="1680"/>
			</defs>
			<clipPath id="SVGID_12_">
				<use xlink:href="#SVGID_11_"  style="overflow:visible;"/>
			</clipPath>
			<rect x="8.7" y="4.4" class="st5" width="32.2" height="16"/>
		</g>
	</g>
	<g>
		<defs>
			<rect id="SVGID_13_" y="13.9" width="32" height="26.8"/>
		</defs>
		<clipPath id="SVGID_14_">
			<use xlink:href="#SVGID_13_"  style="overflow:visible;"/>
		</clipPath>
		<g class="st6">
			<defs>
				<rect id="SVGID_15_" x="-170" y="-20" width="1440" height="1680"/>
			</defs>
			<clipPath id="SVGID_16_">
				<use xlink:href="#SVGID_15_"  style="overflow:visible;"/>
			</clipPath>
			<g class="st7">
				<g>
					<defs>
						<rect id="SVGID_17_" x="-1" y="13" width="33" height="28"/>
					</defs>
					<clipPath id="SVGID_18_">
						<use xlink:href="#SVGID_17_"  style="overflow:visible;"/>
					</clipPath>
					<g class="st8">
						<defs>
							<path id="SVGID_19_" d="M4.4,40.7c-0.5,0-0.9-0.3-1.1-0.7c-2.8-6-3.8-12.6-2.9-19.1c0.2-1.5,0.6-3.2,1.5-4.7
								c1-1.6,2.6-2.5,4.1-2.2c0.9,0.2,1.7,0.8,2.4,1.8c1.3,1.8,1.9,3.9,2.4,5.7c0.1,0.5,0.2,1,0.3,1.6c0.2,1.6,0.6,4,1.7,4.2
								c0.2,0,0.5,0,0.6-0.1c0.1-0.1,0.4-0.5,0.3-2c0-0.5-0.1-1.1-0.2-1.7c-0.3-1.8-0.7-4,0.7-5.8c2.4-3.1,7.3-3.1,9.2-3
								c2.4,0.2,4.8,0.8,7.8,2c0.6,0.3,1,1,0.7,1.6c-0.3,0.6-1,1-1.6,0.7c-2.7-1.1-4.9-1.7-7-1.8c-1.2-0.1-5.4-0.2-7.1,2
								c-0.7,0.9-0.5,2.4-0.2,3.9c0.1,0.7,0.2,1.3,0.3,2c0.1,1.9-0.3,3.2-1.2,4c-0.5,0.4-1.3,0.9-2.7,0.7c-3-0.4-3.5-4-3.8-6.3
								c-0.1-0.5-0.2-1.1-0.2-1.4c-0.4-1.6-0.9-3.4-2-4.9c-0.3-0.5-0.6-0.7-0.9-0.8c-0.4-0.1-1,0.4-1.4,1c-0.7,1.1-1,2.5-1.1,3.8
								c-0.9,6,0.1,12.1,2.7,17.6c0.3,0.6,0,1.4-0.6,1.7C4.7,40.6,4.5,40.7,4.4,40.7"/>
						</defs>
						<clipPath id="SVGID_20_">
							<use xlink:href="#SVGID_19_"  style="overflow:visible;"/>
						</clipPath>
						<g class="st9">
							<defs>
								<rect id="SVGID_21_" y="13" width="32" height="28"/>
							</defs>
							<clipPath id="SVGID_22_">
								<use xlink:href="#SVGID_21_"  style="overflow:visible;"/>
							</clipPath>
							<rect x="-5" y="8.9" class="st10" width="42" height="36.8"/>
						</g>
					</g>
				</g>
			</g>
		</g>
	</g>
	<g>
		<defs>
			<path id="SVGID_23_" d="M167.8,38.3c0-3-0.4-5.9-0.9-8.4c-0.1-0.7-0.8-1.1-1.5-1c-0.7,0.1-1.1,0.8-1,1.5c0.7,3.7,1.3,8,0.5,12.2
				c-0.8,4.2-3,7.8-6.1,9.9c-0.6,0.4-0.7,1.2-0.3,1.8c0.4,0.6,1.2,0.7,1.8,0.3c3.7-2.5,6.3-6.7,7.2-11.6
				C167.6,41.3,167.8,39.8,167.8,38.3"/>
		</defs>
		<clipPath id="SVGID_24_">
			<use xlink:href="#SVGID_23_"  style="overflow:visible;"/>
		</clipPath>
		<g class="st11">
			<defs>
				<rect id="SVGID_25_" x="-170" y="-20" width="1440" height="1680"/>
			</defs>
			<clipPath id="SVGID_26_">
				<use xlink:href="#SVGID_25_"  style="overflow:visible;"/>
			</clipPath>
			<rect x="153.2" y="23.8" class="st12" width="19.6" height="35.9"/>
		</g>
	</g>
	<g>
		<defs>
			<path id="SVGID_27_" d="M163.3,36.4c0-4.1-1.1-7.8-3.3-11.2c-0.4-0.6-1.2-0.7-1.8-0.4c-0.6,0.4-0.7,1.2-0.4,1.8
				c3.5,5.4,3.9,11.6,1.1,18.9c-0.2,0.7,0.1,1.4,0.7,1.6c0.7,0.2,1.4-0.1,1.6-0.7C162.6,42.9,163.3,39.6,163.3,36.4"/>
		</defs>
		<clipPath id="SVGID_28_">
			<use xlink:href="#SVGID_27_"  style="overflow:visible;"/>
		</clipPath>
		<g class="st13">
			<defs>
				<rect id="SVGID_29_" x="-170" y="-20" width="1440" height="1680"/>
			</defs>
			<clipPath id="SVGID_30_">
				<use xlink:href="#SVGID_29_"  style="overflow:visible;"/>
			</clipPath>
			<rect x="152.6" y="19.7" class="st14" width="15.6" height="32.6"/>
		</g>
	</g>
	<g>
		<defs>
			<path id="SVGID_31_" d="M158.4,36.3c0-4.3-1.3-8.6-3.7-12.1c-0.4-0.6-1.2-0.7-1.8-0.3c-0.6,0.4-0.7,1.2-0.3,1.8
				c3.7,5.3,4.3,12.7,1.5,18.3c-0.3,0.6-0.1,1.4,0.6,1.7c0.6,0.3,1.4,0.1,1.7-0.6C157.7,42.5,158.4,39.4,158.4,36.3"/>
		</defs>
		<clipPath id="SVGID_32_">
			<use xlink:href="#SVGID_31_"  style="overflow:visible;"/>
		</clipPath>
		<g class="st15">
			<defs>
				<rect id="SVGID_33_" x="-170" y="-20" width="1440" height="1680"/>
			</defs>
			<clipPath id="SVGID_34_">
				<use xlink:href="#SVGID_33_"  style="overflow:visible;"/>
			</clipPath>
			<rect x="147.3" y="18.8" class="st16" width="16" height="32.2"/>
		</g>
	</g>
	<g>
		<defs>
			<path id="SVGID_35_" d="M153.8,54.3c0-0.2,0-0.4-0.1-0.6c-0.2-0.9-0.8-1.7-1.8-2.4c-1.8-1.3-3.9-1.9-5.7-2.4
				c-0.5-0.1-1-0.2-1.6-0.3c-1.6-0.2-4-0.6-4.2-1.7c0-0.2,0-0.5,0.1-0.6c0.1-0.1,0.5-0.4,2-0.3c0.5,0,1.1,0.1,1.7,0.2
				c1.8,0.3,4,0.7,5.8-0.7c3.1-2.4,3.1-7.3,3-9.2c-0.2-2.4-0.8-4.8-2-7.8c-0.3-0.6-1-1-1.6-0.7c-0.6,0.3-1,1-0.7,1.6
				c1.1,2.7,1.7,4.9,1.8,7c0.1,1.2,0.2,5.4-2,7.1c-0.9,0.7-2.4,0.5-3.9,0.2c-0.7-0.1-1.3-0.2-2-0.3c-1.9-0.1-3.2,0.3-4,1.2
				c-0.4,0.5-0.9,1.3-0.7,2.7c0.4,3,4,3.5,6.3,3.8c0.5,0.1,1.1,0.2,1.4,0.2c1.6,0.4,3.4,0.9,4.9,2c0.5,0.3,0.7,0.6,0.8,0.9
				c0.1,0.4-0.4,1-1,1.4c-1.1,0.7-2.5,1-3.8,1.1c-6,0.9-12.1-0.1-17.6-2.7c-0.6-0.3-1.4,0-1.7,0.6c-0.3,0.6,0,1.4,0.6,1.7
				c6,2.8,12.6,3.8,19.1,2.9c1.5-0.2,3.2-0.6,4.7-1.5C153,56.9,153.8,55.6,153.8,54.3"/>
		</defs>
		<clipPath id="SVGID_36_">
			<use xlink:href="#SVGID_35_"  style="overflow:visible;"/>
		</clipPath>
		<g class="st17">
			<defs>
				<rect id="SVGID_37_" x="-170" y="-20" width="1440" height="1680"/>
			</defs>
			<clipPath id="SVGID_38_">
				<use xlink:href="#SVGID_37_"  style="overflow:visible;"/>
			</clipPath>
			<rect x="122.1" y="22.7" class="st18" width="36.8" height="42"/>
		</g>
	</g>
	<g>
		<defs>
			<path id="SVGID_39_" d="M25.1,36.1c1.1,0,1.4-0.3,1.4-0.9c0-1.6-5.4-0.6-5.4-5.2c0-2.7,1.7-4.2,4.9-4.2c1.3,0,2.7,0.2,3.6,0.8
				c0.6,0.8,0.9,2.4,0.7,3.5c-1.1-0.6-2.6-1.1-3.8-1.1c-0.9,0-1.1,0.3-1.1,0.7c0,1.5,5.5,0.6,5.5,5c0,3.4-2.2,4.5-5.6,4.5
				c-1.3,0-2.7-0.2-3.8-0.7c-0.7-0.9-0.9-2.7-0.6-3.6C21.9,35.6,23.7,36.1,25.1,36.1"/>
		</defs>
		<clipPath id="SVGID_40_">
			<use xlink:href="#SVGID_39_"  style="overflow:visible;"/>
		</clipPath>
		<g class="st19">
			<defs>
				<rect id="SVGID_41_" x="-170" y="-20" width="1440" height="1680"/>
			</defs>
			<clipPath id="SVGID_42_">
				<use xlink:href="#SVGID_41_"  style="overflow:visible;"/>
			</clipPath>
			<rect x="15.7" y="20.9" class="st20" width="20.2" height="23.4"/>
		</g>
	</g>
	<g>
		<defs>
			<path id="SVGID_43_" d="M45.3,32.4c0,4.5-2.5,6.9-6.4,6.9c-4.1,0-6.4-2.3-6.4-6.9c0-4.1,2.6-6.5,6.4-6.5
				C42.8,25.9,45.3,28.2,45.3,32.4 M38.9,35.9c1.4,0,1.9-1.2,1.9-3.5c0-1.9-0.7-3.1-1.9-3.1c-1.3,0-1.9,1.2-1.9,3.1
				C36.9,34.7,37.6,35.9,38.9,35.9"/>
		</defs>
		<clipPath id="SVGID_44_">
			<use xlink:href="#SVGID_43_"  style="overflow:visible;"/>
		</clipPath>
		<g class="st21">
			<defs>
				<rect id="SVGID_45_" x="-170" y="-20" width="1440" height="1680"/>
			</defs>
			<clipPath id="SVGID_46_">
				<use xlink:href="#SVGID_45_"  style="overflow:visible;"/>
			</clipPath>
			<rect x="27.5" y="20.9" class="st22" width="22.8" height="23.4"/>
		</g>
	</g>
	<g>
		<defs>
			<path id="SVGID_47_" d="M54.8,35.6c1,0,2.2-0.2,3-0.6c0.2,1.2-0.3,2.9-1.2,3.7c-0.9,0.4-1.9,0.6-3.3,0.6c-4.1,0-6.4-2.4-6.4-6.5
				c0-4.6,2.9-6.9,6.7-6.9c1.2,0,2.3,0.2,3.1,0.6c0.7,0.8,1,2.5,0.8,3.7c-0.8-0.5-1.7-0.7-2.8-0.7c-2,0-3.3,0.8-3.3,3
				C51.5,34.7,52.8,35.6,54.8,35.6"/>
		</defs>
		<clipPath id="SVGID_48_">
			<use xlink:href="#SVGID_47_"  style="overflow:visible;"/>
		</clipPath>
		<g class="st23">
			<defs>
				<rect id="SVGID_49_" x="-170" y="-20" width="1440" height="1680"/>
			</defs>
			<clipPath id="SVGID_50_">
				<use xlink:href="#SVGID_49_"  style="overflow:visible;"/>
			</clipPath>
			<rect x="42" y="20.9" class="st24" width="20.9" height="23.4"/>
		</g>
	</g>
	<g>
		<defs>
			<path id="SVGID_51_" d="M64.7,22.6c0,1.6-1,2.4-2.4,2.4c-1.5,0-2.4-0.9-2.4-2.4c0-1.4,1-2.3,2.4-2.3
				C63.7,20.2,64.7,21.1,64.7,22.6z M60.2,26.6c0.4-0.2,1-0.3,2.2-0.3c1.2,0,1.8,0.1,2.2,0.3v12c-0.4,0.2-1,0.3-2.2,0.3
				c-1.2,0-1.8-0.1-2.2-0.3V26.6z"/>
		</defs>
		<clipPath id="SVGID_52_">
			<use xlink:href="#SVGID_51_"  style="overflow:visible;"/>
		</clipPath>
		<g class="st25">
			<defs>
				<rect id="SVGID_53_" x="-170" y="-20" width="1440" height="1680"/>
			</defs>
			<clipPath id="SVGID_54_">
				<use xlink:href="#SVGID_53_"  style="overflow:visible;"/>
			</clipPath>
			<rect x="55" y="15.2" class="st26" width="14.7" height="28.7"/>
		</g>
	</g>
	<g>
		<defs>
			<path id="SVGID_55_" d="M74.2,37.5c-0.5,1.1-1.6,1.8-3.4,1.8c-2.1,0-4-1.1-4-4c0-3.1,2.1-4.3,5-4.3c0.8,0,1.6,0.1,2.2,0.3v-0.3
				c0-1.3-0.8-1.7-2.2-1.7c-1.4,0-2.9,0.4-4,1c-0.4-1.1-0.2-2.9,0.5-3.8c0.9-0.4,2.5-0.7,4.4-0.7c3.8,0,5.7,1.2,5.7,5v3.8
				c0,0.7,0.3,0.9,0.9,0.9c0.3,0,0.7-0.1,0.9-0.3c0.2,1.1-0.2,2.7-0.8,3.4c-0.6,0.4-1.3,0.6-2.3,0.6c-1.6,0-2.3-0.6-2.6-1.8H74.2z
				 M74,34c-0.4-0.2-0.8-0.2-1.3-0.2c-1.2,0-1.7,0.4-1.7,1.2c0,0.8,0.5,1.1,1.4,1.1c0.6,0,1.3-0.2,1.7-0.7V34z"/>
		</defs>
		<clipPath id="SVGID_56_">
			<use xlink:href="#SVGID_55_"  style="overflow:visible;"/>
		</clipPath>
		<g class="st27">
			<defs>
				<rect id="SVGID_57_" x="-170" y="-20" width="1440" height="1680"/>
			</defs>
			<clipPath id="SVGID_58_">
				<use xlink:href="#SVGID_57_"  style="overflow:visible;"/>
			</clipPath>
			<rect x="61.7" y="20.9" class="st28" width="23.4" height="23.4"/>
		</g>
	</g>
	<g>
		<defs>
			<path id="SVGID_59_" d="M87.5,38.8c-0.6,0.4-1.4,0.6-2.4,0.6c-2.9,0-3.6-1.9-3.6-4.3V21.2c1-0.6,2.3-0.9,4.3-0.9v14.1
				c0,0.9,0.3,1.1,1,1.1c0.5,0,0.9-0.1,1.4-0.4C88.6,36.3,88.2,38.1,87.5,38.8"/>
		</defs>
		<clipPath id="SVGID_60_">
			<use xlink:href="#SVGID_59_"  style="overflow:visible;"/>
		</clipPath>
		<g class="st29">
			<defs>
				<rect id="SVGID_61_" x="-170" y="-20" width="1440" height="1680"/>
			</defs>
			<clipPath id="SVGID_62_">
				<use xlink:href="#SVGID_61_"  style="overflow:visible;"/>
			</clipPath>
			<rect x="76.6" y="15.3" class="st30" width="16.8" height="29"/>
		</g>
	</g>
	<g>
		<defs>
			<path id="SVGID_63_" d="M94.8,32.6c0,1.6-1,2.6-2.5,2.6c-1.6,0-2.5-0.9-2.5-2.6c0-1.5,1.1-2.4,2.5-2.4
				C93.7,30.1,94.8,31,94.8,32.6"/>
		</defs>
		<clipPath id="SVGID_64_">
			<use xlink:href="#SVGID_63_"  style="overflow:visible;"/>
		</clipPath>
		<g class="st31">
			<defs>
				<rect id="SVGID_65_" x="-170" y="-20" width="1440" height="1680"/>
			</defs>
			<clipPath id="SVGID_66_">
				<use xlink:href="#SVGID_65_"  style="overflow:visible;"/>
			</clipPath>
			<rect x="84.8" y="25.1" class="st32" width="15" height="15"/>
		</g>
	</g>
	<g>
		<defs>
			<path id="SVGID_67_" d="M101.1,36.1c1.1,0,1.4-0.3,1.4-0.9c0-1.6-5.4-0.6-5.4-5.2c0-2.7,1.7-4.2,4.9-4.2c1.3,0,2.7,0.2,3.6,0.8
				c0.6,0.8,0.9,2.4,0.7,3.5c-1.1-0.6-2.6-1.1-3.8-1.1c-0.9,0-1.1,0.3-1.1,0.7c0,1.5,5.5,0.6,5.5,5c0,3.4-2.2,4.5-5.6,4.5
				c-1.3,0-2.7-0.2-3.8-0.7c-0.7-0.9-0.9-2.7-0.6-3.6C97.9,35.6,99.7,36.1,101.1,36.1"/>
		</defs>
		<clipPath id="SVGID_68_">
			<use xlink:href="#SVGID_67_"  style="overflow:visible;"/>
		</clipPath>
		<g class="st33">
			<defs>
				<rect id="SVGID_69_" x="-170" y="-20" width="1440" height="1680"/>
			</defs>
			<clipPath id="SVGID_70_">
				<use xlink:href="#SVGID_69_"  style="overflow:visible;"/>
			</clipPath>
			<rect x="91.8" y="20.9" class="st34" width="20.2" height="23.4"/>
		</g>
	</g>
	<g>
		<defs>
			<path id="SVGID_71_" d="M113.5,30.4h0.9l2.5-4c0.3-0.1,1.1-0.3,1.9-0.3c1.2,0,2.2,0.2,2.6,0.6l-3.5,5.2c1.2,2.2,2.6,4.5,4.1,6.7
				c-0.4,0.3-1.3,0.4-2.3,0.4c-1.2,0-2.3-0.1-2.8-0.4c-1-1.5-1.9-3.1-2.7-4.9h-0.8v4.9c-0.4,0.2-1,0.3-2.2,0.3
				c-1.2,0-1.8-0.1-2.2-0.3V21.2c1-0.6,2.3-0.9,4.3-0.9V30.4z"/>
		</defs>
		<clipPath id="SVGID_72_">
			<use xlink:href="#SVGID_71_"  style="overflow:visible;"/>
		</clipPath>
		<g class="st35">
			<defs>
				<rect id="SVGID_73_" x="-170" y="-20" width="1440" height="1680"/>
			</defs>
			<clipPath id="SVGID_74_">
				<use xlink:href="#SVGID_73_"  style="overflow:visible;"/>
			</clipPath>
			<rect x="104.2" y="15.3" class="st36" width="23" height="28.7"/>
		</g>
	</g>
	<g>
		<defs>
			<path id="SVGID_75_" d="M128.4,22.6c0,1.6-1,2.4-2.4,2.4c-1.5,0-2.4-0.9-2.4-2.4c0-1.4,1-2.3,2.4-2.3
				C127.4,20.2,128.4,21.1,128.4,22.6z M123.8,26.6c0.4-0.2,1-0.3,2.2-0.3c1.2,0,1.8,0.1,2.2,0.3v12c-0.4,0.2-1,0.3-2.2,0.3
				c-1.2,0-1.8-0.1-2.2-0.3V26.6z"/>
		</defs>
		<clipPath id="SVGID_76_">
			<use xlink:href="#SVGID_75_"  style="overflow:visible;"/>
		</clipPath>
		<g class="st37">
			<defs>
				<rect id="SVGID_77_" x="-170" y="-20" width="1440" height="1680"/>
			</defs>
			<clipPath id="SVGID_78_">
				<use xlink:href="#SVGID_77_"  style="overflow:visible;"/>
			</clipPath>
			<rect x="118.6" y="15.2" class="st38" width="14.7" height="28.7"/>
		</g>
	</g>
	<g>
		<defs>
			<path id="SVGID_79_" d="M135.6,38.6c-0.4,0.2-1,0.3-2.2,0.3c-1.2,0-1.8-0.1-2.2-0.3V26.8c0.8-0.4,2-0.7,3.5-0.7l0.2,2.1h0.2
				c0.7-1.4,1.9-2.3,4.1-2.3c1.8,0,4.1,0.6,4.1,4.8v8c-0.4,0.2-1,0.3-2.2,0.3c-1.2,0-1.8-0.1-2.2-0.3v-7.2c0-1-0.4-1.7-1.5-1.7
				c-1,0-1.7,0.5-2,1.2V38.6z"/>
		</defs>
		<clipPath id="SVGID_80_">
			<use xlink:href="#SVGID_79_"  style="overflow:visible;"/>
		</clipPath>
		<g class="st39">
			<defs>
				<rect id="SVGID_81_" x="-170" y="-20" width="1440" height="1680"/>
			</defs>
			<clipPath id="SVGID_82_">
				<use xlink:href="#SVGID_81_"  style="overflow:visible;"/>
			</clipPath>
			<rect x="126.2" y="20.9" class="st40" width="22.2" height="23.1"/>
		</g>
	</g>
	<g>
		<defs>
			<path id="SVGID_83_" d="M28,47.2c0,0.6,0.4,0.8,1,0.8c0.4,0,0.7-0.1,1-0.2c0,0.2-0.1,0.5-0.2,0.6c-0.2,0.1-0.5,0.2-0.9,0.2
				c-1,0-1.6-0.6-1.6-1.6c0-1,0.6-1.7,1.5-1.7c0.8,0,1.2,0.5,1.2,1.3c0,0.2,0,0.4-0.1,0.5H28z M29.3,46.7c0-0.4-0.1-0.8-0.6-0.8
				c-0.5,0-0.7,0.3-0.8,0.8H29.3z"/>
		</defs>
		<clipPath id="SVGID_84_">
			<use xlink:href="#SVGID_83_"  style="overflow:visible;"/>
		</clipPath>
		<g class="st41">
			<defs>
				<rect id="SVGID_85_" x="-170" y="-20" width="1440" height="1680"/>
			</defs>
			<clipPath id="SVGID_86_">
				<use xlink:href="#SVGID_85_"  style="overflow:visible;"/>
			</clipPath>
			<rect x="22.2" y="40.4" class="st42" width="12.8" height="13.3"/>
		</g>
	</g>
	<g>
		<defs>
			<path id="SVGID_87_" d="M32.1,48c0-0.2,0.1-0.5,0.2-0.7l0.6-1.8c0,0,0.1-0.1,0.3-0.1c0.2,0,0.3,0,0.4,0.1l-1,2.9
				c-0.3,0.1-0.6,0.1-0.9,0.1l-1.1-3c0.1-0.1,0.2-0.1,0.4-0.1c0.2,0,0.3,0,0.3,0.1l0.6,1.8C32,47.5,32,47.7,32.1,48L32.1,48z"/>
		</defs>
		<clipPath id="SVGID_88_">
			<use xlink:href="#SVGID_87_"  style="overflow:visible;"/>
		</clipPath>
		<g class="st43">
			<defs>
				<rect id="SVGID_89_" x="-170" y="-20" width="1440" height="1680"/>
			</defs>
			<clipPath id="SVGID_90_">
				<use xlink:href="#SVGID_89_"  style="overflow:visible;"/>
			</clipPath>
			<rect x="25.6" y="40.5" class="st44" width="13" height="13.1"/>
		</g>
	</g>
	<g>
		<defs>
			<path id="SVGID_91_" d="M37,46.9c0,1.1-0.6,1.7-1.5,1.7c-0.9,0-1.5-0.6-1.5-1.7c0-1,0.6-1.6,1.5-1.6S37,45.9,37,46.9 M35.6,48
				c0.5,0,0.7-0.4,0.7-1.1c0-0.6-0.3-1-0.7-1c-0.5,0-0.8,0.4-0.8,1C34.8,47.6,35.1,48,35.6,48"/>
		</defs>
		<clipPath id="SVGID_92_">
			<use xlink:href="#SVGID_91_"  style="overflow:visible;"/>
		</clipPath>
		<g class="st45">
			<defs>
				<rect id="SVGID_93_" x="-170" y="-20" width="1440" height="1680"/>
			</defs>
			<clipPath id="SVGID_94_">
				<use xlink:href="#SVGID_93_"  style="overflow:visible;"/>
			</clipPath>
			<rect x="29.1" y="40.4" class="st46" width="12.9" height="13.3"/>
		</g>
	</g>
	<g>
		<defs>
			<path id="SVGID_95_" d="M38.7,48.6c-0.5,0-0.7-0.3-0.7-0.8v-3.7c0.2-0.1,0.4-0.1,0.7-0.1v3.7c0,0.3,0.1,0.3,0.3,0.3
				c0.1,0,0.3,0,0.4-0.1c0,0.2,0,0.5-0.1,0.6C39.1,48.6,38.9,48.6,38.7,48.6"/>
		</defs>
		<clipPath id="SVGID_96_">
			<use xlink:href="#SVGID_95_"  style="overflow:visible;"/>
		</clipPath>
		<g class="st47">
			<defs>
				<rect id="SVGID_97_" x="-170" y="-20" width="1440" height="1680"/>
			</defs>
			<clipPath id="SVGID_98_">
				<use xlink:href="#SVGID_97_"  style="overflow:visible;"/>
			</clipPath>
			<rect x="33" y="38.9" class="st48" width="11.4" height="14.7"/>
		</g>
	</g>
	<g>
		<defs>
			<path id="SVGID_99_" d="M42.2,48.1c-0.1,0.2-0.4,0.5-1,0.5c-0.5,0-1-0.2-1-1.2v-1.9c0.2-0.1,0.4-0.1,0.7-0.1v1.9
				c0,0.4,0.1,0.6,0.6,0.6c0.3,0,0.6-0.1,0.7-0.3v-2.1c0.1,0,0.2-0.1,0.4-0.1c0.2,0,0.3,0,0.4,0.1v2.9c-0.1,0.1-0.3,0.1-0.5,0.1
				L42.2,48.1L42.2,48.1z"/>
		</defs>
		<clipPath id="SVGID_100_">
			<use xlink:href="#SVGID_99_"  style="overflow:visible;"/>
		</clipPath>
		<g class="st49">
			<defs>
				<rect id="SVGID_101_" x="-170" y="-20" width="1440" height="1680"/>
			</defs>
			<clipPath id="SVGID_102_">
				<use xlink:href="#SVGID_101_"  style="overflow:visible;"/>
			</clipPath>
			<rect x="35.2" y="40.4" class="st50" width="12.7" height="13.2"/>
		</g>
	</g>
	<g>
		<defs>
			<path id="SVGID_103_" d="M45.5,48c0.3,0,0.6-0.1,0.8-0.2c0,0.2-0.1,0.5-0.2,0.7c-0.2,0.1-0.5,0.2-0.8,0.2c-1,0-1.5-0.6-1.5-1.6
				c0-1.1,0.7-1.7,1.6-1.7c0.3,0,0.6,0.1,0.8,0.2c0.1,0.1,0.2,0.4,0.1,0.7C46,46,45.8,46,45.5,46c-0.6,0-1,0.3-1,1S44.9,48,45.5,48"
				/>
		</defs>
		<clipPath id="SVGID_104_">
			<use xlink:href="#SVGID_103_"  style="overflow:visible;"/>
		</clipPath>
		<g class="st51">
			<defs>
				<rect id="SVGID_105_" x="-170" y="-20" width="1440" height="1680"/>
			</defs>
			<clipPath id="SVGID_106_">
				<use xlink:href="#SVGID_105_"  style="overflow:visible;"/>
			</clipPath>
			<rect x="38.8" y="40.4" class="st52" width="12.5" height="13.3"/>
		</g>
	</g>
	<g>
		<defs>
			<path id="SVGID_107_" d="M48.2,44.5c0,0.3-0.2,0.4-0.5,0.4c-0.3,0-0.5-0.2-0.5-0.4c0-0.3,0.2-0.5,0.5-0.5
				C48,44,48.2,44.2,48.2,44.5z M47.3,45.5c0.1,0,0.2-0.1,0.4-0.1c0.2,0,0.3,0,0.4,0.1v2.9c-0.1,0-0.2,0.1-0.4,0.1
				c-0.2,0-0.3,0-0.4-0.1V45.5z"/>
		</defs>
		<clipPath id="SVGID_108_">
			<use xlink:href="#SVGID_107_"  style="overflow:visible;"/>
		</clipPath>
		<g class="st53">
			<defs>
				<rect id="SVGID_109_" x="-170" y="-20" width="1440" height="1680"/>
			</defs>
			<clipPath id="SVGID_110_">
				<use xlink:href="#SVGID_109_"  style="overflow:visible;"/>
			</clipPath>
			<rect x="42.2" y="39" class="st54" width="11" height="14.5"/>
		</g>
	</g>
	<g>
		<defs>
			<path id="SVGID_111_" d="M51.9,46.9c0,1.1-0.6,1.7-1.5,1.7c-0.9,0-1.5-0.6-1.5-1.7c0-1,0.6-1.6,1.5-1.6S51.9,45.9,51.9,46.9z
				 M50.5,48c0.5,0,0.7-0.4,0.7-1.1c0-0.6-0.3-1-0.7-1c-0.5,0-0.8,0.4-0.8,1C49.7,47.6,50,48,50.5,48z M50.4,45.1
				c-0.2,0-0.3-0.2-0.4-0.3l0.7-0.9c0.2,0,0.5,0.1,0.6,0.2L50.4,45.1z"/>
		</defs>
		<clipPath id="SVGID_112_">
			<use xlink:href="#SVGID_111_"  style="overflow:visible;"/>
		</clipPath>
		<g class="st55">
			<defs>
				<rect id="SVGID_113_" x="-170" y="-20" width="1440" height="1680"/>
			</defs>
			<clipPath id="SVGID_114_">
				<use xlink:href="#SVGID_113_"  style="overflow:visible;"/>
			</clipPath>
			<rect x="44" y="38.8" class="st56" width="12.9" height="14.8"/>
		</g>
	</g>
	<g>
		<defs>
			<path id="SVGID_115_" d="M53.7,48.5c-0.1,0-0.2,0.1-0.4,0.1c-0.2,0-0.3,0-0.4-0.1v-2.9c0.1-0.1,0.3-0.1,0.6-0.1l0,0.5h0
				c0.1-0.3,0.5-0.5,1-0.5c0.5,0,1,0.2,1,1.2v1.9c-0.1,0-0.2,0.1-0.4,0.1c-0.2,0-0.3,0-0.4-0.1v-1.8c0-0.4-0.1-0.7-0.6-0.7
				c-0.4,0-0.6,0.2-0.7,0.4V48.5z"/>
		</defs>
		<clipPath id="SVGID_116_">
			<use xlink:href="#SVGID_115_"  style="overflow:visible;"/>
		</clipPath>
		<g class="st57">
			<defs>
				<rect id="SVGID_117_" x="-170" y="-20" width="1440" height="1680"/>
			</defs>
			<clipPath id="SVGID_118_">
				<use xlink:href="#SVGID_117_"  style="overflow:visible;"/>
			</clipPath>
			<rect x="48" y="40.4" class="st58" width="12.7" height="13.2"/>
		</g>
	</g>
	<g>
		<defs>
			<path id="SVGID_119_" d="M58.1,47.2c0,0.3-0.2,0.4-0.4,0.4c-0.3,0-0.4-0.2-0.4-0.4c0-0.3,0.2-0.5,0.4-0.5
				C58,46.7,58.1,46.9,58.1,47.2"/>
		</defs>
		<clipPath id="SVGID_120_">
			<use xlink:href="#SVGID_119_"  style="overflow:visible;"/>
		</clipPath>
		<g class="st59">
			<defs>
				<rect id="SVGID_121_" x="-170" y="-20" width="1440" height="1680"/>
			</defs>
			<clipPath id="SVGID_122_">
				<use xlink:href="#SVGID_121_"  style="overflow:visible;"/>
			</clipPath>
			<rect x="52.3" y="41.7" class="st60" width="10.9" height="10.9"/>
		</g>
	</g>
	<g>
		<defs>
			<path id="SVGID_123_" d="M83.2,47c0,0.3-0.2,0.4-0.4,0.4c-0.3,0-0.4-0.2-0.4-0.4c0-0.3,0.2-0.5,0.4-0.5
				C83.1,46.5,83.2,46.7,83.2,47"/>
		</defs>
		<clipPath id="SVGID_124_">
			<use xlink:href="#SVGID_123_"  style="overflow:visible;"/>
		</clipPath>
		<g class="st61">
			<defs>
				<rect id="SVGID_125_" x="-170" y="-20" width="1440" height="1680"/>
			</defs>
			<clipPath id="SVGID_126_">
				<use xlink:href="#SVGID_125_"  style="overflow:visible;"/>
			</clipPath>
			<rect x="77.4" y="41.5" class="st62" width="10.9" height="10.9"/>
		</g>
	</g>
	<g>
		<defs>
			<path id="SVGID_127_" d="M60.8,48c0.4,0,0.5-0.1,0.5-0.4c0-0.6-1.5-0.4-1.5-1.4c0-0.6,0.4-0.9,1.1-0.9c0.3,0,0.6,0.1,0.8,0.2
				c0.1,0.1,0.2,0.5,0.1,0.6c-0.3-0.2-0.6-0.3-0.9-0.3c-0.3,0-0.4,0.1-0.4,0.3c0,0.6,1.5,0.3,1.5,1.4c0,0.7-0.5,1-1.2,1
				c-0.3,0-0.7-0.1-0.9-0.2c-0.1-0.2-0.2-0.5-0.1-0.7C60,47.9,60.4,48,60.8,48"/>
		</defs>
		<clipPath id="SVGID_128_">
			<use xlink:href="#SVGID_127_"  style="overflow:visible;"/>
		</clipPath>
		<g class="st63">
			<defs>
				<rect id="SVGID_129_" x="-170" y="-20" width="1440" height="1680"/>
			</defs>
			<clipPath id="SVGID_130_">
				<use xlink:href="#SVGID_129_"  style="overflow:visible;"/>
			</clipPath>
			<rect x="54.7" y="40.4" class="st64" width="12.3" height="13.3"/>
		</g>
	</g>
	<g>
		<defs>
			<path id="SVGID_131_" d="M64.6,45.5c0,0.1,0,0.2,0,0.3c0,0.1,0,0.2,0,0.3h-0.9v1.4c0,0.3,0.1,0.5,0.4,0.5c0.2,0,0.4-0.1,0.6-0.2
				c0,0.2,0,0.5-0.2,0.7c-0.2,0.1-0.4,0.2-0.7,0.2c-0.7,0-0.9-0.4-0.9-1v-1.5h-0.5c0-0.2,0-0.5,0.1-0.6h0.4v-0.7
				c0.2-0.1,0.4-0.2,0.7-0.2v0.9H64.6z"/>
		</defs>
		<clipPath id="SVGID_132_">
			<use xlink:href="#SVGID_131_"  style="overflow:visible;"/>
		</clipPath>
		<g class="st65">
			<defs>
				<rect id="SVGID_133_" x="-170" y="-20" width="1440" height="1680"/>
			</defs>
			<clipPath id="SVGID_134_">
				<use xlink:href="#SVGID_133_"  style="overflow:visible;"/>
			</clipPath>
			<rect x="57.6" y="39.6" class="st66" width="12.2" height="14"/>
		</g>
	</g>
	<g>
		<defs>
			<path id="SVGID_135_" d="M67.2,48.2c-0.2,0.3-0.4,0.4-0.8,0.4c-0.5,0-1-0.3-1-0.9c0-0.7,0.5-1,1.2-1c0.2,0,0.4,0,0.6,0.1v-0.1
				c0-0.4-0.2-0.6-0.6-0.6c-0.4,0-0.7,0.1-1,0.3c-0.1-0.2,0-0.5,0.1-0.7c0.2-0.1,0.6-0.2,1-0.2c0.8,0,1.2,0.3,1.2,1.2v1.2
				c0,0.2,0.1,0.2,0.2,0.2c0.1,0,0.2,0,0.3-0.1c0,0.2,0,0.5-0.1,0.6c-0.1,0.1-0.3,0.1-0.5,0.1C67.5,48.6,67.3,48.5,67.2,48.2
				L67.2,48.2z M67.2,47.2c-0.1-0.1-0.3-0.1-0.5-0.1c-0.4,0-0.7,0.2-0.7,0.5s0.2,0.4,0.5,0.4c0.2,0,0.5-0.1,0.6-0.3V47.2z"/>
		</defs>
		<clipPath id="SVGID_136_">
			<use xlink:href="#SVGID_135_"  style="overflow:visible;"/>
		</clipPath>
		<g class="st67">
			<defs>
				<rect id="SVGID_137_" x="-170" y="-20" width="1440" height="1680"/>
			</defs>
			<clipPath id="SVGID_138_">
				<use xlink:href="#SVGID_137_"  style="overflow:visible;"/>
			</clipPath>
			<rect x="60.4" y="40.4" class="st68" width="13" height="13.3"/>
		</g>
	</g>
	<g>
		<defs>
			<path id="SVGID_139_" d="M70.7,45.4c0.1,0,0.2,0,0.3,0.1c0.1,0.1,0.1,0.2,0.1,0.4c0,0.1,0,0.2,0,0.3c-0.1-0.1-0.2-0.1-0.4-0.1
				c-0.4,0-0.6,0.2-0.7,0.6v1.8c-0.1,0-0.2,0.1-0.4,0.1c-0.2,0-0.3,0-0.4-0.1v-2.9c0.1-0.1,0.3-0.1,0.6-0.1l0,0.5h0
				C70,45.6,70.2,45.4,70.7,45.4"/>
		</defs>
		<clipPath id="SVGID_140_">
			<use xlink:href="#SVGID_139_"  style="overflow:visible;"/>
		</clipPath>
		<g class="st69">
			<defs>
				<rect id="SVGID_141_" x="-170" y="-20" width="1440" height="1680"/>
			</defs>
			<clipPath id="SVGID_142_">
				<use xlink:href="#SVGID_141_"  style="overflow:visible;"/>
			</clipPath>
			<rect x="64.2" y="40.4" class="st70" width="11.9" height="13.2"/>
		</g>
	</g>
	<g>
		<defs>
			<path id="SVGID_143_" d="M73.6,45.5c0,0.1,0,0.2,0,0.3c0,0.1,0,0.2,0,0.3h-0.9v1.4c0,0.3,0.1,0.5,0.4,0.5c0.2,0,0.4-0.1,0.6-0.2
				c0,0.2,0,0.5-0.2,0.7c-0.2,0.1-0.4,0.2-0.7,0.2c-0.7,0-0.9-0.4-0.9-1v-1.5h-0.5c0-0.2,0-0.5,0.1-0.6H72v-0.7
				c0.2-0.1,0.4-0.2,0.7-0.2v0.9H73.6z"/>
		</defs>
		<clipPath id="SVGID_144_">
			<use xlink:href="#SVGID_143_"  style="overflow:visible;"/>
		</clipPath>
		<g class="st71">
			<defs>
				<rect id="SVGID_145_" x="-170" y="-20" width="1440" height="1680"/>
			</defs>
			<clipPath id="SVGID_146_">
				<use xlink:href="#SVGID_145_"  style="overflow:visible;"/>
			</clipPath>
			<rect x="66.5" y="39.6" class="st72" width="12.2" height="14"/>
		</g>
	</g>
	<g>
		<defs>
			<path id="SVGID_147_" d="M76.5,48.1c-0.1,0.2-0.4,0.5-1,0.5c-0.5,0-1-0.2-1-1.2v-1.9c0.2-0.1,0.4-0.1,0.7-0.1v1.9
				c0,0.4,0.1,0.6,0.6,0.6c0.3,0,0.6-0.1,0.7-0.3v-2.1c0.1,0,0.2-0.1,0.4-0.1c0.2,0,0.3,0,0.4,0.1v2.9c-0.1,0.1-0.3,0.1-0.5,0.1
				L76.5,48.1L76.5,48.1z"/>
		</defs>
		<clipPath id="SVGID_148_">
			<use xlink:href="#SVGID_147_"  style="overflow:visible;"/>
		</clipPath>
		<g class="st73">
			<defs>
				<rect id="SVGID_149_" x="-170" y="-20" width="1440" height="1680"/>
			</defs>
			<clipPath id="SVGID_150_">
				<use xlink:href="#SVGID_149_"  style="overflow:visible;"/>
			</clipPath>
			<rect x="69.5" y="40.4" class="st74" width="12.7" height="13.2"/>
		</g>
	</g>
	<g>
		<defs>
			<path id="SVGID_151_" d="M79,45.9c0.1-0.3,0.5-0.5,0.9-0.5c0.7,0,1.2,0.5,1.2,1.5c0,1-0.5,1.7-1.5,1.7c-0.2,0-0.4,0-0.6-0.1v1.4
				C79,50,78.9,50,78.7,50c-0.2,0-0.3,0-0.4-0.1v-4.4c0.1-0.1,0.3-0.1,0.6-0.1L79,45.9L79,45.9z M79.1,47.9c0.1,0.1,0.3,0.1,0.5,0.1
				c0.7,0,0.9-0.4,0.9-1.1c0-0.6-0.3-0.9-0.7-0.9c-0.4,0-0.5,0.2-0.7,0.4V47.9z"/>
		</defs>
		<clipPath id="SVGID_152_">
			<use xlink:href="#SVGID_151_"  style="overflow:visible;"/>
		</clipPath>
		<g class="st75">
			<defs>
				<rect id="SVGID_153_" x="-170" y="-20" width="1440" height="1680"/>
			</defs>
			<clipPath id="SVGID_154_">
				<use xlink:href="#SVGID_153_"  style="overflow:visible;"/>
			</clipPath>
			<rect x="73.4" y="40.4" class="st76" width="12.8" height="14.6"/>
		</g>
	</g>
	<g>
		<defs>
			<path id="SVGID_155_" d="M88.5,45.7c0.1,0,0.2,0,0.3,0.1c0.1,0.1,0.1,0.2,0.1,0.4c0,0.1,0,0.2,0,0.3c-0.1-0.1-0.2-0.1-0.4-0.1
				c-0.4,0-0.6,0.2-0.8,0.6v1.8c-0.1,0-0.2,0.1-0.4,0.1c-0.2,0-0.3,0-0.4-0.1v-3c0.1-0.1,0.3-0.1,0.6-0.1l0,0.6h0
				C87.8,46,88,45.7,88.5,45.7"/>
		</defs>
		<clipPath id="SVGID_156_">
			<use xlink:href="#SVGID_155_"  style="overflow:visible;"/>
		</clipPath>
		<g class="st77">
			<defs>
				<rect id="SVGID_157_" x="-170" y="-20" width="1440" height="1680"/>
			</defs>
			<clipPath id="SVGID_158_">
				<use xlink:href="#SVGID_157_"  style="overflow:visible;"/>
			</clipPath>
			<rect x="82" y="40.7" class="st78" width="11.9" height="13.2"/>
		</g>
	</g>
	<g>
		<defs>
			<path id="SVGID_159_" d="M91,48.6c-0.2,0.3-0.4,0.4-0.9,0.4c-0.5,0-1-0.3-1-1c0-0.8,0.5-1.1,1.3-1.1c0.2,0,0.4,0,0.6,0.1V47
				c0-0.5-0.2-0.6-0.6-0.6c-0.4,0-0.7,0.1-1,0.3c-0.1-0.2,0-0.5,0.1-0.7c0.2-0.1,0.6-0.2,1-0.2c0.8,0,1.2,0.3,1.2,1.2v1.2
				c0,0.2,0.1,0.2,0.2,0.2c0.1,0,0.2,0,0.3-0.1c0,0.2,0,0.5-0.1,0.6C91.9,49,91.8,49,91.6,49C91.3,49,91.1,48.9,91,48.6L91,48.6z
				 M91,47.6c-0.1-0.1-0.3-0.1-0.5-0.1c-0.4,0-0.7,0.2-0.7,0.5c0,0.3,0.2,0.4,0.5,0.4c0.2,0,0.5-0.1,0.6-0.3V47.6z"/>
		</defs>
		<clipPath id="SVGID_160_">
			<use xlink:href="#SVGID_159_"  style="overflow:visible;"/>
		</clipPath>
		<g class="st79">
			<defs>
				<rect id="SVGID_161_" x="-170" y="-20" width="1440" height="1680"/>
			</defs>
			<clipPath id="SVGID_162_">
				<use xlink:href="#SVGID_161_"  style="overflow:visible;"/>
			</clipPath>
			<rect x="84.1" y="40.7" class="st80" width="13.1" height="13.3"/>
		</g>
	</g>
	<g>
		<defs>
			<path id="SVGID_163_" d="M93.5,48.9c-0.1,0-0.2,0.1-0.4,0.1c-0.2,0-0.3,0-0.4-0.1v-3c0.1-0.1,0.3-0.1,0.6-0.1l0,0.5h0
				c0.1-0.3,0.5-0.6,1-0.6c0.5,0,1,0.2,1,1.2v2c-0.1,0-0.2,0.1-0.4,0.1c-0.2,0-0.3,0-0.4-0.1V47c0-0.4-0.1-0.7-0.6-0.7
				c-0.4,0-0.6,0.2-0.7,0.4V48.9z"/>
		</defs>
		<clipPath id="SVGID_164_">
			<use xlink:href="#SVGID_163_"  style="overflow:visible;"/>
		</clipPath>
		<g class="st81">
			<defs>
				<rect id="SVGID_165_" x="-170" y="-20" width="1440" height="1680"/>
			</defs>
			<clipPath id="SVGID_166_">
				<use xlink:href="#SVGID_165_"  style="overflow:visible;"/>
			</clipPath>
			<rect x="87.8" y="40.7" class="st82" width="12.7" height="13.2"/>
		</g>
	</g>
	<g>
		<defs>
			<path id="SVGID_167_" d="M97.3,48.4c0.4,0,0.5-0.1,0.5-0.4c0-0.6-1.5-0.4-1.5-1.4c0-0.6,0.4-0.9,1.1-0.9c0.3,0,0.6,0.1,0.8,0.2
				c0.1,0.1,0.2,0.5,0.1,0.7c-0.3-0.2-0.6-0.3-0.9-0.3c-0.3,0-0.4,0.1-0.4,0.3c0,0.6,1.5,0.3,1.5,1.4c0,0.7-0.5,1-1.3,1
				c-0.3,0-0.7-0.1-0.9-0.2c-0.1-0.2-0.2-0.5-0.1-0.7C96.5,48.3,96.9,48.4,97.3,48.4"/>
		</defs>
		<clipPath id="SVGID_168_">
			<use xlink:href="#SVGID_167_"  style="overflow:visible;"/>
		</clipPath>
		<g class="st83">
			<defs>
				<rect id="SVGID_169_" x="-170" y="-20" width="1440" height="1680"/>
			</defs>
			<clipPath id="SVGID_170_">
				<use xlink:href="#SVGID_169_"  style="overflow:visible;"/>
			</clipPath>
			<rect x="91.2" y="40.7" class="st84" width="12.3" height="13.3"/>
		</g>
	</g>
	<g>
		<defs>
			<path id="SVGID_171_" d="M99.4,45.9v-0.4c0-0.9,0.5-1.2,1.1-1.2c0.3,0,0.5,0.1,0.6,0.2c0.1,0.1,0.2,0.4,0.1,0.7
				c-0.2-0.1-0.4-0.2-0.6-0.2c-0.4,0-0.5,0.2-0.5,0.6v0.5h0.8c0,0.1,0,0.2,0,0.3c0,0.1,0,0.3,0,0.3h-0.8v2.4c-0.1,0-0.2,0.1-0.4,0.1
				c-0.2,0-0.3,0-0.4-0.1v-2.4h-0.5c0-0.2,0-0.5,0.1-0.6H99.4z"/>
		</defs>
		<clipPath id="SVGID_172_">
			<use xlink:href="#SVGID_171_"  style="overflow:visible;"/>
		</clipPath>
		<g class="st85">
			<defs>
				<rect id="SVGID_173_" x="-170" y="-20" width="1440" height="1680"/>
			</defs>
			<clipPath id="SVGID_174_">
				<use xlink:href="#SVGID_173_"  style="overflow:visible;"/>
			</clipPath>
			<rect x="93.9" y="39.2" class="st86" width="12.3" height="14.7"/>
		</g>
	</g>
	<g>
		<defs>
			<path id="SVGID_175_" d="M104.2,47.3c0,1.1-0.6,1.7-1.5,1.7c-1,0-1.5-0.6-1.5-1.7c0-1,0.6-1.6,1.5-1.6S104.2,46.3,104.2,47.3
				 M102.7,48.4c0.5,0,0.7-0.4,0.7-1.1c0-0.6-0.3-1-0.7-1c-0.5,0-0.8,0.4-0.8,1C101.9,48,102.2,48.4,102.7,48.4"/>
		</defs>
		<clipPath id="SVGID_176_">
			<use xlink:href="#SVGID_175_"  style="overflow:visible;"/>
		</clipPath>
		<g class="st87">
			<defs>
				<rect id="SVGID_177_" x="-170" y="-20" width="1440" height="1680"/>
			</defs>
			<clipPath id="SVGID_178_">
				<use xlink:href="#SVGID_177_"  style="overflow:visible;"/>
			</clipPath>
			<rect x="96.2" y="40.7" class="st88" width="13" height="13.3"/>
		</g>
	</g>
	<g>
		<defs>
			<path id="SVGID_179_" d="M106.4,45.7c0.1,0,0.2,0,0.3,0.1c0.1,0.1,0.1,0.2,0.1,0.4c0,0.1,0,0.2,0,0.3c-0.1-0.1-0.2-0.1-0.4-0.1
				c-0.4,0-0.6,0.2-0.8,0.6v1.8c-0.1,0-0.2,0.1-0.4,0.1c-0.2,0-0.3,0-0.4-0.1v-3c0.1-0.1,0.3-0.1,0.6-0.1l0,0.6h0
				C105.7,46,106,45.7,106.4,45.7"/>
		</defs>
		<clipPath id="SVGID_180_">
			<use xlink:href="#SVGID_179_"  style="overflow:visible;"/>
		</clipPath>
		<g class="st89">
			<defs>
				<rect id="SVGID_181_" x="-170" y="-20" width="1440" height="1680"/>
			</defs>
			<clipPath id="SVGID_182_">
				<use xlink:href="#SVGID_181_"  style="overflow:visible;"/>
			</clipPath>
			<rect x="99.9" y="40.7" class="st90" width="11.9" height="13.2"/>
		</g>
	</g>
	<g>
		<defs>
			<path id="SVGID_183_" d="M108.1,48.9c-0.1,0-0.2,0.1-0.4,0.1c-0.2,0-0.3,0-0.4-0.1v-3c0.1-0.1,0.3-0.1,0.6-0.1l0,0.5h0
				c0.1-0.3,0.4-0.6,1-0.6c0.4,0,0.7,0.1,0.9,0.5h0c0.1-0.3,0.4-0.5,1-0.5c0.5,0,1,0.2,1,1.2v2c-0.1,0-0.2,0.1-0.4,0.1
				c-0.2,0-0.3,0-0.4-0.1V47c0-0.4-0.1-0.7-0.6-0.7c-0.4,0-0.6,0.2-0.7,0.4c0,0,0,0.2,0,0.3v1.8c-0.1,0-0.2,0.1-0.4,0.1
				c-0.2,0-0.3,0-0.3-0.1V47c0-0.4-0.1-0.7-0.6-0.7c-0.4,0-0.6,0.2-0.7,0.4V48.9z"/>
		</defs>
		<clipPath id="SVGID_184_">
			<use xlink:href="#SVGID_183_"  style="overflow:visible;"/>
		</clipPath>
		<g class="st91">
			<defs>
				<rect id="SVGID_185_" x="-170" y="-20" width="1440" height="1680"/>
			</defs>
			<clipPath id="SVGID_186_">
				<use xlink:href="#SVGID_185_"  style="overflow:visible;"/>
			</clipPath>
			<rect x="102.4" y="40.7" class="st92" width="14.7" height="13.2"/>
		</g>
	</g>
	<g>
		<defs>
			<path id="SVGID_187_" d="M114.7,48.6c-0.2,0.3-0.4,0.4-0.9,0.4c-0.5,0-1-0.3-1-1c0-0.8,0.5-1.1,1.3-1.1c0.2,0,0.4,0,0.6,0.1V47
				c0-0.5-0.2-0.6-0.6-0.6c-0.4,0-0.7,0.1-1,0.3c-0.1-0.2,0-0.5,0.1-0.7c0.2-0.1,0.6-0.2,1-0.2c0.8,0,1.2,0.3,1.2,1.2v1.2
				c0,0.2,0.1,0.2,0.2,0.2c0.1,0,0.2,0,0.3-0.1c0,0.2,0,0.5-0.1,0.6c-0.1,0.1-0.3,0.1-0.5,0.1C114.9,49,114.8,48.9,114.7,48.6
				L114.7,48.6z M114.7,47.6c-0.1-0.1-0.3-0.1-0.5-0.1c-0.4,0-0.7,0.2-0.7,0.5c0,0.3,0.2,0.4,0.5,0.4c0.2,0,0.5-0.1,0.6-0.3V47.6z"
				/>
		</defs>
		<clipPath id="SVGID_188_">
			<use xlink:href="#SVGID_187_"  style="overflow:visible;"/>
		</clipPath>
		<g class="st93">
			<defs>
				<rect id="SVGID_189_" x="-170" y="-20" width="1440" height="1680"/>
			</defs>
			<clipPath id="SVGID_190_">
				<use xlink:href="#SVGID_189_"  style="overflow:visible;"/>
			</clipPath>
			<rect x="107.8" y="40.7" class="st94" width="13.1" height="13.3"/>
		</g>
	</g>
	<g>
		<defs>
			<path id="SVGID_191_" d="M117.9,48.4c0.3,0,0.6-0.1,0.8-0.2c0,0.2-0.1,0.5-0.2,0.7c-0.2,0.1-0.5,0.2-0.8,0.2
				c-1,0-1.5-0.6-1.5-1.6c0-1.2,0.7-1.7,1.6-1.7c0.3,0,0.6,0.1,0.8,0.2c0.1,0.1,0.2,0.4,0.1,0.7c-0.2-0.1-0.4-0.2-0.7-0.2
				c-0.6,0-1,0.3-1,1C116.9,48.1,117.3,48.4,117.9,48.4"/>
		</defs>
		<clipPath id="SVGID_192_">
			<use xlink:href="#SVGID_191_"  style="overflow:visible;"/>
		</clipPath>
		<g class="st95">
			<defs>
				<rect id="SVGID_193_" x="-170" y="-20" width="1440" height="1680"/>
			</defs>
			<clipPath id="SVGID_194_">
				<use xlink:href="#SVGID_193_"  style="overflow:visible;"/>
			</clipPath>
			<rect x="111.2" y="40.7" class="st96" width="12.5" height="13.3"/>
		</g>
	</g>
	<g>
		<defs>
			<path id="SVGID_195_" d="M120.4,44.8c0,0.3-0.2,0.4-0.5,0.4c-0.3,0-0.5-0.2-0.5-0.4c0-0.3,0.2-0.5,0.5-0.5
				C120.2,44.4,120.4,44.5,120.4,44.8z M119.5,45.9c0.1,0,0.2-0.1,0.4-0.1c0.2,0,0.3,0,0.4,0.1v3c-0.1,0-0.2,0.1-0.4,0.1
				c-0.2,0-0.3,0-0.4-0.1V45.9z"/>
		</defs>
		<clipPath id="SVGID_196_">
			<use xlink:href="#SVGID_195_"  style="overflow:visible;"/>
		</clipPath>
		<g class="st97">
			<defs>
				<rect id="SVGID_197_" x="-170" y="-20" width="1440" height="1680"/>
			</defs>
			<clipPath id="SVGID_198_">
				<use xlink:href="#SVGID_197_"  style="overflow:visible;"/>
			</clipPath>
			<rect x="114.4" y="39.4" class="st98" width="11" height="14.6"/>
		</g>
	</g>
	<g>
		<defs>
			<path id="SVGID_199_" d="M123.9,47.3c0,1.1-0.6,1.7-1.5,1.7c-1,0-1.5-0.6-1.5-1.7c0-1,0.6-1.6,1.5-1.6
				C123.4,45.7,123.9,46.3,123.9,47.3z M122.5,48.4c0.5,0,0.7-0.4,0.7-1.1c0-0.6-0.3-1-0.7-1c-0.5,0-0.8,0.4-0.8,1
				C121.7,48,122,48.4,122.5,48.4z M122.3,45.4c-0.2,0-0.3-0.2-0.4-0.3l0.7-1c0.2,0,0.5,0.1,0.6,0.2L122.3,45.4z"/>
		</defs>
		<clipPath id="SVGID_200_">
			<use xlink:href="#SVGID_199_"  style="overflow:visible;"/>
		</clipPath>
		<g class="st99">
			<defs>
				<rect id="SVGID_201_" x="-170" y="-20" width="1440" height="1680"/>
			</defs>
			<clipPath id="SVGID_202_">
				<use xlink:href="#SVGID_201_"  style="overflow:visible;"/>
			</clipPath>
			<rect x="116" y="39.2" class="st100" width="13" height="14.9"/>
		</g>
	</g>
	<g>
		<defs>
			<path id="SVGID_203_" d="M125.4,48.9c-0.1,0-0.2,0.1-0.4,0.1c-0.2,0-0.3,0-0.4-0.1v-3c0.1-0.1,0.3-0.1,0.6-0.1l0,0.5h0
				c0.1-0.3,0.5-0.6,1-0.6c0.5,0,1,0.2,1,1.2v2c-0.1,0-0.2,0.1-0.4,0.1c-0.2,0-0.3,0-0.4-0.1V47c0-0.4-0.1-0.7-0.6-0.7
				c-0.4,0-0.6,0.2-0.7,0.4V48.9z"/>
		</defs>
		<clipPath id="SVGID_204_">
			<use xlink:href="#SVGID_203_"  style="overflow:visible;"/>
		</clipPath>
		<g class="st101">
			<defs>
				<rect id="SVGID_205_" x="-170" y="-20" width="1440" height="1680"/>
			</defs>
			<clipPath id="SVGID_206_">
				<use xlink:href="#SVGID_205_"  style="overflow:visible;"/>
			</clipPath>
			<rect x="119.7" y="40.7" class="st102" width="12.7" height="13.2"/>
		</g>
	</g>
	<g>
		<defs>
			<path id="SVGID_207_" d="M86.5,45.8c0,0.1,0,0.2,0,0.3c0,0.1,0,0.2,0,0.3h-0.9v1.4c0,0.3,0.1,0.5,0.4,0.5c0.2,0,0.4-0.1,0.6-0.2
				c0,0.2,0,0.5-0.2,0.7c-0.2,0.1-0.4,0.2-0.7,0.2c-0.7,0-0.9-0.4-0.9-1v-1.5h-0.5c0-0.2,0-0.5,0.1-0.6h0.4v-0.7
				c0.2-0.1,0.4-0.2,0.7-0.2v0.9H86.5z"/>
		</defs>
		<clipPath id="SVGID_208_">
			<use xlink:href="#SVGID_207_"  style="overflow:visible;"/>
		</clipPath>
		<g class="st103">
			<defs>
				<rect id="SVGID_209_" x="-170" y="-20" width="1440" height="1680"/>
			</defs>
			<clipPath id="SVGID_210_">
				<use xlink:href="#SVGID_209_"  style="overflow:visible;"/>
			</clipPath>
			<rect x="79.5" y="39.9" class="st104" width="12.2" height="14"/>
		</g>
	</g>
</g>
</svg>
